<?xml version="1.0" standalone="no"?><!DOCTYPE svg PUBLIC "-//W3C//DTD SVG 1.1//EN" "http://www.w3.org/Graphics/SVG/1.1/DTD/svg11.dtd"><svg t="1656319062045" class="icon" viewBox="0 0 1024 1024" version="1.1" xmlns="http://www.w3.org/2000/svg" p-id="4193" xmlns:xlink="http://www.w3.org/1999/xlink" width="200" height="200"><defs></defs><path d="M512 512a224 224 0 1 0 0-448 224 224 0 0 0 0 448z m0-64a160 160 0 1 1 0-320 160 160 0 0 1 0 320z" fill="#ffffff" p-id="4194"></path><path d="M448 320h128a64 64 0 1 1-128 0z" fill="#ffffff" p-id="4195"></path><path d="M304 576h416c114.88 0 208 85.952 208 192s-93.12 192-208 192h-416C189.12 960 96 874.048 96 768s93.12-192 208-192z m-3.2 64C223.04 640 160 697.28 160 768s63.04 128 140.8 128h422.4c77.76 0 140.8-57.28 140.8-128s-63.04-128-140.8-128H300.8z" fill="#ffffff" p-id="4196"></path></svg>