<?xml version="1.0" encoding="UTF-8"?>
<svg width="27px" height="28px" viewBox="0 0 27 28" version="1.1" xmlns="http://www.w3.org/2000/svg" xmlns:xlink="http://www.w3.org/1999/xlink">
    <title>线性榜单</title>
    <defs>
        <path d="M5.20176031,9.4 L9.05176031,9.4 L9.05176031,9.4 L9.05176031,20.2 L5.20176031,20.2 C4.09719081,20.2 3.20176031,19.3045695 3.20176031,18.2 L3.20176031,11.4 C3.20176031,10.2954305 4.09719081,9.4 5.20176031,9.4 Z" id="path-1"></path>
        <filter x="-42.7%" y="-23.1%" width="185.5%" height="146.3%" filterUnits="objectBoundingBox" id="filter-2">
            <feOffset dx="3" dy="0" in="SourceAlpha" result="shadowOffsetInner1"></feOffset>
            <feComposite in="shadowOffsetInner1" in2="SourceAlpha" operator="arithmetic" k2="-1" k3="1" result="shadowInnerInner1"></feComposite>
            <feColorMatrix values="0 0 0 0 0.909803922   0 0 0 0 0.945098039   0 0 0 0 0.996078431  0 0 0 1 0" type="matrix" in="shadowInnerInner1"></feColorMatrix>
        </filter>
    </defs>
    <g id="页面-1" stroke="none" stroke-width="1" fill="none" fill-rule="evenodd">
        <g id="电商icon" transform="translate(-116.000000, -338.000000)">
            <g id="线性榜单" transform="translate(116.000000, 338.000000)">
                <g id="编组" transform="translate(3.000000, 4.000000)">
                    <rect id="矩形" x="0" y="0" width="24" height="24"></rect>
                    <g id="矩形" stroke-linecap="round" stroke-linejoin="round">
                        <use fill="black" fill-opacity="1" filter="url(#filter-2)" xlink:href="#path-1"></use>
                        <use stroke="#2A83FC" stroke-width="2" xlink:href="#path-1"></use>
                    </g>
                    <path d="M14.9017603,13 L18.7517603,13 C19.8563298,13 20.7517603,13.8954305 20.7517603,15 L20.7517603,18.2 C20.7517603,19.3045695 19.8563298,20.2 18.7517603,20.2 L14.9017603,20.2 L14.9017603,20.2 L14.9017603,13 Z" id="矩形" stroke="#2AD2FC" stroke-width="2" stroke-linecap="round" stroke-linejoin="round"></path>
                    <path d="M11.0517603,4 L12.9017603,4 C14.0063298,4 14.9017603,4.8954305 14.9017603,6 L14.9017603,20.2 L14.9017603,20.2 L9.05176031,20.2 L9.05176031,6 C9.05176031,4.8954305 9.94719081,4 11.0517603,4 Z" id="矩形" stroke="#2A83FC" stroke-width="2" stroke-linejoin="round"></path>
                </g>
                <path d="M1,7 C1.55228475,7 2,7.44771525 2,8 C2,8.55228475 1.55228475,9 1,9 C0.44771525,9 0,8.55228475 0,8 C0,7.44771525 0.44771525,7 1,7 Z M26,0 C26.5522847,0 27,0.44771525 27,1 C27,1.55228475 26.5522847,2 26,2 C25.4477153,2 25,1.55228475 25,1 C25,0.44771525 25.4477153,0 26,0 Z" id="形状结合" fill="#2A83FC"></path>
                <circle id="椭圆形备份-5" fill="#2AD2FC" cx="2" cy="4" r="1"></circle>
            </g>
        </g>
    </g>
</svg>