<?xml version="1.0" encoding="utf-8"?>
<!-- Generator: Adobe Illustrator 24.1.2, SVG Export Plug-In . SVG Version: 6.00 Build 0)  -->
<svg version="1.1" id="图层_1" xmlns="http://www.w3.org/2000/svg" xmlns:xlink="http://www.w3.org/1999/xlink" x="0px" y="0px"
	 viewBox="0 0 1024 1024" style="enable-background:new 0 0 1024 1024;" xml:space="preserve">
<style type="text/css">
	.st0{fill:url(#SVGID_1_);}
	.st1{fill:url(#SVGID_2_);}
</style>
<g>
	<g>
		<linearGradient id="SVGID_1_" gradientUnits="userSpaceOnUse" x1="758.0991" y1="665.1044" x2="265.9084" y2="172.9137">
			<stop  offset="0" style="stop-color:#0056F7"/>
			<stop  offset="0.1657" style="stop-color:#0260F7"/>
			<stop  offset="0.447" style="stop-color:#067BF7"/>
			<stop  offset="0.8075" style="stop-color:#0DA6F7"/>
			<stop  offset="1" style="stop-color:#11C0F7"/>
		</linearGradient>
		<path class="st0" d="M510.4,862.1c-32.1-0.3-61-12-79.3-32c-43.5-47.8-106.2-120.9-158.3-198.3c-62.9-93.5-94.8-171.1-94.8-230.7
			c0-45.4,8.8-89.5,26.2-131.1c16.8-40.2,40.9-76.2,71.6-107.1c30.5-30.9,66.2-55.2,106.1-72.2C423.2,73.2,467,64.3,512,64.3
			c45,0,88.8,8.9,130.1,26.5c39.8,17,75.5,41.3,106.1,72.3c30.6,30.8,54.6,66.9,71.4,107.1c17.4,41.5,26.2,85.6,26.2,131.1
			c0,68.8-55.5,148-109.2,224.5c-3.2,4.6-6.2,8.8-9.2,13.1l-6.8,9.9l-0.6,1c-3.1,5.2-56.5-3.1-53.4-32.1l0.9-1.5
			c1.4-2.4,2.9-4.6,4.4-6.8l13.5-19.2c48.2-68.8,98.1-140,98.1-189c0-73.5-28.3-142.5-79.7-194.4C652.7,155,584.5,126.5,512,126.5
			c-72.5,0-140.7,28.5-191.9,80.3c-51.4,51.9-79.7,121-79.7,194.4c0,80.4,86.3,221.4,236.7,386.8c6.7,7.3,19.4,11.7,33.8,11.8
			c15.2,0,29.3-4.8,36.9-12.6c3.9-4.3,9.3-10.2,15.7-17c8.7-9.4,17.4-18.8,25.8-28.2c3.1-3.3,4.1-9.1,3-17.4
			c-1.3-10.2-5.7-20.1-12.6-28.6C478.8,573.1,425.2,508.3,415.8,498c-23.1-25.4-35.8-58.5-35.8-93.2c0-75.1,59.3-136.2,132.1-136.2
			c72.8,0,132.1,61.1,132.1,136.2c0,55.2-31.9,104.5-81.2,125.7c-3.9,1.7-8.1,2.6-12.3,2.6c-12.4,0-23.7-7.4-28.6-18.8
			c-3.3-7.6-3.4-16.1-0.4-23.8c3.1-7.8,9-13.8,16.6-17.1c26.4-11.5,43.5-38.4,43.5-68.5c0-40.7-31.3-73.9-69.8-73.9
			s-69.8,33.1-69.8,73.9c0,19.3,6.9,37.5,19.5,51.3c16.6,18.1,131.3,158.3,166.1,200.8c14.4,17.5,23.4,38.3,26.2,60.1
			c3.5,26.7-3,49.9-18.7,67.2l-26.1,28.5l-15.8,17.1c-19.7,20.6-49.5,32.3-81.9,32.3H510.4z"/>
		<linearGradient id="SVGID_2_" gradientUnits="userSpaceOnUse" x1="718.9343" y1="1004.299" x2="305.1041" y2="590.4688">
			<stop  offset="0" style="stop-color:#0056F7"/>
			<stop  offset="0.1657" style="stop-color:#0260F7"/>
			<stop  offset="0.447" style="stop-color:#067BF7"/>
			<stop  offset="0.8075" style="stop-color:#0DA6F7"/>
			<stop  offset="1" style="stop-color:#11C0F7"/>
		</linearGradient>
		<path class="st1" d="M512,958.3c-96.2,0-187-14.2-255.7-40c-35.3-13.3-63.6-29.1-83.9-47.1c-17.2-15.3-37.7-40.6-37.7-73.8
			c0-25.1,11.2-48.5,33.1-69.7c18-17.2,43-32.6,74.3-45.7c3.8-1.6,7.8-2.4,12-2.4c12.6,0,23.9,7.5,28.8,19.2
			c3.2,7.7,3.2,16.1,0.1,23.8c-3.2,7.7-9.1,13.7-16.8,16.9c-42.7,17.9-69.2,40.1-69.2,57.9c0,8.2,5.6,17.4,16.7,27.2
			c14.3,12.7,36.6,24.9,64.5,35.4c62,23.3,145,36,233.7,36s171.7-12.8,233.8-36.1c27.7-10.3,50-22.6,64.5-35.4
			c11.1-9.8,16.7-19,16.7-27.2c0-17.3-27.7-40.5-68.8-57.7c-7.7-3.2-13.7-9.2-16.8-17c-3.1-7.7-3.1-16.2,0.2-23.8
			c4.8-11.6,16.1-19.1,28.7-19.1c4.2,0,8.3,0.8,12.1,2.5c31.2,13.1,56.1,28.4,74,45.7c21.9,21.2,33,44.5,33,69.5
			c0,33.6-20.5,58.7-37.7,73.8c-20.2,17.9-48.4,33.8-83.8,47.1C698.6,944.1,607.8,958.3,512,958.3z"/>
	</g>
</g>
</svg>
