<svg xmlns="http://www.w3.org/2000/svg" width="50" height="50" viewBox="0 0 50 50"><defs><style>.a{fill:none;}.b{fill:#fff;}.c{fill:#ffb300;}</style></defs><g transform="translate(-236 -380)"><rect class="a" width="50" height="50" transform="translate(236 380)"/><g transform="translate(244 389)"><g transform="translate(0 0)"><path class="b" d="M28,39.645a4.918,4.918,0,0,1,4.911,4.911v11.58A4.917,4.917,0,0,1,28,61.046H6.746a4.915,4.915,0,0,1-4.911-4.909V44.556a4.917,4.917,0,0,1,4.911-4.911H28m0-1.835H6.746A6.746,6.746,0,0,0,0,44.556v11.58a6.744,6.744,0,0,0,6.746,6.744H28a6.744,6.744,0,0,0,6.746-6.744V44.556A6.746,6.746,0,0,0,28,37.81Z" transform="translate(0 -30.871)"/><path class="b" d="M43.5,1.835a1.888,1.888,0,0,1,1.23.457L50.059,6.9H36.937l5.341-4.61a1.887,1.887,0,0,1,1.22-.457M43.5,0A3.7,3.7,0,0,0,41.07.9L32,8.738H54.988L45.928.9A3.7,3.7,0,0,0,43.5,0Z" transform="translate(-26.127 0)"/><path class="c" d="M47.233,97.44a1.593,1.593,0,1,0,1.593,1.593A1.593,1.593,0,0,0,47.233,97.44Z" transform="translate(-37.264 -79.557)"/><path class="c" d="M87.563,97.44a1.593,1.593,0,1,0,1.593,1.593,1.593,1.593,0,0,0-1.593-1.593Z" transform="translate(-70.192 -79.557)"/><path class="c" d="M127.913,97.44a1.591,1.591,0,1,0,1.127.466A1.593,1.593,0,0,0,127.913,97.44Z" transform="translate(-103.137 -79.557)"/></g></g></g></svg>