<svg xmlns="http://www.w3.org/2000/svg" width="50" height="50" viewBox="0 0 50 50"><defs><style>.a{fill:none;}.b{fill:#ffb300;}.c{fill:#fff;}</style></defs><g transform="translate(-64 -111)"><rect class="a" width="50" height="50" transform="translate(64 111)"/><g transform="translate(70 117)"><circle class="b" cx="2.719" cy="2.719" r="2.719" transform="translate(6.03 15.106)"/><circle class="b" cx="2.719" cy="2.719" r="2.719" transform="translate(16.781 15.106)"/><circle class="b" cx="2.719" cy="2.719" r="2.719" transform="translate(27.531 15.106)"/><path class="c" d="M19.5,2.023A17.709,17.709,0,0,1,31.82,6.894a16.3,16.3,0,0,1,5.091,11.862,13.217,13.217,0,0,1-3.656,9.45A19.308,19.308,0,0,1,23.7,33.313a6.681,6.681,0,0,0-3.208,2.441c-.278.314-.694.78-1,1.062-.309-.281-.718-.747-.993-1.059a6.662,6.662,0,0,0-3.2-2.441A19.315,19.315,0,0,1,5.735,28.21a13.231,13.231,0,0,1-3.66-9.455,16.305,16.305,0,0,1,5.1-11.862,17.709,17.709,0,0,1,12.32-4.871m0-2.023C8.73,0,0,8.295,0,18.756c0,8.89,6.3,14.483,14.8,16.519,1.5.361,3.077,3.725,4.7,3.725s3.2-3.371,4.711-3.729C32.7,33.223,39,27.636,39,18.752,39,8.295,30.269,0,19.5,0Z"/></g></g></svg>