<svg width="18" height="18" viewBox="0 0 18 18" fill="none" xmlns="http://www.w3.org/2000/svg">
<path d="M9 18C13.9706 18 18 13.9706 18 9C18 4.02944 13.9706 0 9 0C4.02944 0 0 4.02944 0 9C0 13.9706 4.02944 18 9 18Z" fill="#F0F0F0"/>
<path d="M9.00149 0C5.43334 0 2.35028 2.0765 0.894531 5.08697H17.1084C15.6527 2.0765 12.5696 0 9.00149 0Z" fill="#FF9811"/>
<path d="M9.00149 18.0001C12.5696 18.0001 15.6527 15.9236 17.1085 12.9131H0.894531C2.35028 15.9236 5.43334 18.0001 9.00149 18.0001Z" fill="#6DA544"/>
<path d="M8.99956 12.1305C10.7284 12.1305 12.13 10.7289 12.13 9.00005C12.13 7.27116 10.7284 5.86963 8.99956 5.86963C7.27068 5.86963 5.86914 7.27116 5.86914 9.00005C5.86914 10.7289 7.27068 12.1305 8.99956 12.1305Z" fill="#0052B4"/>
<path d="M8.99948 10.9565C10.08 10.9565 10.956 10.0805 10.956 8.99997C10.956 7.91942 10.08 7.04346 8.99948 7.04346C7.91893 7.04346 7.04297 7.91942 7.04297 8.99997C7.04297 10.0805 7.91893 10.9565 8.99948 10.9565Z" fill="#F0F0F0"/>
<path d="M9.001 6.58569L9.6046 7.95461L11.0919 7.79285L10.2082 9.00001L11.0919 10.2072L9.6046 10.0454L9.001 11.4143L8.39741 10.0454L6.91016 10.2071L7.79384 9.00001L6.91016 7.79285L8.39741 7.95461L9.001 6.58569Z" fill="#0052B4"/>
</svg>
