<?xml version="1.0" standalone="no"?><!DOCTYPE svg PUBLIC "-//W3C//DTD SVG 1.1//EN" "http://www.w3.org/Graphics/SVG/1.1/DTD/svg11.dtd"><svg t="1647004866106" class="icon" viewBox="0 0 1045 1024" version="1.1" xmlns="http://www.w3.org/2000/svg" p-id="29643" xmlns:xlink="http://www.w3.org/1999/xlink" width="204.1015625" height="200"><defs><style type="text/css"></style></defs><path d="M0.021333 512a512 512 0 1 0 1024 0 512 512 0 0 0-1024 0z" fill="#E30A17" p-id="29644"></path><path d="M692.053333 359.168a230.656 230.656 0 0 0-172.224-77.333333c-40.554667 0-80.384 10.709333-115.477333 31.018666a231.68 231.68 0 0 0-115.456 200.618667c0 82.752 44.010667 159.232 115.456 200.618667a230.357333 230.357333 0 0 0 287.68-46.250667c-49.706667 74.517333-134.4 123.584-230.528 123.584-153.088 0-277.162667-124.437333-277.162667-277.952S308.416 235.52 461.504 235.52c96.149333 0 180.842667 49.088 230.549333 123.648z m182.72 225.024l-75.349333-29.226667-51.050667 65.813334 4.864-82.901334-77.781333-29.226666 80.213333-21.973334 2.453334-80.426666 46.165333 68.245333 77.781333-21.952-51.029333 63.381333 43.733333 68.266667z" fill="#FFFFFF" p-id="29645"></path></svg>