<svg xmlns="http://www.w3.org/2000/svg" width="50" height="50" viewBox="0 0 50 50"><defs><style>.a,.d{fill:none;}.b{fill:#ffb300;}.c{fill:#fff;}.d{stroke:#fff;stroke-linecap:round;stroke-miterlimit:10;stroke-width:2px;}</style></defs><g transform="translate(-439 -196)"><rect class="a" width="50" height="50" transform="translate(439 196)"/><g transform="translate(445 202)"><g transform="translate(0 0)"><path class="b" d="M11.643,6H35.626a5.643,5.643,0,0,1,5.643,5.643V35.626a5.643,5.643,0,0,1-5.643,5.643H11.641A5.641,5.641,0,0,1,6,35.626V11.643A5.643,5.643,0,0,1,11.643,6Z" transform="translate(-4.844 -4.844)"/><path class="c" d="M30.781,2.311A4.491,4.491,0,0,1,35.267,6.8V30.781a4.491,4.491,0,0,1-4.486,4.486H6.8a4.491,4.491,0,0,1-4.488-4.486V6.8A4.491,4.491,0,0,1,6.8,2.311H30.781m0-2.311H6.8A6.8,6.8,0,0,0,0,6.8V30.781a6.8,6.8,0,0,0,6.8,6.8H30.781a6.8,6.8,0,0,0,6.8-6.8V6.8a6.8,6.8,0,0,0-6.8-6.8Z" transform="translate(0 0)"/><line class="d" x2="6.762" y2="6.984" transform="translate(11.951 21.618)"/><line class="d" x1="6.762" y2="6.984" transform="translate(18.865 21.618)"/><line class="d" y1="17.188" transform="translate(18.79 8.979)"/></g></g></g></svg>