<?xml version="1.0" encoding="utf-8"?>
<!-- Generator: Adobe Illustrator 22.0.0, SVG Export Plug-In . SVG Version: 6.00 Build 0)  -->
<svg version="1.1" id="图层_1" xmlns="http://www.w3.org/2000/svg" xmlns:xlink="http://www.w3.org/1999/xlink" x="0px" y="0px"
	 viewBox="0 0 1024 1024" style="enable-background:new 0 0 1024 1024;" xml:space="preserve">
<style type="text/css">
	.st0{opacity:0.15;fill:#47A3FF;enable-background:new    ;}
	.st1{fill:#47A3FF;}
	.st2{fill:#FFFFFF;}
</style>
<circle class="st0" cx="512" cy="526.5" r="448"/>
<path class="st1" d="M758,445.6H260.6V377c0-19.3,15.6-34.9,34.9-34.9h427.6c19.3,0,34.9,15.6,34.9,34.9V445.6z"/>
<path class="st1" d="M260.6,466H758v192.2c0,19.3-15.6,34.9-34.9,34.9H295.5c-19.3,0-34.9-15.6-34.9-34.9V466z"/>
<path class="st2" d="M466.7,532.5h-138c-5.5,0-10-4.5-10-10l0,0c0-5.5,4.5-10,10-10h138c5.5,0,10,4.5,10,10l0,0
	C476.7,528,472.2,532.5,466.7,532.5z"/>
<path class="st2" d="M614.7,586h-286c-5.5,0-10-4.5-10-10l0,0c0-5.5,4.5-10,10-10h286c5.5,0,10,4.5,10,10l0,0
	C624.7,581.5,620.2,586,614.7,586z"/>
<rect x="599.9" y="630.5" class="st2" width="21" height="21"/>
<rect x="636.2" y="630.5" class="st2" width="21" height="21"/>
<rect x="674.4" y="630.5" class="st2" width="21" height="21"/>
</svg>
