<?xml version="1.0" encoding="utf-8"?>
<!-- Generator: Adobe Illustrator 22.0.0, SVG Export Plug-In . SVG Version: 6.00 Build 0)  -->
<svg version="1.1" id="图层_1" xmlns="http://www.w3.org/2000/svg" xmlns:xlink="http://www.w3.org/1999/xlink" x="0px" y="0px"
	 viewBox="0 0 1024 1024" style="enable-background:new 0 0 1024 1024;" xml:space="preserve">
<style type="text/css">
	.st0{opacity:0.15;fill:#47A3FF;enable-background:new    ;}
	.st1{fill:#47A3FF;}
	.st2{fill:#FFFFFF;}
</style>
<circle class="st0" cx="512" cy="526.5" r="448"/>
<path class="st1" d="M709.2,395.1c0,0,0.7-17.6-19.4-22.3c0,0-91.5,16.6-168.5-56.9c0,0-7.8-6.3-17.1-6.9l0-0.1c-0.2,0-0.4,0-0.6,0
	c-0.2,0-0.4,0-0.6,0l0,0.1c-9.3,0.6-17.1,6.9-17.1,6.9c-77.1,73.5-168.5,56.9-168.5,56.9c-20.2,4.8-19.4,22.3-19.4,22.3
	c-31,393.7,196.5,397.2,205.7,397.2C512.7,792.3,740.2,788.8,709.2,395.1z"/>
<path class="st2" d="M481.8,612.3L481.8,612.3c-4.1,3.6-10.5,3.2-14.1-0.9l-64.9-73.7c-3.6-4.1-3.2-10.5,0.9-14.1l0,0
	c4.1-3.6,10.5-3.2,14.1,0.9l64.9,73.7C486.3,602.3,485.9,608.6,481.8,612.3z"/>
<path class="st2" d="M467.7,611.4L467.7,611.4c-3.6-4.1-3.2-10.5,0.9-14.1L610,472.6c4.1-3.6,10.5-3.2,14.1,0.9l0,0
	c3.6,4.1,3.2,10.5-0.9,14.1L481.8,612.3C477.7,615.9,471.3,615.5,467.7,611.4z"/>
</svg>
