<?xml version="1.0" encoding="utf-8"?>
<!-- Generator: Adobe Illustrator 22.0.0, SVG Export Plug-In . SVG Version: 6.00 Build 0)  -->
<svg version="1.1" id="图层_1" xmlns="http://www.w3.org/2000/svg" xmlns:xlink="http://www.w3.org/1999/xlink" x="0px" y="0px"
	 viewBox="0 0 1024 1024" style="enable-background:new 0 0 1024 1024;" xml:space="preserve">
<style type="text/css">
	.st0{opacity:0.15;fill:#47A3FF;enable-background:new    ;}
	.st1{fill:#47A3FF;}
	.st2{fill:#FFFFFF;}
	.st3{fill:#FFFFFF;enable-background:new    ;}
</style>
<circle class="st0" cx="512" cy="526.5" r="448"/>
<path class="st1" d="M723,602H313c-14.7,0-26.7-12-26.7-26.7V416.8c0-14.7,12-26.7,26.7-26.7h410c14.7,0,26.7,12,26.7,26.7v158.4
	C749.7,590,737.7,602,723,602z"/>
<path class="st1" d="M687.4,390.1H348.5V282.9c0-14.7,12-26.7,26.7-26.7h285.4c14.7,0,26.7,12,26.7,26.7V390.1z"/>
<path class="st1" d="M678.6,739H357.4V582h321.1V739z M377.4,719h281.1V602H377.4V719z"/>
<circle class="st2" cx="679" cy="457" r="27"/>
<path class="st3" d="M467.5,559.8h-104c-5.5,0-10-4.5-10-10l0,0c0-5.5,4.5-10,10-10h104c5.5,0,10,4.5,10,10l0,0
	C477.5,555.3,473,559.8,467.5,559.8z"/>
</svg>
