<svg xmlns="http://www.w3.org/2000/svg" width="45" height="20" viewBox="0 0 45 20"><defs><style>.a{fill:none;}.b{fill:#fff;}</style></defs><g transform="translate(-648 -681)"><rect class="a" width="45" height="20" transform="translate(648 681)"/><g transform="translate(523.645 427)"><path class="b" d="M146.428,257.3c6.08.021,11.615,2.543,14.267,6.5a.053.053,0,0,1,0,.052c-2.66,3.956-8.212,6.462-14.29,6.451s-11.612-2.537-14.245-6.5a.053.053,0,0,1,0-.052c2.673-3.94,8.2-6.44,14.267-6.451m0-1.3c-6.768,0-12.94,2.8-15.884,7.212a1.024,1.024,0,0,0,0,1.184c2.947,4.409,9.118,7.21,15.884,7.21s12.938-2.8,15.884-7.21a1.024,1.024,0,0,0,0-1.184C159.368,258.8,153.2,256,146.428,256Z" transform="translate(0 0)"/><path class="b" d="M388.751,385.607a3.214,3.214,0,1,1-3.167,3.213,3.19,3.19,0,0,1,3.167-3.213m0-1.607a4.82,4.82,0,1,0,4.751,4.82A4.786,4.786,0,0,0,388.751,384Z" transform="translate(-242.323 -125.016)"/></g></g></svg>