<?xml version="1.0" encoding="utf-8"?>
<!-- Generator: Adobe Illustrator 22.0.0, SVG Export Plug-In . SVG Version: 6.00 Build 0)  -->
<svg version="1.1" id="图层_1" xmlns="http://www.w3.org/2000/svg" xmlns:xlink="http://www.w3.org/1999/xlink" x="0px" y="0px"
	 viewBox="0 0 1024 1024" style="enable-background:new 0 0 1024 1024;" xml:space="preserve">
<style type="text/css">
	.st0{opacity:0.15;fill:#47A3FF;enable-background:new    ;}
	.st1{fill:#47A3FF;}
	.st2{fill:#FFFFFF;}
</style>
<circle class="st0" cx="512" cy="526.5" r="448"/>
<circle class="st1" cx="499.3" cy="364.7" r="136.7"/>
<path class="st1" d="M572.5,797H423.5c-12.8,0-23.2-10.4-23.2-23.2V648.6c0-12.8,10.4-23.2,23.2-23.2h149.1
	c12.8,0,23.2,10.4,23.2,23.2v125.2C595.7,786.6,585.3,797,572.5,797z"/>
<path class="st1" d="M712.1,681.3C695,579.2,606.2,501.4,499.3,501.4s-195.7,77.8-212.8,179.9c-2.6,15.7,9.4,29.9,25.3,29.9H371
	v-90.8c0-11.4,9.2-20.7,20.7-20.7h212.7c11.4,0,20.7,9.2,20.7,20.7v90.8h61.8C702.7,711.2,714.7,696.9,712.1,681.3z"/>
<path class="st2" d="M497.6,755.8L497.6,755.8c-5.5,0-10-4.5-10-10v-68c0-5.5,4.5-10,10-10h0c5.5,0,10,4.5,10,10v68
	C507.6,751.3,503.1,755.8,497.6,755.8z"/>
</svg>
