<?xml version="1.0" standalone="no"?><!DOCTYPE svg PUBLIC "-//W3C//DTD SVG 1.1//EN" "http://www.w3.org/Graphics/SVG/1.1/DTD/svg11.dtd"><svg t="1656318915753" class="icon" viewBox="0 0 1024 1024" version="1.1" xmlns="http://www.w3.org/2000/svg" p-id="1501" xmlns:xlink="http://www.w3.org/1999/xlink" width="200" height="200"><defs></defs><path d="M511.198384 637.07798c-17.170101 0-31.08202 13.911919-31.08202 31.08202v124.302222c0 17.157172 13.924848 31.08202 31.08202 31.08202s31.069091-13.924848 31.069091-31.08202v-124.302222c0-17.170101-13.911919-31.08202-31.069091-31.08202z m0 0" p-id="1502" fill="#ffffff"></path><path d="M759.815758 513.331717V264.145455C759.815758 126.823434 648.520404 15.515152 511.198384 15.515152c-137.309091 0-248.630303 111.308283-248.630303 248.630303v249.186262C223.702626 565.20404 200.40404 629.423838 200.40404 699.229091c0 171.649293 139.145051 310.794343 310.794344 310.794343s310.794343-139.145051 310.794343-310.794343c0-69.805253-23.311515-134.025051-62.176969-185.897374zM324.719192 264.145455c0-102.994747 83.497374-186.479192 186.479192-186.479192 102.981818 0 186.466263 83.484444 186.466262 186.479192v186.88c-51.975758-39.111111-116.402424-62.577778-186.466262-62.577778s-134.490505 23.453737-186.479192 62.577778V264.145455z m186.479192 683.726868c-137.309091 0-248.630303-111.321212-248.630303-248.643232 0-137.309091 111.308283-248.617374 248.630303-248.617374 132.628687 0 248.617374 115.988687 248.617374 248.617374 0 137.32202-111.295354 248.643232-248.617374 248.643232z m0 0" p-id="1503" fill="#ffffff"></path></svg>