<?xml version="1.0" encoding="UTF-8"?>
<svg width="24px" height="24px" viewBox="0 0 24 24" version="1.1" xmlns="http://www.w3.org/2000/svg" xmlns:xlink="http://www.w3.org/1999/xlink">
    <title>退格</title>
    <g id="页面-1" stroke="none" stroke-width="1" fill="none" fill-rule="evenodd">
        <g id="订单-弹窗" transform="translate(-300.000000, -776.000000)" fill-rule="nonzero">
            <g id="编组-8" transform="translate(250.000000, 765.000000)">
                <g id="退格" transform="translate(50.000000, 11.000000)">
                    <rect id="矩形" fill="#000000" opacity="0" x="0.0479041916" y="0" width="23.9520958" height="24"></rect>
                    <path d="M22.7065868,4.632 C23.0738523,4.632 23.3772455,4.752 23.6167665,4.992 C23.8562874,5.232 23.9760479,5.52 23.9760479,5.856 L23.9760479,18.24 C23.9760479,18.576 23.8562874,18.864 23.6167665,19.104 C23.3772455,19.344 23.0738523,19.464 22.7065868,19.464 L7.37724551,19.464 L7.35329341,19.464 L7.30538922,19.464 C7.2255489,19.464 7.10978044,19.448 6.95808383,19.416 C6.80638723,19.384 6.69061876,19.336 6.61077844,19.272 L6.58682635,19.248 L6.56287425,19.224 L0.431137725,13.2 L0.431137725,13.176 C0.143712575,12.936 0,12.56 0,12.048 C0,11.808 0.0359281437,11.592 0.107784431,11.4 C0.179640719,11.208 0.279441118,11.048 0.407185629,10.92 L6.53892216,4.92 C6.57085828,4.888 6.6506986,4.84 6.77844311,4.776 C6.93812375,4.68 7.13772455,4.632 7.37724551,4.632 L22.7065868,4.632 L22.7065868,4.632 Z M19.5688623,15.432 C19.7125749,15.208 19.7365269,15.008 19.6407186,14.832 C19.5449102,14.656 19.3852295,14.456 19.1616766,14.232 C18.8902196,13.96 18.5189621,13.608 18.0479042,13.176 C17.5768463,12.744 17.0698603,12.28 16.5269461,11.784 C17.1177645,11.224 17.6606786,10.704 18.1556886,10.224 C18.6506986,9.744 19.0339321,9.368 19.3053892,9.096 C19.497006,8.92 19.5928144,8.716 19.5928144,8.484 C19.5928144,8.252 19.489022,8.048 19.2814371,7.872 C19.249501,7.84 19.2015968,7.796 19.1377246,7.74 C19.0738523,7.684 19.0259481,7.648 18.994012,7.632 C18.7704591,7.488 18.5508982,7.432 18.3353293,7.464 C18.1197605,7.496 17.9241517,7.6 17.748503,7.776 C17.4770459,8.048 17.0938124,8.416 16.5988024,8.88 C16.1037924,9.344 15.5768463,9.84 15.0179641,10.368 C14.5229541,9.904 14.0638723,9.468 13.6407186,9.06 C13.2175649,8.652 12.8702595,8.312 12.5988024,8.04 C12.2954092,7.72 12.0239521,7.536 11.7844311,7.488 C11.5449102,7.44 11.3293413,7.472 11.1377246,7.584 C11.1057884,7.616 11.0299401,7.672 10.9101796,7.752 C10.7904192,7.832 10.7145709,7.888 10.6826347,7.92 C10.4750499,8.096 10.4071856,8.316 10.4790419,8.58 C10.5508982,8.844 10.7864271,9.176 11.1856287,9.576 C11.4411178,9.816 11.7764471,10.132 12.1916168,10.524 C12.6067864,10.916 13.0538922,11.344 13.5329341,11.808 C13.0219561,12.288 12.5508982,12.732 12.1197605,13.14 C11.6886228,13.548 11.3373253,13.888 11.0658683,14.16 C10.8423154,14.368 10.6626747,14.6 10.5269461,14.856 C10.3912176,15.112 10.4031936,15.344 10.5628743,15.552 C10.5948104,15.584 10.6626747,15.648 10.7664671,15.744 C10.8702595,15.84 10.9381238,15.904 10.9700599,15.936 C11.1936128,16.112 11.4451098,16.172 11.7245509,16.116 C12.003992,16.06 12.2794411,15.896 12.5508982,15.624 C12.8223553,15.352 13.1736527,15.004 13.6047904,14.58 C14.0359281,14.156 14.506986,13.704 15.0179641,13.224 C15.5608782,13.736 16.0638723,14.212 16.5269461,14.652 C16.99002,15.092 17.3652695,15.456 17.6526946,15.744 C17.8602794,15.936 18.0998004,16.064 18.3712575,16.128 C18.6427146,16.192 18.8662675,16.16 19.0419162,16.032 L19.1377246,15.936 C19.1377246,15.936 19.1976048,15.868 19.3173653,15.732 C19.4371257,15.596 19.489022,15.532 19.4730539,15.54 C19.4570858,15.548 19.489022,15.512 19.5688623,15.432 Z" id="形状" fill="#999999"></path>
                </g>
            </g>
        </g>
    </g>
</svg>