<?xml version="1.0" encoding="UTF-8"?>
<svg width="25px" height="25px" viewBox="0 0 25 25" version="1.1" xmlns="http://www.w3.org/2000/svg" xmlns:xlink="http://www.w3.org/1999/xlink">
    <title>zhongguo</title>
    <defs>
        <circle id="path-1" cx="12.5" cy="12.5" r="12.5"></circle>
        <polygon id="path-3" points="0.00182643509 0.0243524679 37.3441746 0.0243524679 37.3441746 24.9612491 0.00182643509 24.9612491"></polygon>
    </defs>
    <g id="页面-1" stroke="none" stroke-width="1" fill="none" fill-rule="evenodd">
        <g id="gongneng备份-8" transform="translate(-29.000000, -217.000000)">
            <g id="zhongguo" transform="translate(29.000000, 217.000000)">
                <mask id="mask-2" fill="white">
                    <use xlink:href="#path-1"></use>
                </mask>
                <use id="蒙版" fill="#D8D8D8" xlink:href="#path-1"></use>
                <g mask="url(#mask-2)">
                    <g transform="translate(0.000000, -0.099602)">
                        <g id="编组" stroke-width="1" fill="none" transform="translate(0.000000, 0.597610)">
                            <mask id="mask-4" fill="white">
                                <use xlink:href="#path-3"></use>
                            </mask>
                            <g id="Clip-2"></g>
                            <path d="M0.153146582,24.8081026 L37.1909063,24.8081026 L37.1909063,0.17749905 L0.153146582,0.17749905 L0.153146582,24.8081026 Z M37.3175861,24.9081026 L37.3175861,24.8081026 L37.3175861,24.9081026 Z M0,24.9612491 L37.3441746,24.9612491 L37.3441746,0.0243524679 L0,0.0243524679 L0,24.9612491 Z" id="Fill-1" fill="#353636" mask="url(#mask-4)"></path>
                        </g>
                        <polygon id="Fill-3" fill="#D64B24" points="0.0919305662 25.5836069 37.2828369 25.5836069 37.2828369 0.0855989246 0.0919305662 0.0855989246"></polygon>
                        <path d="M7.30683622,6.48975005 L8.10328369,8.90986786 L10.6460466,8.90986786 L8.59355975,10.3803003 L9.3593231,12.8004486 L7.30683622,11.2994538 L5.25425803,12.8004486 L6.05082725,10.3803003 L3.99821862,8.90986786 L6.54095111,8.90986786 L7.30683622,6.48975005 Z M13.9239801,5.20302652 L13.8934178,6.06084221 L14.6592116,6.36713537 L13.83208,6.58165017 L13.8015176,7.40878174 L13.3419257,6.70414309 L12.5453565,6.88797378 L13.0661949,6.2446729 L12.637287,5.5400038 L13.4031722,5.87701151 L13.9239801,5.20302652 Z M16.7730362,7.92946795 L16.4054966,8.66482116 L16.987551,9.24687558 L16.1604194,9.12438266 L15.7927581,9.85961411 L15.6702651,9.03248254 L14.8430423,8.90986786 L15.578365,8.54232824 L15.4557808,7.71507491 L16.0378352,8.29715977 L16.7730362,7.92946795 Z M15.9152205,11.2994538 L16.1909818,12.0959317 L17.0181134,12.0959317 L16.3441284,12.5860555 L16.5892055,13.3826248 L15.9152205,12.8924705 L15.241266,13.3826248 L15.5169968,12.5860555 L14.8430423,12.0959317 L15.6701738,12.0959317 L15.9152205,11.2994538 Z M13.9239801,13.8727791 L13.8627641,14.6998802 L14.6592116,15.0062038 L13.83208,15.2207186 L13.7708335,16.0478502 L13.3419257,15.3431811 L12.5147941,15.5576959 L13.0661949,14.914395 L12.6067247,14.2097563 L13.4031722,14.5160495 L13.9239801,13.8727791 Z" id="Fill-4" fill="#FBDC00"></path>
                    </g>
                </g>
            </g>
        </g>
    </g>
</svg>