<?xml version="1.0" encoding="UTF-8"?>
<svg width="21px" height="21px" viewBox="0 0 21 21" version="1.1" xmlns="http://www.w3.org/2000/svg" xmlns:xlink="http://www.w3.org/1999/xlink">
    <title>英</title>
    <defs>
        <polygon id="path-1" points="0 0 20 0 20 20.0232978 0 20.0232978"></polygon>
    </defs>
    <g id="页面-1" stroke="none" stroke-width="1" fill="none" fill-rule="evenodd">
        <g id="画板备份-17" transform="translate(-449.000000, -1537.000000)">
            <g id="英" transform="translate(449.818182, 1537.000000)">
                <mask id="mask-2" fill="white">
                    <use xlink:href="#path-1"></use>
                </mask>
                <g id="Clip-2"></g>
                <path d="M0.291980125,7.64276711 C1.24523896,3.70571723 4.48078014,0.733485821 8.48441235,0.116798664 C12.4880751,-0.499735992 16.4678865,1.36136662 18.561585,4.82922918 C20.655253,8.29712224 20.4485519,12.6856997 18.0383205,15.9414932 C15.6279365,19.1972866 11.4908652,20.6760974 7.56287391,19.6860246 C4.99940858,19.0568323 2.79182167,17.4332667 1.42763123,15.1736461 C0.0633492866,12.9139951 -0.345203286,10.2042194 0.291980125,7.64276711" id="Fill-1" fill="#F7F8F8" mask="url(#mask-2)"></path>
                <path d="M19.1563424,6.2811082 L11.4480731,6.2811082 L11.4480731,7.76775766 L19.6435249,7.76775766 C19.5190224,7.26056687 19.3561503,6.7636242 19.1563424,6.2811082 M17.1823883,3.19532389 L11.4480731,3.19532389 L11.4480731,4.71951931 L18.3692801,4.71951931 C18.0237718,4.17432504 17.6263214,3.66390121 17.1823883,3.19532389 M2.76546934,16.937544 L17.1449949,16.937544 C17.6057031,16.4675027 18.0237718,15.9574754 18.3941989,15.4134706 L1.56619445,15.4134706 C1.92863045,15.9635449 2.34730915,16.4743043 2.81552046,16.937544 M12.3350852,0.371903831 C12.0478326,0.296964401 11.7479529,0.234530125 11.4480731,0.184479004 L11.4480731,1.67112846 L15.3584352,1.67112846 C14.4304612,1.08317266 13.407509,0.660467914 12.3350852,0.421924452 M19.8309192,9.34185171 L11.4480731,9.34185171 L11.4480731,10.8660471 L19.8683432,10.8660471 C19.9120502,10.3588563 19.9120502,9.8489205 19.8683432,9.34185171 M0.766627019,13.8642649 L19.131332,13.8642649 C19.33053,13.3956875 19.4893455,12.910762 19.6059789,12.4151309 L19.6059789,12.3401914 L0.266939315,12.3401914 C0.388117319,12.8619309 0.555411896,13.3719582 0.766627019,13.8642649 M7.56287391,19.6860246 C8.13808055,19.8534107 8.72783587,19.9663536 9.32436228,20.0232978 L10.5735663,20.0232978 C12.2397715,19.9238361 13.852723,19.3991381 15.2584855,18.4992549 L4.6144633,18.4992549 C5.52255107,19.073516 6.51857144,19.4955193 7.56287391,19.7484589" id="Fill-3" fill="#E72D14" mask="url(#mask-2)"></path>
                <path d="M10.6860517,10.2537825 L10.4737385,10.1039037 L10.2613034,10.2537825 L10.3362428,10.0039234 L10.1239297,9.85404457 L10.386294,9.85404457 L10.4737385,9.59171081 L10.5611831,9.85404457 L10.8235474,9.85404457 L10.6111123,10.0039234 L10.6860517,10.2537825 Z M9.63665566,2.23337244 L9.71159509,2.53313017 L9.49928195,2.37074615 L9.28684681,2.53313017 L9.36178624,2.27076591 L9.14947311,2.12088705 L9.41183736,2.12088705 L9.49928195,1.85855329 L9.58672654,2.12088705 L9.84909079,2.12088705 L9.63665566,2.23337244 Z M9.63665566,4.53209449 L9.71159509,4.78195359 L9.49928195,4.61953907 L9.28684681,4.78195359 L9.36178624,4.53209449 L9.14947311,4.36971047 L9.41183736,4.36971047 L9.49928195,4.11975987 L9.58672654,4.36971047 L9.84909079,4.36971047 L9.63665566,4.53209449 Z M9.63665566,6.76829075 L9.72410024,7.03062451 L9.49928195,6.86824049 L9.28684681,7.03062451 L9.3742914,6.76829075 L9.14947311,6.61838139 L9.42434252,6.61838139 L9.49928195,6.36855279 L9.58672654,6.61838139 L9.82404998,6.61838139 L9.63665566,6.76829075 Z M9.63665566,9.26691228 L9.42434252,9.11691142 L9.21190738,9.26691228 L9.28684681,9.01708368 L9.11195764,8.77963823 L9.3742914,8.77963823 L9.46173598,8.52977913 L9.53667541,8.77963823 L9.81154483,8.77963823 L9.58672654,8.94202224 L9.63665566,9.26691228 Z M8.61226994,3.34520275 L8.69971452,3.59503135 L8.48727938,3.44515249 L8.26246109,3.59503135 L8.34990568,3.34520275 L8.13747054,3.19532389 L8.3998348,3.19532389 L8.48727938,2.93295963 L8.56221881,3.19532389 L8.83708823,3.19532389 L8.61226994,3.34520275 Z M8.61226994,5.56898536 L8.69971452,5.81884446 L8.48727938,5.6689656 L8.26246109,5.81884446 L8.34990568,5.56898536 L8.13747054,5.40660135 L8.3998348,5.40660135 L8.48727938,5.15677274 L8.56221881,5.40660135 L8.83708823,5.40660135 L8.61226994,5.56898536 Z M8.61226994,7.84269709 L8.69971452,8.0925257 L8.48727938,7.93014168 L8.26246109,8.0925257 L8.34990568,7.84269709 L8.13747054,7.68031308 L8.3998348,7.68031308 L8.48727938,7.43045398 L8.56221881,7.68031308 L8.83708823,7.68031308 L8.61226994,7.84269709 Z M8.69971452,10.2537825 L8.48727938,10.1039037 L8.26246109,10.2537825 L8.34990568,10.0039234 L8.13747054,9.85404457 L8.3998348,9.85404457 L8.48727938,9.59171081 L8.56221881,9.85404457 L8.83708823,9.85404457 L8.61226994,10.0289642 L8.69971452,10.2537825 Z M7.63781334,2.23337244 L7.72525792,2.53313017 L7.51282278,2.37074615 L7.28800449,2.53313017 L7.37544908,2.27076591 L7.16301394,2.12088705 L7.45038851,2.12088705 L7.53783309,1.85855329 L7.61277253,2.12088705 L7.88764194,2.12088705 L7.63781334,2.23337244 Z M7.63781334,4.53209449 L7.72525792,4.78195359 L7.51282278,4.61953907 L7.28800449,4.78195359 L7.37544908,4.53209449 L7.16301394,4.36971047 L7.45038851,4.36971047 L7.53783309,4.11975987 L7.61277253,4.36971047 L7.88764194,4.36971047 L7.63781334,4.53209449 Z M7.63781334,6.76829075 L7.71275277,7.03062451 L7.45038851,6.86824049 L7.23795337,7.03062451 L7.3130148,6.76829075 L7.10057967,6.61838139 L7.45038851,6.61838139 L7.45038851,6.36855279 L7.53783309,6.61838139 L7.80019735,6.61838139 L7.63781334,6.76829075 Z M7.63781334,9.26691228 L7.45038851,9.09202311 L7.22557022,9.24190197 L7.3130148,8.99207337 L7.12562048,8.77963823 L7.45038851,8.77963823 L7.45038851,8.57983025 L7.52532794,8.82965885 L7.7876922,8.82965885 L7.57537906,8.99207337 L7.63781334,9.26691228 Z M6.57588165,1.14643045 L6.66332624,1.40879471 L6.48843706,1.28392616 L6.27600193,1.44631017 L6.36344651,1.18397641 L6.2010625,0.971541277 L6.46342675,0.971541277 L6.53836618,0.721682174 L6.62581077,0.971541277 L6.88814453,0.971541277 L6.57588165,1.14643045 Z M6.57588165,3.37021306 L6.66332624,3.62007216 L6.43850794,3.4701933 L6.22607281,3.62007216 L6.31354789,3.37021306 L6.2010625,3.19532389 L6.46342675,3.19532389 L6.53836618,2.93295963 L6.62581077,3.19532389 L6.88814453,3.19532389 L6.57588165,3.37021306 Z M6.57588165,5.59402617 L6.66332624,5.84385477 L6.43850794,5.69385391 L6.22607281,5.84385477 L6.31354789,5.59402617 L6.2010625,5.40660135 L6.46342675,5.40660135 L6.53836618,5.15677274 L6.62581077,5.40660135 L6.88814453,5.40660135 L6.57588165,5.59402617 Z M6.57588165,7.8677074 L6.66332624,8.11756651 L6.43850794,7.95518249 L6.22607281,8.11756651 L6.31354789,7.8677074 L6.2010625,7.68031308 L6.46342675,7.68031308 L6.53836618,7.43045398 L6.62581077,7.68031308 L6.88814453,7.68031308 L6.57588165,7.8677074 Z M6.66332624,10.2787928 L6.43850794,10.128914 L6.22607281,10.2787928 L6.31354789,10.0289642 L6.2010625,9.85404457 L6.46342675,9.85404457 L6.53836618,9.59171081 L6.62581077,9.85404457 L6.88814453,9.85404457 L6.62581077,10.0289642 L6.66332624,10.2787928 Z M5.65147617,2.15843301 L5.73892076,2.40826162 L5.51398047,2.25838276 L5.30166733,2.40826162 L5.38911191,2.15843301 L5.16417162,1.996049 L5.43904103,1.996049 L5.51398047,1.74606789 L5.60142505,1.996049 L5.86375881,1.996049 L5.65147617,2.15843301 Z M5.65147617,4.4446499 L5.73892076,4.6944785 L5.51398047,4.54459964 L5.30166733,4.6944785 L5.38911191,4.4446499 L5.16417162,4.29464904 L5.43904103,4.29464904 L5.51398047,4.04482044 L5.60142505,4.29464904 L5.86375881,4.29464904 L5.65147617,4.4446499 Z M5.65147617,6.69332082 L5.73892076,6.94317992 L5.52648562,6.79330106 L5.30166733,6.94317992 L5.38911191,6.69332082 L5.15166647,6.53093681 L5.41400022,6.53093681 L5.50147531,6.2811082 L5.57641474,6.53093681 L5.85125365,6.53093681 L5.65147617,6.69332082 Z M5.65147617,9.19197285 L5.43904103,9.02946683 L5.2266059,9.19197285 L5.31405048,8.94202224 L5.12674766,8.77963823 L5.40149507,8.77963823 L5.4765565,8.52977913 L5.56400109,8.77963823 L5.82636534,8.77963823 L5.61393021,8.94202224 L5.65147617,9.19197285 Z M4.63947361,3.34520275 L4.71441304,3.59503135 L4.5020999,3.44515249 L4.28966476,3.59503135 L4.37710935,3.34520275 L4.15229106,3.19532389 L4.42703847,3.19532389 L4.5020999,2.93295963 L4.58954449,3.19532389 L4.85190874,3.19532389 L4.63947361,3.34520275 Z M4.63947361,5.56898536 L4.71441304,5.81884446 L4.5020999,5.6689656 L4.28966476,5.81884446 L4.37710935,5.56898536 L4.15229106,5.40660135 L4.42703847,5.40660135 L4.5020999,5.15677274 L4.58954449,5.40660135 L4.85190874,5.40660135 L4.63947361,5.56898536 Z M4.63947361,7.84269709 L4.71441304,8.0925257 L4.5020999,7.93014168 L4.28966476,8.0925257 L4.37710935,7.84269709 L4.15229106,7.68031308 L4.42703847,7.68031308 L4.5020999,7.43045398 L4.58954449,7.68031308 L4.85190874,7.68031308 L4.63947361,7.84269709 Z M4.71441304,10.2537825 L4.5020999,10.1039037 L4.28966476,10.2537825 L4.37710935,10.0039234 L4.15229106,9.85404457 L4.42703847,9.85404457 L4.5020999,9.59171081 L4.58954449,9.85404457 L4.85190874,9.85404457 L4.63947361,10.0289642 L4.71441304,10.2537825 Z M3.70253247,4.43214475 L3.7774719,4.68197335 L3.56503677,4.51958933 L3.35272363,4.68197335 L3.42766306,4.43214475 L3.21525842,4.26976073 L3.45270387,4.26976073 L3.5276433,4.01990163 L3.61508789,4.26976073 L3.87745215,4.26976073 L3.70253247,4.43214475 Z M3.70253247,6.66831051 L3.78997706,6.91826112 L3.57754192,6.76829075 L3.35272363,6.91826112 L3.44019872,6.66831051 L3.22776358,6.51843165 L3.49009734,6.51843165 L3.51513815,6.2811082 L3.59007758,6.54344196 L3.85241133,6.54344196 L3.70253247,6.66831051 Z M3.70253247,9.16696254 L3.49009734,9.01708368 L3.2777842,9.16696254 L3.35272363,8.91713393 L3.14031899,8.77963823 L3.40265275,8.77963823 L3.49009734,8.52977913 L3.57754192,8.77963823 L3.83990618,8.77963823 L3.62759304,8.94202224 L3.70253247,9.16696254 Z M8.3998348,0.971541277 L8.48727938,0.721682174 L8.56221881,0.971541277 L8.83708823,0.971541277 L8.61226994,1.12154214 L8.69971452,1.3838759 L8.48727938,1.28392616 L8.26246109,1.44631017 L8.34990568,1.18397641 L8.13747054,1.03409755 L8.3998348,0.971541277 Z M10.386294,7.68031308 L10.4737385,7.43045398 L10.5611831,7.68031308 L10.8235474,7.68031308 L10.6111123,7.84269709 L10.6860517,8.0925257 L10.4737385,7.93014168 L10.2613034,8.0925257 L10.3362428,7.84269709 L10.1239297,7.68031308 L10.386294,7.68031308 Z M10.386294,5.40660135 L10.4737385,5.15677274 L10.5611831,5.40660135 L10.8235474,5.40660135 L10.6111123,5.56898536 L10.6860517,5.81884446 L10.4737385,5.6689656 L10.2613034,5.81884446 L10.3362428,5.56898536 L10.1239297,5.40660135 L10.386294,5.40660135 Z M10.386294,3.19532389 L10.4737385,2.93295963 L10.5611831,3.19532389 L10.8235474,3.19532389 L10.6111123,3.34520275 L10.6860517,3.59503135 L10.4737385,3.44515249 L10.2613034,3.59503135 L10.3362428,3.34520275 L10.1239297,3.19532389 L10.386294,3.19532389 Z M10.386294,0.971541277 L10.4737385,0.721682174 L10.5611831,0.971541277 L10.8235474,0.971541277 L10.6111123,1.12154214 L10.6860517,1.3838759 L10.4737385,1.28392616 L10.2613034,1.44631017 L10.3362428,1.18397641 L10.1239297,1.03409755 L10.386294,0.971541277 Z M2.65313644,5.56898536 L2.72807587,5.81884446 L2.51564074,5.6689656 L2.3033276,5.81884446 L2.37826703,5.56898536 L2.16583189,5.40660135 L2.45320646,5.40660135 L2.54065105,5.15677274 L2.61559048,5.40660135 L2.89045989,5.40660135 L2.65313644,5.56898536 Z M2.65313644,7.84269709 L2.72807587,8.0925257 L2.51564074,7.93014168 L2.3033276,8.0925257 L2.37826703,7.84269709 L2.16583189,7.68031308 L2.45320646,7.68031308 L2.54065105,7.43045398 L2.61559048,7.68031308 L2.89045989,7.68031308 L2.65313644,7.84269709 Z M2.72807587,10.2537825 L2.51564074,10.1039037 L2.3033276,10.2537825 L2.37826703,10.0039234 L2.16583189,9.85404457 L2.45320646,9.85404457 L2.54065105,9.59171081 L2.61559048,9.85404457 L2.89045989,9.85404457 L2.65313644,10.0289642 L2.72807587,10.2537825 Z M1.65363903,6.63091705 L1.72857846,6.88074565 L1.51626533,6.73086679 L1.30386069,6.88074565 L1.37880012,6.63091705 L1.20388045,6.48091618 L1.47874986,6.48091618 L1.51626533,6.2811082 L1.60374041,6.54344196 L1.86607417,6.54344196 L1.65363903,6.63091705 Z M1.71607331,9.12944707 L1.50376017,8.96703255 L1.27881988,9.12944707 L1.36626446,8.87958797 L1.20388045,8.69219364 L1.46624471,8.69219364 L1.55368929,8.44233454 L1.62862872,8.69219364 L1.89099298,8.69219364 L1.67867984,8.85457766 L1.71607331,9.12944707 Z M0.741616708,10.2787928 L0.529303572,10.128914 L0.304363279,10.2787928 L0.391807865,10.0289642 L0.179494729,9.87908538 L0.441858986,9.87908538 L0.529303572,9.61672112 L0.604243003,9.87908538 L0.86660726,9.87908538 L0.654172123,10.0289642 L0.741616708,10.2787928 Z M11.4480731,0.184479004 L10.5236677,0.034600143 L8.69971452,0.14708554 C6.8699358,0.380230435 5.14035083,1.11535056 3.70253247,2.27076591 L3.70253247,2.38325131 L3.70253247,2.32081703 C3.3666623,2.58601782 3.05320991,2.87851646 2.76546934,3.19532389 L2.9154702,3.19532389 L2.70306556,3.34520275 L2.77800499,3.59503135 L2.56569186,3.44515249 L2.45320646,3.50758677 C2.25330698,3.73252706 2.06588215,3.98238616 1.87857933,4.23221476 L1.74111412,4.41963959 L1.74111412,4.59452876 L1.61624557,4.51958933 C0.996447373,5.4757152 0.548366309,6.53261433 0.291980125,7.64276711 L0.454364142,7.64276711 L0.541808727,7.39293851 L0.616748158,7.64276711 L0.879112416,7.64276711 L0.666677278,7.80518163 L0.754121864,8.05513223 L0.541808727,7.89262621 L0.316868434,8.05513223 L0.40431302,7.80518163 L0.27947497,7.70532339 C0.0340384226,8.71421492 -0.046147073,9.75635185 0.0420295219,10.7909857 L11.4480731,10.7909857 L11.4480731,0.184479004 Z" id="Fill-4" fill="#073470" mask="url(#mask-2)"></path>
            </g>
        </g>
    </g>
</svg>