<?xml version="1.0" encoding="utf-8"?>
<!-- Generator: Adobe Illustrator 25.4.1, SVG Export Plug-In . SVG Version: 6.00 Build 0)  -->
<svg version="1.1" id="图层_1" xmlns="http://www.w3.org/2000/svg" xmlns:xlink="http://www.w3.org/1999/xlink" x="0px" y="0px"
	 viewBox="0 0 30 30" style="enable-background:new 0 0 30 30;" xml:space="preserve">
<style type="text/css">
	.st0{fill:#FF4D4F;}
	.st1{fill:#FFFFFF;}
</style>
<path id="形状" class="st0" d="M15,30C6.7,30,0,23.3,0,15S6.7,0,15,0s15,6.7,15,15S23.3,30,15,30z"/>
<path id="路径" class="st1" d="M20.4,9.6c-0.4-0.4-1-0.4-1.4,0l-4,4.1l-4.1-4.1c-0.4-0.4-1-0.4-1.4,0s-0.4,1,0,1.4l4.1,4.1
	l-4.1,4.1c-0.4,0.4-0.4,1,0,1.4s1,0.4,1.4,0l4.1-4.1l4.1,4.1c0.4,0.4,1,0.4,1.3,0l0,0c0.4-0.4,0.4-1,0-1.3L16.3,15l4.1-4.1
	C20.8,10.5,20.8,9.9,20.4,9.6L20.4,9.6z"/>
</svg>
