<?xml version="1.0" encoding="UTF-8"?>
<svg width="21px" height="20px" viewBox="0 0 21 20" version="1.1" xmlns="http://www.w3.org/2000/svg" xmlns:xlink="http://www.w3.org/1999/xlink">
    <title>西班牙</title>
    <defs>
        <polygon id="path-1" points="0 0 20 0 20 19.990627 0 19.990627"></polygon>
    </defs>
    <g id="页面-1" stroke="none" stroke-width="1" fill="none" fill-rule="evenodd">
        <g id="画板备份-17" transform="translate(-182.000000, -1537.000000)">
            <g id="西班牙" transform="translate(182.545455, 1537.000000)">
                <g id="编组">
                    <mask id="mask-2" fill="white">
                        <use xlink:href="#path-1"></use>
                    </mask>
                    <g id="Clip-2"></g>
                    <path d="M1.42618723,15.0900529 C1.30739202,15.0093518 1.27367077,14.8702902 1.20861091,14.75598 C0.867754437,14.1527817 0.612196172,13.5113493 0.412587704,12.8475761 C0.0918574568,11.7868846 -0.0314227064,10.7015819 0.00667136854,9.59598473 C0.0582483354,8.16979751 0.40810275,6.81764005 1.03823874,5.5393722 C1.20193954,5.20518709 1.38579461,4.88229846 1.59437299,4.57516323 C1.67737266,4.52128772 1.77152866,4.53695703 1.86349824,4.53695703 L18.1393109,4.53695703 C18.2267955,4.53695703 18.3142802,4.52347414 18.3949813,4.57286469 C18.7044151,5.01239014 18.9466306,5.49000968 19.1619084,5.98338261 C19.8481063,7.55311638 20.1104761,9.19239497 19.9580437,10.8988918 C19.8862284,11.7061835 19.7248261,12.4955633 19.4556728,13.260276 C19.244908,13.8589892 18.9892377,14.4375763 18.6641346,14.9824141 C18.6393832,15.0228347 18.6237139,15.0720851 18.572165,15.0900529" id="Fill-1" fill="#FDC200" mask="url(#mask-2)"></path>
                    <path d="M18.4623397,15.0990229 C18.5049187,15.0990229 18.5497122,15.0945379 18.5922912,15.0945379 C18.5833213,15.2335995 18.4801674,15.3277835 18.4106506,15.433208 C17.4958042,16.8369424 16.3072354,17.9470245 14.8406555,18.7543442 C13.8158717,19.3194483 12.726056,19.6916154 11.5667235,19.8687991 C10.2548465,20.070594 8.95193944,20.0235019 7.66472971,19.7140682 C6.35296486,19.4001495 5.15321173,18.8350453 4.06776886,18.0277256 C3.09237554,17.3034056 2.27608594,16.4288677 1.61234083,15.4107832 C1.54728098,15.3121142 1.46209489,15.2201446 1.44864003,15.0945379 L18.4623397,15.0990229 Z M1.66610422,4.50113346 C2.19986976,3.68035891 2.8478895,2.96052385 3.59693282,2.33038787 C4.350377,1.69803744 5.17785095,1.18669666 6.08151304,0.801046707 C6.86419352,0.466861599 7.67369962,0.23364401 8.51692696,0.110363846 C9.31295017,-0.00624494827 10.1179713,-0.0308841623 10.9186196,0.0385204953 C12.0756536,0.139488014 13.1835212,0.435438892 14.2352429,0.924354901 C15.4326974,1.48278769 16.4799061,2.24738819 17.3724119,3.22070723 C17.744691,3.62648341 18.0945455,4.0526381 18.383825,4.52347414 C18.3142802,4.57067827 18.233579,4.55041189 18.1572788,4.55041189 C13.4660172,4.55271043 8.77248523,4.55041189 4.08125175,4.55041189 C3.32999399,4.55041189 2.58103476,4.55041189 1.82977699,4.54822547 C1.77371507,4.55271043 1.69752692,4.58631955 1.66610422,4.50113346 Z" id="Fill-3" fill="#C40B1E" mask="url(#mask-2)"></path>
                </g>
                <path d="M9.6874438,11.4505131 C9.65380665,11.2352633 9.69641371,11.0222841 9.70986857,10.8091927 C9.71216711,10.7935514 9.71438155,10.77777 9.71886651,10.7621287 C9.76144554,10.6814276 9.83099035,10.6185822 9.88486585,10.5445524 C10.0327852,10.4369135 10.1875161,10.3450561 10.3804252,10.3539139 C10.4140624,10.3562124 10.4431865,10.3360581 10.4746092,10.3247897 C10.7951993,10.4099758 10.9858379,10.6163677 11.0486833,10.9414708 C11.0598676,11.0020177 11.066539,11.0693761 11.1383543,11.0962017 C11.4702409,11.125438 11.8043139,11.1051716 12.1362005,11.1074702 C12.5084796,11.1096566 12.4457464,11.1344079 12.4479328,11.412419 C12.4502313,11.6837587 12.4367764,11.9528839 12.4524177,12.2242236 C12.472572,12.5920179 12.4120251,12.9327622 12.1877774,13.2333382 C12.1811061,13.2400096 12.1721081,13.2423081 12.1631382,13.2423081 C12.0129203,13.3341656 11.8671593,13.4306481 11.696675,13.4800387 L11.6989735,13.4777401 C11.5622105,13.5494433 11.414179,13.5091628 11.2706324,13.5158342 C11.2123841,13.5181328 11.1540236,13.5158342 11.0979617,13.5158342 C10.9096217,13.5292891 10.7862294,13.4037104 10.6494664,13.3050414 C10.6314985,13.2915865 10.6180437,13.2759172 10.6023743,13.260276 C10.5553104,13.1907311 10.4992484,13.1323707 10.4476715,13.0673389 C10.3894231,12.9776678 10.0350838,13.3005564 9.98120827,13.208699 C9.94092778,13.0180604 9.95656905,12.7041417 9.94311419,12.5112046 C9.93862924,12.4529563 9.92295993,11.7554619 9.91399002,11.6994" id="Fill-4" fill="#AA1619"></path>
                <path d="M11.0822924,11.125438 C11.0217455,11.0985003 11.0374148,11.0401398 11.023932,10.9908614 C10.9656836,10.7330046 10.8760126,10.499759 10.5844345,10.4257572 C10.5418275,10.4144607 10.5328576,10.3360581 10.4701243,10.3741803 C10.3736417,10.3696953 10.3175798,10.3315732 10.3175798,10.2261488 C10.3175798,9.80226457 10.3130948,9.37852054 10.3198783,8.95466439 C10.3198783,8.93002518 10.3265497,8.90760041 10.3355476,8.88514761 C10.3826116,8.80214794 10.4611263,8.78866505 10.5463124,8.78647863 C11.1293844,8.77083736 11.7146428,8.81111785 12.2977149,8.79766299 C12.42548,8.79547657 12.4434478,8.86947831 12.4502313,8.97481866 C12.468087,9.36058073 12.4569027,9.74620265 12.4659006,10.1319647 C12.5197761,10.3136334 12.5062932,10.4929755 12.4502313,10.6701311 L12.4502313,10.6679447 C12.4883534,10.7980364 12.4367764,10.9258296 12.4457464,11.0535947 C12.4502313,11.1141415 12.4098387,11.1344079 12.3515904,11.1321094 C11.9277342,11.1276244 11.50385,11.1477507 11.0822924,11.125438 Z" id="Fill-5" fill="#E1E1E1"></path>
                <path d="M11.6519096,8.47474632 C11.602519,8.51965192 11.7214263,8.60932296 11.7349092,8.65641498 C11.7841596,8.82460074 11.5150344,8.74838456 11.4298483,8.78199368 C11.4052091,8.79096359 11.9367041,8.76183942 11.9119528,8.78647863 C12.1834046,8.78647863 11.9792831,8.77083736 12.2506228,8.77083736 C12.4748705,8.77083736 12.4748705,8.77083736 12.4748705,9.00175641 L12.4815419,10.1319647 C12.4703856,10.1431491 12.4592012,10.1431491 12.4479328,10.1319647 C12.4412614,9.74620265 12.4277785,9.36058073 12.4277785,8.97481866 C12.4277785,8.85820986 12.3873859,8.82460074 12.2775606,8.82460074 C11.6944886,8.82689928 9.30398027,8.82908569 8.92500168,8.82460074 C8.64250567,8.7124769 8.96093737,8.39853014 8.88909402,8.47474632 L11.6519096,8.47474632 Z" id="Fill-6" fill="#9F8604"></path>
                <path d="M10.1673619,6.52384755 C10.1987846,6.51487765 10.2300952,6.51487765 10.2638164,6.51706406 C10.3580004,6.51039269 10.4431865,6.55299975 10.5328576,6.57312598 C10.642795,6.53503191 10.7526203,6.50809415 10.8692291,6.49461126 C11.0979617,6.46548709 11.2549912,6.61124809 11.4366318,6.70321767 C11.4589725,6.71437399 11.456786,6.75479463 11.5016636,6.74361028 C11.748252,6.68076487 11.9837961,6.71437399 12.2080438,6.83098278 C12.4277785,6.94543319 12.5600566,7.17416583 12.5421168,7.36699081 C12.5444153,7.61584967 12.0667678,8.26176709 11.654096,8.47704486 L8.88909402,8.47704486 C8.68281419,8.45229352 7.77015415,7.31771238 8.02582454,6.94092021" id="Fill-7" fill="#9F8604"></path>
                <path d="M8.00558619,6.96337301 C8.21186602,6.51706406 9.01470076,6.71667253 9.07754617,6.72118551 C9.16273226,6.72785688 9.24124698,6.60006373 9.2973089,6.53284549 C9.2973089,6.53284549 9.52155658,6.38248742 9.65831963,6.47229862 C9.81532104,6.53951686 10.0103324,6.59776519 10.1673619,6.52384755" id="Fill-8" fill="#9F8604"></path>
                <path d="M13.1408301,10.5445524 C13.107221,10.5310695 13.0870667,10.4795206 13.0421611,10.4974604 C12.8964281,10.5580073 12.7395108,10.5355825 12.5869944,10.5648188 C12.5129646,10.5781616 12.4770569,10.6140692 12.4479328,10.6701311 C12.4322915,10.490789 12.429993,10.3113348 12.4479328,10.1296662 L12.4815419,10.1296662 C12.6811504,10.1185099 12.8807869,10.105027 13.0803953,10.0938707 C13.102736,10.0825742 13.1229744,10.0714179 13.1498,10.0669329 C13.2148598,10.0602615 13.2798917,10.0624479 13.3427371,10.0736043 C13.492955,10.1208084 13.6566558,10.0602615 13.8046873,10.1296662 C13.9100277,10.2396036 14.0647586,10.2597579 14.1858523,10.3427575 C14.2868198,10.4099758 14.3271003,10.4795206 14.2800363,10.5961294 C14.2620685,10.636522 14.2531827,10.6791291 14.2419142,10.7195217 C14.1836659,10.9213166 14.0602736,11.0401398 13.8405109,11.0356268" id="Fill-9" fill="#AB2C17"></path>
                <path d="M13.8248416,11.4012346 C13.8652622,11.4169039 13.9078412,11.4303868 13.9459633,11.4460281 C14.2957897,11.596246 14.2531827,11.6815442 14.174696,11.9999759 C14.1499446,12.0986169 14.0199651,12.1120998 13.9975123,12.2174401 C13.9952137,12.230895 13.9549333,12.2084422 13.9436648,12.1861015 C13.9123262,12.1255546 13.8830899,12.0582243 13.925697,11.9931925 C13.9907288,11.8900385 13.9414504,11.8384616 13.8494808,11.8003675 C13.8360259,11.807151 13.822543,11.8093374 13.8092003,11.8093374 C13.7239021,11.7802132 13.638716,11.7510891 13.5512314,11.7241513 C13.4368931,11.6770593 13.3247692,11.6254823 13.2081604,11.5806048 C13.1319443,11.5671219 13.1206758,11.4796372 13.0601289,11.4460281 C13.0310048,11.4280603 13.0018806,11.412419 12.9749429,11.3922647 C12.8022721,11.2622011 12.7528816,11.0401398 12.867304,10.8607697 C12.8964281,10.8158921 12.9480051,10.7755836 13.0108505,10.7732851 C13.0624275,10.7732851 13.1050345,10.7553172 13.1408301,10.7195217" id="Fill-10" fill="#AB1719"></path>
                <path d="M7.75669929,11.3451727 C7.66702825,11.3877798 7.26778328,11.6657908 7.17362729,11.6994 C7.09062761,11.7421191 6.99877016,11.7622454 6.91577048,11.802666 C6.88434778,11.8183073 6.85071062,11.8093374 6.8171015,11.807151 C6.73191541,11.8519444 6.74088532,11.9214612 6.76773898,11.9931925 C6.79246229,12.0605228 6.80583306,12.132254 6.73410183,12.1748331 C6.65791368,12.2219251 6.50536919,11.9124913 6.45827718,11.8765556 C6.29908936,11.7532755 6.58607033,11.4483266 6.76773898,11.3541707 C7.00325511,11.1881713 7.50999881,10.7710987 7.56606073,10.730706" id="Fill-11" fill="#AA1819"></path>
                <path d="M7.55490441,10.6970689 C7.65803031,10.7172231 7.83291547,10.8181907 7.84866887,10.9369859 C7.86882313,11.0872038 7.93604137,11.2509046 7.7432164,11.3541707" id="Fill-12" fill="#AA1819"></path>
                <path d="M8.24328873,10.4728212 C7.58632711,10.2665414 7.04804858,11.0379534 6.89113127,11.0379534 C6.68033845,11.0065027 6.2946044,10.7127382 6.33051206,10.5064584 C6.35066632,10.3943345 6.76103958,10.2059945 6.85752215,10.1610889 C6.89331768,10.1073255 8.12219498,10.0333238 8.24328873,10.1252934" id="Fill-13" fill="#A9231A"></path>
                <path d="M7.77234057,13.1794627 C7.74551494,13.2130718 7.70960728,13.2220417 7.66921466,13.2220417 C7.3687508,13.2288532 7.07047335,13.2288532 6.77003752,13.2220417 C6.72961688,13.2198553 6.69370922,13.2130718 6.66688359,13.1794627 C6.6848234,13.0001206 6.79694724,12.856546 6.84622567,12.6883603 C6.86419352,12.672719 6.88664632,12.6547511 6.90907108,12.6592361 C7.13102023,12.7018432 7.35308149,12.6569376 7.57503064,12.6592361 C7.61096633,12.6906588 7.6333911,12.7758729 7.6333911,12.7758729" id="Fill-14" fill="#B9A303"></path>
                <path d="M8.47202137,13.1839476 C8.51692696,13.1391542 8.49666058,13.0830923 8.49666058,13.0337297 C8.49895912,12.4932368 8.49666058,11.9528839 8.49666058,11.4147175 C8.49666058,11.3765113 8.49447416,11.3362028 8.49895912,11.2981087 C8.50565852,11.2397483 8.51911338,11.1746884 8.58195879,11.1590471 C8.66036139,11.1387808 8.62675227,11.2262654 8.66265993,11.2532031 C8.67384428,11.2622011 8.68959768,11.2622011 8.70305254,11.266686 C8.7456596,11.3092651 8.74117465,11.365327 8.74117465,11.4169039 C8.74336106,12.0021624 8.74336106,12.5875329 8.73887611,13.1727913 C8.73887611,13.2444945 8.77248523,13.3723998 8.61326937,13.3296806 L8.47202137,13.1839476 Z" id="Fill-15" fill="#A31518"></path>
                <path d="M10.6517649,13.2669473 C10.7907144,13.3251957 10.8715276,13.4933814 11.0486833,13.4755257 C11.1495387,13.5181328 11.2594761,13.4978664 11.3603035,13.5271027 C11.4073955,13.5405856 11.4837238,13.5562268 11.3940247,13.6212867 C11.2303519,13.632443 11.0822924,13.7064728 10.9231046,13.7355969 C10.4386735,13.8365364 9.961054,13.8051137 9.48791943,13.6750501 L9.49013387,13.6750501 C9.45201177,13.6437115 9.4004348,13.6548958 9.35785577,13.636928 C9.31076376,13.6168017 9.26367174,13.589864 9.28382601,13.5226177 C9.3062788,13.5023513 9.50129019,13.5113493 9.53052649,13.5091628 C9.59325978,13.5046779 9.80186618,13.4149788 9.86241306,13.397039 C9.88923868,13.3902275 10.2683014,13.1212144 10.3580004,12.8901832" id="Fill-16" fill="#CECECB"></path>
                <path d="M13.8069018,11.7936681 L13.8494808,11.7981811 C13.8517793,12.1255546 13.8135731,12.4529563 13.8719336,12.7780593 C13.8830899,12.8341213 13.9055427,12.8745139 13.9346669,12.9194195 C13.9213241,13.0001206 13.8517793,12.9911227 13.7979038,12.9933091 C13.5759547,13.0001206 13.3538934,13.002307 13.1319443,12.9911227 C13.0735838,12.9888241 12.9860992,13.0001206 13.0018806,12.8901832 C13.098223,12.8117806 13.0758823,12.6906588 13.0803953,12.5963907 C13.0960366,12.2398649 13.0870667,11.8810686 13.0870667,11.5223564 C13.0870667,11.4954187 13.0690988,11.4684809 13.0601289,11.4415432 C13.1319443,11.4393567 13.1408301,11.5245428 13.1991905,11.5401841 C13.1857076,11.8384616 13.1925192,12.1390375 13.1925192,12.4371748 C13.1925192,12.6008756 13.2058619,12.6098736 13.3628913,12.6143585 C13.4345945,12.6166571 13.5064379,12.6121721 13.5804396,12.6166571 C13.7687796,12.6053606 13.7709661,12.6053606 13.7709661,12.4170486 C13.7732646,12.2645041 13.7709661,12.1120998 13.7709661,11.9573689 C13.7732646,11.901307 13.7664811,11.8429465 13.8069018,11.7936681 Z" id="Fill-17" fill="#A8920A"></path>
                <path d="M8.29716424,11.1522636 C8.43392729,11.125438 8.46983495,11.1859849 8.46753641,11.318263 C8.46086504,11.8183073 8.46305146,12.320566 8.46535,12.8206384 C8.46535,12.9283894 8.46086504,13.0292448 8.41147449,13.1256993 C8.3173185,13.0763088 8.3038356,12.9754814 8.27022648,12.8901832 C8.28141084,12.8745139 8.29267928,12.856546 8.28819433,12.8364198 C8.19619672,12.3160811 8.27919639,11.7936681 8.25225864,11.271171 C8.25225864,11.2262654 8.26344299,11.1859849 8.29716424,11.1522636 Z" id="Fill-18" fill="#B8A100"></path>
                <path d="M6.89780264,8.82238629 C6.91128553,8.69680759 6.76103958,8.66768342 6.74088532,8.56223095 C6.8081316,8.51965192 6.89561622,8.56890232 6.96064805,8.51516697 C7.15347303,8.53759174 7.12653527,8.38059033 7.16017243,8.27295144 L7.16017243,8.27076503 C7.2140199,8.23934232 7.23865911,8.27076503 7.25662696,8.31553047 C7.31487529,8.46577642 7.31487529,8.46577642 7.42699914,8.35146616 L7.56606073,8.36710744 C7.53245161,8.45010711 7.51448376,8.52413688 7.63787605,8.54658968 C7.65573177,8.54877609 7.66702825,8.56890232 7.65573177,8.59135512 L7.56835927,8.71026245 C7.47420327,8.85602345 7.62442119,8.82238629 7.68048311,8.8605084 L7.68266952,8.91208537 C7.66702825,8.94120953 7.64457545,8.95466439 7.61096633,8.94799303 C7.40017351,8.90760041 7.18708215,8.93451013 6.97401882,8.92554023 C6.91358407,8.92324169 6.85071062,8.92554023 6.80583306,8.87614967 C6.82828586,8.82689928 6.87764838,8.85153849 6.89780264,8.82238629 Z" id="Fill-19" fill="#6D5703"></path>
                <path d="M13.4368931,11.2375619 C13.1632829,11.1387808 13.1632829,11.1387808 13.1498,10.8629561 C13.1476136,10.8158921 13.1431286,10.7688001 13.1408301,10.7195217 C13.1408301,10.6611612 13.1431286,10.6029129 13.1431286,10.542366 C13.1767377,10.5019454 13.2081604,10.4616649 13.2642224,10.5109433 C13.3269837,10.5378811 13.3875306,10.5580073 13.4570473,10.5535223 C13.5557163,10.5490374 13.6117782,10.6029129 13.6207481,10.6970689 C13.634203,10.8451284 13.634203,10.9953463 13.6207481,11.1432657 C13.6095918,11.271171 13.5332635,11.2756559 13.4368931,11.2375619 Z" id="Fill-20" fill="#D9D8D8"></path>
                <path d="M13.1476136,10.0960571 L13.0803953,10.0938707 C13.0915516,9.88977723 13.1184894,9.68346936 13.1095195,9.47937594 C13.1050345,9.35828219 13.1095195,9.22381768 13.0287062,9.11617879 C13.0399747,9.04214902 13.102736,9.04663398 13.1520985,9.04433544 C13.3538934,9.03536553 13.5557163,9.03536553 13.7575112,9.04663398 C13.8113867,9.04884842 13.8965728,9.04214902 13.8719336,9.14530296 C13.8092003,9.18791001 13.8652622,9.23267546 13.8652622,9.27758106 C13.8652622,9.33145656 13.8539657,9.3897049 13.8180581,9.43676888 C13.6701387,9.41882907 13.5243777,9.4121577 13.3763462,9.4211276 C13.2013769,9.43228393 13.1925192,9.43906742 13.1902206,9.61625112 C13.1880062,9.72607642 13.1925192,9.83820026 13.1880062,9.94813769 C13.1880062,9.99968662 13.1902206,10.0557485 13.1476136,10.0960571 Z" id="Fill-21" fill="#A38F09"></path>
                <path d="M13.87412,9.14530296 C13.8719336,9.10491034 13.8494808,9.0869425 13.8092003,9.0869425 C13.5669848,9.0869425 13.3224707,9.0869425 13.0803953,9.08924103 C13.0646139,9.08924103 13.0489726,9.10720888 13.0331912,9.11617879 C12.9413337,9.0734596 12.9300373,8.9927865 12.9547886,8.91208537 C12.9839128,8.80893143 13.0780968,8.82689928 13.1565835,8.82460074 C13.2462825,8.77980726 13.3314686,8.8380556 13.4234382,8.82908569 C13.5602013,8.8156028 13.6947779,8.80893143 13.8158717,8.73490167 C13.822543,8.76632437 13.8158717,8.79996153 13.8539657,8.82008775 C13.9997267,8.90527384 14.0065102,9.02869416 13.87412,9.14530296 Z" id="Fill-22" fill="#C1A900"></path>
                <path d="M13.0018806,12.8924817 C13.0063656,12.9305758 13.0287062,12.9507301 13.0690988,12.9507301 C13.3404385,12.9507301 13.6140768,12.9507301 13.8853884,12.9485436 C13.9010577,12.9485436 13.9168111,12.9305758 13.9324805,12.9216059 C13.9817589,13.002307 13.9459633,13.1099179 14.0199651,13.1839476 C13.9930273,13.2153704 13.9549333,13.2243683 13.9145126,13.2265547 C13.6252331,13.2333382 13.3337672,13.2355246 13.0444596,13.2243683 C13.004067,13.2220417 12.9659729,13.2153704 12.9413337,13.1817612 C12.9659729,13.0853067 12.8942417,12.9686699 13.0018806,12.8924817 Z" id="Fill-23" fill="#C1AB01"></path>
                <path d="M7.6400905,9.03766407 C7.59966985,9.15197432 7.62212265,9.38751848 7.56835927,9.49964232 C7.4629068,9.41882907 7.33962663,9.41882907 7.2140199,9.41664265 C7.09959752,9.41434411 6.98080231,9.45025177 6.87534984,9.3830055 C6.79016375,9.32245862 6.85300916,9.11169383 6.8081316,9.03985048" id="Fill-24" fill="#A48F08"></path>
                <path d="M6.85970856,10.1610889 L6.87316342,9.38070696 C7.07047335,9.37852054 7.26559687,9.37852054 7.4629068,9.37173705 C7.56387431,9.3672521 7.53463802,9.45473673 7.56835927,9.49734379 C7.56835927,9.56237561 7.56606073,9.62959386 7.56606073,9.69465371 C7.54142152,9.78213834 7.55260587,9.87180938 7.56157578,9.96148043 C7.56606073,10.0086846 7.57732918,10.0557485 7.54360793,10.0983556 L6.85970856,10.1610889 Z" id="Fill-25" fill="#B7B2AB"></path>
                <path d="M7.62890614,9.14530296 C7.62212265,9.0959124 7.59069994,9.08475608 7.54590647,9.08475608 L6.89331768,9.08475608 C6.84852421,9.08475608 6.8171015,9.0959124 6.81031801,9.14530296 C6.71616201,9.09142745 6.66907,9.01291273 6.70267912,8.90527384 C6.73191541,8.81111785 6.81928792,8.82238629 6.89561622,8.82008775 L6.83506935,8.87166472 C7.12205032,8.89860247 7.40465846,8.85153849 7.68266952,8.90760041 C7.72757512,9.00405495 7.70063737,9.08027113 7.62890614,9.14530296 Z" id="Fill-26" fill="#BDA600"></path>
                <path d="M13.4368931,11.2375619 C13.5467184,11.2532031 13.5938104,11.2128105 13.5849526,11.0940153 C13.5759547,10.9750799 13.5804396,10.8540983 13.5826541,10.7330046 C13.5849526,10.6185822 13.540047,10.5603058 13.4211397,10.5670052 C13.3628913,10.5693038 13.304643,10.5625203 13.2642224,10.5132418 L13.6746237,10.5558209 C13.6925635,10.546851 13.7104192,10.5513359 13.7262006,10.5625203 C13.8809035,10.6925839 13.7979038,10.8787375 13.8428094,11.0356268 C13.8113867,11.1545622 13.8180581,11.2778423 13.8248416,11.3989361 C13.681295,11.3788099 13.5669848,11.2891108 13.4368931,11.2375619 Z" id="Fill-27" fill="#BEB7B1"></path>
                <path d="M13.3808312,9.38070696 C13.4906565,9.38070696 13.6027803,9.38070696 13.7127177,9.37622201 C13.7619962,9.37403559 13.7979038,9.3897049 13.8180581,9.43458247 L13.8069018,10.1274798 C13.6521709,10.1499326 13.497468,10.1364497 13.347222,10.1028406 C13.5377485,10.05345 13.5624998,9.91438841 13.544532,9.74852922 C13.540047,9.70592216 13.540047,9.66101656 13.544532,9.61843753 C13.5512314,9.52428154 13.5377485,9.44576682 13.4234382,9.42779897 C13.3965005,9.42779897 13.3785326,9.40983113 13.3808312,9.38070696 Z" id="Fill-28" fill="#C3C3C0"></path>
                <path d="M12.8516347,13.542772 C12.7866028,13.4216782 12.8000857,13.3880411 12.9122096,13.3431635 C13.051159,13.2871016 13.1880062,13.2826166 13.3337672,13.3274942 C13.4391075,13.3611033 13.5535299,13.3566184 13.6588422,13.3140393 C13.8069018,13.255791 14.0154801,13.3163379 14.0938827,13.4261632 C14.1141491,13.4575859 14.1118506,13.491195 14.1051512,13.5248041" id="Fill-29" fill="#1C5DA4"></path>
                <path d="M13.8113867,8.73490167 C13.6162632,8.94350807 13.3830456,8.87396326 13.1542849,8.82460074 C13.1498,8.75057097 13.1117059,8.69680759 13.055644,8.65420053 C13.2574389,8.52862183 13.4816866,8.53759174 13.7059342,8.56441737 C13.7598097,8.57122889 13.8135731,8.6026516 13.8472944,8.65420053 L13.8113867,8.73490167 Z" id="Fill-30" fill="#685303"></path>
                <path d="M14.1028526,13.5943489 C14.1141491,13.6929899 14.1096361,13.7625347 13.9750875,13.7042864 C13.8517793,13.6504109 13.7194171,13.6615672 13.5938104,13.7042864 C13.5175942,13.7289256 13.4435925,13.7445669 13.3695627,13.7132563 C13.2238297,13.6527094 13.0780968,13.6527094 12.9323358,13.7064728 C12.8762739,13.726599 12.8269114,13.7400819 12.8134285,13.6593808 C12.815727,13.6279581 12.8067571,13.5921625 12.8403662,13.5718961 C13.0063656,13.5113493 13.1767377,13.4890086 13.347222,13.5472569 C13.4480774,13.580866 13.5512314,13.5629262 13.6453874,13.5338021 C13.8113867,13.4845236 13.9571197,13.5226177 14.1028526,13.5943489 Z" id="Fill-31" fill="#27639F"></path>
                <path d="M7.82173112,13.2064004 C7.88897739,13.3589169 7.87779304,13.5405856 7.86663672,13.7289256 C7.73206008,13.6818336 7.47190473,13.6527094 7.33514168,13.7087713 C7.25432842,13.7423804 7.17811224,13.731112 7.09511257,13.7064728 C6.9561631,13.6638657 6.77452247,13.6548958 6.63097593,13.7064728 C6.48072998,13.726599 6.58836887,13.2400096 6.58388391,13.1817612" id="Fill-32" fill="#2C6498"></path>
                <path d="M13.3449235,8.59365366 C13.2440681,8.59365366 13.1632829,8.68553915 13.055644,8.65420053 C13.0287062,8.64523062 13.008552,8.62047929 13.0018806,8.59365366 C12.9950971,8.47474632 13.0624275,8.38507528 13.1835212,8.40071656 C13.3830456,8.4254679 13.5804396,8.39174665 13.7777776,8.42098294 C13.8405109,8.42995285 13.9078412,8.4411372 13.9346669,8.50835545 C13.9639032,8.58687017 13.8876029,8.61380792 13.8472944,8.65641498 L13.8449958,8.65420053 L13.3449235,8.59365366 Z" id="Fill-33" fill="#7E2F0E"></path>
                <path d="M13.8472944,8.65641498 C13.9504483,8.50616903 13.9301819,8.45677848 13.7441404,8.45229352 C13.6611408,8.45010711 13.5646862,8.38956024 13.4906565,8.48152982 C13.4167668,8.41419945 13.3224707,8.45677848 13.2372846,8.43665225 C13.1229744,8.40752808 13.0265198,8.47704486 13.0018806,8.59365366 C12.9547886,8.46807496 12.9929107,8.39853014 13.1050345,8.35595111 C13.2148598,8.31553047 13.3494084,8.33798327 13.4324081,8.22804584 C13.450376,8.20340663 13.4861715,8.20570517 13.5109228,8.2325308 C13.591624,8.32452841 13.7037478,8.34916762 13.8158717,8.36043607 C13.8920878,8.36710744 13.9504483,8.38956024 13.9571197,8.47474632 C13.9639032,8.557746 13.9660896,8.64293209 13.8472944,8.65641498 Z" id="Fill-34" fill="#986C02"></path>
                <path d="M12.8336948,13.5921625 L12.8134285,13.6593808 C12.8044586,13.5136478 12.7932742,13.3701013 12.8179134,13.2265547 C12.8269114,13.2310397 12.8381798,13.2378232 12.8448512,13.2355246 C13.1296457,13.1570099 13.4144683,13.3118529 13.7014493,13.2220417 C13.8383245,13.1794627 13.9795725,13.2175568 14.1006662,13.3005564 C14.1141491,13.3431635 14.1096361,13.3857425 14.0916963,13.4261632 C13.9346669,13.3723998 13.7934189,13.2624624 13.6095918,13.3745862 C13.5220792,13.4261632 13.398799,13.4149788 13.30013,13.3634019 C13.1408301,13.2781036 12.9995821,13.3589169 12.8583341,13.401524 C12.8000857,13.4194638 12.8134285,13.48671 12.8561476,13.5292891 C12.8739753,13.5607398 12.8448512,13.5741947 12.8336948,13.5921625 Z" id="Fill-35" fill="#AFB2B6"></path>
                <path d="M7.87330809,13.5876495 C7.81494763,13.5966475 7.76118424,13.585351 7.70512232,13.5718961 C7.58402858,13.5450705 7.45842184,13.5315876 7.34181305,13.589864 C7.28804967,13.6144752 7.23198775,13.6234731 7.17362729,13.6078038 C7.01222502,13.5584132 6.84852421,13.5338021 6.68252486,13.5943489 C6.65340069,13.6055053 6.61530662,13.5921625 6.58388391,13.589864 L6.58388391,13.5292891 C6.77222394,13.448616 6.95834951,13.4081953 7.14898807,13.5226177 C7.19159513,13.5472569 7.24995559,13.5472569 7.28804967,13.5226177 C7.4629068,13.4171652 7.63557751,13.4462894 7.8105748,13.5158342 C7.83969896,13.5271027 7.85534024,13.5091628 7.87100955,13.49568 C7.87330809,13.5248041 7.87330809,13.5562268 7.87330809,13.5876495 Z" id="Fill-36" fill="#A4B2C1"></path>
                <path d="M10.6314985,6.53284549 C10.6113723,6.53284549 10.5530959,6.57312598 10.5328576,6.57312598 C10.4880641,6.57093957 10.4746092,6.53503191 10.4297036,6.53284549 C10.4162488,6.53054695 10.3534874,6.53733044 10.342219,6.53284549 C10.3130948,6.52154901 10.149394,6.53284549 10.1247548,6.51039269 C10.1179713,6.49912425 10.1427227,6.36236119 10.1404241,6.3488783 C10.1516926,6.29281638 10.2458766,6.25023735 10.2122394,6.20533175 C10.2548465,6.15823974 10.2234238,6.11566071 10.2032695,6.07305365 C10.1628769,5.98556902 10.1785182,5.91386583 10.2660028,5.8645874 C10.3220647,5.83316469 10.3714553,5.81738326 10.4140624,5.88692807 C10.4566414,5.95644485 10.5553104,6.01250678 10.4364871,6.0999914 C10.393796,6.13141411 10.4252187,6.16953621 10.4476715,6.20095892 C10.4454851,6.24123941 10.4072508,6.28614501 10.4521564,6.32194055 C10.4812806,6.34439334 10.5059198,6.31526918 10.5283726,6.29959987 C10.5664667,6.38248742 10.5238877,6.47229862 10.6314985,6.53284549 Z" id="Fill-37" fill="#B79401"></path>
                <path d="M14.1006662,13.302855 C14.0446043,13.2960715 13.9885424,13.3005564 13.9324805,13.2714323 C13.8472944,13.2265547 13.7575112,13.2333382 13.6678402,13.2714323 C13.5557163,13.3208228 13.4301096,13.3230092 13.3157993,13.2804302 C13.1812227,13.2333382 13.0534576,13.2198553 12.9278508,13.2938851 C12.8471497,13.3409771 12.815727,13.3118529 12.8179134,13.2265547 C12.8471497,13.1817612 12.8987267,13.1862462 12.9435201,13.1794627 L14.0221515,13.1817612 C14.0961813,13.1907311 14.1342753,13.2220417 14.1006662,13.302855 Z" id="Fill-38" fill="#1F5E9B"></path>
                <path d="M6.58158537,13.2960715 C6.77003752,13.2579774 6.95386456,13.2130718 7.14668953,13.2938851 C7.22520425,13.3251957 7.32614374,13.3073399 7.41584281,13.2736187 C7.48754601,13.2489795 7.56606073,13.2243683 7.64238903,13.2534925 C7.69393797,13.2736187 7.7813385,13.2938851 7.76118424,13.3544319 C7.73424649,13.4329467 7.67599816,13.3566184 7.6333911,13.3431635 C7.58181413,13.3251957 7.52345367,13.3118529 7.47638969,13.3341656 C7.30820393,13.4149788 7.14898807,13.401524 6.97850377,13.3364921 C6.90907108,13.3095544 6.81928792,13.3050414 6.74309977,13.3611033 C6.69600775,13.397039 6.6376473,13.4037104 6.57721254,13.3925541 L6.58158537,13.2960715 Z" id="Fill-39" fill="#ABB4BE"></path>
                <path d="M12.8336948,13.5921625 C12.8426647,13.5718961 12.8493361,13.5517419 12.8583341,13.5292891 C12.9929107,13.4575859 13.1296457,13.4508024 13.2754067,13.491195 C13.3808312,13.5203192 13.48847,13.5517419 13.5982953,13.5001649 C13.7709661,13.4216782 13.9369654,13.49568 14.1051512,13.5248041 L14.1073376,13.5921625 C13.681295,13.5562268 13.2574389,13.5517419 12.8336948,13.5921625 Z" id="Fill-40" fill="#A8B7C6"></path>
                <path d="M7.71179369,10.3292747 C7.56606073,10.246275 7.6715132,10.203696 7.73654503,10.1499326 C7.74999989,10.1386361 7.75888571,10.1185099 7.77015415,10.1028406 L7.85982519,10.105027 C7.82840249,10.2126659 7.8754945,10.3203047 7.86212373,10.4302422" id="Fill-41" fill="#B7610D"></path>
                <path d="M7.53693656,10.5400675 C7.55709082,10.6006143 7.53245161,10.6701311 7.56606073,10.7284916 L7.56606073,10.730706 C7.55938936,10.8338319 7.52796665,10.9369859 7.55490441,11.0424383 C7.57054568,11.1029852 7.52796665,11.1141415 7.48087464,11.120925 C7.40914341,11.1231395 7.38890506,11.0715625 7.38442011,11.0177991 C7.37323575,10.8877074 7.3687508,10.7576438 7.38671865,10.6298506 C7.40017351,10.5513359 7.44048203,10.4929755 7.53693656,10.5400675 Z" id="Fill-42" fill="#CFCBC8"></path>
                <path d="M7.3848103,8.45143537 C7.38870783,8.51161617 7.3848103,8.57765727 7.39241523,8.63776294 C7.44198983,9.0823946 7.35434308,9.22063763 7.05019364,9.14873623 C6.95902961,9.0404709 6.90185009,8.89020673 6.83725576,8.7519637 C6.98170179,8.49335907 7.2213995,8.63776294 7.3848103,8.45143537 Z M7.83725576,8.66188034 C7.79937373,8.83618677 7.79547621,9.08855543 7.63211293,9.04663173 C7.50658415,9.0163535 7.46461448,8.83002594 7.50268663,8.6257418 C7.52939893,8.47547764 7.45330215,8.46345651 7.38870783,8.44557507 C7.3848103,8.32521347 7.37715785,8.19283074 7.47611693,8.16878848 C7.54075878,8.15090704 7.57493341,8.25301154 7.58643586,8.34309491 C7.60925063,8.57172184 7.79176881,8.48133794 7.83725576,8.66188034 Z" id="Fill-43" fill="#945409"></path>
                <path d="M6.74088532,8.56223095 C6.7139756,8.47026137 6.74758472,8.41201304 6.83506935,8.38507528 C6.92244185,8.3962316 6.94270824,8.46359 6.96064805,8.53310678 L6.74088532,8.56223095 Z" id="Fill-44" fill="#9E2D11"></path>
                <path d="M7.65573177,8.59365366 C7.6400905,8.58468375 7.6266076,8.56890232 7.60866779,8.5667159 C7.55938936,8.55993241 7.5010289,8.56890232 7.4853596,8.49949766 C7.46739175,8.42765431 7.52126726,8.40071656 7.56606073,8.36710744 C7.65803031,8.4186844 7.74102998,8.47255991 7.65573177,8.59365366 Z" id="Fill-45" fill="#9D400E"></path>
                <path d="M11.1241495,6.74096966 C11.1184954,6.95353608 11.1295279,7.19095403 10.9916215,7.20314534 C10.8868127,7.20314534 10.8041378,7.11593058 10.7766944,6.87835634 C10.7489063,6.57794996 10.743528,6.27832508 10.9199792,6.20314534 C10.9862432,6.37835634 11.0578855,6.55294215 11.1241495,6.74096966 Z M10.3408413,6.21533665 C10.6551989,6.25316097 10.5779024,6.6409384 10.4841261,7.05356734 C10.3408413,7.29114158 10.2194148,7.22830945 10.1256384,6.90352045 C10.1089518,6.52793433 10.2358256,6.39054765 10.3408413,6.21533665 Z" id="Fill-46" fill="#7C7F43"></path>
                <path d="M7.68048311,8.8605084 C7.62212265,8.85820986 7.56606073,8.85372491 7.50551386,8.85153849 C7.50332744,8.78866505 7.52796665,8.74608602 7.56835927,8.71026245 C7.53463802,8.8156028 7.6400905,8.81341639 7.68048311,8.8605084 Z" id="Fill-47" fill="#BDA600"></path>
                <path d="M11.2594761,12.1681617 C11.1921177,12.0874606 11.1315708,12.0111323 11.0172606,11.9797096 C10.8894674,11.943914 10.9006518,11.7913695 10.8580447,11.6905422 C10.8445899,11.6591195 10.8983533,11.6276968 10.929776,11.6546345 C11.0284449,11.7376062 11.2123841,11.7331212 11.2100856,11.9259462 C11.2100856,11.9841945 11.268446,12.0515529 11.320023,12.0335851 C11.3760849,12.0134308 11.362602,11.9259462 11.3311793,11.8833672 C11.268446,11.7958825 11.2370233,11.7218528 11.3087545,11.6209974 C11.3401772,11.5761198 11.2930852,11.5290278 11.2594761,11.4976051 C11.2190555,11.4618095 11.1899313,11.4976051 11.1608071,11.5223564 C11.1069316,11.5694204 11.0352284,11.5850897 10.9926214,11.5379977 C10.9500423,11.4886352 10.9903228,11.412419 11.019447,11.3630284 C11.0576532,11.3002951 11.1204145,11.360842 11.1652921,11.3586556 C11.3177245,11.3473872 11.4702409,11.3743249 11.6227854,11.3541707 C11.649611,11.3496857 11.6765488,11.3272329 11.7034865,11.3272329 C11.8380351,11.3294193 11.9613433,11.4169039 12.1138598,11.3406878 C12.1811061,11.3069665 12.2483243,11.4213889 12.1877774,11.5155729 C12.1295291,11.605244 12.1250441,11.6837587 12.1967473,11.7644318 C12.2214987,11.7913695 12.2259836,11.8294916 12.2147152,11.8609144 C12.142984,12.0761921 12.2125288,12.2937404 12.1990459,12.5067196 C12.190076,12.6659355 12.1138598,12.8319348 12.0285616,12.9709684 C11.9837961,13.0448861 11.8626743,13.0763088 11.8290652,13.1817612 C11.8267667,13.1907311 11.8156104,13.2019155 11.8087988,13.2019155 C11.6339417,13.2198553 11.4724273,13.3364921 11.2864139,13.2804302 C11.2819009,13.2781036 11.2774159,13.2736187 11.272931,13.2736187 C11.0307435,13.3073399 10.9141067,13.0987616 10.7459209,12.9956076 C10.7212817,12.9821528 10.685374,12.9530286 10.6875604,12.9372472 C10.7100132,12.7579051 10.595703,12.6076872 10.5978894,12.4238321 C10.6001879,12.2713156 10.6404965,12.1120998 10.6023743,11.9640683 C10.5844345,11.8945235 10.5799496,11.8609144 10.6404965,11.8609144 C10.7144982,11.8587279 10.732466,11.7218528 10.8019828,11.7868846 C10.8647441,11.8474315 10.7660752,11.901307 10.7459209,11.9618538 C10.7279811,12.0201302 10.7189831,12.0874606 10.7615902,12.141224 C10.7930129,12.179318 10.8535598,12.188316 10.8804975,12.1681617 L11.2594761,12.1681617 Z" id="Fill-48" fill="#C29C04"></path>
                <path d="M10.1314542,11.596246 C9.92744488,11.4774508 9.84214667,11.2891108 9.85114461,11.0625646 C9.86011452,10.8451284 9.94092778,10.6634598 10.153879,10.5603058 C10.3580004,10.4616649 10.6270136,10.5625203 10.7391374,10.782255 C10.8939804,11.0850174 10.788528,11.454998 10.5148897,11.5940596 C10.3849102,11.647823 10.2593315,11.6613059 10.1314542,11.596246 Z" id="Fill-49" fill="#0359B7"></path>
                <path d="M9.60004327,10.9145331 C9.22327913,10.9145331 8.60211305,10.9325009 8.60878442,10.824862 C8.61778236,10.7396759 8.66036139,9.32694358 8.80620647,9.12055162 C8.88460907,8.99727145 9.70986857,9.01972425 9.8130225,9.14530296 C9.87356938,9.21933272 10.1516926,10.1790567 9.83099035,10.5132418" id="Fill-50" fill="#6D5F03"></path>
                <path d="M9.91399002,13.3386785 C9.86908442,13.4126803 9.7815998,13.4126803 9.71438155,13.4508024 C9.64265033,13.4373195 9.66061817,13.3812576 9.66061817,13.3364921 L9.66061817,11.553667 C9.66061817,11.506575 9.64713528,11.4505131 9.72105292,11.4438417 C9.90499208,11.6815442 9.86689801,11.9618538 9.86689801,12.2331935 C9.86689801,12.5605952 9.86689801,12.8879968 9.86908442,13.2153704 C9.86689801,13.2624624 9.86011452,13.3118529 9.91399002,13.3386785 Z" id="Fill-51" fill="#C2AB00"></path>
                <path d="M10.1830031,13.0382147 C10.1472076,12.9799663 10.1269412,12.9194195 10.1269412,12.8475761 C10.1269412,12.5695651 10.1202699,12.2892555 10.1202699,12.0111323 C10.1202699,11.9573689 10.0911457,11.8788822 10.1987846,11.8788822 C10.290642,11.8788822 10.3310627,11.9236476 10.3288482,12.0111323 C10.3220647,12.22641 10.3445175,12.4439864 10.3175798,12.6592361 C10.3109084,12.7063281 10.3220647,12.7534201 10.3265497,12.8004841 C10.3557019,12.9104215 10.29964,12.9844513 10.2234238,13.0516695 C10.2099409,13.053856 10.1942996,13.049371 10.1830031,13.0382147 Z" id="Fill-52" fill="#BBA501"></path>
                <path d="M11.6944886,9.70143721 C11.6765488,9.68346936 11.6720358,9.6633151 11.6675508,9.63859179 C11.6630659,9.51298506 11.6294568,9.38751848 11.6788473,9.2663967 C11.7326107,9.22381768 11.7998289,9.19906634 11.8447345,9.14300442 C11.8851271,9.20803624 11.9277342,9.23716041 12.0062209,9.18109849 C12.048828,9.15197432 12.1228297,9.11388025 12.1654368,9.1632708 C12.2125288,9.21703418 12.1990459,9.29552087 12.1474689,9.34709784 C11.9568584,9.53325145 11.997251,9.73504633 12.0801385,9.95262264 C12.1205312,10.057963 12.0689822,10.1566039 11.9635297,10.2149644 C11.795344,10.3068219 11.795344,10.3091484 11.9007965,10.4638513 C11.9478604,10.5310695 11.9187363,10.5804601 11.8738587,10.6298506 C11.8087988,10.5580073 11.7751897,10.4683362 11.7280977,10.3876351 C11.6675508,10.2845092 11.7707048,10.2396036 11.8267667,10.1790567 C11.7169414,10.1454476 11.7169414,10.1454476 11.7079715,10.0624479" id="Fill-53" fill="#B57E96"></path>
                <path d="M11.696675,10.0736043 C11.7326107,10.1790567 11.8492195,10.100542 11.9142513,10.1678724 C11.8693737,10.199211 11.8222817,10.2194494 11.7864582,10.2575715 C11.7326107,10.3113348 11.7214263,10.349541 11.7796747,10.4122743 C11.8335502,10.4705227 11.8738587,10.546851 11.8716723,10.6320371 L11.8626743,10.8271606 C11.7662198,10.8540983 11.7101579,10.7621287 11.6294568,10.7441609 C11.5845512,10.6342235 11.701188,10.6500049 11.743767,10.5984279 C11.6944886,10.5378811 11.5307878,10.6544899 11.550942,10.4840056 C11.5240043,10.4413985 11.5307878,10.3921201 11.5374872,10.3472425 C11.5710963,10.1499326 11.5689099,10.1454476 11.3716,10.1296662 L11.3446622,10.0489651 C11.3087545,9.99290313 11.2594761,9.9346548 11.3222094,9.86732443 C11.3985377,9.78443688 11.4926937,9.79329466 11.5890641,9.818046 C11.6698494,9.88526424 11.7034865,9.97045033 11.696675,10.0736043 Z" id="Fill-54" fill="#E173A5"></path>
                <path d="M11.6944886,9.26409816 L11.6944886,9.63859179 C11.5710963,9.80907609 11.50385,9.82471737 11.3177245,9.71040711 C11.272931,9.68346936 11.225839,9.65883015 11.1786629,9.63640538 C11.1293844,9.61176616 11.1024467,9.57801689 11.1473523,9.52428154 C11.1989292,9.5152836 11.2616625,9.53543786 11.2864139,9.46589305 C11.315538,9.38751848 11.3782713,9.32915802 11.409694,9.24615835 C11.4321468,9.18558345 11.5599119,9.19239497 11.6429116,9.18109849 C11.6788473,9.19906634 11.7124564,9.21481974 11.6944886,9.26409816 Z" id="Fill-55" fill="#E56FA5"></path>
                <path d="M10.9701686,9.69695225 L10.9633851,9.69913867 C10.8804975,9.71040711 10.826622,9.6700145 10.788528,9.59828327 C10.7773436,9.57801689 10.7660752,9.54222135 10.7526203,9.53992281 C10.6314985,9.52646795 10.6113723,9.49734379 10.642795,9.36058073 C10.6629212,9.26858312 10.6337971,9.22151914 10.7504339,9.2506433 C10.7773436,9.2574268 10.7951993,9.23945895 10.8131672,9.22151914 C10.8401049,9.19458138 10.8625577,9.15197432 10.9073232,9.18791001 C10.9365595,9.21033478 10.9432308,9.2506433 10.9231046,9.2798796 C10.8760126,9.35828219 10.9477438,9.40086122 10.96787,9.45922168" id="Fill-56" fill="#AA7489"></path>
                <path d="M11.5150344,10.3606974 C11.4747259,10.3696953 11.4679424,10.3988195 11.4634574,10.4369135 C11.4366318,10.6521913 11.4366318,10.6521913 11.2303519,10.5961294 C11.1809614,10.5871315 11.1338694,10.5670052 11.1114166,10.5220996 C11.0845069,10.4683362 11.0643526,10.401118 11.1719915,10.4234587 C11.2751174,10.4773342 11.2886003,10.4167593 11.2774159,10.3360581 C11.268446,10.2799962 11.2370233,10.2126659 11.3020551,10.1813553 C11.367115,10.147634 11.4456017,10.1409627 11.512848,10.1723854 C11.6316432,10.2261488 11.5307878,10.2978519 11.5150344,10.3606974 Z" id="Fill-57" fill="#E173A5"></path>
                <path d="M11.6339417,9.20355129 C11.5689099,9.20136488 11.5240043,9.29322233 11.4477881,9.24397194 C11.4343332,9.234974 11.4186639,9.2506433 11.4231769,9.2663967 C11.4634574,9.39200344 11.3513336,9.41434411 11.2864139,9.47040603 C11.2571776,9.40534617 11.1876328,9.39867481 11.1383543,9.36506568 C11.1069316,9.34261288 11.0755089,9.31567513 11.0868054,9.27088166 C11.0979617,9.23048904 11.1360558,9.23945895 11.169777,9.23048904 C11.320023,9.19687992 11.4814253,9.17224071 11.5195193,8.98160215 C11.5577255,9.05333337 11.6003326,9.12503657 11.6339417,9.20355129 Z" id="Fill-58" fill="#A96571"></path>
                <path d="M10.9365595,10.0153559 C10.9275895,10.0489651 10.9186196,10.0803878 10.9096217,10.1118105 C10.8916819,10.1745718 10.873714,10.1768703 10.8109808,10.1409627 C10.6920734,10.0714179 10.6988569,9.96596538 10.6965584,9.86065306 C10.694372,9.80226457 10.7481353,9.81126251 10.784043,9.81356105 C10.8467763,9.818046 10.9073232,9.82920232 10.9701686,9.83820026 C10.9881364,9.87859288 10.9611987,9.90104567 10.9342609,9.91671498 C10.8715276,9.9571076 10.9073232,9.98393322 10.9365595,10.0153559 Z" id="Fill-59" fill="#A67C8D"></path>
                <path d="M11.1719915,10.4212723 C11.0912904,10.443697 11.1047452,10.4863041 11.1540236,10.5265846 C11.1809614,10.5490374 11.2280534,10.5445524 11.2280534,10.593943 C11.1495387,10.7374895 11.169777,10.7105518 11.0486833,10.6208807 C10.9231046,10.5265846 11.0262305,10.4503964 11.0172606,10.3673968 C11.0127756,10.3360581 11.0576532,10.3337596 11.0868054,10.3315732 C11.1495387,10.3337596 11.1809614,10.3583988 11.1719915,10.4212723 Z" id="Fill-60" fill="#AC6986"></path>
                <path d="M10.9365595,10.0153559 C10.8983533,10.0086846 10.8401049,10.0378087 10.8289206,9.97726186 C10.8176521,9.92338635 10.8647441,9.90771704 10.9073232,9.89656072 C10.9365595,9.88977723 10.9544152,9.86732443 10.9656836,9.83820026 L10.9903228,9.81356105 C11.0643526,9.85165512 11.1338694,9.74401624 11.2100856,9.80677756 C11.2280534,9.82253096 11.272931,9.80677756 11.2706324,9.84935658 C11.268446,9.88077929 11.2370233,9.89207577 11.2078991,9.89656072 C11.1159296,9.912202 11.0284449,9.9346548 10.9633851,10.006386 L10.9365595,10.0153559 Z" id="Fill-61" fill="#DB6D9F"></path>
                <path d="M10.9701686,9.69695225 C10.8916819,9.63640538 10.8894674,9.51976855 10.8019828,9.46589305 C10.7773436,9.45255031 10.7660752,9.43228393 10.784043,9.40764471 C10.8041973,9.38070696 10.826622,9.39418985 10.8445899,9.4121577 C10.8804975,9.45025177 10.9208061,9.47040603 10.972383,9.46140809 C10.9926214,9.4928308 11.0531682,9.45473673 11.0576532,9.51079865 C11.0576532,9.53325145 11.0531682,9.5601892 11.0621662,9.58034346 C11.0778075,9.61625112 11.1338694,9.63640538 11.1002603,9.68795431 C11.0598676,9.74852922 11.0127756,9.6924673 10.9701686,9.69695225 Z" id="Fill-62" fill="#DD6DA0"></path>
                <path d="M11.6271582,10.7441609 C11.7326107,10.6947703 11.7751897,10.8181907 11.8603758,10.8271606 C11.8603758,10.871954 11.8470331,10.9347995 11.7976425,10.9078617 C11.7303962,10.871954 11.5868497,10.8966774 11.6271582,10.7441609 Z" id="Fill-63" fill="#8B5765"></path>
                <path d="M9.91169148,7.86484869 C9.90050713,7.85358024 9.89602218,7.82675462 9.87356938,7.83342598 C9.86011452,7.83791094 9.86689801,7.8580652 9.86459947,7.87154809 C9.78389834,8.03522087 9.6493217,8.06434504 9.48562089,7.95454776 C9.43407195,7.84242392 9.51925804,7.82226966 9.59325978,7.79303337 C9.63816537,7.7706927 9.67625945,7.7414564 9.6807444,7.68539448 C9.66280459,7.61817624 9.60892908,7.62484761 9.55735212,7.62266119 C9.52374299,7.62036266 9.47894952,7.63611606 9.48113593,7.57556918 C9.46768107,7.49038309 9.36452714,7.44999048 9.39146489,7.33335365 C9.40943274,7.25935192 9.42737255,7.1965906 9.48113593,7.14504166 C9.65831963,7.01943493 9.86689801,7.01265144 10.0708793,6.99468359 C10.1785182,7.00149512 10.1628769,7.0710119 10.1404241,7.13823014 C10.1179713,7.20558854 10.1134864,7.25486696 10.1875161,7.29296104 C10.3086099,7.35580645 10.1404241,7.42305273 10.1853017,7.48808455 C10.1808167,7.56878569 10.1091135,7.53747511 10.0686929,7.55978775 C10.012631,7.5867255 9.93192984,7.6002084 9.98120827,7.69436439 C10.055238,7.75272485 10.1404241,7.7414564 10.2256102,7.7414564 C10.2884556,7.77955048 10.2704878,7.84009735 10.2683014,7.89397286 L10.2413636,7.92539557 L9.91169148,7.86484869 Z" id="Fill-64" fill="#A91718"></path>
                <path d="M10.5619817,7.57556918 C10.4320022,7.51720872 10.4072508,7.41635333 10.501547,7.29974453 C10.5351561,7.2571655 10.5396411,7.21007349 10.5328576,7.16286935 C10.5193747,7.0485591 10.5732502,7.01265144 10.6764041,7.0261063 C10.8379185,7.00598007 10.9926214,7.01265144 11.1182281,7.13823014 C11.1383543,7.18762069 11.2056006,7.15171303 11.2280534,7.1965906 C11.2952717,7.4835996 11.2952717,7.4835996 11.0284449,7.6316311 C10.9455294,7.67642458 10.9320745,7.72348856 11.023932,7.77506553 C11.0374148,7.77955048 11.0508697,7.786362 11.0621662,7.79084696 C11.1270859,7.81778471 11.2504782,7.78184902 11.1989292,7.92539557 C11.1428673,8.04870376 11.0329299,8.0127961 10.9365595,8.00828311 C10.8535598,8.00379816 10.83562,7.9343935 10.8244356,7.86484869 C10.8176521,7.84909529 10.8221371,7.82226966 10.8019828,7.81997112 C10.7862294,7.81997112 10.7818566,7.84690888 10.7683737,7.86036374 C10.7615902,7.92539557 10.694372,7.95222119 10.6741056,8.00828311 L10.6764041,8.0060967 C10.5530959,8.02176601 10.4678257,7.97018904 10.4117638,7.86255015 C10.3894231,7.81548617 10.3916096,7.77506553 10.4454851,7.75042631 C10.4633128,7.74375494 10.4812806,7.7414564 10.501547,7.73926999 C10.5576089,7.7324865 10.6314985,7.7414564 10.6539513,7.68090953 C10.6764041,7.62484761 10.5777351,7.62933256 10.5619817,7.57556918 Z" id="Fill-65" fill="#AA1819"></path>
                <path d="M8.38453674,7.54863143 C8.37338042,7.47911465 8.39132023,7.39611497 8.46535,7.34683655 C8.52808329,7.25035398 8.6200809,7.22792921 8.72769175,7.25035398 C8.78596812,7.26165046 8.83981559,7.24816757 8.89587752,7.23689912 C9.03264057,7.21007349 9.16043372,7.21444632 9.22546555,7.36928934 C9.23676202,7.37825925 9.25688825,7.39160199 9.25470184,7.39841351 C9.21879418,7.5060524 9.23446348,7.62933256 9.142578,7.71681719 C9.07754617,7.79981686 9.10667034,7.84009735 9.20312487,7.84461034 C9.23676202,7.84690888 9.27037114,7.8356124 9.30398027,7.84909529 C9.37349705,7.90067226 9.37579559,7.95454776 9.31524871,8.01509464 C9.20082633,8.1383748 9.17170216,8.1383748 8.96312379,7.99045542 C8.92051673,8.03751941 8.96093737,8.13388985 8.87575129,8.15185769 C8.81968937,8.16531255 8.77248523,8.14067334 8.73220474,8.10257926 L8.71423689,8.04421881 C8.51462842,8.01728105 8.4743199,7.93209496 8.41377303,7.76172279 L8.38453674,7.54863143 Z" id="Fill-66" fill="#AA1719"></path>
                <path d="M11.6698494,8.03973385 C11.5218179,8.13170343 11.4500866,8.12721848 11.3446622,8.0127961 C11.320023,7.85358024 11.320023,7.84909529 11.4634574,7.88948791 C11.5106615,7.9029708 11.5307878,7.86933364 11.5644249,7.85587878 C11.5755813,7.84909529 11.5868497,7.84242392 11.5980341,7.83791094 C11.6675508,7.80200328 11.6204869,7.75272485 11.5913627,7.7414564 C11.465756,7.68769302 11.4433032,7.56659927 11.3940247,7.46344534 C11.3895398,7.44999048 11.3895398,7.43650759 11.3895398,7.42305273 C11.3940247,7.40059993 11.4118804,7.38941557 11.4298483,7.37825925 C11.4859102,7.23689912 11.5980341,7.21225991 11.7303962,7.24138407 C11.7864582,7.25265252 11.8425201,7.26383687 11.898582,7.25486696 C12.0263752,7.23689912 12.138499,7.25935192 12.2102302,7.38044567 C12.3021998,7.45447543 12.2618072,7.56878569 12.2955284,7.66294168 C12.3043862,7.68769302 12.0936214,7.82894103 12.0599843,7.82445608 C12.0263752,7.81997112 11.992766,7.81097319 11.9613433,7.81327172 C11.9119528,7.81548617 11.8603758,7.82445608 11.8447345,7.880518 C11.8312516,7.93209496 11.8873136,7.95222119 11.9074678,7.98815689 C11.9299206,8.02625096 12.0195917,8.00379816 11.997251,8.05986008 C11.9769846,8.11143705 11.9232212,8.16312614 11.8514059,8.1608276 C11.8021275,8.1608276 11.7415806,8.1832804 11.7191278,8.10925063 C11.7124564,8.08679783 11.6989735,8.0666716 11.6877051,8.04421881 C11.6877051,8.03522087 11.6855187,8.02176601 11.6810337,8.02176601 C11.6698494,8.01728105 11.6743343,8.03073591 11.6698494,8.03973385 Z" id="Fill-67" fill="#A91718"></path>
                <path d="M11.1989292,8.52862183 C11.3581171,8.5352932 11.3895398,8.61380792 11.1674785,8.66089993 C10.9948078,8.66089993 10.3511889,8.7057775 10.3511889,8.7057775 C10.012631,8.7057775 9.44971323,8.66538488 9.41391769,8.65641498 C9.22776408,8.60483801 9.19634138,8.54658968 9.52374299,8.48152982 C9.67396091,8.47474632 9.99247671,8.4321673 10.3511889,8.4321673 L11.1989292,8.52862183 Z" id="Fill-68" fill="#931B14"></path>
                <path d="M9.31076376,7.01046502 C9.2973089,6.89604264 9.38249499,6.75260822 9.49910378,6.71437399 C9.67625945,6.65831207 9.8579281,6.65612565 10.0395687,6.6965463 C10.1134864,6.71218757 10.1449091,6.75260822 10.1561775,6.81982646 C10.1695483,6.89834118 10.153879,6.96107447 10.0731778,6.99019864 L9.31076376,7.01046502 Z" id="Fill-69" fill="#FAC100"></path>
                <path d="M11.1204145,7.32778281 C10.9791665,7.24393828 10.826622,7.21909546 10.6785905,7.17251516 C10.6562499,7.07624922 10.544126,7.13202913 10.5328576,7.00482611 C10.5193747,6.84334776 10.5037334,6.72220018 10.6719192,6.68186941 C10.8939804,6.62589542 11.0912904,6.63835565 11.2594761,6.86504641 C11.3334778,6.96434007 11.3782713,7.08548765 11.3356643,7.22833388 C11.2952717,7.36190287 11.1966307,7.31838912 11.1204145,7.32778281 Z M12.2125288,7.65380605 C12.1183447,7.56068428 12.0107058,7.51717052 11.9007965,7.47986747 C11.8335502,7.430143 11.7572499,7.40541663 11.6788473,7.40848317 C11.555427,7.41787686 11.5263028,7.29051857 11.5577255,7.18800311 C11.5868497,7.09488134 11.5710963,6.88988923 11.7280977,6.94268023 C11.8581894,6.983011 11.9882811,7.01103681 12.1160462,7.07624922 C12.2506228,7.14448935 12.3021998,7.28108607 12.331324,7.44256442 C12.3537768,7.56375081 12.3178691,7.65698903 12.2125288,7.65380605 Z M8.72769175,7.47986747 C8.64250567,7.52963075 8.54375259,7.52963075 8.46535,7.61347528 C8.42274294,7.61029229 8.36438248,7.68792611 8.33977129,7.59480434 C8.31513208,7.50172139 8.30613414,7.39602294 8.35771111,7.30915069 C8.45408155,7.14767234 8.56172044,7.00785383 8.72769175,7.00164312 C8.77029881,6.9986154 8.81287784,6.97676148 8.85329849,6.96752306 C9.07306121,6.91158789 9.12912314,7.00164312 9.08203112,7.31838912 C9.06857626,7.41469387 9.02148425,7.40541663 8.97439223,7.40848317 C8.88909402,7.40848317 8.79942298,7.38981223 8.72769175,7.47986747 Z" id="Fill-70" fill="#F9BF00"></path>
                <path d="M10.4117638,7.16516789 C10.4005795,7.21674486 10.4072508,7.28180472 10.3198783,7.28180472 C10.2503615,7.28180472 10.2368787,7.24368261 10.2458766,7.18762069 C10.2548465,7.12477528 10.2615179,7.05304405 10.3445175,7.05304405 C10.4095494,7.05523047 10.4095494,7.11361896 10.4117638,7.16516789 Z" id="Fill-71" fill="#B0AA83"></path>
                <path d="M10.5127033,8.24601369 C10.4880641,8.37840391 10.1853017,8.37840391 10.1651755,8.24831223 C10.2099409,8.05986008 10.4835791,8.11143705 10.5127033,8.24601369 Z" id="Fill-72" fill="#A71817"></path>
                <path d="M10.9096217,8.36043607 C10.8715276,8.27295144 10.8535598,8.29540424 10.9096217,8.23704378 C10.9992927,8.22137447 11.1226009,8.20791961 11.1674785,8.3088591 L11.1405688,8.35365258 C11.0643526,8.3962316 10.9881364,8.40752808 10.9096217,8.36043607 Z" id="Fill-73" fill="#218957"></path>
                <path d="M9.86459947,7.87154809 C9.8354753,7.84909529 9.79508269,7.82894103 9.82199241,7.78184902 C9.82880393,7.76839416 9.85562956,7.7572098 9.86908442,7.76172279 C9.92514634,7.77736406 9.92295993,7.81997112 9.90950507,7.86484869 L9.86459947,7.87154809 Z" id="Fill-74" fill="#B87875"></path>
                <path d="M10.7737001,7.86255015 C10.7638309,7.81997112 10.7514327,7.77736406 10.7982807,7.74375494 C10.8057443,7.73926999 10.8304483,7.7414564 10.8377885,7.75042631 C10.8773272,7.78854842 10.8698636,7.82894103 10.8353829,7.86484869 L10.7737001,7.86255015 Z" id="Fill-75" fill="#B6827C"></path>
                <path d="M10.3358394,7.01494998 C10.299712,7.01265144 10.2884593,6.98801222 10.2884593,6.95888806 C10.2861467,6.94761961 10.2906591,6.93413672 10.299712,6.92746535 C10.3087368,6.91849544 10.3200742,6.91398246 10.331327,6.91398246 C10.3606294,6.91179604 10.3900445,6.91849544 10.3877319,6.95658952 C10.3855039,6.98352727 10.3651418,7.00816648 10.3358394,7.01494998 Z" id="Fill-76" fill="#B0AA83"></path>
                <path d="M11.6718698,8.03973385 C11.6403503,8.00161175 11.6258446,7.96351767 11.6815705,7.9343935 C11.6935981,7.92761001 11.7249968,7.93657992 11.73231,7.94773624 C11.7685742,7.99494038 11.7104911,8.00828311 11.69112,8.03751941 C11.6862848,8.03751941 11.6790924,8.03751941 11.6718698,8.03973385 Z" id="Fill-77" fill="#A36F6F"></path>
                <path d="M13.3808312,9.38070696 C13.5826541,9.38521994 13.6072933,9.50861223 13.5849526,9.67231304 C13.5759547,9.73285991 13.5826541,9.79777962 13.5826541,9.86065306 C13.5826541,10.0803878 13.5669848,10.0960571 13.347222,10.105027 L13.1498,10.0960571 C13.1498,9.9278713 13.1476136,9.75968554 13.1476136,9.58931337 C13.1476136,9.36058073 13.1476136,9.36058073 13.3808312,9.38070696 Z" id="Fill-78" fill="#E1E1E1"></path>
                <path d="M13.7239021,10.5625203 L13.6723251,10.5558209 C13.6611408,10.5220996 13.6476859,10.490789 13.6095918,10.4840056 C13.4638308,10.4638513 13.5355621,10.3718817 13.5512314,10.3023369 C13.5759547,10.203696 13.6432009,10.2284473 13.7082328,10.2552729 C13.7619962,10.2755113 13.8002024,10.2978519 13.7687796,10.3718817 C13.7441404,10.4302422 13.7396555,10.499759 13.7239021,10.5625203 Z" id="Fill-79" fill="#C19405"></path>
                <path d="M14.0849969,10.5042439 C14.0826984,10.542366 14.0826984,10.5826465 14.0737285,10.6185822 C14.0670571,10.641007 14.0512757,10.6589748 14.0311494,10.6724297 C14.0199651,10.6791291 13.9840574,10.6611612 13.9840574,10.6566763 C13.9862438,10.5603058 13.8383245,10.5580073 13.8584507,10.4773342 C13.87412,10.4099758 13.9616046,10.3696953 14.033448,10.3786652 C14.0938827,10.3853366 14.1073376,10.4458834 14.0849969,10.5042439 Z" id="Fill-80" fill="#C08E05"></path>
                <path d="M12.820212,10.448182 C12.7192725,10.4099758 12.669994,10.3292747 12.6319,10.2396036 C12.622902,10.2216358 12.6340864,10.2015095 12.6565392,10.194698 C12.6901483,10.1835417 12.7282424,10.1880266 12.7483966,10.2171508 C12.7910878,10.2799962 12.8292099,10.3292747 12.8919432,10.2351187 C12.9009131,10.2194494 12.9323358,10.2216358 12.9368488,10.2440886 C12.9503036,10.2934791 12.9210673,10.3360581 12.9032116,10.3786652 C12.8874582,10.4144607 12.8605205,10.448182 12.820212,10.448182 Z" id="Fill-81" fill="#BF8207"></path>
                <path d="M13.4816866,10.203696 C13.4525624,10.2620564 13.403284,10.2934791 13.4077689,10.3539139 C13.4099553,10.3831502 13.403284,10.4167593 13.3650778,10.4122743 C13.3359536,10.4077894 13.3247692,10.3786652 13.3179857,10.3472425 C13.2933465,10.2239343 13.3314686,10.1857281 13.4816866,10.203696 Z" id="Fill-82" fill="#C08D06"></path>
                <path d="M13.0681094,10.1970246 C13.1319401,10.2710263 13.1466868,10.3315732 13.0999634,10.3966331 C13.0950581,10.4033044 13.065718,10.4033044 13.0608127,10.3988195 C13.0093067,10.3360581 13.0215393,10.2755113 13.0681094,10.1970246 Z" id="Fill-83" fill="#C08A06"></path>
                <path d="M13.5804396,12.6569376 C13.4705302,12.6614225 13.3584064,12.6637491 13.2462825,12.668234 C13.1835212,12.6704205 13.145315,12.6524526 13.145315,12.578535 C13.1476136,12.2578328 13.145315,11.9394291 13.145315,11.6209974 C13.145315,11.5829033 13.1632829,11.558152 13.196892,11.5425107 C13.3224707,11.5806048 13.4435925,11.6254823 13.5535299,11.6950271" id="Fill-84" fill="#E1E1E1"></path>
                <path d="M13.8135731,12.4484713 C13.8158717,12.6772039 13.8135731,12.6772039 13.5804396,12.6569376 C13.5691712,12.3363475 13.6072933,12.0156172 13.5557163,11.6950271 C13.6432009,11.7151814 13.7351705,11.7308227 13.8069018,11.7936681 L13.8135731,12.4484713 Z" id="Fill-85" fill="#C2C0BE"></path>
                <path d="M7.33514168,12.6569376 C6.90228759,12.6772039 6.90228759,12.6772039 6.90010118,12.2488628 C6.90010118,12.0963184 6.89561622,11.9416155 6.89561622,11.7891831 C6.96734745,11.7106964 7.08395624,11.7286363 7.16465738,11.6702758 C7.35526791,11.6389652 7.37990712,11.6568209 7.38220566,11.8407601 C7.38671865,12.0582243 7.38442011,12.2758006 7.38220566,12.4932368 C7.38220566,12.5538117 7.37990712,12.6121721 7.33514168,12.6569376 Z" id="Fill-86" fill="#E0E0E0"></path>
                <path d="M7.10189606,11.318263 C6.89561622,11.3719983 6.89113127,11.3675134 6.89331768,11.1477507 C6.89561622,11.0244705 6.89331768,10.8988918 6.89331768,10.7755836 C6.89331768,10.6521913 6.93822328,10.5714902 7.07277189,10.5670052 C7.37990712,10.5310695 7.38220566,10.5333961 7.37772071,10.8406154 C7.37542217,10.9639236 7.41362837,11.0916887 7.33514168,11.2061392 C7.25662696,11.2420468 7.17811224,11.2801409 7.10189606,11.318263 Z" id="Fill-87" fill="#D8D6D6"></path>
                <path d="M7.33514168,12.6569376 C7.33514168,12.3834395 7.32835819,12.1120998 7.34181305,11.8384616 C7.34859654,11.6950271 7.29701957,11.647823 7.16465738,11.6702758 C7.25881337,11.6276968 7.34859654,11.5716348 7.45175047,11.553667 C7.49654395,11.5940596 7.4943295,11.647823 7.49654395,11.6994 L7.49654395,12.5067196 C7.49654395,12.5605952 7.49654395,12.6143585 7.45623543,12.6547511 C7.41362837,12.6569376 7.37323575,12.6569376 7.33514168,12.6569376 Z" id="Fill-88" fill="#ADACAC"></path>
                <path d="M9.72105292,8.36940598 C9.64713528,8.36710744 9.59107336,8.39174665 9.50129019,8.31553047 C9.56183707,8.21021815 9.67625945,8.21021815 9.75028921,8.23934232 C9.78389834,8.26176709 9.73902077,8.34246822 9.72105292,8.36940598 Z" id="Fill-89" fill="#1A895C"></path>
                <path d="M7.04583414,10.1319647 C6.96064805,10.1364497 6.9269268,10.0960571 6.92922534,10.0086846 C6.9337103,9.8404988 6.9337103,9.67231304 6.92922534,9.50412728 C6.9269268,9.43009751 6.95834951,9.40764471 7.03008074,9.40315976 C7.33732809,9.38521994 7.33732809,9.3830055 7.33732809,9.68795431 C7.33732809,9.7417177 7.33065673,9.7955932 7.33962663,9.84717017 C7.35756645,9.9727769 7.31717383,10.0602615 7.19389367,10.105027 C7.14668953,10.1386361 7.09511257,10.1341511 7.04583414,10.1319647 Z" id="Fill-90" fill="#E0E0E0"></path>
                <path d="M6.84622567,10.2665414 C6.88664632,10.2642428 6.92244185,10.2799962 6.94489465,10.3136334 C6.9718324,10.3539139 6.9493796,10.3853366 6.9179569,10.4144607 C6.90458613,10.4257572 6.88883273,10.4392121 6.87764838,10.4548814 C6.85300916,10.490789 6.89561622,10.5916444 6.80583306,10.5603058 C6.72294551,10.5310695 6.70946262,10.4257572 6.70716408,10.349541 C6.70716408,10.2776977 6.79246229,10.2845092 6.84622567,10.2665414 Z" id="Fill-91" fill="#C08D06"></path>
                <path d="M7.55709082,10.1566039 C7.59299848,10.2552729 7.53026519,10.3292747 7.4853596,10.4033044 C7.46072038,10.443697 7.41814135,10.4660377 7.37772071,10.4189457 C7.33284314,10.3652103 7.27008182,10.3001505 7.29472103,10.2306337 C7.32165879,10.1566039 7.36645226,10.2171508 7.40684488,10.24179 C7.50781239,10.3046354 7.4853596,10.1566039 7.55709082,10.1566039 Z" id="Fill-92" fill="#B8710E"></path>
                <path d="M7.23198775,10.4728212 C7.18259719,10.490789 7.13783175,10.4929755 7.09741111,10.4750076 C7.00774006,10.4347271 7.01441143,10.3539139 7.01889639,10.2755113 C7.02119492,10.2485735 7.01441143,10.203696 7.04804858,10.203696 C7.13102023,10.199211 7.10640904,10.2889942 7.14001816,10.3292747 C7.17811224,10.3696953 7.20275145,10.4212723 7.23198775,10.4728212 Z" id="Fill-93" fill="#BD7C09"></path>
                <path d="M8.26574153,8.91208537 C8.27689785,8.84024201 8.33295977,8.85602345 8.37786537,8.85602345 C8.97887719,8.85602345 9.57980491,8.85820986 10.1785182,8.85372491 C10.2750008,8.85372491 10.3019385,8.88744615 10.3019385,8.97930361 C10.2974255,9.39200344 10.29964,9.80226457 10.3019385,10.2149644 C10.3019385,10.2845092 10.290642,10.3247897 10.2077545,10.3450561 C10.0888472,10.3763667 9.97672331,10.4347271 9.86011452,10.4818191 C9.78608475,10.4863041 9.74350572,10.4683362 9.74580426,10.3786652 C9.75247563,10.1902131 9.74350572,10.006386 9.79508269,9.82023242 C9.82199241,9.72389001 9.85114461,9.60725318 9.72105292,9.52646795 C9.65831963,9.48834585 9.78389834,9.41664265 9.74799068,9.34928425 C9.70768216,9.29103592 9.64483674,9.30451881 9.58877482,9.29770729 C9.51707163,9.28873738 9.4610097,9.2798796 9.46768107,9.17891208 C9.47446457,9.05781833 9.37349705,9.04884842 9.28382601,9.04433544 C9.19415496,9.03985048 9.1357945,9.07797259 9.14924936,9.18339703 C9.15606089,9.21703418 9.14027946,9.25294184 9.1133417,9.2730961 C9.03045416,9.31797367 8.92730022,9.25294184 8.84881353,9.32016009 C8.84651499,9.3672521 8.83981559,9.41664265 8.86226839,9.46140809 C8.88690761,9.51298506 8.85996986,9.52876649 8.81739083,9.55789066 C8.72769175,9.61843753 8.69408263,9.72607642 8.76362744,9.80677756 C8.85329849,9.912202 8.84432858,10.0265123 8.84432858,10.1454476 C8.84432858,10.2552729 8.84203004,10.3673968 8.84203004,10.4773342 C8.64250567,10.4503964 8.71193835,10.6006143 8.69856759,10.6947703 C8.68281419,10.8091927 8.73887611,10.8361305 8.84203004,10.829347 C8.93848457,10.8226756 9.03493911,10.8271606 9.13130955,10.8271606 C9.25918679,10.8877074 9.39594985,10.8406154 9.52822795,10.8562847 C9.58210345,10.8629561 9.6493217,10.8361305 9.65610519,10.928016 C9.66280459,11.0088012 9.62919547,11.0603782 9.5551657,11.078346 C9.47665098,11.0985003 9.39594985,11.1164401 9.31295017,11.1164401 C9.01699929,11.1141415 8.7232068,11.1119551 8.42725592,11.1186265 C8.30164919,11.120925 8.25455718,11.0827188 8.25907016,10.9527393 C8.26574153,10.6970689 8.26125657,10.4413985 8.26125657,10.1835417 C8.26574153,9.7641705 8.26574153,9.33812793 8.26574153,8.91208537 Z" id="Fill-94" fill="#AB1519"></path>
                <path d="M8.94515594,12.7803579 L8.93181321,11.1567486 C9.12912314,11.176987 9.1357945,11.1836864 9.1357945,11.3719983 L9.1357945,13.401524 C9.1357945,13.448616 9.11782666,13.4732272 9.06857626,13.4755257 C9.0102158,13.4777401 8.99224796,13.448616 8.99224796,13.3947405 C8.99224796,13.2310397 8.9945465,13.0651524 8.99006154,12.9014516 C8.99006154,12.856546 9.01699929,12.7982977 8.94515594,12.7803579 Z" id="Fill-95" fill="#9E1717"></path>
                <path d="M9.63138188,13.4755257 L9.57313355,13.5068643 C9.41610411,13.5248041 9.41391769,13.5248041 9.41391769,13.3790712 L9.41391769,11.318263 C9.41391769,11.2598745 9.40943274,11.2016262 9.45649672,11.1545622 C9.56862056,11.1344079 9.60674267,11.1746884 9.60674267,11.2936238 C9.60225771,11.9461004 9.60455625,12.5963907 9.60455625,13.2489795 C9.60225771,13.3251957 9.60892908,13.3992254 9.63138188,13.4755257 Z" id="Fill-96" fill="#9F2115"></path>
                <path d="M8.84651499,13.4149788 C8.78375367,13.3812576 8.75681592,13.3364921 8.75681592,13.255791 C8.76132891,12.6143585 8.75911446,11.9730382 8.75911446,11.3294193 C8.75911446,11.3047801 8.75911446,11.2801409 8.76132891,11.2576881 C8.76581386,11.2151091 8.78596812,11.1814999 8.8330321,11.1859849 C8.8779377,11.1904698 8.87575129,11.2307503 8.87575129,11.2643875 C8.87575129,11.3809963 8.86893976,11.4976051 8.8779377,11.6120275 C8.90257691,11.9371305 8.87575129,12.2645041 8.87575129,12.5897193 C8.87575129,12.6569376 8.87575129,12.724296 8.93399962,12.7758729 C8.93399962,12.9597 8.93181321,13.1413686 8.93181321,13.3251957 C8.93399962,13.3857425 8.92730022,13.4329467 8.84651499,13.4149788 Z" id="Fill-97" fill="#C4AD00"></path>
                <path d="M9.15376235,10.8024092 C9.15606089,10.7688001 9.15606089,10.735191 9.16273226,10.7015819 C9.17388858,10.6342235 9.1268246,10.5310695 9.24343339,10.5199132 C9.38249499,10.5064584 9.43185751,10.5648188 9.43637049,10.7172231 C9.43637049,10.7463473 9.44074332,10.7755836 9.44522827,10.8024092 C9.34658733,10.8428299 9.25021688,10.8496134 9.15376235,10.8024092 Z" id="Fill-98" fill="#133DC3"></path>
                <path d="M9.19863992,13.5001649 C9.19863992,12.766875 9.19634138,12.0313987 9.19634138,11.2981087 C9.19634138,11.2330489 9.18967001,11.1702035 9.28831096,11.1746884 C9.38030857,11.176987 9.36901209,11.2375619 9.36901209,11.2958102 C9.36901209,12.0402564 9.36682568,12.7825443 9.36682568,13.5271027 L9.28601242,13.5405856 L9.19863992,13.5001649 Z" id="Fill-99" fill="#C3B000"></path>
                <path d="M10.4185473,13.4665558 C10.4701243,13.5921625 10.5306711,13.491195 10.5889195,13.4732272 C10.6562499,13.4755257 10.7257947,13.4710407 10.7907144,13.4822251 C10.8557462,13.49568 10.8670427,13.538287 10.8109808,13.5831646 C10.7683737,13.6168017 10.7189831,13.6414129 10.6652198,13.6414129 C10.5553104,13.6414129 10.4341886,13.589864 10.3557019,13.7244126 C10.342219,13.7468654 10.3086099,13.6482244 10.295127,13.6212867 C10.2816721,13.6033188 10.1740332,13.6818336 10.0216289,13.679535 C9.95656905,13.6615672 9.88705227,13.5405856 10.0103324,13.491195 C10.0731778,13.48671 10.3333612,13.5361006 10.3243633,13.4732272 C10.3557019,13.4508024 10.3871246,13.4462894 10.4185473,13.4665558 Z" id="Fill-100" fill="#2A6355"></path>
                <path d="M10.2435781,6.52836054 C10.200971,6.40942517 10.3019385,6.43406439 10.3580004,6.41393816 C10.3669703,6.4162367 10.3759402,6.4162367 10.3849102,6.4162367 C10.4476715,6.48345494 10.4566414,6.53284549 10.342219,6.53284549 C10.3086099,6.53284549 10.2750008,6.53054695 10.2435781,6.52836054 Z" id="Fill-101" fill="#1F63A5"></path>
                <path d="M8.71193835,7.71681719 C8.72539321,7.71681719 8.74117465,7.71463077 8.75462951,7.71463077 C8.80839289,7.7190036 8.89587752,7.69884934 8.89587752,7.76839416 C8.89809196,7.83112745 8.87575129,7.92309703 8.77029881,7.92309703 C8.70756552,7.92309703 8.65369002,7.9029708 8.63123722,7.84009735 C8.60878442,7.7706927 8.68511272,7.7572098 8.71193835,7.71681719 Z" id="Fill-102" fill="#A68503"></path>
                <path d="M11.3491472,12.5135031 C11.3468486,12.5582966 11.3513336,12.6008756 11.3222094,12.6391099 C11.2639611,12.7174844 11.2661475,12.7982977 11.3222094,12.8789988 C11.3491472,12.9171209 11.3491472,12.9597 11.3491472,13.0046056 C11.3491472,13.0471846 11.3536321,13.0965751 11.3020551,13.1144309 C11.2594761,13.1323707 11.2145705,13.1256993 11.1854463,13.0853067 C11.1450537,13.0315433 11.0845069,13.0135755 11.0262305,12.9933091 C10.9791665,12.9754814 10.9163211,12.9776678 10.9141067,12.903638 C10.9096217,12.8251233 10.929776,12.7422358 10.9992927,12.7174844 C11.1226009,12.6749054 11.2078991,12.6166571 11.2325384,12.4820804 C11.2370233,12.4529563 11.2774159,12.3968943 11.3266944,12.4125637 C11.367115,12.4282049 11.3401772,12.4820804 11.3491472,12.5135031 Z" id="Fill-103" fill="#AD1E17"></path>
                <path d="M11.4882088,12.4125637 C11.5913627,12.4574412 11.5150344,12.5963907 11.5958476,12.6435948 C11.6743343,12.6883603 11.7751897,12.6906588 11.8380351,12.7645765 C11.9097664,12.8475761 11.8783437,12.9641849 11.7730033,12.9933091 C11.7079715,13.0112769 11.6451261,13.0382147 11.5913627,13.0763088 C11.4926937,13.1436672 11.4052091,13.1054329 11.4433032,13.006792 C11.5218179,12.8072956 11.4500866,12.6143585 11.4724273,12.4215336 C11.4702409,12.4193471 11.4769403,12.4170486 11.4882088,12.4125637 Z" id="Fill-104" fill="#AD1D17"></path>
                <path d="M11.512848,12.1457089 C11.5599119,12.0784907 11.6137875,12.0201302 11.696675,11.991006 C11.7819732,11.9618538 11.8514059,11.9103049 11.8470331,11.8048524 C11.8447345,11.7577604 11.8828286,11.7286363 11.9119528,11.6950271 C11.9411891,11.6613059 11.9658283,11.5917611 12.0195917,11.6254823 C12.0667678,11.6546345 12.0062209,11.6994 11.9994374,11.7398206 C11.9859825,11.8204937 11.9658283,11.901307 12.0375595,11.9685532 C12.0824371,12.0111323 12.0599843,12.0582243 12.0330465,12.0986169 C12.0062209,12.141224 11.9546439,12.1928009 11.9187363,12.1636768 C11.7796747,12.0537393 11.654096,12.1546788 11.5218179,12.1658632 L11.512848,12.1568652 L11.512848,12.1457089 Z" id="Fill-105" fill="#AD1F17"></path>
                <path d="M11.9164377,11.5133585 C11.8716723,11.6097289 11.8267667,11.6994 11.7214263,11.7331212 C11.6316432,11.7622454 11.5733948,11.8093374 11.5710963,11.9169763 C11.5689099,11.9685532 11.5353008,12.0313987 11.4702409,12.0044609 C11.4186639,11.9841945 11.4231769,11.9192748 11.4523011,11.8788822 C11.5106615,11.7936681 11.4971787,11.7106964 11.4679424,11.6186988 C11.4388182,11.5312142 11.512848,11.463996 11.5868497,11.5110599 C11.701188,11.5829033 11.7998289,11.558152 11.9164377,11.5133585 Z" id="Fill-106" fill="#AE2117"></path>
                <path d="M10.8916819,12.2869569 C11.014962,12.320566 11.1383543,12.3160811 11.2594761,12.282472 L11.2571776,12.2802856 C11.2303519,12.3385339 11.1854463,12.3901109 11.1315708,12.4125637 C11.0172606,12.4596276 10.9365595,12.5179881 10.9231046,12.6547511 C10.9186196,12.6951718 10.8670427,12.7534201 10.8041973,12.7309673 C10.7459209,12.7085145 10.7594038,12.6524526 10.7728586,12.6053606 C10.788528,12.5492987 10.8154657,12.4955633 10.7705601,12.4439864 L10.8916819,12.2869569 Z" id="Fill-107" fill="#AD2017"></path>
                <path d="M12.044343,12.3811129 C11.9724997,12.4754091 11.9724997,12.5852344 12.0084073,12.7018432 C12.0152188,12.724296 11.9882811,12.7422358 11.9613433,12.7444222 C11.9052814,12.7467207 11.8537044,12.7129995 11.8537044,12.668234 C11.8514059,12.5112046 11.7617349,12.4395014 11.6294568,12.3945958 C11.5958476,12.3834395 11.5487556,12.3519887 11.5667235,12.3117083 C11.5868497,12.2600192 11.6316432,12.3027383 11.6653644,12.3094097 C11.743767,12.320566 11.8156104,12.3027383 11.8917985,12.2869569 C11.9591569,12.2713156 12.0308601,12.277987 12.044343,12.3811129 Z" id="Fill-108" fill="#AE2217"></path>
                <path d="M11.512848,12.1457089 C11.5150344,12.1523803 11.5173329,12.1591918 11.5195193,12.1681617 C11.5016636,12.3542873 11.4433032,12.3811129 11.2571776,12.282472 L11.2594761,12.2847705 L11.2594761,12.1681617 L11.2571776,12.1703481 C11.3379628,12.0918334 11.4186639,12.0492544 11.512848,12.1457089 Z" id="Fill-109" fill="#368F53"></path>
                <path d="M9.07754617,9.96377896 C9.10885675,10.0220273 9.14476441,10.0736043 9.14706295,10.1454476 C9.1515479,10.24179 9.11782666,10.2889942 9.02148425,10.2845092 C8.86893976,10.2530865 8.94515594,10.1341511 8.93848457,10.05345 C8.93181321,9.9571076 9.00800136,9.95929401 9.07754617,9.96377896 Z" id="Fill-110" fill="#183B9F"></path>
                <path d="M9.57313355,10.2845092 L9.46549466,10.2755113 C9.46319612,10.2194494 9.45649672,10.1610889 9.45649672,10.105027 C9.45419818,10.0422937 9.46997961,9.98841818 9.54619579,9.98393322 C9.61341404,9.97944827 9.66728954,10.0198409 9.66947596,10.0780892 C9.67396091,10.1544175 9.6874438,10.2530865 9.57313355,10.2845092 Z" id="Fill-111" fill="#0C34AB"></path>
                <path d="M9.60004327,9.75071563 C9.53949639,9.75071563 9.52374299,9.70592216 9.52155658,9.66552955 C9.51925804,9.62073607 9.51925804,9.55789066 9.57531996,9.54889272 C9.63816537,9.5377364 9.66728954,9.58931337 9.67625945,9.6475617 C9.6874438,9.70592216 9.64713528,9.73056137 9.60004327,9.75071563 Z" id="Fill-112" fill="#9F8D00"></path>
                <path d="M8.95863884,9.53325145 C9.0102158,9.54889272 9.03942406,9.57801689 9.04612346,9.6251089 C9.05279483,9.66782809 9.05727978,9.71707848 8.99673291,9.72389001 C8.94515594,9.73056137 8.93399962,9.69014073 8.93399962,9.64986024 C8.93399962,9.61176616 8.92730022,9.56686057 8.95863884,9.53325145 Z" id="Fill-113" fill="#A18F00"></path>
                <path d="M9.27934105,9.60725318 C9.31295017,9.60725318 9.33758939,9.62073607 9.33758939,9.65434519 C9.33758939,9.6924673 9.32643306,9.73723274 9.28152747,9.73723274 C9.24573193,9.73723274 9.23446348,9.69465371 9.2299505,9.6633151 C9.22327913,9.62959386 9.24343339,9.60946763 9.27934105,9.60725318 Z" id="Fill-114" fill="#AD9900"></path>
                <path d="M10.5732502,10.7732851 C10.595703,10.7912529 10.6180437,10.8047078 10.6293121,10.8226756 C10.6607348,10.8854089 10.7301675,10.9750799 10.7100132,11.0088012 C10.6764041,11.0670776 10.6314985,11.1164401 10.6180437,11.1859849 C10.6158572,11.1971412 10.5754366,11.2106241 10.5553104,11.2061392 C10.4409721,11.1814999 10.4476715,11.0603782 10.4320022,10.9908614 C10.4140624,10.9213166 10.497034,10.8338319 10.5732502,10.7732851 Z" id="Fill-115" fill="#918D1A"></path>
                <path d="M10.3624854,11.1477507 C10.4207337,11.1859849 10.4320022,11.271171 10.4656113,11.3272329 C10.5148897,11.412419 10.4140624,11.4931201 10.3714553,11.5716348 C10.3534874,11.6075425 10.2750008,11.5829033 10.2660028,11.5425107 C10.248063,11.4618095 10.1382377,11.3719983 10.2593315,11.2913252 C10.295127,11.266686 10.295127,11.2375619 10.29964,11.2061392 C10.3041249,11.1792014 10.3109084,11.1522636 10.3624854,11.1477507 Z" id="Fill-116" fill="#898314"></path>
                <path d="M10.2683014,10.6970689 C10.2683014,10.8629561 10.2660028,11.0940153 10.1404241,11.0850174 C10.0776908,11.0805324 10.0866607,11.0088012 10.059723,10.9863764 C9.90050713,10.8517998 10.1898147,10.5737887 10.2683014,10.6970689" id="Fill-117" fill="#657234"></path>
                <path d="M10.5687652,13.3992254 C10.5261862,13.4552873 10.3288482,13.448616 10.200971,13.4329467 C10.1269412,13.4239768 10.1091135,13.2647609 10.1808167,13.2400096 C10.3557019,13.1839476 10.3557019,13.1839476 10.5530959,13.2064004 C10.5777351,13.2871016 10.6136708,13.3230092 10.5687652,13.3992254 Z" id="Fill-118" fill="#D6B37C"></path>
                <path d="M10.3086099,13.4216782 C10.2929406,13.3409771 10.2929406,13.260276 10.3288482,13.1839476 C10.3781267,13.1704928 10.3871246,13.2175568 10.4117638,13.2400096 C10.4678257,13.3140393 10.4364871,13.3902275 10.4207337,13.4665558 L10.3288482,13.4710407 L10.3086099,13.4216782 Z" id="Fill-119" fill="#822C24"></path>
                <path d="M11.6093025,9.84268522 C11.6585809,9.80677756 11.6608795,9.7417177 11.6944886,9.69465371 C11.795344,9.6633151 11.795344,9.58931337 11.7730033,9.51079865 C11.7572499,9.45922168 11.743767,9.40764471 11.7685184,9.35609578 C11.7909712,9.30900376 11.8335502,9.27758106 11.8873136,9.29322233 C11.9478604,9.31119018 11.9254357,9.35828219 11.9164377,9.40086122 C11.8873136,9.54440777 11.898582,9.68565578 11.9254357,9.83150086 C11.9703132,10.0849007 11.9388905,10.1140249 11.6989735,10.0736043 C11.6585809,9.99968662 11.6204869,9.9278713 11.6093025,9.84268522 Z" id="Fill-120" fill="#D7D4D5"></path>
                <path d="M11.3648165,7.79084696 C11.3513336,7.79084696 11.3356643,7.78854842 11.3222094,7.78854842 C11.2481796,7.79084696 11.1809614,7.78184902 11.1944163,7.68320807 C11.2034142,7.62036266 11.2571776,7.59802198 11.2997566,7.62266119 C11.3581171,7.6540839 11.4589725,7.68090953 11.3895398,7.78854842 C11.3805699,7.78854842 11.3716,7.79084696 11.3648165,7.79084696 Z" id="Fill-121" fill="#B08D03"></path>
                <path d="M10.2435781,7.68987944 C10.2458766,7.67191159 10.2458766,7.6540839 10.2458766,7.63611606 C10.2861571,7.63611606 10.3265497,7.5867255 10.3646718,7.63381752 C10.3826116,7.65627032 10.3804252,7.67872311 10.3601868,7.69666293 C10.3198783,7.73926999 10.2816721,7.71233224 10.2435781,7.68987944 Z" id="Fill-122" fill="#A91718"></path>
            </g>
        </g>
    </g>
</svg>