<?xml version="1.0" encoding="UTF-8"?>
<svg width="20px" height="20px" viewBox="0 0 20 20" version="1.1" xmlns="http://www.w3.org/2000/svg" xmlns:xlink="http://www.w3.org/1999/xlink">
    <title>印地</title>
    <defs>
        <circle id="path-1" cx="10" cy="10" r="10"></circle>
        <polygon id="path-3" points="0 0 30 0 30 20 0 20"></polygon>
    </defs>
    <g id="页面-1" stroke="none" stroke-width="1" fill="none" fill-rule="evenodd">
        <g id="画板备份-17" transform="translate(-68.000000, -1537.000000)">
            <g id="印地" transform="translate(68.000000, 1537.000000)">
                <mask id="mask-2" fill="white">
                    <use xlink:href="#path-1"></use>
                </mask>
                <use id="蒙版" fill="#FFFFFF" xlink:href="#path-1"></use>
                <g id="yindu" mask="url(#mask-2)">
                    <g transform="translate(10.000000, 10.000000) scale(1, -1) translate(-10.000000, -10.000000) translate(-5.000000, 0.000000)">
                        <g id="编组" stroke-width="1" fill="none">
                            <mask id="mask-4" fill="white">
                                <use xlink:href="#path-3"></use>
                            </mask>
                            <g id="Clip-2"></g>
                            <path d="M0.121618875,19.8527586 L29.8770099,19.8527586 L29.8770099,0.122729642 L0.121618875,0.122729642 L0.121618875,19.8527586 Z M29.9639339,19.9527586 L29.9639339,19.8527586 L29.9639339,19.9527586 Z M-0.00146912271,20 L-0.00146912271,0 L30,0 L30,19.9754883 L-0.00146912271,19.9754883 L-0.00146912271,20 Z" id="Fill-1" fill="#353636" mask="url(#mask-4)"></path>
                        </g>
                        <polygon id="Fill-3" fill="#009842" points="0 20 30 20 30 13 0 13"></polygon>
                        <polygon id="Fill-4" fill="#FFFFFF" points="0 13 30 13 30 6 0 6"></polygon>
                        <polygon id="Fill-5" fill="#F2AB48" points="0 7 30 7 30 0 0 0"></polygon>
                        <path d="M17,9.13063863 L17.196703,9 L17.5370215,9.0751033 L17.3409891,9.20574193 L17,9.13063863 Z M17.7190277,9.8177439 L17.4381112,9.68862532 L17.7190277,9.58106575 L18,9.68862532 L17.7190277,9.8177439 Z M17.6629226,10.420283 L17.4381112,10.2696697 L17.8314613,10.2051211 L18,10.3342397 L17.6629226,10.420283 Z M17.061805,10.8543321 L17.4426935,10.8160312 L17.5426655,10.961699 L17.1623917,11 L17.061805,10.8543321 Z" id="Fill-6" fill="#22297B"></path>
                        <path d="M17.6043748,8.58648564 L17.6821954,8.4518627 L17.816834,8.52925655 L17.7392787,8.66387949 L17.6043748,8.58648564 Z M17.8888403,9.29454669 L17.7777026,9.16149016 L17.8888403,9.05065017 L18,9.16149016 L17.8888403,9.29454669 Z M17.8666437,9.91546244 L17.7777026,9.76025557 L17.9333218,9.69373833 L18,9.82679486 L17.8666437,9.91546244 Z M17.6288264,10.3627495 L17.7795155,10.3232804 L17.8190669,10.4733909 L17.668621,10.51286 L17.6288264,10.3627495 Z M15.0506188,7.11004576 L15.1603857,7 L15.2706833,7.10953833 L15.1608279,7.21958409 L15.0506188,7.11004576 Z M15.68174,7.08540239 L15.8163786,7.0077438 L15.8941993,7.14219024 L15.7595607,7.21976058 L15.68174,7.08540239 Z M16.5110607,7.32093737 L16.3555299,7.36523807 L16.3110483,7.21000913 L16.4665791,7.16564225 L16.5110607,7.32093737 Z M16.8666039,7.65350148 L17.0221347,7.65350148 L17.0221347,7.4982946 L16.8666039,7.4982946 L16.8666039,7.65350148 Z M17.466641,8.11921035 L17.3110881,8.07493172 L17.3554813,7.91961453 L17.5110121,7.96400348 L17.466641,8.11921035 Z M17.3554813,11.0242595 L17.5110121,11.0242595 L17.5110121,10.8690526 L17.3554813,10.8690526 L17.3554813,11.0242595 Z M16.8972679,11.4567208 L16.9366425,11.3067647 L17.0872653,11.3460573 L17.0476917,11.4961899 L16.8972679,11.4567208 Z M16.3333333,11.7561035 L16.4000115,11.623047 L16.5555423,11.6895642 L16.4665791,11.8225545 L16.3333333,11.7561035 Z M15.7110996,11.8890718 L15.8221709,11.7782538 L15.9555051,11.8890718 L15.8221709,12 L15.7110996,11.8890718 Z M15.088888,11.8669214 L15.2222222,11.7782538 L15.311097,11.9334607 L15.1777406,12 L15.088888,11.8669214 Z M14.4888509,11.6895642 L14.6443817,11.6451973 L14.6888632,11.8004042 L14.5333324,11.8447931 L14.4888509,11.6895642 Z M13.9554919,11.4899684 L14.1111111,11.4899684 L14.1111111,11.3346732 L13.9554919,11.3346732 L13.9554919,11.4899684 Z M13.502894,11.0464098 L13.5433076,10.8967185 L13.6935767,10.936695 L13.6533178,11.0868276 L13.502894,11.0464098 Z M13.1639982,10.4639263 L13.2417304,10.3294798 L13.3764575,10.4072928 L13.2986368,10.5417393 L13.1639982,10.4639263 Z M13.1110713,9.71586662 L13.222209,9.82679486 L13.1110713,9.95985139 L13,9.82679486 L13.1110713,9.71586662 Z M13.1333563,9.09495087 L13.222209,9.2280074 L13.0666782,9.31669704 L13,9.18361845 L13.1333563,9.09495087 Z M13.1597756,8.54167751 L13.3099562,8.50134799 L13.3504583,8.65121584 L13.2001892,8.69163361 L13.1597756,8.54167751 Z M13.4886342,7.96444472 L13.644165,7.96373873 L13.6448503,8.11905592 L13.4893196,8.1196516 L13.4886342,7.96444472 Z M14.1111111,7.54268355 L14.0666516,7.69789042 L13.9110987,7.65350148 L13.9554919,7.4982946 L14.1111111,7.54268355 Z M14.4474865,7.32402607 L14.5253072,7.18960169 L14.6599458,7.26723822 L14.5822136,7.40159641 L14.4474865,7.32402607 Z M15.4444312,9.49414251 L15.5111093,8.54055235 L15.4444312,7.09910295 L15.377753,8.54055235 L15.4444312,9.49414251 Z M15.4444312,9.49414251 L15.7554928,8.58494129 L16.0666428,7.18785878 L15.6221586,8.56279094 L15.4444312,9.49414251 Z M15.4444312,9.49414251 L15.9777017,8.69575922 L16.6443949,7.4317553 L15.8666525,8.62924199 L15.4444312,9.49414251 Z M15.4444312,9.49414251 L16.1777141,8.8732047 L17.1332944,7.8087966 L16.0666428,8.76229852 L15.4444312,9.49414251 Z M15.4444312,9.49414251 L16.3110483,9.07280052 L17.5110121,8.29665583 L16.2443702,8.96189434 L15.4444312,9.49414251 Z M15.4444312,9.49414251 L16.4000115,9.31669704 L17.755506,8.8732047 L16.3555299,9.18361845 L15.4444312,9.49414251 Z M15.4444312,9.49414251 L16.4000115,9.56065975 L17.8443808,9.49414251 L16.4000115,9.42760322 L15.4444312,9.49414251 Z M15.4444312,9.49414251 L16.3555299,9.80455626 L17.755506,10.1150583 L16.4000115,9.67149974 L15.4444312,9.49414251 Z M15.4444312,9.49414251 L16.2443702,10.0263907 L17.5332971,10.6916071 L16.3110483,9.91546244 L15.4444312,9.49414251 Z M15.4444312,9.49414251 L16.0666428,10.2258983 L17.1554689,11.1794664 L16.1777141,10.1150583 L15.4444312,9.49414251 Z M15.4444312,9.49414251 L15.8666525,10.3589548 L16.6443949,11.5565077 L15.9999867,10.2924155 L15.4444312,9.49414251 Z M15.4444312,9.49414251 L15.6221586,10.425472 L16.0666428,11.8004042 L15.7554928,10.4033437 L15.4444312,9.49414251 Z M15.4444312,9.49414251 L15.377753,10.4477106 L15.4444312,11.8890718 L15.5111093,10.4477106 L15.4444312,9.49414251 Z M15.4444312,9.49414251 L15.1332812,10.4033437 L14.844394,11.8004042 L15.2666154,10.4477106 L15.4444312,9.49414251 Z M15.4444312,9.49414251 L14.9110722,10.2924155 L14.2666419,11.578658 L15.0444064,10.3589548 L15.4444312,9.49414251 Z M15.4444312,9.49414251 L14.7333448,10.1150583 L13.7555679,11.201705 L14.8221975,10.2258983 L15.4444312,9.49414251 Z M15.4444312,9.49414251 L14.5777256,9.91546244 L13.3777398,10.6916071 L14.6666667,10.048541 L15.4444312,9.49414251 Z M15.4444312,9.49414251 L14.5110474,9.67149974 L13.1333563,10.1150583 L14.5333324,9.80455626 L15.4444312,9.49414251 Z M15.4444312,9.49414251 L14.4888509,9.42760322 L13.0443932,9.49414251 L14.4888509,9.56065975 L15.4444312,9.49414251 Z M15.4444312,9.49414251 L14.5333324,9.18361845 L13.1333563,8.89535505 L14.5110474,9.31669704 L15.4444312,9.49414251 Z M15.4444312,9.49414251 L14.6443817,8.96189434 L13.3777398,8.31880618 L14.5777256,9.07280052 L15.4444312,9.49414251 Z M15.4444312,9.49414251 L14.8221975,8.78453712 L13.7555679,7.8087966 L14.7110598,8.8732047 L15.4444312,9.49414251 Z M15.4444312,9.49414251 L15.0222098,8.62924199 L14.2444674,7.4317553 L14.9110722,8.71799782 L15.4444312,9.49414251 Z M15.4444312,9.49414251 L15.2666154,8.56279094 L14.8221975,7.18785878 L15.1332812,8.58494129 L15.4444312,9.49414251 Z" id="Fill-7" fill="#22297B"></path>
                        <path d="M14.3028711,12.581517 C12.8826749,12.1887963 12.0501242,10.7406722 12.4174453,9.31696805 C12.8092253,7.89326387 14.2539535,7.05878728 15.6741497,7.42691717 C17.0944435,7.81973557 17.9270185,9.26783523 17.5596974,10.6915394 C17.1923763,12.1151459 15.7231649,12.9743354 14.3028711,12.581517 Z M15.77218,7.10782243 C14.1805039,6.66606656 12.53991,7.62332637 12.0991149,9.2188245 C11.6827787,10.814225 12.6132866,12.4588315 14.2294946,12.900685 C15.8210733,13.3179233 17.4617646,12.3852055 17.9024622,10.7651898 C18.3187985,9.19420925 17.3637587,7.54967597 15.77218,7.10782243 Z" id="Fill-8" fill="#22297B"></path>
                        <path d="M15.2758781,9.62719904 C15.2019721,9.89331209 14.9063972,10.048541 14.6108957,9.95985139 C14.3153208,9.89331209 14.1428326,9.62719904 14.2414148,9.36106392 C14.3153208,9.09495087 14.6108957,8.93974399 14.9063972,9.02841157 C15.2019721,9.11718946 15.3743868,9.36106392 15.2758781,9.62719904 Z M15.8916552,7.32093737 L15.7192651,7.36523807 L15.6699617,7.21000913 L15.8423519,7.16564225 L15.8916552,7.32093737 Z M16.2857388,7.65350148 L16.4581289,7.65350148 L16.4581289,7.4982946 L16.2857388,7.4982946 L16.2857388,7.65350148 Z M16.9508192,8.11921035 L16.7784046,8.07493172 L16.8276099,7.91961453 L17,7.96400348 L16.9508192,8.11921035 Z M16.8276099,11.0242595 L17,11.0242595 L17,10.8690526 L16.8276099,10.8690526 L16.8276099,11.0242595 Z M16.3197267,11.4567208 L16.3633695,11.3067647 L16.5303196,11.3460573 L16.4864563,11.4961899 L16.3197267,11.4567208 Z M15.6946624,11.7561035 L15.7685684,11.623047 L15.9409585,11.6895642 L15.8423519,11.8225545 L15.6946624,11.7561035 Z M15.0049793,11.8890718 L15.1280906,11.7782538 L15.2758781,11.8890718 L15.1280906,12 L15.0049793,11.8890718 Z M14.3153208,11.8669214 L14.4631083,11.7782538 L14.5616169,11.9334607 L14.4138049,12 L14.3153208,11.8669214 Z M13.6502404,11.6895642 L13.8226305,11.6451973 L13.8719339,11.8004042 L13.6995437,11.8447931 L13.6502404,11.6895642 Z M13.059066,11.4899684 L13.2315541,11.4899684 L13.2315541,11.3346732 L13.059066,11.3346732 L13.059066,11.4899684 Z M12.557407,11.0464098 L12.6022015,10.8967185 L12.7687595,10.936695 L12.7241366,11.0868276 L12.557407,11.0464098 Z M12.1817754,10.4639263 L12.2679337,10.3294798 L12.417265,10.4072928 L12.3310087,10.5417393 L12.1817754,10.4639263 Z M12.1231113,9.71586662 L12.2462961,9.82679486 L12.1231113,9.95985139 L12,9.82679486 L12.1231113,9.71586662 Z M12.147812,9.09495087 L12.2462961,9.2280074 L12.073906,9.31669704 L12,9.18361845 L12.147812,9.09495087 Z M12.177095,8.54167751 L12.343555,8.50134799 L12.3884475,8.65121584 L12.2218895,8.69163361 L12.177095,8.54167751 Z M12.5416015,7.96444472 L12.7139917,7.96373873 L12.7147513,8.11905592 L12.5423612,8.1196516 L12.5416015,7.96444472 Z M13.2315541,7.54268355 L13.1822753,7.69789042 L13.0098607,7.65350148 L13.059066,7.4982946 L13.2315541,7.54268355 Z M13.6043922,7.32402607 L13.6906485,7.18960169 L13.8398818,7.26723822 L13.7537235,7.40159641 L13.6043922,7.32402607 Z M14.2729033,7.11004576 L14.3945688,7 L14.5168224,7.10953833 L14.3950589,7.21958409 L14.2729033,7.11004576 Z" id="Fill-9" fill="#22297B"></path>
                    </g>
                </g>
            </g>
        </g>
    </g>
</svg>