<?xml version="1.0" encoding="UTF-8"?>
<svg width="27px" height="28px" viewBox="0 0 27 28" version="1.1" xmlns="http://www.w3.org/2000/svg" xmlns:xlink="http://www.w3.org/1999/xlink">
    <title>线性账单</title>
    <defs>
        <rect id="path-1" x="2.49990905" y="5" width="19" height="16" rx="6"></rect>
        <filter x="-10.5%" y="-12.5%" width="121.1%" height="125.0%" filterUnits="objectBoundingBox" id="filter-2">
            <feOffset dx="4" dy="0" in="SourceAlpha" result="shadowOffsetInner1"></feOffset>
            <feComposite in="shadowOffsetInner1" in2="SourceAlpha" operator="arithmetic" k2="-1" k3="1" result="shadowInnerInner1"></feComposite>
            <feColorMatrix values="0 0 0 0 0.909803922   0 0 0 0 0.945098039   0 0 0 0 0.996078431  0 0 0 1 0" type="matrix" in="shadowInnerInner1"></feColorMatrix>
        </filter>
    </defs>
    <g id="页面-1" stroke="none" stroke-width="1" fill="none" fill-rule="evenodd">
        <g id="电商icon" transform="translate(-59.000000, -107.000000)">
            <g id="线性账单" transform="translate(59.000000, 107.000000)">
                <g id="编组" transform="translate(3.000000, 4.000000)">
                    <rect id="矩形" x="0" y="0" width="24" height="24"></rect>
                    <g id="矩形">
                        <use fill="black" fill-opacity="1" filter="url(#filter-2)" xlink:href="#path-1"></use>
                        <rect stroke="#2A83FC" stroke-width="2" stroke-linejoin="square" x="3.49990905" y="6" width="17" height="14" rx="6"></rect>
                    </g>
                    <path d="M8.64644661,10.6464466 C9.13807119,10.5 9.26307119,10.5559644 9.35355339,10.6464466 C9.44403559,10.7369288 9.5,10.8619288 9.5,11 C9.5,11.1380712 9.44403559,11.2630712 9.35355339,11.3535534 C9.26307119,11.4440356 9.13807119,11.5 9,11.5 C8.86192881,11.5 8.73692881,11.4440356 8.64644661,11.3535534 C8.55596441,11.2630712 8.5,11.1380712 8.5,11 C8.5,10.8619288 8.55596441,10.7369288 8.64644661,10.6464466 Z" id="形状结合" stroke="#2AD2FC"></path>
                </g>
                <path d="M1,7 C1.55228475,7 2,7.44771525 2,8 C2,8.55228475 1.55228475,9 1,9 C0.44771525,9 0,8.55228475 0,8 C0,7.44771525 0.44771525,7 1,7 Z M26,0 C26.5522847,0 27,0.44771525 27,1 C27,1.55228475 26.5522847,2 26,2 C25.4477153,2 25,1.55228475 25,1 C25,0.44771525 25.4477153,0 26,0 Z" id="形状结合" fill="#2A83FC"></path>
                <circle id="椭圆形备份-5" fill="#2AD2FC" cx="2" cy="4" r="1"></circle>
            </g>
        </g>
    </g>
</svg>