<svg xmlns="http://www.w3.org/2000/svg" width="30" height="30" viewBox="0 0 30 30"><defs><style>.a{fill:none;}.b{fill:#506778;}</style></defs><g transform="translate(-290 -1486)"><rect class="a" width="30" height="30" transform="translate(290 1486)"/><g transform="translate(252.467 1448.467)"><path class="b" d="M52.739,64.945A12.206,12.206,0,1,1,64.945,52.739,12.21,12.21,0,0,1,52.739,64.945Zm0-22.755A10.549,10.549,0,1,0,63.288,52.739,10.583,10.583,0,0,0,52.739,42.19Z" transform="translate(0 0)"/><path class="b" d="M292.129,350.3a6.773,6.773,0,0,1-5.633-2.982.835.835,0,1,1,1.381-.939A5.1,5.1,0,0,0,295,347.76a5.91,5.91,0,0,0,1.436-1.436.835.835,0,1,1,1.381.939A6.522,6.522,0,0,1,292.129,350.3Zm-4.418-7.567a.849.849,0,0,1-.828-.828v-1.878a.828.828,0,0,1,1.657,0v1.878A.783.783,0,0,1,287.71,342.734Zm8.947,0a.849.849,0,0,1-.828-.828v-1.878a.828.828,0,0,1,1.657,0v1.878A.813.813,0,0,1,296.657,342.734Z" transform="translate(-239.445 -290.934)"/></g></g></svg>