<svg xmlns="http://www.w3.org/2000/svg" width="50" height="50" viewBox="0 0 50 50"><defs><style>.a,.c,.d{fill:none;}.b{fill:#fff;}.c{stroke:#fff;}.c,.d{stroke-linecap:round;stroke-miterlimit:10;stroke-width:2px;}.d{stroke:#ffb300;}</style></defs><g transform="translate(-99 -380)"><rect class="a" width="50" height="50" transform="translate(99 380)"/><g transform="translate(107 390)"><g transform="translate(0)"><path class="b" d="M10.872,2.019A1.209,1.209,0,0,1,12.08,3.226v7.646a1.209,1.209,0,0,1-1.208,1.208H3.221a1.209,1.209,0,0,1-1.2-1.208V3.221a1.209,1.209,0,0,1,1.2-1.2h7.651m0-2.019H3.221A3.221,3.221,0,0,0,0,3.221v7.651a3.221,3.221,0,0,0,3.221,3.221h7.651a3.221,3.221,0,0,0,3.221-3.221V3.221A3.221,3.221,0,0,0,10.872,0Z" transform="translate(0)"/><path class="b" d="M10.872,89.2a1.209,1.209,0,0,1,1.208,1.208v7.651a1.209,1.209,0,0,1-1.208,1.2H3.221a1.209,1.209,0,0,1-1.2-1.2V90.406A1.209,1.209,0,0,1,3.226,89.2h7.646m0-2.019H3.221A3.221,3.221,0,0,0,0,90.406v7.651a3.221,3.221,0,0,0,3.221,3.221h7.651a3.221,3.221,0,0,0,3.221-3.221V90.406a3.221,3.221,0,0,0-3.221-3.221Z" transform="translate(0 -71.18)"/><line class="c" x2="17.251" transform="translate(16.772 3.303)"/><line class="c" x2="17.251" transform="translate(16.772 10.644)"/><line class="c" x2="17.251" transform="translate(16.772 19.27)"/><line class="d" x2="10.461" transform="translate(16.772 26.611)"/><line class="d" x2="3.12" transform="translate(30.903 26.611)"/></g></g></g></svg>