<?xml version="1.0" standalone="no"?><!DOCTYPE svg PUBLIC "-//W3C//DTD SVG 1.1//EN" "http://www.w3.org/Graphics/SVG/1.1/DTD/svg11.dtd"><svg t="1656319774847" class="icon" viewBox="0 0 1024 1024" version="1.1" xmlns="http://www.w3.org/2000/svg" p-id="9813" xmlns:xlink="http://www.w3.org/1999/xlink" width="200" height="200"><defs></defs><path d="M775.68 848.64H394.24c-51.2 0-98.56-23.04-133.12-64-11.52-14.08-10.24-33.28 3.84-44.8 14.08-11.52 33.28-10.24 44.8 3.84 23.04 26.88 52.48 40.96 84.48 40.96h382.72c66.56 0 120.32-64 120.32-142.08V381.44c0-78.08-53.76-142.08-120.32-142.08H394.24c-66.56 0-120.32 64-120.32 142.08v48.64c0 17.92-14.08 32-32 32s-32-14.08-32-32v-48.64c0-113.92 83.2-206.08 184.32-206.08h382.72C876.8 175.36 960 268.8 960 381.44v261.12c0 112.64-83.2 206.08-184.32 206.08z" p-id="9814" fill="#ffffff"></path><path d="M357.12 582.4H167.68c-17.92 0-32-14.08-32-32s14.08-32 32-32h189.44c17.92 0 32 14.08 32 32s-14.08 32-32 32zM285.44 684.8H96C78.08 684.8 64 670.72 64 652.8s14.08-32 32-32h189.44c17.92 0 32 14.08 32 32s-14.08 32-32 32zM599.04 519.68c-6.4 0-14.08-2.56-19.2-6.4L281.6 280.32c-14.08-10.24-16.64-30.72-5.12-44.8 10.24-14.08 30.72-16.64 44.8-5.12l279.04 217.6 262.4-204.8c14.08-11.52 34.56-8.96 44.8 5.12 10.24 14.08 8.96 34.56-5.12 44.8l-281.6 220.16c-7.68 3.84-14.08 6.4-21.76 6.4z" p-id="9815" fill="#ffffff"></path></svg>