<svg width="18" height="18" viewBox="0 0 18 18" fill="none" xmlns="http://www.w3.org/2000/svg">
<path d="M9 18C13.9706 18 18 13.9706 18 9C18 4.02944 13.9706 0 9 0C4.02944 0 0 4.02944 0 9C0 13.9706 4.02944 18 9 18Z" fill="#D80027"/>
<path d="M4.92539 5.47754L5.70234 7.86816H8.21602L6.18398 9.34824L6.96094 11.7389L4.92539 10.2623L2.88984 11.7389L3.67031 9.34824L1.63477 7.86816H4.14844L4.92539 5.47754Z" fill="#FFDA44"/>
<path d="M10.6707 13.9396L10.0766 13.2083L9.19766 13.5493L9.70742 12.7583L9.11328 12.0235L10.0238 12.2661L10.5371 11.4751L10.5863 12.4173L11.5004 12.6599L10.618 12.9974L10.6707 13.9396Z" fill="#FFDA44"/>
<path d="M11.852 11.795L12.1332 10.895L11.3633 10.3501L12.3055 10.336L12.5832 9.43604L12.8891 10.329L13.8312 10.3185L13.0754 10.881L13.3777 11.7739L12.6078 11.229L11.852 11.795Z" fill="#FFDA44"/>
<path d="M13.443 6.60566L13.0281 7.45293L13.7031 8.11035L12.7715 7.97676L12.3566 8.82051L12.1949 7.89238L11.2598 7.75879L12.0965 7.31934L11.9348 6.3877L12.6098 7.04512L13.443 6.60566Z" fill="#FFDA44"/>
<path d="M10.6941 4.03955L10.6238 4.97822L11.4992 5.3333L10.5816 5.5583L10.5148 6.50049L10.0191 5.69893L9.10156 5.92393L9.70977 5.20322L9.21055 4.40518L10.0859 4.76025L10.6941 4.03955Z" fill="#FFDA44"/>
</svg>
