<?xml version="1.0" standalone="no"?><!DOCTYPE svg PUBLIC "-//W3C//DTD SVG 1.1//EN" "http://www.w3.org/Graphics/SVG/1.1/DTD/svg11.dtd"><svg t="1647004841304" class="icon" viewBox="0 0 1024 1024" version="1.1" xmlns="http://www.w3.org/2000/svg" p-id="27527" xmlns:xlink="http://www.w3.org/1999/xlink" width="200" height="200"><defs><style type="text/css"></style></defs><path d="M510.00188679 18.46592c-207.8038228 0-383.63782753 127.87927616-459.56614775 311.70573468h915.13606716c-67.93586546-183.82645852-247.7660966-311.70573468-455.56991941-311.70573468z" fill="" p-id="27528"></path><path d="M46.43951166 669.85098104c63.93963809 195.81514066 251.76232399 335.68309896 467.55860155 335.68309896 215.79627756 0 399.62273705-139.8679583 467.5586025-335.68309896h-935.11720405z" fill="#FFCE00" p-id="27529"></path><path d="M1005.53408 513.99811321c0-63.93963809-11.98868214-127.87927616-35.96604642-183.82645853h-915.13606716c-23.97736429 55.94718332-35.96604642 119.88682141-35.96604642 183.82645853 0 55.94718332 7.99245476 107.89813926 27.97359166 155.85286783H977.56048834c19.9811369-47.95472856 27.97359166-103.90191188 27.97359166-155.85286783z" fill="#DD0000" p-id="27530"></path></svg>