<svg xmlns="http://www.w3.org/2000/svg" width="45" height="20" viewBox="0 0 45 20"><defs><style>.a{fill:none;}.b{fill:#fff;}</style></defs><g transform="translate(-646 -682)"><rect class="a" width="45" height="20" transform="translate(646 682)"/><g transform="translate(616.475 266.475)"><path class="b" d="M52.057,426.555c-6.306,0-12.6-1.923-17.09-5.759a1.3,1.3,0,1,1,1.709-1.948c7.913,6.836,22.883,6.836,30.762,0a1.3,1.3,0,1,1,1.709,1.948C64.66,424.632,58.363,426.555,52.057,426.555Z" transform="translate(0 0)"/><path class="b" d="M93.955,540.321a1.049,1.049,0,0,1-.231,0,1.273,1.273,0,0,1-1.068-1.547l.855-5.042a1.3,1.3,0,0,1,2.563.444l-.854,5.042A1.282,1.282,0,0,1,93.955,540.321Zm19.209-2.563a1.264,1.264,0,0,1-.906-.385l-4.213-4.272a1.282,1.282,0,1,1,1.82-1.795l4.213,4.273a1.282,1.282,0,0,1,0,1.812,1.332,1.332,0,0,1-.914.367Zm-29.053,0a1.332,1.332,0,0,1-.855-.367,1.282,1.282,0,0,1,0-1.811l4.213-4.273a1.282,1.282,0,1,1,1.769,1.795l-4.213,4.272a1.264,1.264,0,0,1-.914.385Zm19.269,2.563a1.282,1.282,0,0,1-1.256-1.06l-.854-5.042a1.282,1.282,0,1,1,2.5-.487l.854,5.042a1.273,1.273,0,0,1-1.034,1.487A1.043,1.043,0,0,1,103.38,540.321Z" transform="translate(-46.581 -108.109)"/></g></g></svg>