<?xml version="1.0" encoding="utf-8"?>
<!-- Generator: Adobe Illustrator 24.2.1, SVG Export Plug-In . SVG Version: 6.00 Build 0)  -->
<svg version="1.1" id="图层_1" xmlns="http://www.w3.org/2000/svg" xmlns:xlink="http://www.w3.org/1999/xlink" x="0px" y="0px"
	 viewBox="0 0 1024 1024" style="enable-background:new 0 0 1024 1024;" xml:space="preserve">
<style type="text/css">
	.st0{opacity:0.15;fill:#47A3FF;enable-background:new    ;}
	.st1{fill:#47A3FF;}
	.st2{fill:#FFFFFF;}
</style>
<circle class="st0" cx="512" cy="526.5" r="448"/>
<circle class="st1" cx="635" cy="597.7" r="126.3"/>
<path class="st1" d="M480,597.7c0-85.6,69.4-155,155-155c9.4,0,18.7,0.8,27.7,2.5V320c0-6.6-5.4-12-12-12H336c-6.6,0-12,5.4-12,12
	v395.2c0,6.6,5.4,12,12,12h213.8C507.8,699.4,480,651.8,480,597.7z"/>
<path class="st2" d="M586.7,386.4H386.9c-5.5,0-10-4.5-10-10v0c0-5.5,4.5-10,10-10h199.9c5.5,0,10,4.5,10,10v0
	C596.7,381.9,592.2,386.4,586.7,386.4z"/>
<path class="st2" d="M486,456.9h-99.1c-5.5,0-10-4.5-10-10v0c0-5.5,4.5-10,10-10H486c5.5,0,10,4.5,10,10v0
	C496,452.4,491.5,456.9,486,456.9z"/>
<path class="st2" d="M439.8,527.3h-52.9c-5.5,0-10-4.5-10-10l0,0c0-5.5,4.5-10,10-10h52.9c5.5,0,10,4.5,10,10l0,0
	C449.8,522.8,445.3,527.3,439.8,527.3z"/>
<path class="st2" d="M439.8,597.7h-52.9c-5.5,0-10-4.5-10-10l0,0c0-5.5,4.5-10,10-10h52.9c5.5,0,10,4.5,10,10l0,0
	C449.8,593.2,445.3,597.7,439.8,597.7z"/>
<path class="st2" d="M637.5,539.3l15.1,30.7c0.5,1.1,1.6,1.8,2.8,2l33.9,4.9c3,0.4,4.2,4.1,2,6.3l-24.5,23.9
	c-0.9,0.8-1.3,2.1-1.1,3.2l5.8,33.7c0.5,3-2.6,5.3-5.3,3.9L635.9,632c-1.1-0.6-2.3-0.6-3.4,0l-30.3,15.9c-2.7,1.4-5.8-0.9-5.3-3.9
	l5.8-33.7c0.2-1.2-0.2-2.4-1.1-3.2l-24.5-23.9c-2.2-2.1-1-5.8,2-6.3L613,572c1.2-0.2,2.2-0.9,2.8-2l15.1-30.7
	C632.3,536.6,636.2,536.6,637.5,539.3z"/>
</svg>
