<?xml version="1.0" encoding="utf-8"?>
<!-- Generator: Adobe Illustrator 24.1.2, SVG Export Plug-In . SVG Version: 6.00 Build 0)  -->
<svg version="1.1" id="图层_1" xmlns="http://www.w3.org/2000/svg" xmlns:xlink="http://www.w3.org/1999/xlink" x="0px" y="0px"
	 viewBox="0 0 1024 1024" style="enable-background:new 0 0 1024 1024;" xml:space="preserve">
<style type="text/css">
	.st0{fill:url(#SVGID_1_);}
</style>
<linearGradient id="SVGID_1_" gradientUnits="userSpaceOnUse" x1="797.6828" y1="787.5283" x2="223.6372" y2="213.4827">
	<stop  offset="0" style="stop-color:#0056F7"/>
	<stop  offset="0.1657" style="stop-color:#0260F7"/>
	<stop  offset="0.447" style="stop-color:#067BF7"/>
	<stop  offset="0.8075" style="stop-color:#0DA6F7"/>
	<stop  offset="1" style="stop-color:#11C0F7"/>
</linearGradient>
<path class="st0" d="M875.5,343.2c-20.5-48.2-49.8-91.5-87.2-128.7c-37.5-37.2-81-66.4-129.3-86.7C608.7,106.7,555.5,96,500.7,96
	c-51.8,0-102.1,10.1-149.4,30c-45.7,19.3-86.8,46.8-122.1,81.9c-35.3,35.1-63,76-82.4,121.5c-20.1,47-30.2,97.4-30.2,149.6
	c0,48.7,9.6,95.9,28.5,140.3c18.3,43.1,44.5,81.7,77.8,114.7c33.1,33,71.9,59.1,115.3,77.3c44.6,18.8,92.1,28.3,141.2,28.3
	c46.7-6.2,55.1-44,56.3-59.8V593.2h102.9c15.8,0,28.6-12.8,28.6-28.6c0-15.8-12.8-28.6-28.6-28.6H535.7v-57.3h122
	c15.8,0,28.6-12.8,28.6-28.6c0-15.8-12.8-28.6-28.6-28.6H540.5l84.8-81.9c11.4-11,11.7-29.1,0.7-40.5c-11-11.4-29.1-11.7-40.5-0.7
	l-78.1,75.5l-73.5-73.5c-11.2-11.2-29.3-11.2-40.5,0c-11.2,11.2-11.2,29.3,0,40.5l80.6,80.6H366.4c-15.8,0-28.6,12.8-28.6,28.6
	c0,15.8,12.8,28.6,28.6,28.6h112v57.3h-93c-15.8,0-28.6,12.8-28.6,28.6c0,15.8,12.8,28.6,28.6,28.6h93v186.7c0,0.6,0.1,1.1,0.2,1.7
	c-81.1-0.2-157.3-31.7-214.6-88.8c-57.5-57.1-89.1-133.4-89.1-214.8c0.1-86.5,34-167.8,95.4-228.9c61.6-61.2,143.4-95,230.5-95
	c47,0,92.7,9.2,135.7,27.2c41.5,17.4,78.8,42.4,110.8,74.3c32,31.9,57.1,69,74.7,110.1c18.1,42.7,27.3,88.1,27.3,134.8
	c0,50.1-9.9,98.6-29.3,144.2c-18.8,44.1-45.7,83.8-79.9,117.8c-34.2,34-74.1,60.7-118.5,79.4c-46,19.3-94.8,29.1-145,29.1
	c-31.5,0-63-3.7-93.4-11c-2.2-0.5-4.5-0.8-6.8-0.8c-13.5,0-25.1,9.2-28.3,22.4c-3.7,15.6,5.9,31.3,21.6,35.1
	c35.1,8.3,71,12.6,106.9,12.6c58.2,0,114.6-11.3,167.7-33.7c51.4-21.6,97.4-52.5,136.9-91.8c39.5-39.3,70.6-85.1,92.4-136.3
	c22.5-52.9,33.9-109.1,33.9-167C907.4,446.2,896.7,393.2,875.5,343.2z"/>
</svg>
