<?xml version="1.0" standalone="no"?><!DOCTYPE svg PUBLIC "-//W3C//DTD SVG 1.1//EN" "http://www.w3.org/Graphics/SVG/1.1/DTD/svg11.dtd"><svg t="1656301633648" class="icon" viewBox="0 0 1024 1024" version="1.1" xmlns="http://www.w3.org/2000/svg" p-id="12355" xmlns:xlink="http://www.w3.org/1999/xlink" width="200" height="200"><defs></defs><path d="M832 42.666667H149.333333c-58.813333 0-106.666667 47.853333-106.666666 106.666666v256a21.333333 21.333333 0 0 0 21.333333 21.333334h149.333333v533.333333a21.333333 21.333333 0 0 0 30.873334 19.08l76.766666-38.38 97.773334 39.106667a21.333333 21.333333 0 0 0 15.84 0L533.333333 940.306667l98.746667 39.5a21.333333 21.333333 0 0 0 15.84 0l100.266667-40.106667 164 40.993333a21.02 21.02 0 0 0 5.173333 0.666667 21.333333 21.333333 0 0 0 21.333333-21.333333V149.333333C938.666667 90.52 890.813333 42.666667 832 42.666667zM85.333333 384V149.333333a64 64 0 0 1 128 0v234.666667z m810.666667 548.666667l-144.16-36a21.333333 21.333333 0 0 0-13.093333 0.886666L640 937.026667l-98.746667-39.5a21.333333 21.333333 0 0 0-15.84 0L426.666667 937.026667l-98.746667-39.5a21.333333 21.333333 0 0 0-17.46 0.726666L256 925.48V149.333333a106.126667 106.126667 0 0 0-21.386667-64H832a64.073333 64.073333 0 0 1 64 64zM512 512v85.333333h149.333333a21.333333 21.333333 0 0 1 21.333334 21.333334v128a21.333333 21.333333 0 0 1-21.333334 21.333333h-64v21.333333a21.333333 21.333333 0 0 1-42.666666 0v-21.333333h-64a21.333333 21.333333 0 0 1 0-42.666667h149.333333V640H490.666667a21.333333 21.333333 0 0 1-21.333334-21.333333V490.666667a21.333333 21.333333 0 0 1 21.333334-21.333334h64v-21.333333a21.333333 21.333333 0 0 1 42.666666 0v21.333333h64a21.333333 21.333333 0 0 1 0 42.666667zM341.333333 192a21.333333 21.333333 0 0 1 21.333334-21.333333h85.333333a21.333333 21.333333 0 0 1 0 42.666666H362.666667a21.333333 21.333333 0 0 1-21.333334-21.333333z m469.333334 128a21.333333 21.333333 0 0 1-21.333334 21.333333H362.666667a21.333333 21.333333 0 0 1 0-42.666666h426.666666a21.333333 21.333333 0 0 1 21.333334 21.333333z m0-128a21.333333 21.333333 0 0 1-21.333334 21.333333H533.333333a21.333333 21.333333 0 0 1 0-42.666666h256a21.333333 21.333333 0 0 1 21.333334 21.333333z" fill="#3d8dfe" p-id="12356"></path></svg>