<?xml version="1.0" encoding="utf-8"?>
<!-- Generator: Adobe Illustrator 24.2.1, SVG Export Plug-In . SVG Version: 6.00 Build 0)  -->
<svg version="1.1" id="图层_1" xmlns="http://www.w3.org/2000/svg" xmlns:xlink="http://www.w3.org/1999/xlink" x="0px" y="0px"
	 viewBox="0 0 1024 1024" style="enable-background:new 0 0 1024 1024;" xml:space="preserve">
<style type="text/css">
	.st0{opacity:0.15;fill:#47A3FF;enable-background:new    ;}
	.st1{fill:#47A3FF;}
	.st2{fill:#FFFFFF;}
</style>
<circle class="st0" cx="512" cy="526.5" r="448"/>
<path class="st1" d="M506,374.7H282.7v-49c0-6.6,5.4-12,12-12H426L506,374.7z"/>
<circle class="st1" cx="689.4" cy="524.9" r="65.4"/>
<g>
	<path class="st1" d="M641.4,587.9c-24.3-13.6-40.7-39.5-40.7-69.3c0-43.8,35.5-79.3,79.3-79.3c18.7,0,35.8,6.5,49.3,17.2v-69.9
		c0-6.6-5.4-12-12-12H282.7v278.7c0,6.6,5.4,12,12,12h273.6C578.7,629.2,606.1,600.3,641.4,587.9z"/>
</g>
<path class="st1" d="M789.9,665.3c-13.7-43.5-53.5-75-100.5-75c-47,0-86.8,31.5-100.5,75H789.9z"/>
<path class="st2" d="M522,475.3H350.9c-5.5,0-10-4.5-10-10v0c0-5.5,4.5-10,10-10H522c5.5,0,10,4.5,10,10v0
	C532,470.8,527.5,475.3,522,475.3z"/>
<path class="st2" d="M522,552.2H350.9c-5.5,0-10-4.5-10-10v0c0-5.5,4.5-10,10-10H522c5.5,0,10,4.5,10,10v0
	C532,547.7,527.5,552.2,522,552.2z"/>
</svg>
