<?xml version="1.0" encoding="utf-8"?>
<!-- Generator: Adobe Illustrator 24.1.2, SVG Export Plug-In . SVG Version: 6.00 Build 0)  -->
<svg version="1.1" id="图层_1" xmlns="http://www.w3.org/2000/svg" xmlns:xlink="http://www.w3.org/1999/xlink" x="0px" y="0px"
	 viewBox="0 0 1024 1024" style="enable-background:new 0 0 1024 1024;" xml:space="preserve">
<style type="text/css">
	.st0{clip-path:url(#SVGID_2_);fill:#015AF7;}
	.st1{clip-path:url(#SVGID_2_);fill:#015BF7;}
	.st2{clip-path:url(#SVGID_2_);fill:#015CF7;}
	.st3{clip-path:url(#SVGID_2_);fill:#015DF7;}
	.st4{clip-path:url(#SVGID_2_);fill:#015EF7;}
	.st5{clip-path:url(#SVGID_2_);fill:#015FF7;}
	.st6{clip-path:url(#SVGID_2_);fill:#0260F7;}
	.st7{clip-path:url(#SVGID_2_);fill:#0261F7;}
	.st8{clip-path:url(#SVGID_2_);fill:#0262F7;}
	.st9{clip-path:url(#SVGID_2_);fill:#0263F7;}
	.st10{clip-path:url(#SVGID_2_);fill:#0264F7;}
	.st11{clip-path:url(#SVGID_2_);fill:#0265F7;}
	.st12{clip-path:url(#SVGID_2_);fill:#0366F7;}
	.st13{clip-path:url(#SVGID_2_);fill:#0367F7;}
	.st14{clip-path:url(#SVGID_2_);fill:#0368F7;}
	.st15{clip-path:url(#SVGID_2_);fill:#0369F7;}
	.st16{clip-path:url(#SVGID_2_);fill:#036AF7;}
	.st17{clip-path:url(#SVGID_2_);fill:#036BF7;}
	.st18{clip-path:url(#SVGID_2_);fill:#046CF7;}
	.st19{clip-path:url(#SVGID_2_);fill:#046DF7;}
	.st20{clip-path:url(#SVGID_2_);fill:#046EF7;}
	.st21{clip-path:url(#SVGID_2_);fill:#046FF7;}
	.st22{clip-path:url(#SVGID_2_);fill:#0470F7;}
	.st23{clip-path:url(#SVGID_2_);fill:#0471F7;}
	.st24{clip-path:url(#SVGID_2_);fill:#0472F7;}
	.st25{clip-path:url(#SVGID_2_);fill:#0573F7;}
	.st26{clip-path:url(#SVGID_2_);fill:#0574F7;}
	.st27{clip-path:url(#SVGID_2_);fill:#0575F7;}
	.st28{clip-path:url(#SVGID_2_);fill:#0576F7;}
	.st29{clip-path:url(#SVGID_2_);fill:#0577F7;}
	.st30{clip-path:url(#SVGID_2_);fill:#0578F7;}
	.st31{clip-path:url(#SVGID_2_);fill:#0679F7;}
	.st32{clip-path:url(#SVGID_2_);fill:#067AF7;}
	.st33{clip-path:url(#SVGID_2_);fill:#067BF7;}
	.st34{clip-path:url(#SVGID_2_);fill:#067CF7;}
	.st35{clip-path:url(#SVGID_2_);fill:#067DF7;}
	.st36{clip-path:url(#SVGID_2_);fill:#067EF7;}
	.st37{clip-path:url(#SVGID_2_);fill:#077FF7;}
	.st38{clip-path:url(#SVGID_2_);fill:#0780F7;}
	.st39{clip-path:url(#SVGID_2_);fill:#0781F7;}
	.st40{clip-path:url(#SVGID_2_);fill:#0782F7;}
	.st41{clip-path:url(#SVGID_2_);fill:#0783F7;}
	.st42{clip-path:url(#SVGID_2_);fill:#0784F7;}
	.st43{clip-path:url(#SVGID_2_);fill:#0885F7;}
	.st44{clip-path:url(#SVGID_2_);fill:#0887F7;}
	.st45{clip-path:url(#SVGID_2_);fill:#0888F7;}
	.st46{clip-path:url(#SVGID_2_);fill:#0889F7;}
	.st47{clip-path:url(#SVGID_2_);fill:#088AF7;}
	.st48{clip-path:url(#SVGID_2_);fill:#088BF7;}
	.st49{clip-path:url(#SVGID_2_);fill:#098CF7;}
	.st50{clip-path:url(#SVGID_2_);fill:#098DF7;}
	.st51{clip-path:url(#SVGID_2_);fill:#098EF7;}
	.st52{clip-path:url(#SVGID_2_);fill:#0990F7;}
	.st53{clip-path:url(#SVGID_2_);fill:#0991F7;}
	.st54{clip-path:url(#SVGID_2_);fill:#0A92F7;}
	.st55{clip-path:url(#SVGID_2_);fill:#0A93F7;}
	.st56{clip-path:url(#SVGID_2_);fill:#0A94F7;}
	.st57{clip-path:url(#SVGID_2_);fill:#0A95F7;}
	.st58{clip-path:url(#SVGID_2_);fill:#0A97F7;}
	.st59{clip-path:url(#SVGID_2_);fill:#0B98F7;}
	.st60{clip-path:url(#SVGID_2_);fill:#0B99F7;}
	.st61{clip-path:url(#SVGID_2_);fill:#0B9AF7;}
	.st62{clip-path:url(#SVGID_2_);fill:#0B9BF7;}
	.st63{clip-path:url(#SVGID_2_);fill:#0B9CF7;}
	.st64{clip-path:url(#SVGID_2_);fill:#0B9EF7;}
	.st65{clip-path:url(#SVGID_2_);fill:#0C9FF7;}
	.st66{clip-path:url(#SVGID_2_);fill:#0CA0F7;}
	.st67{clip-path:url(#SVGID_2_);fill:#0CA1F7;}
	.st68{clip-path:url(#SVGID_2_);fill:#0CA3F7;}
	.st69{clip-path:url(#SVGID_2_);fill:#0CA4F7;}
	.st70{clip-path:url(#SVGID_2_);fill:#0DA5F7;}
	.st71{clip-path:url(#SVGID_2_);fill:#0DA6F7;}
	.st72{clip-path:url(#SVGID_2_);fill:#0DA8F7;}
	.st73{clip-path:url(#SVGID_2_);fill:#0DA9F7;}
	.st74{clip-path:url(#SVGID_2_);fill:#0DAAF7;}
	.st75{clip-path:url(#SVGID_2_);fill:#0EABF7;}
	.st76{clip-path:url(#SVGID_2_);fill:#0EADF7;}
	.st77{clip-path:url(#SVGID_2_);fill:#0EAEF7;}
	.st78{clip-path:url(#SVGID_2_);fill:#0EAFF7;}
	.st79{clip-path:url(#SVGID_2_);fill:#0EB0F7;}
	.st80{clip-path:url(#SVGID_2_);fill:#0FB2F7;}
	.st81{clip-path:url(#SVGID_2_);fill:#0FB3F7;}
	.st82{clip-path:url(#SVGID_2_);fill:#0FB4F7;}
	.st83{clip-path:url(#SVGID_2_);fill:#0FB6F7;}
	.st84{clip-path:url(#SVGID_2_);fill:#10B7F7;}
	.st85{clip-path:url(#SVGID_2_);fill:#0056F7;}
	.st86{clip-path:url(#SVGID_2_);fill:#0057F7;}
	.st87{clip-path:url(#SVGID_2_);fill:#0058F7;}
	.st88{clip-path:url(#SVGID_2_);fill:#0059F7;}
	.st89{clip-path:url(#SVGID_2_);fill:#10B8F7;}
	.st90{clip-path:url(#SVGID_2_);fill:#10B9F7;}
	.st91{clip-path:url(#SVGID_2_);fill:#10BBF7;}
	.st92{clip-path:url(#SVGID_2_);fill:#10BCF7;}
	.st93{clip-path:url(#SVGID_2_);fill:#11BDF7;}
	.st94{clip-path:url(#SVGID_2_);fill:#11BFF7;}
	.st95{clip-path:url(#SVGID_2_);fill:#11C0F7;}
	.st96{fill:url(#SVGID_3_);}
</style>
<g>
	<g>
		<g>
			<g>
				<defs>
					<path id="SVGID_1_" d="M516.1,958.5c-14.4,0-40.4-7-90.5-36.6c-100.5-59.4-333.5-248-326.4-715c0.2-11.2,5.7-21.6,14.9-28
						c3.8-2.6,379.7-257.4,789.3,1.4c2.2,1.4,4.2,3,6,4.8c26.6,26.6,12.5,173.6,4.4,224.1c-23.1,143.3-103.3,404.5-381.8,545.2
						C529.1,956,524.7,958.5,516.1,958.5z M520.4,889.9h0.1H520.4z M168.6,226.4C168,730.3,456.2,865.6,511.4,886.7
						c356.9-188.3,346.8-587.4,341.8-655.9C528,34.3,237.3,185,168.6,226.4z"/>
				</defs>
				<clipPath id="SVGID_2_">
					<use xlink:href="#SVGID_1_"  style="overflow:visible;"/>
				</clipPath>
				<rect x="168" y="34.3" class="st0" width="1.2" height="852.4"/>
				<rect x="169.2" y="34.3" class="st0" width="7.8" height="852.4"/>
				<rect x="177" y="34.3" class="st1" width="7.8" height="852.4"/>
				<rect x="184.8" y="34.3" class="st1" width="7.8" height="852.4"/>
				<rect x="192.5" y="34.3" class="st2" width="7.8" height="852.4"/>
				<rect x="200.3" y="34.3" class="st3" width="7.8" height="852.4"/>
				<rect x="208.1" y="34.3" class="st3" width="7.8" height="852.4"/>
				<rect x="215.9" y="34.3" class="st4" width="7.8" height="852.4"/>
				<rect x="223.7" y="34.3" class="st5" width="7.8" height="852.4"/>
				<rect x="231.5" y="34.3" class="st6" width="7.8" height="852.4"/>
				<rect x="239.3" y="34.3" class="st6" width="7.8" height="852.4"/>
				<rect x="247.1" y="34.3" class="st7" width="7.8" height="852.4"/>
				<rect x="254.9" y="34.3" class="st8" width="7.8" height="852.4"/>
				<rect x="262.7" y="34.3" class="st9" width="7.8" height="852.4"/>
				<rect x="270.5" y="34.3" class="st10" width="7.8" height="852.4"/>
				<rect x="278.3" y="34.3" class="st10" width="7.8" height="852.4"/>
				<rect x="286" y="34.3" class="st11" width="7.8" height="852.4"/>
				<rect x="293.8" y="34.3" class="st12" width="7.8" height="852.4"/>
				<rect x="301.6" y="34.3" class="st13" width="7.8" height="852.4"/>
				<rect x="309.4" y="34.3" class="st14" width="7.8" height="852.4"/>
				<rect x="317.2" y="34.3" class="st15" width="7.8" height="852.4"/>
				<rect x="325" y="34.3" class="st15" width="7.8" height="852.4"/>
				<rect x="332.8" y="34.3" class="st16" width="7.8" height="852.4"/>
				<rect x="340.6" y="34.3" class="st17" width="7.8" height="852.4"/>
				<rect x="348.4" y="34.3" class="st18" width="7.8" height="852.4"/>
				<rect x="356.2" y="34.3" class="st19" width="7.8" height="852.4"/>
				<rect x="364" y="34.3" class="st20" width="7.8" height="852.4"/>
				<rect x="371.8" y="34.3" class="st21" width="7.8" height="852.4"/>
				<rect x="379.5" y="34.3" class="st22" width="7.8" height="852.4"/>
				<rect x="387.3" y="34.3" class="st23" width="7.8" height="852.4"/>
				<rect x="395.1" y="34.3" class="st24" width="7.8" height="852.4"/>
				<rect x="402.9" y="34.3" class="st25" width="7.8" height="852.4"/>
				<rect x="410.7" y="34.3" class="st26" width="7.8" height="852.4"/>
				<rect x="418.5" y="34.3" class="st27" width="7.8" height="852.4"/>
				<rect x="426.3" y="34.3" class="st28" width="7.8" height="852.4"/>
				<rect x="434.1" y="34.3" class="st29" width="7.8" height="852.4"/>
				<rect x="441.9" y="34.3" class="st30" width="7.8" height="852.4"/>
				<rect x="449.7" y="34.3" class="st31" width="7.8" height="852.4"/>
				<rect x="457.5" y="34.3" class="st32" width="7.8" height="852.4"/>
				<rect x="465.3" y="34.3" class="st33" width="7.8" height="852.4"/>
				<rect x="473" y="34.3" class="st34" width="7.8" height="852.4"/>
				<rect x="480.8" y="34.3" class="st35" width="7.8" height="852.4"/>
				<rect x="488.6" y="34.3" class="st36" width="7.8" height="852.4"/>
				<rect x="496.4" y="34.3" class="st37" width="7.8" height="852.4"/>
				<rect x="504.2" y="34.3" class="st38" width="7.8" height="852.4"/>
				<rect x="512" y="34.3" class="st39" width="7.8" height="852.4"/>
				<rect x="519.8" y="34.3" class="st40" width="7.8" height="852.4"/>
				<rect x="527.6" y="34.3" class="st41" width="7.8" height="852.4"/>
				<rect x="535.4" y="34.3" class="st42" width="7.8" height="852.4"/>
				<rect x="543.2" y="34.3" class="st43" width="7.8" height="852.4"/>
				<rect x="551" y="34.3" class="st44" width="7.8" height="852.4"/>
				<rect x="558.7" y="34.3" class="st45" width="7.8" height="852.4"/>
				<rect x="566.5" y="34.3" class="st46" width="7.8" height="852.4"/>
				<rect x="574.3" y="34.3" class="st47" width="7.8" height="852.4"/>
				<rect x="582.1" y="34.3" class="st48" width="7.8" height="852.4"/>
				<rect x="589.9" y="34.3" class="st49" width="7.8" height="852.4"/>
				<rect x="597.7" y="34.3" class="st50" width="7.8" height="852.4"/>
				<rect x="605.5" y="34.3" class="st51" width="7.8" height="852.4"/>
				<rect x="613.3" y="34.3" class="st52" width="7.8" height="852.4"/>
				<rect x="621.1" y="34.3" class="st53" width="7.8" height="852.4"/>
				<rect x="628.9" y="34.3" class="st54" width="7.8" height="852.4"/>
				<rect x="636.7" y="34.3" class="st55" width="7.8" height="852.4"/>
				<rect x="644.5" y="34.3" class="st56" width="7.8" height="852.4"/>
				<rect x="652.2" y="34.3" class="st57" width="7.8" height="852.4"/>
				<rect x="660" y="34.3" class="st58" width="7.8" height="852.4"/>
				<rect x="667.8" y="34.3" class="st59" width="7.8" height="852.4"/>
				<rect x="675.6" y="34.3" class="st60" width="7.8" height="852.4"/>
				<rect x="683.4" y="34.3" class="st61" width="7.8" height="852.4"/>
				<rect x="691.2" y="34.3" class="st62" width="7.8" height="852.4"/>
				<rect x="699" y="34.3" class="st63" width="7.8" height="852.4"/>
				<rect x="706.8" y="34.3" class="st64" width="7.8" height="852.4"/>
				<rect x="714.6" y="34.3" class="st65" width="7.8" height="852.4"/>
				<rect x="722.4" y="34.3" class="st66" width="7.8" height="852.4"/>
				<rect x="730.2" y="34.3" class="st67" width="7.8" height="852.4"/>
				<rect x="738" y="34.3" class="st68" width="7.8" height="852.4"/>
				<rect x="745.7" y="34.3" class="st69" width="7.8" height="852.4"/>
				<rect x="753.5" y="34.3" class="st70" width="7.8" height="852.4"/>
				<rect x="761.3" y="34.3" class="st71" width="7.8" height="852.4"/>
				<rect x="769.1" y="34.3" class="st72" width="7.8" height="852.4"/>
				<rect x="776.9" y="34.3" class="st73" width="7.8" height="852.4"/>
				<rect x="784.7" y="34.3" class="st74" width="7.8" height="852.4"/>
				<rect x="792.5" y="34.3" class="st75" width="7.8" height="852.4"/>
				<rect x="800.3" y="34.3" class="st76" width="7.8" height="852.4"/>
				<rect x="808.1" y="34.3" class="st77" width="7.8" height="852.4"/>
				<rect x="815.9" y="34.3" class="st78" width="7.8" height="852.4"/>
				<rect x="823.7" y="34.3" class="st79" width="7.8" height="852.4"/>
				<rect x="831.5" y="34.3" class="st80" width="7.8" height="852.4"/>
				<rect x="839.2" y="34.3" class="st81" width="7.8" height="852.4"/>
				<rect x="847" y="34.3" class="st82" width="7.8" height="852.4"/>
				<rect x="854.8" y="34.3" class="st83" width="7.8" height="852.4"/>
				<rect x="862.6" y="34.3" class="st84" width="5.6" height="852.4"/>
				<path class="st40" d="M520.4,889.9h0.1H520.4z"/>
				<rect x="92.1" y="-78.6" class="st85" width="6.9" height="1037.1"/>
				<rect x="99" y="-78.6" class="st85" width="7.8" height="1037.1"/>
				<rect x="106.8" y="-78.6" class="st85" width="7.8" height="1037.1"/>
				<rect x="114.6" y="-78.6" class="st86" width="7.8" height="1037.1"/>
				<rect x="122.4" y="-78.6" class="st86" width="7.8" height="1037.1"/>
				<rect x="130.2" y="-78.6" class="st86" width="7.8" height="1037.1"/>
				<rect x="138" y="-78.6" class="st87" width="7.8" height="1037.1"/>
				<rect x="145.8" y="-78.6" class="st87" width="7.8" height="1037.1"/>
				<rect x="153.6" y="-78.6" class="st88" width="7.8" height="1037.1"/>
				<rect x="161.4" y="-78.6" class="st0" width="7.8" height="1037.1"/>
				<rect x="169.2" y="-78.6" class="st0" width="7.8" height="1037.1"/>
				<rect x="177" y="-78.6" class="st1" width="7.8" height="1037.1"/>
				<rect x="184.8" y="-78.6" class="st1" width="7.8" height="1037.1"/>
				<rect x="192.5" y="-78.6" class="st2" width="7.8" height="1037.1"/>
				<rect x="200.3" y="-78.6" class="st3" width="7.8" height="1037.1"/>
				<rect x="208.1" y="-78.6" class="st3" width="7.8" height="1037.1"/>
				<rect x="215.9" y="-78.6" class="st4" width="7.8" height="1037.1"/>
				<rect x="223.7" y="-78.6" class="st5" width="7.8" height="1037.1"/>
				<rect x="231.5" y="-78.6" class="st6" width="7.8" height="1037.1"/>
				<rect x="239.3" y="-78.6" class="st6" width="7.8" height="1037.1"/>
				<rect x="247.1" y="-78.6" class="st7" width="7.8" height="1037.1"/>
				<rect x="254.9" y="-78.6" class="st8" width="7.8" height="1037.1"/>
				<rect x="262.7" y="-78.6" class="st9" width="7.8" height="1037.1"/>
				<rect x="270.5" y="-78.6" class="st10" width="7.8" height="1037.1"/>
				<rect x="278.3" y="-78.6" class="st10" width="7.8" height="1037.1"/>
				<rect x="286" y="-78.6" class="st11" width="7.8" height="1037.1"/>
				<rect x="293.8" y="-78.6" class="st12" width="7.8" height="1037.1"/>
				<rect x="301.6" y="-78.6" class="st13" width="7.8" height="1037.1"/>
				<rect x="309.4" y="-78.6" class="st14" width="7.8" height="1037.1"/>
				<rect x="317.2" y="-78.6" class="st15" width="7.8" height="1037.1"/>
				<rect x="325" y="-78.6" class="st15" width="7.8" height="1037.1"/>
				<rect x="332.8" y="-78.6" class="st16" width="7.8" height="1037.1"/>
				<rect x="340.6" y="-78.6" class="st17" width="7.8" height="1037.1"/>
				<rect x="348.4" y="-78.6" class="st18" width="7.8" height="1037.1"/>
				<rect x="356.2" y="-78.6" class="st19" width="7.8" height="1037.1"/>
				<rect x="364" y="-78.6" class="st20" width="7.8" height="1037.1"/>
				<rect x="371.8" y="-78.6" class="st21" width="7.8" height="1037.1"/>
				<rect x="379.5" y="-78.6" class="st22" width="7.8" height="1037.1"/>
				<rect x="387.3" y="-78.6" class="st23" width="7.8" height="1037.1"/>
				<rect x="395.1" y="-78.6" class="st24" width="7.8" height="1037.1"/>
				<rect x="402.9" y="-78.6" class="st25" width="7.8" height="1037.1"/>
				<rect x="410.7" y="-78.6" class="st26" width="7.8" height="1037.1"/>
				<rect x="418.5" y="-78.6" class="st27" width="7.8" height="1037.1"/>
				<rect x="426.3" y="-78.6" class="st28" width="7.8" height="1037.1"/>
				<rect x="434.1" y="-78.6" class="st29" width="7.8" height="1037.1"/>
				<rect x="441.9" y="-78.6" class="st30" width="7.8" height="1037.1"/>
				<rect x="449.7" y="-78.6" class="st31" width="7.8" height="1037.1"/>
				<rect x="457.5" y="-78.6" class="st32" width="7.8" height="1037.1"/>
				<rect x="465.3" y="-78.6" class="st33" width="7.8" height="1037.1"/>
				<rect x="473" y="-78.6" class="st34" width="7.8" height="1037.1"/>
				<rect x="480.8" y="-78.6" class="st35" width="7.8" height="1037.1"/>
				<rect x="488.6" y="-78.6" class="st36" width="7.8" height="1037.1"/>
				<rect x="496.4" y="-78.6" class="st37" width="7.8" height="1037.1"/>
				<rect x="504.2" y="-78.6" class="st38" width="7.8" height="1037.1"/>
				<rect x="512" y="-78.6" class="st39" width="7.8" height="1037.1"/>
				<rect x="519.8" y="-78.6" class="st40" width="7.8" height="1037.1"/>
				<rect x="527.6" y="-78.6" class="st41" width="7.8" height="1037.1"/>
				<rect x="535.4" y="-78.6" class="st42" width="7.8" height="1037.1"/>
				<rect x="543.2" y="-78.6" class="st43" width="7.8" height="1037.1"/>
				<rect x="551" y="-78.6" class="st44" width="7.8" height="1037.1"/>
				<rect x="558.7" y="-78.6" class="st45" width="7.8" height="1037.1"/>
				<rect x="566.5" y="-78.6" class="st46" width="7.8" height="1037.1"/>
				<rect x="574.3" y="-78.6" class="st47" width="7.8" height="1037.1"/>
				<rect x="582.1" y="-78.6" class="st48" width="7.8" height="1037.1"/>
				<rect x="589.9" y="-78.6" class="st49" width="7.8" height="1037.1"/>
				<rect x="597.7" y="-78.6" class="st50" width="7.8" height="1037.1"/>
				<rect x="605.5" y="-78.6" class="st51" width="7.8" height="1037.1"/>
				<rect x="613.3" y="-78.6" class="st52" width="7.8" height="1037.1"/>
				<rect x="621.1" y="-78.6" class="st53" width="7.8" height="1037.1"/>
				<rect x="628.9" y="-78.6" class="st54" width="7.8" height="1037.1"/>
				<rect x="636.7" y="-78.6" class="st55" width="7.8" height="1037.1"/>
				<rect x="644.5" y="-78.6" class="st56" width="7.8" height="1037.1"/>
				<rect x="652.2" y="-78.6" class="st57" width="7.8" height="1037.1"/>
				<rect x="660" y="-78.6" class="st58" width="7.8" height="1037.1"/>
				<rect x="667.8" y="-78.6" class="st59" width="7.8" height="1037.1"/>
				<rect x="675.6" y="-78.6" class="st60" width="7.8" height="1037.1"/>
				<rect x="683.4" y="-78.6" class="st61" width="7.8" height="1037.1"/>
				<rect x="691.2" y="-78.6" class="st62" width="7.8" height="1037.1"/>
				<rect x="699" y="-78.6" class="st63" width="7.8" height="1037.1"/>
				<rect x="706.8" y="-78.6" class="st64" width="7.8" height="1037.1"/>
				<rect x="714.6" y="-78.6" class="st65" width="7.8" height="1037.1"/>
				<rect x="722.4" y="-78.6" class="st66" width="7.8" height="1037.1"/>
				<rect x="730.2" y="-78.6" class="st67" width="7.8" height="1037.1"/>
				<rect x="738" y="-78.6" class="st68" width="7.8" height="1037.1"/>
				<rect x="745.7" y="-78.6" class="st69" width="7.8" height="1037.1"/>
				<rect x="753.5" y="-78.6" class="st70" width="7.8" height="1037.1"/>
				<rect x="761.3" y="-78.6" class="st71" width="7.8" height="1037.1"/>
				<rect x="769.1" y="-78.6" class="st72" width="7.8" height="1037.1"/>
				<rect x="776.9" y="-78.6" class="st73" width="7.8" height="1037.1"/>
				<rect x="784.7" y="-78.6" class="st74" width="7.8" height="1037.1"/>
				<rect x="792.5" y="-78.6" class="st75" width="7.8" height="1037.1"/>
				<rect x="800.3" y="-78.6" class="st76" width="7.8" height="1037.1"/>
				<rect x="808.1" y="-78.6" class="st77" width="7.8" height="1037.1"/>
				<rect x="815.9" y="-78.6" class="st78" width="7.8" height="1037.1"/>
				<rect x="823.7" y="-78.6" class="st79" width="7.8" height="1037.1"/>
				<rect x="831.5" y="-78.6" class="st80" width="7.8" height="1037.1"/>
				<rect x="839.2" y="-78.6" class="st81" width="7.8" height="1037.1"/>
				<rect x="847" y="-78.6" class="st82" width="7.8" height="1037.1"/>
				<rect x="854.8" y="-78.6" class="st83" width="7.8" height="1037.1"/>
				<rect x="862.6" y="-78.6" class="st84" width="7.8" height="1037.1"/>
				<rect x="870.4" y="-78.6" class="st89" width="7.8" height="1037.1"/>
				<rect x="878.2" y="-78.6" class="st90" width="7.8" height="1037.1"/>
				<rect x="886" y="-78.6" class="st91" width="7.8" height="1037.1"/>
				<rect x="893.8" y="-78.6" class="st92" width="7.8" height="1037.1"/>
				<rect x="901.6" y="-78.6" class="st93" width="7.8" height="1037.1"/>
				<rect x="909.4" y="-78.6" class="st94" width="7.8" height="1037.1"/>
				<rect x="917.2" y="-78.6" class="st95" width="7.8" height="1037.1"/>
				<rect x="925" y="-78.6" class="st95" width="11.1" height="1037.1"/>
			</g>
		</g>
	</g>
	<g>
		<linearGradient id="SVGID_3_" gradientUnits="userSpaceOnUse" x1="249.1251" y1="491.0363" x2="781.3382" y2="491.0363">
			<stop  offset="0" style="stop-color:#0056F7"/>
			<stop  offset="0.1657" style="stop-color:#0260F7"/>
			<stop  offset="0.447" style="stop-color:#067BF7"/>
			<stop  offset="0.8075" style="stop-color:#0DA6F7"/>
			<stop  offset="1" style="stop-color:#11C0F7"/>
		</linearGradient>
		<path class="st96" d="M454,650.6c-7.2,0-14.4-2.2-20.6-6.7L263.3,519.1c-15.5-11.4-18.8-33.1-7.5-48.6
			c11.4-15.5,33.1-18.8,48.6-7.5l147.9,108.5L724,339.8c14.6-12.5,36.6-10.7,49,3.9c12.5,14.6,10.7,36.6-3.9,49L476.6,642.2
			C470.1,647.8,462.1,650.6,454,650.6z"/>
	</g>
</g>
</svg>
