<svg xmlns="http://www.w3.org/2000/svg" width="45" height="45" viewBox="0 0 45 45"><defs><style>.a{fill:none;}.b{fill:#fff;}</style></defs><g transform="translate(-278 -1378)"><rect class="a" width="45" height="45" transform="translate(278 1378)"/><path class="b" d="M128.85,96.2a1.619,1.619,0,0,0-2.187.583,1.546,1.546,0,0,0,.6,2.139,13.731,13.731,0,0,1,6.96,12.056,14.32,14.32,0,1,1-21.676-12.056,1.546,1.546,0,0,0,.6-2.139,1.619,1.619,0,0,0-2.188-.583,17.482,17.482,0,0,0-8.551,14.778A17.5,17.5,0,1,0,128.85,96.2ZM119.9,108.647a1.448,1.448,0,0,0,1.591-1.556V94.453a1.344,1.344,0,0,0-1.392-1.361h-.2a1.344,1.344,0,0,0-1.392,1.361v12.833a1.344,1.344,0,0,0,1.392,1.361Z" transform="translate(180.599 1289.908)"/></g></svg>