<?xml version="1.0" encoding="UTF-8"?>
<svg width="33px" height="33px" viewBox="0 0 33 33" version="1.1" xmlns="http://www.w3.org/2000/svg" xmlns:xlink="http://www.w3.org/1999/xlink">
    <title>编组 4</title>
    <defs>
        <polygon id="path-1" points="0 0 19 0 19 20 0 20"></polygon>
    </defs>
    <g id="页面-1" stroke="none" stroke-width="1" fill="none" fill-rule="evenodd">
        <g id="帮助中心" transform="translate(-14.000000, -219.000000)">
            <g id="编组-4" transform="translate(14.000000, 219.000000)">
                <path d="M0,16.5001147 C0,25.6127636 7.38724665,33 16.5000918,33 C25.6127533,33 33,25.6127636 33,16.5001147 C33,7.38723638 25.6127533,0 16.5000918,0 C7.38724665,0 0,7.38723638 0,16.5001147 Z" id="Fill-1备份-2" fill="#6BBAFF" opacity="0.26743571"></path>
                <g id="liucheng" transform="translate(7.000000, 6.000000)">
                    <mask id="mask-2" fill="white">
                        <use xlink:href="#path-1"></use>
                    </mask>
                    <g id="Clip-2"></g>
                    <path d="M0.213456501,9.12089371 C0.1067934,9.23073002 0,9.39556496 0,9.61531806 C0,9.78017983 0.0533445802,9.9450416 0.213456501,10.1098765 L3.52246225,13.6263017 C3.62925565,13.6813272 3.78926333,13.7911635 4.00285013,13.7911635 C4.16285781,13.7911635 4.37644461,13.7362453 4.48310771,13.5713835 L7.95222538,10.0549584 C8.05891454,9.9450416 8.16570794,9.78017983 8.16570794,9.56042674 C8.16570794,9.34064681 8.11236336,9.17581187 7.95222538,9.06597556 L4.48310771,5.60436126 C4.37644461,5.49452495 4.21630663,5.38458133 4.00285013,5.38458133 C3.84271215,5.38458133 3.68257417,5.4396068 3.52246225,5.60436126 L0.213456501,9.12089371 Z M19,0.714311585 C19,0.549449812 18.9465512,0.384614869 18.7864393,0.219753096 C18.6797501,0.10994362 18.4662675,0 18.3061556,0 L13.0224101,0 C12.8622721,0 12.7022645,0.0549181526 12.5421265,0.219753096 C12.4353591,0.329696716 12.32867,0.549449812 12.32867,0.714311585 L12.32867,2.08790929 L9.3398099,2.08790929 C9.17980222,2.08790929 9.01966424,2.14282744 8.85955232,2.30768921 C8.75275892,2.417606 8.64606976,2.63738593 8.64606976,2.80222087 L8.64606976,16.5384662 C8.64606976,16.703328 8.69941434,16.8680556 8.85955232,17.0329174 C8.96621542,17.142861 9.17980222,17.2526705 9.3398099,17.2526705 L12.32867,17.2526705 L12.32867,19.2856884 C12.32867,19.4505234 12.3820146,19.6153851 12.5421265,19.7802201 C12.6488156,19.8900564 12.8622721,20 13.0224101,20 L18.3061556,20 C18.4662675,20 18.6264055,19.9450818 18.7864393,19.7802201 C18.8932066,19.6703033 19,19.4505234 19,19.2856884 L19,14.8351718 C19,14.67031 18.9465512,14.505475 18.7864393,14.3406133 C18.6797501,14.2308038 18.4662675,14.1208602 18.3061556,14.1208602 L13.0224101,14.1208602 C12.8622721,14.1208602 12.7022645,14.1757783 12.5421265,14.3406133 C12.4353591,14.4505569 12.32867,14.67031 12.32867,14.8351718 L12.32867,15.1647612 L10.9943258,15.1647612 C10.8341878,15.1647612 10.6741801,15.109843 10.5140422,14.9450081 C10.4072488,14.8351718 10.3005857,14.6154187 10.3005857,14.4505569 L10.3005857,4.45051665 C10.3005857,4.28565488 10.3539042,4.12092725 10.5140422,3.95606548 C10.6207313,3.84612186 10.8341878,3.73631238 10.9943258,3.73631238 L12.32867,3.73631238 L12.32867,5.10991008 C12.32867,5.27474503 12.3820146,5.4396068 12.5421265,5.60436126 C12.6488156,5.71427805 12.8622721,5.82422167 13.0224101,5.82422167 L18.3061556,5.82422167 C18.4662675,5.82422167 18.6264055,5.7691962 18.7864393,5.60436126 C18.8932066,5.49452495 19,5.27474503 19,5.10991008 L19,0.714311585 Z" id="Fill-1" fill="#6BBAFF" mask="url(#mask-2)"></path>
                </g>
            </g>
        </g>
    </g>
</svg>