<?xml version="1.0" encoding="UTF-8"?>
<svg width="33px" height="33px" viewBox="0 0 33 33" version="1.1" xmlns="http://www.w3.org/2000/svg" xmlns:xlink="http://www.w3.org/1999/xlink">
    <title>编组 5</title>
    <defs>
        <linearGradient x1="0%" y1="0%" x2="65.0525088%" y2="99.2256698%" id="linearGradient-1">
            <stop stop-color="#1B7CFF" offset="0%"></stop>
            <stop stop-color="#0028FF" offset="100%"></stop>
        </linearGradient>
        <linearGradient x1="0%" y1="0%" x2="65.0525088%" y2="99.2256698%" id="linearGradient-2">
            <stop stop-color="#FFA401" offset="0%"></stop>
            <stop stop-color="#FFA401" offset="100%"></stop>
        </linearGradient>
    </defs>
    <g id="页面-1" stroke="none" stroke-width="1" fill="none" fill-rule="evenodd">
        <g id="帮助中心" transform="translate(-15.000000, -277.000000)">
            <g id="编组-7" transform="translate(15.000000, 277.000000)">
                <g id="编组-13备份-5" fill="url(#linearGradient-2)" opacity="0.192337763">
                    <g id="huodongyouli备份-2">
                        <path d="M0,16.4999545 C0,22.3949358 3.14480592,27.842113 8.25006821,30.7893991 C13.3551031,33.736867 19.6448969,33.736867 24.7499773,30.7893991 C29.8550122,27.842113 33,22.3949358 33,16.4999545 C33,7.38735862 25.6127072,0 16.4999091,0 C7.38733827,0 0,7.38735862 0,16.4999545 Z" id="Fill-1"></path>
                    </g>
                </g>
                <g id="yibuliucheng" transform="translate(5.000000, 6.000000)" fill="#FFA401">
                    <path d="M8.62216126,1.32458236 C7.83885042,2.58723599 8.30876961,4.32334235 9.71868018,5.11241995 C10.9719102,5.90162086 12.6949677,5.42813731 13.4782479,4.16548367 C14.2615588,2.90283004 13.7915172,1.16672368 12.5384095,0.377646077 C11.9117792,0.0619287237 11.128499,-0.0959299529 10.5018686,0.0619287237 C9.56199966,0.2197874 8.93539993,0.693270953 8.62216126,1.32458236 Z M21.1540639,14.7399189 C20.2142255,13.7930134 18.9609955,13.6351547 17.864446,14.2664661 C16.7678965,14.8977775 16.2979773,16.1604312 16.6112159,17.2652261 C16.7678965,17.8965684 17.2378157,18.5277565 17.864446,19.0013633 C19.117676,19.7904101 20.8408253,19.3169574 21.6240137,18.0543037 C22.2506135,17.1073674 22.0940553,15.6868551 21.1540639,14.7399189 Z M18.177807,12.0568762 C18.8044068,11.8990175 19.5875952,11.8990175 20.2142255,12.0568762 L20.2142255,6.21721491 L15.5146664,4.007625 C15.3581083,4.63896723 14.8881585,5.27027863 14.4181169,5.74376218 L18.177807,7.32200987 L18.177807,12.0568762 Z M0.163034405,17.4229615 C0.319714931,18.0543037 0.789664723,18.6856151 1.41626445,19.1590987 C2.04277238,19.474816 2.82605263,19.6325514 3.45268295,19.474816 C4.07928267,19.3169574 4.70591299,18.8434738 5.17583219,18.2121624 C5.64575139,17.4229615 5.64575139,16.3181974 5.17583219,15.5291198 C4.70591299,14.7399189 3.76592162,14.1086075 2.82605263,14.1086075 C1.88618364,14.1086075 0.946222867,14.5820602 0.476273075,15.5291198 C0.00635387818,16.0025725 -0.150326648,16.6339147 0.163034405,17.4229615 Z M3.76592162,12.0568762 L3.76592162,7.47986854 L7.36893122,5.90162086 C6.89898143,5.42813731 6.58562038,4.7968259 6.27238171,4.16548367 L1.57282259,6.37507359 L1.57282259,12.2147349 C2.51281396,11.8990175 3.13941369,11.8990175 3.76592162,12.0568762 Z M10.9719102,19.6325514 L7.36893122,18.0543037 C7.21225069,18.3700211 7.05566195,18.8434738 6.89898143,19.1590987 C6.7423009,19.474816 6.58562038,19.6325514 6.42906223,19.9482688 L11.128499,22 L15.8280275,19.9482688 C15.3581083,19.474816 15.0447472,18.8434738 14.731478,18.2121624 L10.9719102,19.6325514 Z" id="Fill-1"></path>
                </g>
            </g>
        </g>
    </g>
</svg>