<?xml version="1.0" encoding="UTF-8"?>
<svg width="33px" height="33px" viewBox="0 0 33 33" version="1.1" xmlns="http://www.w3.org/2000/svg" xmlns:xlink="http://www.w3.org/1999/xlink">
    <title>编组</title>
    <defs>
        <linearGradient x1="12.0858206%" y1="50%" x2="100%" y2="50%" id="linearGradient-1">
            <stop stop-color="#FFA56A" offset="0%"></stop>
            <stop stop-color="#FC7032" offset="100%"></stop>
        </linearGradient>
        <polygon id="path-2" points="0 0 21 0 21 21 0 21"></polygon>
    </defs>
    <g id="页面-1" stroke="none" stroke-width="1" fill="none" fill-rule="evenodd">
        <g id="帮助中心" transform="translate(-14.000000, -335.000000)">
            <g id="编组" transform="translate(14.000000, 335.000000)">
                <path d="M0,16.5001147 C0,25.6127636 7.38724665,33 16.5000918,33 C25.6127533,33 33,25.6127636 33,16.5001147 C33,7.38723638 25.6127533,0 16.5000918,0 C7.38724665,0 0,7.38723638 0,16.5001147 Z" id="Fill-1备份-3" fill="url(#linearGradient-1)" opacity="0.229830787"></path>
                <g id="gaikuozonglan" transform="translate(6.000000, 6.000000)">
                    <mask id="mask-3" fill="white">
                        <use xlink:href="#path-2"></use>
                    </mask>
                    <g id="Clip-2"></g>
                    <path d="M6.99970947,8.16709249 L2.33286906,8.16709249 C1.04551519,8.16288838 0.00310181043,7.11975723 0,5.83232646 L0,2.33286906 C0,1.05002692 1.05002692,0 2.33286906,0 L7.00060669,0 C8.28355137,0 9.33357829,1.05002692 9.33357829,2.33286906 L9.33357829,5.83322367 C9.33357829,7.11706557 8.28355137,8.16709249 6.99970947,8.16709249 Z M6.99970947,21 L2.33286906,21 C1.04620733,20.9957959 0.00420410669,19.9537927 0,18.6671309 L0,12.8329075 C0,11.5499885 1.05002692,10.5000641 2.33286906,10.5000641 L7.00060669,10.5000641 C8.28355137,10.5000641 9.33357829,11.5499885 9.33357829,12.8329075 L9.33357829,18.6671309 C9.33357829,19.9499731 8.28355137,21 6.99970947,21 Z M18.6671309,10.5000641 L13.9993933,10.5000641 C12.7126547,10.4958343 11.6706515,9.45383112 11.6664473,8.16709249 L11.6664473,2.33286906 C11.6664473,1.05002692 12.7164486,0 14.0003162,0 L18.6671309,0 C19.9499731,0 21,1.05002692 21,2.33286906 L21,8.16709249 C21,9.45003717 19.9499731,10.5000641 18.6671309,10.5000641 Z M18.6671309,21 L13.9993933,21 C12.7126547,20.9957959 11.6706515,19.9537927 11.6664473,18.6671309 L11.6664473,15.1667763 C11.6664473,13.8829344 12.7164486,12.8329075 14.0003162,12.8329075 L18.6671309,12.8329075 C19.9499731,12.8329075 21,13.8829344 21,15.1667763 L21,18.6671309 C21,19.9499731 19.9499731,21 18.6671309,21 Z" id="Fill-1" fill="url(#linearGradient-1)" mask="url(#mask-3)"></path>
                </g>
            </g>
        </g>
    </g>
</svg>