<?xml version="1.0" encoding="UTF-8"?>
<svg width="37px" height="31px" viewBox="0 0 37 31" version="1.1" xmlns="http://www.w3.org/2000/svg" xmlns:xlink="http://www.w3.org/1999/xlink">
    <title>面性办卡进度查询图标备份</title>
    <defs>
        <filter x="-32.0%" y="-44.1%" width="164.0%" height="188.2%" filterUnits="objectBoundingBox" id="filter-1">
            <feOffset dx="0" dy="2" in="SourceAlpha" result="shadowOffsetOuter1"></feOffset>
            <feGaussianBlur stdDeviation="1" in="shadowOffsetOuter1" result="shadowBlurOuter1"></feGaussianBlur>
            <feColorMatrix values="0 0 0 0 0.130763508   0 0 0 0 0.141197352   0 0 0 0 0.165046139  0 0 0 1 0" type="matrix" in="shadowBlurOuter1" result="shadowMatrixOuter1"></feColorMatrix>
            <feMerge>
                <feMergeNode in="shadowMatrixOuter1"></feMergeNode>
                <feMergeNode in="SourceGraphic"></feMergeNode>
            </feMerge>
        </filter>
        <linearGradient x1="62.2100178%" y1="76.3306673%" x2="31.9885889%" y2="30.8849832%" id="linearGradient-2">
            <stop stop-color="#CA962E" offset="0%"></stop>
            <stop stop-color="#FFD37D" offset="100%"></stop>
        </linearGradient>
        <polygon id="path-3" points="0 0 12.6560333 0 12.6560333 11.5054848 0 11.5054848"></polygon>
    </defs>
    <g id="页面-1" stroke="none" stroke-width="1" fill="none" fill-rule="evenodd">
        <g id="画板备份-13" transform="translate(-273.000000, -269.000000)">
            <g id="面性办卡进度查询图标备份" filter="url(#filter-1)" transform="translate(279.000000, 275.000000)">
                <path d="M22.6118239,18.1420325 L2.38817614,18.1420325 C1.07489598,18.1420325 0,17.0961877 0,15.8184016 L0,2.32363084 C0,1.04584474 1.07489598,0 2.38817614,0 L22.6118239,0 C23.925104,0 25,1.04584474 25,2.32363084 L25,15.8184016 C25,17.0961877 23.925104,18.1420325 22.6118239,18.1420325 Z" id="路径" fill="url(#linearGradient-2)" fill-rule="nonzero"></path>
                <g id="liwu-(2)" transform="translate(5.752742, 3.451645)">
                    <mask id="mask-4" fill="white">
                        <use xlink:href="#path-3"></use>
                    </mask>
                    <g id="Clip-2"></g>
                    <path d="M11.722107,5.44728116 L11.722107,10.0064909 C11.722107,10.8260518 11.0438393,11.4920883 10.2019284,11.5052811 L10.1763608,11.5054848 L2.47967245,11.5054848 C1.63447156,11.5054848 0.947733803,10.8477341 0.934136249,10.0312803 L0.933926248,10.0064909 L0.933926248,5.44728116 L5.92548878,5.44728116 L5.92548878,10.0840172 L5.92561128,10.0932368 C5.9308088,10.3048804 6.11620454,10.4749255 6.34412546,10.4749255 C6.57530139,10.4749255 6.76274464,10.2999056 6.76274464,10.0840172 L6.76274464,5.44728116 L11.722107,5.44728116 Z M4.61427852,0.306081093 L4.6347886,0.32139618 L6.33954044,1.61300815 L8.02637221,0.334928469 L8.04688229,0.319681298 C8.72562251,-0.177889246 9.6926414,-0.0569815567 10.2182035,0.595590574 C10.5762549,1.04028841 10.6378552,1.61830561 10.4312669,2.10560384 L11.0136342,2.10560384 C11.9206978,2.10560384 12.6560333,2.81865528 12.6560333,3.69823708 C12.6560333,4.04829379 12.5395528,4.372033 12.3421345,4.63493633 L6.76274464,4.63486842 L6.76274464,2.11480647 L6.76269214,2.10560384 C5.94087134,2.11455179 6.77327968,2.11142765 5.92548878,2.11480647 L5.92548878,4.63486842 L0.31391626,4.63493633 C0.116480467,4.372033 0,4.04829379 0,3.69823708 C0,2.81865528 0.735352951,2.10560384 1.64241659,2.10560384 L2.23570397,2.10560384 C2.02222061,1.61545313 2.08154585,1.03088203 2.4429748,0.581990369 C2.96844941,-0.0705647826 3.93553829,-0.191421535 4.61427852,0.306149009 L4.61427852,0.306081093 Z M8.55104181,0.967737005 L8.54153928,0.974834241 L7.04911579,2.10553592 L9.44142789,2.10553592 L9.42665783,2.08721555 L9.44265289,2.0750246 C9.74972662,1.83439775 9.80215683,1.39844412 9.55838086,1.09574193 C9.31462238,0.792971825 8.86597308,0.736924039 8.55104181,0.967737005 Z M3.10277995,1.08214173 C2.85893397,1.38491183 2.91143418,1.82079755 3.21850792,2.0614244 L3.23443298,2.07363232 L3.20872538,2.10553592 L5.62989509,2.10553592 L4.11962153,0.961301952 C3.80428777,0.722271134 3.34900594,0.776315394 3.10277995,1.08214173 Z" id="Fill-1" fill="#1F252F" mask="url(#mask-4)"></path>
                </g>
            </g>
        </g>
    </g>
</svg>