<?xml version="1.0" encoding="UTF-8"?>
<svg width="28px" height="28px" viewBox="0 0 28 28" version="1.1" xmlns="http://www.w3.org/2000/svg" xmlns:xlink="http://www.w3.org/1999/xlink">
    <title>编组 2</title>
    <defs>
        <linearGradient x1="50%" y1="12.8894533%" x2="51.5965048%" y2="95.489175%" id="linearGradient-1">
            <stop stop-color="#E6E6E6" offset="0%"></stop>
            <stop stop-color="#FFD37D" offset="52.3708957%"></stop>
            <stop stop-color="#FFFFFF" offset="100%"></stop>
        </linearGradient>
        <polygon id="path-2" points="0 0 15.1756414 0 15.1756414 17.8536957 0 17.8536957"></polygon>
    </defs>
    <g id="页面-1" stroke="none" stroke-width="1" fill="none" fill-rule="evenodd">
        <g id="gongneng备份-4" transform="translate(-332.000000, -51.000000)">
            <g id="编组-2" transform="translate(332.000000, 51.000000)">
                <circle id="椭圆形" fill="url(#linearGradient-1)" opacity="0.245293753" cx="14" cy="14" r="14"></circle>
                <g id="xiaoxi" transform="translate(7.628205, 4.397436)">
                    <mask id="mask-3" fill="white">
                        <use xlink:href="#path-2"></use>
                    </mask>
                    <g id="Clip-2"></g>
                    <path d="M12.7199791,14.0596949 L0.670312198,14.0596949 C0.417420369,14.0596949 0.185649123,13.9168282 0.0717669385,13.6908921 C-0.0422359353,13.4649561 -0.0190395005,13.194504 0.131532155,12.9917434 L1.63005564,10.9657789 L1.63005564,7.02984743 C1.63005564,4.26041118 3.90287177,2.00851059 6.69513356,2.00851059 C9.48739536,2.00851059 11.7602115,4.26041118 11.7602115,7.02984743 L11.7602115,10.9657789 L13.258735,12.9917434 C13.4093066,13.194504 13.4325031,13.4649561 13.3185243,13.6908921 C13.204618,13.9168282 12.9728468,14.0596949 12.7199791,14.0596949 Z M1.9969262,12.7213879 L11.3913616,12.7213879 L10.5514383,11.5858174 C10.4663766,11.4699162 10.4200803,11.3308156 10.4200803,11.1879489 L10.4200803,7.02984743 C10.4200803,5.00011686 8.74778874,3.34693827 6.69325082,3.34693827 C4.63861634,3.34693827 2.96830407,5.00011686 2.96830407,7.02984743 L2.96830407,11.1859693 C2.96830407,11.3289326 2.9219112,11.4679367 2.83694611,11.5838378 L1.9969262,12.7213879 Z M8.36930789,16.0683262 L5.02095924,16.0683262 C4.65208524,16.0683262 4.35084538,15.7689048 4.35084538,15.3981225 C4.35084538,15.0273161 4.65020249,14.7279189 5.02095924,14.7279189 L8.36742514,14.7279189 C8.73620259,14.7279189 9.03744245,15.0273161 9.03744245,15.3981225 C9.03744245,15.7689048 8.73818189,16.0683262 8.36930789,16.0683262 Z M7.02920085,1.33840354 L6.35908698,1.33840354 C5.99033367,1.33840354 5.68906967,1.03900633 5.68906967,0.668224056 C5.68906967,0.297417643 5.99033367,0 6.36106628,0 L7.03118015,0 C7.39993346,0 7.70119746,0.299300645 7.70119746,0.670203621 C7.70119746,1.04098589 7.39993346,1.33840354 7.02920085,1.33840354 Z" id="Fill-1" fill="#FFFFFF" mask="url(#mask-3)"></path>
                </g>
            </g>
        </g>
    </g>
</svg>