<?xml version="1.0" encoding="UTF-8"?>
<svg width="34px" height="34px" viewBox="0 0 34 34" version="1.1" xmlns="http://www.w3.org/2000/svg" xmlns:xlink="http://www.w3.org/1999/xlink">
    <title>编组 9</title>
    <defs>
        <linearGradient x1="75.6289109%" y1="10.5518482%" x2="65.2381603%" y2="97.6691455%" id="linearGradient-1">
            <stop stop-color="#F14B89" offset="0%"></stop>
            <stop stop-color="#E23678" offset="100%"></stop>
        </linearGradient>
        <linearGradient x1="75.6289109%" y1="10.5518482%" x2="65.2381603%" y2="97.6691455%" id="linearGradient-2">
            <stop stop-color="#FF89B5" offset="0%"></stop>
            <stop stop-color="#FF68A2" offset="100%"></stop>
        </linearGradient>
    </defs>
    <g id="页面-1" stroke="none" stroke-width="1" fill="none" fill-rule="evenodd">
        <g id="gongneng备份-2" transform="translate(-12.000000, -541.000000)">
            <g id="编组-9" transform="translate(12.000000, 541.000000)">
                <g id="编组-13备份-8" opacity="0.596987043" fill="url(#linearGradient-1)">
                    <g id="huodongyouli备份-2" opacity="0.320291428">
                        <path d="M0,16.9999532 C0,23.0735703 3.24010307,28.6858134 8.50007027,31.7224112 C13.7598032,34.7591963 20.2401968,34.7591963 25.4999766,31.7224112 C30.7597095,28.6858134 34,23.0735703 34,16.9999532 C34,7.61121798 26.3888498,0 16.9999063,0 C7.611197,0 0,7.61121798 0,16.9999532 Z" id="Fill-1"></path>
                    </g>
                </g>
                <g id="caiyouduo_shouye-appxiazai" transform="translate(8.000000, 8.000000)">
                    <path d="M8.54245041,7.38461538 L8.54245041,9.38038177 L9.89629166,9.38038177 C10.3065199,9.38038177 10.6073201,9.29916913 10.7942852,9.14161157 C10.9811435,8.97451439 11.0769231,8.72153268 11.0769231,8.37774276 C11.0769231,8.01962942 10.9811435,7.77134758 10.7896912,7.62819736 C10.6028329,7.47061182 10.3065199,7.38942716 9.90077883,7.38942716 L8.54245041,7.38942716 L8.54245041,7.38461538 Z M4.5993824,7.57563155 L3.69230769,10.1538462 L5.52472628,10.1538462 L4.62673273,7.57563155 L4.5993824,7.57563155 Z" id="Fill-1" fill="#F87CAB"></path>
                    <path d="M16.1999156,4.50002637 L14.8769446,4.50002637 L14.8769446,1.79997891 C14.8769446,0.805542372 14.0715077,0 13.0769657,0 L4.97700786,0 C3.98246585,0 3.17702895,0.805542372 3.17702895,1.79997891 L3.17702895,4.50002637 L1.79997891,4.50002637 C0.805542372,4.50002637 0,5.30546327 0,6.30000527 L0,12.1500026 C0,13.1444392 0.805542372,13.9499815 1.79997891,13.9499815 L3.17702895,13.9499815 L3.17702895,16.199942 C3.17702895,17.194484 3.98246585,18 4.97700786,18 L13.0769657,18 C14.0715077,18 14.8769446,17.194484 14.8769446,16.199942 L14.8769446,13.9499815 L16.1999156,13.9499815 C17.1944576,13.9499815 18,13.1444392 18,12.1500026 L18,6.30000527 C18,5.30546327 17.1944576,4.50002637 16.1999156,4.50002637 Z M4.75196435,2.35347783 C4.75196435,1.88103148 5.12099879,1.49849707 5.57994516,1.49849707 L12.4740284,1.49849707 C12.9329747,1.49849707 13.3020092,1.88103148 13.3020092,2.35347783 L13.3020092,4.50002637 L4.75196435,4.50002637 L4.75196435,2.35347783 Z M11.7494331,8.17196646 C11.7494331,9.27002584 11.1060223,9.81898961 9.81898961,9.81898961 L8.42851869,9.81898961 L8.42851869,11.9070295 L7.60950272,11.9070295 L7.60950272,6.54297843 L9.83246322,6.54297843 C11.1104519,6.54297843 11.7494331,7.08751252 11.7494331,8.17196646 Z M2.88894162,11.9070295 L2.01595212,11.9070295 L4.08144808,6.54297843 L5.01294626,6.54297843 L7.07844223,11.9070295 L6.20102304,11.9070295 L5.69693614,10.5254443 L3.38849338,10.5254443 L2.88894162,11.9070295 Z M10.1519538,17.1000105 L7.90199336,17.1000105 C7.65451142,17.1000105 7.45201181,16.8974318 7.45201181,16.6499235 C7.45201181,16.4024152 7.65451142,16.199942 7.90199336,16.199942 L10.1519538,16.199942 C10.3994621,16.199942 10.6019617,16.4024152 10.6019617,16.6499235 C10.6019617,16.8974318 10.3994621,17.1000105 10.1519538,17.1000105 Z M13.3020092,14.8949797 C13.3020092,15.3675051 12.9329747,15.7499341 12.4740284,15.7499341 L5.57994516,15.7499341 C5.12099879,15.7499341 4.75196435,15.3675051 4.75196435,14.8949797 L4.75196435,13.9499815 L13.3020092,13.9499815 L13.3020092,14.8949797 Z M14.7194537,9.81898961 L13.3290091,9.81898961 L13.3290091,11.9070295 L12.5099668,11.9070295 L12.5099668,6.54297843 L14.7329536,6.54297843 C16.010916,6.54297843 16.6499235,7.08751252 16.6499235,8.17196646 C16.6499235,9.27002584 16.0064863,9.81898961 14.7194537,9.81898961 Z" id="Fill-2" fill="url(#linearGradient-2)"></path>
                    <path d="M15.4266884,7.60548619 C15.2564508,7.45971405 14.9866728,7.38461538 14.6173059,7.38461538 L13.3846154,7.38461538 L13.3846154,9.23076923 L14.6173059,9.23076923 C14.9908315,9.23076923 15.2648168,9.15564469 15.4349571,9.00989843 C15.6050974,8.85532768 15.6923077,8.62131073 15.6923077,8.30329301 C15.6923077,7.97202562 15.6050974,7.73800867 15.4266884,7.60548619 Z" id="Fill-3" fill="#F87CAB"></path>
                </g>
            </g>
        </g>
    </g>
</svg>