<?xml version="1.0" encoding="UTF-8"?>
<svg width="50px" height="50px" viewBox="0 0 50 50" version="1.1" xmlns="http://www.w3.org/2000/svg" xmlns:xlink="http://www.w3.org/1999/xlink">
    <title>编组 5</title>
    <defs>
        <filter x="-16.3%" y="-16.3%" width="132.5%" height="132.5%" filterUnits="objectBoundingBox" id="filter-1">
            <feOffset dx="0" dy="0" in="SourceAlpha" result="shadowOffsetOuter1"></feOffset>
            <feGaussianBlur stdDeviation="1.5" in="shadowOffsetOuter1" result="shadowBlurOuter1"></feGaussianBlur>
            <feColorMatrix values="0 0 0 0 0.485543514   0 0 0 0 0.485543514   0 0 0 0 0.485543514  0 0 0 0.5 0" type="matrix" in="shadowBlurOuter1" result="shadowMatrixOuter1"></feColorMatrix>
            <feMerge>
                <feMergeNode in="shadowMatrixOuter1"></feMergeNode>
                <feMergeNode in="SourceGraphic"></feMergeNode>
            </feMerge>
        </filter>
        <linearGradient x1="0%" y1="0%" x2="65.0525088%" y2="99.2256698%" id="linearGradient-2">
            <stop stop-color="#1B7CFF" offset="0%"></stop>
            <stop stop-color="#0028FF" offset="100%"></stop>
        </linearGradient>
    </defs>
    <g id="页面-1" stroke="none" stroke-width="1" fill="none" fill-rule="evenodd">
        <g id="gongneng" transform="translate(-210.000000, -371.000000)">
            <g id="编组-5" transform="translate(215.000000, 376.000000)">
                <g id="编组-3备份-2">
                    <g id="huodongyouli" filter="url(#filter-1)" fill="url(#linearGradient-2)">
                        <path d="M0,19.9999449 C0,27.1453768 3.81188596,33.7480158 10.0000827,37.3204837 C16.1880038,40.8931721 23.8119962,40.8931721 29.9999724,37.3204837 C36.1878936,33.7480158 40,27.1453768 40,19.9999449 C40,8.95437409 31.0457057,0 19.9998898,0 C8.95434941,0 0,8.95437409 0,19.9999449 Z" id="Fill-1"></path>
                    </g>
                    <path d="M21,15.5 L17,15.5 L16.4346088,13.8303147 L17,13 L17,15.5 L17,21.5 L13.5,25 L13,39.5 C13.0264828,39.5066167 12.9720251,38.9935452 13,39 C14.6428194,39.3790543 18.8967145,40 20.5,40 C21.9258685,40 23.159483,39.7855329 24.5,39.5 C33.4556311,37.5924322 40.0434783,29.276854 40.0434783,19.764349 C40.0434783,19.2033371 40.0187244,18.6467997 39.9717849,18.0970287 L31,14 L21,15.5 Z" id="Fill-3" fill="#1B41B9"></path>
                </g>
                <g id="caiyouduo_shouye-appxiazai" transform="translate(7.000000, 7.000000)" fill="#FFFFFF">
                    <path d="M12.339095,10.6666667 L12.339095,13.5494403 L14.2946435,13.5494403 C14.8871954,13.5494403 15.3216846,13.4321332 15.5917453,13.20455 C15.8616517,12.9631875 16,12.5977694 16,12.101184 C16,11.5839092 15.8616517,11.2252798 15.5851095,11.0185073 C15.3152031,10.7908837 14.8871954,10.673617 14.301125,10.673617 L12.339095,10.673617 L12.339095,10.6666667 Z M6.64355236,10.9425789 L5.33333333,14.6666667 L7.98016018,14.6666667 L6.68305839,10.9425789 L6.64355236,10.9425789 Z" id="Fill-1"></path>
                    <path d="M23.3998781,6.50003809 L21.4889199,6.50003809 L21.4889199,2.59996953 C21.4889199,1.1635612 20.3255111,0 18.8889504,0 L7.18901135,0 C5.75245068,0 4.58904182,1.1635612 4.58904182,2.59996953 L4.58904182,6.50003809 L2.59996953,6.50003809 C1.1635612,6.50003809 0,7.66344695 0,9.10000762 L0,17.5500038 C0,18.9864121 1.1635612,20.1499733 2.59996953,20.1499733 L4.58904182,20.1499733 L4.58904182,23.3999162 C4.58904182,24.8364769 5.75245068,26 7.18901135,26 L18.8889504,26 C20.3255111,26 21.4889199,24.8364769 21.4889199,23.3999162 L21.4889199,20.1499733 L23.3998781,20.1499733 C24.8364388,20.1499733 26,18.9864121 26,17.5500038 L26,9.10000762 C26,7.66344695 24.8364388,6.50003809 23.3998781,6.50003809 Z M6.86394851,3.39946797 C6.86394851,2.71704547 7.39699825,2.16449577 8.05992078,2.16449577 L18.018041,2.16449577 C18.6809635,2.16449577 19.2140133,2.71704547 19.2140133,3.39946797 L19.2140133,6.50003809 L6.86394851,6.50003809 L6.86394851,3.39946797 Z M16.9714034,11.8039516 C16.9714034,13.3900373 16.0420321,14.182985 14.182985,14.182985 L12.174527,14.182985 L12.174527,17.1990426 L10.9915039,17.1990426 L10.9915039,9.45096885 L14.2024469,9.45096885 C16.0484306,9.45096885 16.9714034,10.2375181 16.9714034,11.8039516 Z M4.17291568,17.1990426 L2.91193084,17.1990426 L5.89542501,9.45096885 L7.24092238,9.45096885 L10.2244166,17.1990426 L8.95703329,17.1990426 L8.22890776,15.2034195 L4.89449044,15.2034195 L4.17291568,17.1990426 Z M14.6639333,24.7000152 L11.4139904,24.7000152 C11.0565165,24.7000152 10.7640171,24.4074015 10.7640171,24.0498896 C10.7640171,23.6923776 11.0565165,23.3999162 11.4139904,23.3999162 L14.6639333,23.3999162 C15.0214453,23.3999162 15.3139447,23.6923776 15.3139447,24.0498896 C15.3139447,24.4074015 15.0214453,24.7000152 14.6639333,24.7000152 Z M19.2140133,21.5149707 C19.2140133,22.1975074 18.6809635,22.7499048 18.018041,22.7499048 L8.05992078,22.7499048 C7.39699825,22.7499048 6.86394851,22.1975074 6.86394851,21.5149707 L6.86394851,20.1499733 L19.2140133,20.1499733 L19.2140133,21.5149707 Z M21.2614331,14.182985 L19.2530132,14.182985 L19.2530132,17.1990426 L18.069952,17.1990426 L18.069952,9.45096885 L21.280933,9.45096885 C23.1268787,9.45096885 24.0498896,10.2375181 24.0498896,11.8039516 C24.0498896,13.3900373 23.1204802,14.182985 21.2614331,14.182985 Z" id="Fill-2"></path>
                    <path d="M22.2829943,10.9857023 C22.0370956,10.7751425 21.6474163,10.6666667 21.1138863,10.6666667 L19.3333333,10.6666667 L19.3333333,13.3333333 L21.1138863,13.3333333 C21.6534233,13.3333333 22.0491798,13.2248201 22.294938,13.0142977 C22.5406962,12.7910289 22.6666667,12.4530044 22.6666667,11.9936455 C22.6666667,11.5151481 22.5406962,11.1771236 22.2829943,10.9857023 Z" id="Fill-3"></path>
                </g>
            </g>
        </g>
    </g>
</svg>