<?xml version="1.0" standalone="no"?><!DOCTYPE svg PUBLIC "-//W3C//DTD SVG 1.1//EN" "http://www.w3.org/Graphics/SVG/1.1/DTD/svg11.dtd"><svg t="1650263773774" class="icon" viewBox="0 0 1025 1024" version="1.1" xmlns="http://www.w3.org/2000/svg" p-id="3365" xmlns:xlink="http://www.w3.org/1999/xlink" width="258.251953125" height="258"><defs><style type="text/css">@font-face { font-family: feedback-iconfont; src: url("//at.alicdn.com/t/font_1031158_u69w8yhxdu.woff2?t=1630033759944") format("woff2"), url("//at.alicdn.com/t/font_1031158_u69w8yhxdu.woff?t=1630033759944") format("woff"), url("//at.alicdn.com/t/font_1031158_u69w8yhxdu.ttf?t=1630033759944") format("truetype"); }
</style></defs><path d="M16.943988 16.886615C3.127666 31.214652 0.569088 37.35524 0.569088 58.33558v25.074065l213.385411 214.408842 213.385411 214.408843-199.569089 200.59252c-110.018857 110.018857-206.221392 208.268255-213.385411 217.479136-20.468625 25.585781-18.933478 53.218424 3.582009 75.733911 22.515487 22.515487 50.14813 24.050634 75.733911 3.58201 9.210881-7.164019 107.460279-103.366554 217.479136-213.385412L512.284702 596.14869l201.104236 200.080805c110.018857 110.018857 208.268255 206.221392 217.479136 213.385412 25.585781 20.468625 53.218424 18.933478 75.733911-3.58201 22.515487-22.515487 24.050634-50.14813 3.58201-75.733911-7.164019-9.210881-103.366554-107.460279-213.385412-217.990851L596.717778 511.715614l200.080805-201.104236c110.018857-110.018857 206.221392-208.268255 213.385412-217.479136 22.003771-27.120928 16.886615-63.964452-11.76946-86.479939-4.093725-3.582009-18.933478-6.652303-32.749799-6.652303h-25.585781l-213.897126 213.385411L512.284702 426.770822 298.387575 213.385411 84.490449 0h-25.585781C36.389181 0 31.272025 2.046862 16.943988 16.886615z" p-id="3366" fill="#cccccc"></path></svg>