<?xml version="1.0" encoding="UTF-8"?>
<svg width="37px" height="32px" viewBox="0 0 37 32" version="1.1" xmlns="http://www.w3.org/2000/svg" xmlns:xlink="http://www.w3.org/1999/xlink">
    <title>面性办卡图标</title>
    <defs>
        <filter x="-32.0%" y="-41.5%" width="164.0%" height="182.9%" filterUnits="objectBoundingBox" id="filter-1">
            <feOffset dx="0" dy="2" in="SourceAlpha" result="shadowOffsetOuter1"></feOffset>
            <feGaussianBlur stdDeviation="1" in="shadowOffsetOuter1" result="shadowBlurOuter1"></feGaussianBlur>
            <feColorMatrix values="0 0 0 0 0.130763508   0 0 0 0 0.141197352   0 0 0 0 0.165046139  0 0 0 1 0" type="matrix" in="shadowBlurOuter1" result="shadowMatrixOuter1"></feColorMatrix>
            <feMerge>
                <feMergeNode in="shadowMatrixOuter1"></feMergeNode>
                <feMergeNode in="SourceGraphic"></feMergeNode>
            </feMerge>
        </filter>
        <linearGradient x1="62.2100178%" y1="79.780355%" x2="31.9885889%" y2="28.3806471%" id="linearGradient-2">
            <stop stop-color="#CA962E" offset="0%"></stop>
            <stop stop-color="#FFD37D" offset="100%"></stop>
        </linearGradient>
    </defs>
    <g id="页面-1" stroke="none" stroke-width="1" fill="none" fill-rule="evenodd">
        <g id="画板备份-13" transform="translate(-161.000000, -268.000000)">
            <g id="面性办卡图标" filter="url(#filter-1)" transform="translate(167.000000, 274.000000)">
                <path d="M22.379894,19.2938964 L2.61583177,19.2938964 C1.1754146,19.2938964 0,18.1184818 0,16.6780646 L0,2.61583177 C0,1.1754146 1.1754146,0 2.61583177,0 L22.3841682,0 C23.8245854,0 25,1.1754146 25,2.61583177 L25,16.6737904 C24.9957258,18.1142076 23.8203112,19.2938964 22.379894,19.2938964 Z" id="路径" fill="url(#linearGradient-2)" fill-rule="nonzero"></path>
                <path d="M19.5822123,13.3339425 L18.8208392,13.3339425 L18.8208392,12.4384513 C18.8208392,12.2435282 18.8591083,12.0618024 18.9356613,11.893274 C19.0122069,11.7247157 19.1179399,11.5764857 19.2528897,11.4485839 C19.3878468,11.3206449 19.5469704,11.2201278 19.7302606,11.1470326 C19.9135507,11.0739373 20.1139485,11.0373897 20.3315059,11.0373897 C20.5248598,11.0373897 20.7111772,11.0739373 20.8904358,11.1470326 C21.0696871,11.2201278 21.2288107,11.3206449 21.3677993,11.4485839 C21.5067584,11.5764857 21.6175417,11.7247157 21.7001493,11.893274 C21.7827199,12.0618024 21.8240237,12.2435282 21.8240237,12.4384513 L21.8240237,13.3339425 L21.0928494,13.3339425 L21.0928494,12.6090119 C21.0928494,12.3531711 21.0223583,12.1551887 20.8813762,12.0151019 C20.7403719,11.8749853 20.5490263,11.8049419 20.307332,11.8049419 C20.0897747,11.8049419 19.9145622,11.8749853 19.7816281,12.0151019 C19.6486646,12.1551887 19.5822123,12.3531711 19.5822123,12.6090119 L19.5822123,13.3339425 Z M22.2215191,13.6872583 C22.3299167,13.6872583 22.4232578,13.7259243 22.5015572,13.8032126 C22.5798345,13.8805373 22.6189842,13.9727077 22.6189842,14.0797458 L22.6189842,15.923293 C22.6189842,16.0303384 22.5999319,16.1304513 22.561783,16.22361 C22.5236341,16.316776 22.471437,16.3980683 22.4052063,16.4674432 C22.3389461,16.5368181 22.2606688,16.5913472 22.1703228,16.6309724 C22.0799694,16.6706266 21.9806233,16.6904428 21.8722258,16.6904428 L18.8308752,16.6904428 C18.7224703,16.6904428 18.624103,16.6706266 18.535766,16.6309724 C18.4474584,16.5913472 18.3721761,16.5388019 18.3099414,16.4733801 C18.2477066,16.40798 18.1995274,16.3316509 18.1654039,16.2444218 C18.1312804,16.1572217 18.1142076,16.0640267 18.1142076,15.9649383 L18.1142076,14.0797458 C18.1142076,13.9727077 18.1523564,13.8805373 18.2286468,13.8032126 C18.3049078,13.7259243 18.3972702,13.6872583 18.5056678,13.6872583 L22.2215191,13.6872583 Z" id="suoding" fill="#2B3242"></path>
                <circle id="椭圆形备份" fill="#2B3242" cx="8.1295948" cy="13.6775517" r="1.24807659"></circle>
                <circle id="椭圆形备份-3" fill="#2B3242" cx="3.13728843" cy="13.6775517" r="1.24807659"></circle>
                <circle id="椭圆形备份-2" fill="#2B3242" cx="13.1219012" cy="13.6775517" r="1.24807659"></circle>
                <rect id="矩形" fill="#2B3242" fill-rule="nonzero" x="0" y="3.95366729" width="25" height="3.85963413"></rect>
            </g>
        </g>
    </g>
</svg>