<?xml version="1.0" encoding="UTF-8"?>
<svg width="81px" height="81px" viewBox="0 0 81 81" version="1.1" xmlns="http://www.w3.org/2000/svg" xmlns:xlink="http://www.w3.org/1999/xlink">
    <title>编组 4备份 3</title>
    <defs>
        <linearGradient x1="84.345128%" y1="12.1535961%" x2="11.4843809%" y2="84.2635228%" id="linearGradient-1">
            <stop stop-color="#3E464D" offset="0%"></stop>
            <stop stop-color="#384459" offset="100%"></stop>
        </linearGradient>
        <circle id="path-2" cx="40.5" cy="40.5" r="40.5"></circle>
        <filter x="-1.9%" y="-1.9%" width="103.7%" height="103.7%" filterUnits="objectBoundingBox" id="filter-3">
            <feGaussianBlur stdDeviation="1" in="SourceAlpha" result="shadowBlurInner1"></feGaussianBlur>
            <feOffset dx="0" dy="1" in="shadowBlurInner1" result="shadowOffsetInner1"></feOffset>
            <feComposite in="shadowOffsetInner1" in2="SourceAlpha" operator="arithmetic" k2="-1" k3="1" result="shadowInnerInner1"></feComposite>
            <feColorMatrix values="0 0 0 0 0.576101994   0 0 0 0 0.576101994   0 0 0 0 0.576101994  0 0 0 0.5 0" type="matrix" in="shadowInnerInner1"></feColorMatrix>
        </filter>
    </defs>
    <g id="页面-1" stroke="none" stroke-width="1" fill="none" fill-rule="evenodd">
        <g id="画板备份-17" transform="translate(-188.000000, -240.000000)">
            <g id="编组-4备份-3" transform="translate(188.000000, 240.000000)">
                <g id="椭圆形备份">
                    <use fill="url(#linearGradient-1)" fill-rule="evenodd" xlink:href="#path-2"></use>
                    <use fill="black" fill-opacity="1" filter="url(#filter-3)" xlink:href="#path-2"></use>
                </g>
                <path d="M52.2555623,16.875 L25.3396804,16.875 C22.5304869,16.875 20.25,19.1803795 20.25,22.0202366 L20.25,52.1260083 C20.25,58.7474505 25.5762642,64.125 32.1190835,64.125 L59.0349655,64.125 C61.8441589,64.125 64.125,61.819269 64.125,58.9794119 L64.125,28.8736402 C64.1317729,22.2594029 58.8058564,16.875 52.2555623,16.875 Z M44.8011204,47.25 L32.8235563,47.25 C31.4699965,47.25 30.375,46.4965478 30.375,45.5651818 C30.375,44.6336195 31.4699965,43.875 32.8235563,43.875 L44.8011204,43.875 C46.1549654,43.875 47.25,44.6285176 47.25,45.5651818 C47.2574716,46.4913805 46.1549654,47.25 44.8011204,47.25 Z M51.7858358,37.125 L32.5888204,37.125 C31.3650224,37.125 30.375,36.3703416 30.375,35.437369 C30.375,34.5046584 31.3650224,33.75 32.5888204,33.75 L51.7858358,33.75 C53.0098916,33.75 54,34.5046584 54,35.437369 C54,36.3703416 53.0098916,37.125 51.7858358,37.125 Z" id="renwu" fill="#748091"></path>
            </g>
        </g>
    </g>
</svg>