<?xml version="1.0" encoding="UTF-8"?>
<svg width="34px" height="34px" viewBox="0 0 34 34" version="1.1" xmlns="http://www.w3.org/2000/svg" xmlns:xlink="http://www.w3.org/1999/xlink">
    <title>编组 8</title>
    <defs>
        <linearGradient x1="75.6289109%" y1="10.5518482%" x2="64.9601521%" y2="100%" id="linearGradient-1">
            <stop stop-color="#FFCD0F" offset="0%"></stop>
            <stop stop-color="#E4B208" offset="99.1343251%"></stop>
        </linearGradient>
        <linearGradient x1="63.5557876%" y1="10.5518482%" x2="57.9616576%" y2="99.2256698%" id="linearGradient-2">
            <stop stop-color="#FFDC57" offset="0%"></stop>
            <stop stop-color="#E4B208" offset="100%"></stop>
        </linearGradient>
    </defs>
    <g id="页面-1" stroke="none" stroke-width="1" fill="none" fill-rule="evenodd">
        <g id="gongneng备份-2" transform="translate(-12.000000, -482.000000)">
            <g id="编组-8" transform="translate(12.000000, 482.000000)">
                <g id="编组-13备份-7" opacity="0.220439366" fill="url(#linearGradient-1)">
                    <g id="huodongyouli备份-2">
                        <path d="M0,16.9999532 C0,23.0735703 3.24010307,28.6858134 8.50007027,31.7224112 C13.7598032,34.7591963 20.2401968,34.7591963 25.4999766,31.7224112 C30.7597095,28.6858134 34,23.0735703 34,16.9999532 C34,7.61121798 26.3888498,0 16.9999063,0 C7.611197,0 0,7.61121798 0,16.9999532 Z" id="Fill-1"></path>
                    </g>
                </g>
                <g id="帮助中心" transform="translate(9.000000, 6.000000)" fill="url(#linearGradient-2)">
                    <path d="M15.9608936,7.12419522 C15.5476666,3.14334604 12.1385437,0.0529499992 8.10958023,0.000570404202 C3.66738979,-0.0518091908 0,3.51000321 0,7.90988913 C0,10.7907668 1.54960132,13.3573669 4.02896344,14.771616 L4.18392357,16.3953834 C4.23557695,16.709661 4.49384384,16.9191793 4.80376409,16.9191793 L11.1571295,16.9191793 C11.4670498,16.9191793 11.7253166,16.6572814 11.77697,16.3953834 L11.9319301,14.771616 C14.7212125,13.2526078 16.2708138,10.3193505 15.9608936,7.12419522 Z M3.97731006,7.75275034 C3.97731006,8.11940751 3.66738979,8.38130548 3.35746953,8.38130548 C3.04754926,8.38130548 2.73762901,8.11940751 2.73762901,7.75275034 C2.73762901,7.54323196 2.73762901,7.38609318 2.78928237,7.17657482 C2.84093575,6.80991765 3.15085601,6.60039927 3.51242966,6.60039927 C3.87400331,6.65277887 4.13227019,6.96705644 4.08061682,7.28133401 C4.02896344,7.49085239 3.97731006,7.59561158 3.97731006,7.75275034 L3.97731006,7.75275034 Z M8.00627348,3.77190118 C6.50832554,3.77190118 5.16533773,4.55759509 4.49384382,5.86708496 C4.39053706,6.07660334 4.18392355,6.18136251 3.92565668,6.18136251 C3.82234993,6.18136251 3.71904317,6.18136251 3.61573642,6.12898292 C3.30581615,5.97184413 3.20250939,5.60518697 3.35746953,5.29090942 C4.28723031,3.6147624 6.04344514,2.56717052 8.00627348,2.56717052 C8.36784712,2.56717052 8.62611401,2.82906849 8.62611401,3.19572564 C8.62611401,3.56238278 8.36784712,3.77190118 8.00627348,3.77190118 Z M4.44219044,17.9143917 C4.39053706,18.12391 4.39053706,18.2810488 4.39053706,18.4905672 C4.39053706,20.4286122 5.99179176,22 7.9546201,22 C9.91744844,22 11.5187031,20.4286122 11.5187031,18.4905672 C11.5187031,18.2810488 11.5187031,18.0715304 11.4670498,17.9143917 L4.44219044,17.9143917 L4.44219044,17.9143917 Z" id="形状"></path>
                </g>
            </g>
        </g>
    </g>
</svg>