<?xml version="1.0" encoding="UTF-8"?>
<svg width="81px" height="81px" viewBox="0 0 81 81" version="1.1" xmlns="http://www.w3.org/2000/svg" xmlns:xlink="http://www.w3.org/1999/xlink">
    <title>编组 6备份</title>
    <defs>
        <linearGradient x1="84.345128%" y1="12.1535961%" x2="11.4843809%" y2="84.2635228%" id="linearGradient-1">
            <stop stop-color="#3E464D" offset="0%"></stop>
            <stop stop-color="#384459" offset="100%"></stop>
        </linearGradient>
        <circle id="path-2" cx="40.5" cy="40.5" r="40.5"></circle>
        <filter x="-1.9%" y="-1.9%" width="103.7%" height="103.7%" filterUnits="objectBoundingBox" id="filter-3">
            <feGaussianBlur stdDeviation="1" in="SourceAlpha" result="shadowBlurInner1"></feGaussianBlur>
            <feOffset dx="0" dy="1" in="shadowBlurInner1" result="shadowOffsetInner1"></feOffset>
            <feComposite in="shadowOffsetInner1" in2="SourceAlpha" operator="arithmetic" k2="-1" k3="1" result="shadowInnerInner1"></feComposite>
            <feColorMatrix values="0 0 0 0 0.576101994   0 0 0 0 0.576101994   0 0 0 0 0.576101994  0 0 0 0.5 0" type="matrix" in="shadowInnerInner1"></feColorMatrix>
        </filter>
        <polygon id="path-4" points="0 0 50.625 0 50.625 50.625 0 50.625"></polygon>
    </defs>
    <g id="页面-1" stroke="none" stroke-width="1" fill="none" fill-rule="evenodd">
        <g id="画板备份-17" transform="translate(-10.000000, -240.000000)">
            <g id="编组-6备份" transform="translate(10.000000, 240.000000)">
                <g id="椭圆形">
                    <use fill="url(#linearGradient-1)" fill-rule="evenodd" xlink:href="#path-2"></use>
                    <use fill="black" fill-opacity="1" filter="url(#filter-3)" xlink:href="#path-2"></use>
                </g>
                <g id="xingzhuangjiehe" transform="translate(16.875000, 16.875000)">
                    <mask id="mask-5" fill="white">
                        <use xlink:href="#path-4"></use>
                    </mask>
                    <g id="Clip-2"></g>
                    <path d="M28.9285273,0 C29.9271857,0 30.7366182,0.809432446 30.7366182,1.80809089 L30.7366182,48.8169091 C30.7366182,49.8156294 29.9271857,50.625 28.9285273,50.625 L27.1204364,50.625 L1.45367838,45.49019 C0.608835582,45.321481 0.000494385369,44.5799029 0,43.7183128 L0,6.9066872 C0.000494385369,6.0450971 0.608835582,5.30376624 1.45367838,5.13481004 L27.1204364,0 L28.9285273,0 Z M48.8169091,3.61618178 C49.8156294,3.61618178 50.625,4.42555243 50.625,5.42402548 L50.625,45.2010363 C50.625,46.1994476 49.8156294,47.0090654 48.8169091,47.0090654 L36.1608909,47.0090654 C35.1624178,47.0090654 34.3530472,46.1994476 34.3530472,45.2010363 C34.3530472,44.2025633 35.1624178,43.3931926 36.1608909,43.3929454 L46.1050818,43.3929454 C46.3447969,43.3929454 46.5745625,43.2975908 46.7442602,43.1281403 C46.9137726,42.9586897 47.0091272,42.7286151 47.0091272,42.4889 L47.0091272,8.13610002 C47.0091272,7.89638491 46.9137726,7.66637212 46.7442602,7.49685974 C46.5745625,7.32740915 46.3447969,7.23205457 46.1050818,7.23205457 L36.1608909,7.23205457 C35.1624178,7.23205457 34.3530472,6.42268393 34.3530472,5.42402548 C34.3530472,4.42555243 35.1624178,3.61618178 36.1608909,3.61618178 L48.8169091,3.61618178 Z M25.3126545,22.6005182 C24.3436592,22.6005182 23.4483273,23.1173363 22.9638296,23.9564318 C22.4793319,24.7955274 22.4793319,25.8294726 22.9638296,26.6685682 C23.4483273,27.5076637 24.3436592,28.0244818 25.3126545,28.0244818 C26.8102714,28.0244818 28.0244818,26.8102714 28.0244818,25.3126545 C28.0244818,23.8147286 26.8102714,22.6005182 25.3126545,22.6005182 Z" id="Fill-1" fill="#748091" fill-rule="nonzero" mask="url(#mask-5)"></path>
                </g>
            </g>
        </g>
    </g>
</svg>