<?xml version="1.0" encoding="UTF-8"?>
<svg width="16px" height="13px" viewBox="0 0 16 13" version="1.1" xmlns="http://www.w3.org/2000/svg" xmlns:xlink="http://www.w3.org/1999/xlink">
    <title>编组</title>
    <defs>
        <linearGradient x1="62.2100178%" y1="83.0078125%" x2="31.9885889%" y2="26.0376414%" id="linearGradient-1">
            <stop stop-color="#CA962E" offset="0%"></stop>
            <stop stop-color="#FFD37D" offset="100%"></stop>
        </linearGradient>
    </defs>
    <g id="页面-1" stroke="none" stroke-width="1" fill="none" fill-rule="evenodd">
        <g id="画板备份-13" transform="translate(-12.000000, -240.000000)" fill="url(#linearGradient-1)" fill-rule="nonzero">
            <g id="编组-11" transform="translate(12.000000, 237.000000)">
                <g id="编组" transform="translate(0.000000, 3.000000)">
                    <path d="M15.3617042,5.95419761 L12.7233354,5.95419761 C12.3702248,5.95419761 12.0850396,6.19763637 12.0850396,6.49926061 C12.0850396,6.80088486 12.3702248,7.04432362 12.7233354,7.04432362 L15.3617042,7.04432362 C15.7148148,7.04432362 16,6.80088486 16,6.49926061 C16,6.19763637 15.7148148,5.95419761 15.3617042,5.95419761 L15.3617042,5.95419761 Z M12.4914478,9.2228042 C12.2573795,8.99746607 11.8531521,8.97927459 11.5893764,9.17915374 C11.3254943,9.37903288 11.3042177,9.72421674 11.5382595,9.94955488 L13.6340238,11.9552959 C13.7595287,12.0752779 13.9340494,12.1369836 14.1105648,12.1369836 C14.2616281,12.1369836 14.4127712,12.0915617 14.5360953,11.9989464 C14.7999774,11.7990672 14.8212805,11.4538834 14.5872121,11.2285452 L12.4914478,9.2228042 Z M11.5893764,3.80480977 C11.710626,3.8975159 11.8637638,3.94293782 12.0149069,3.94293782 C12.1914222,3.94293782 12.3659429,3.88111859 12.4914478,3.76125015 L14.5872121,1.75541828 C14.8212805,1.53008015 14.7999774,1.18666774 14.5360953,0.985017138 C14.2723196,0.785160702 13.8701667,0.803329469 13.6340238,1.0286676 L11.5382595,3.03449947 C11.3042177,3.25974676 11.3254943,3.60318187 11.5893764,3.80480977 L11.5893764,3.80480977 Z M8.82124727,0.114733202 L3.25318067,3.82842916 L0.63829575,3.82842916 C0.285078839,3.82842916 0,4.07193606 0,4.37349217 L0,9.00652774 C0,9.30815198 0.285078839,9.55159075 0.63829575,9.55159075 L3.27022849,9.55159075 L8.84462485,12.9001172 C8.95318832,12.9655021 9.08294853,13 9.21270873,13 C9.31276159,13 9.41486232,12.9800371 9.50640457,12.9382943 C9.71698897,12.8437713 9.85100448,12.6584499 9.85100448,12.454937 L9.85100448,0.545355689 C9.85100448,0.33643758 9.71273367,0.145597395 9.49361206,0.05475356 C9.27441066,-0.0360902746 9.0127094,-0.0124027447 8.82124727,0.114733202 Z" id="Fill-1"></path>
                </g>
            </g>
        </g>
    </g>
</svg>