<?xml version="1.0" encoding="UTF-8"?>
<svg width="48px" height="48px" viewBox="0 0 48 48" version="1.1" xmlns="http://www.w3.org/2000/svg" xmlns:xlink="http://www.w3.org/1999/xlink">
    <title>编组 8</title>
    <defs>
        <linearGradient x1="15.1902667%" y1="6.04020785%" x2="97.7338607%" y2="87.1397941%" id="linearGradient-1">
            <stop stop-color="#FFE691" offset="0%"></stop>
            <stop stop-color="#FFC24A" offset="100%"></stop>
        </linearGradient>
        <circle id="path-2" cx="13" cy="13" r="13"></circle>
        <filter x="-65.4%" y="-61.5%" width="230.8%" height="230.8%" filterUnits="objectBoundingBox" id="filter-3">
            <feOffset dx="0" dy="1" in="SourceAlpha" result="shadowOffsetOuter1"></feOffset>
            <feGaussianBlur stdDeviation="5.5" in="shadowOffsetOuter1" result="shadowBlurOuter1"></feGaussianBlur>
            <feColorMatrix values="0 0 0 0 0   0 0 0 0 0   0 0 0 0 0  0 0 0 1 0" type="matrix" in="shadowBlurOuter1"></feColorMatrix>
        </filter>
    </defs>
    <g id="页面-1" stroke="none" stroke-width="1" fill="none" fill-rule="evenodd">
        <g id="微商中心" transform="translate(-295.000000, -235.000000)">
            <g id="编组-8" transform="translate(306.000000, 245.000000)">
                <g id="椭圆形">
                    <use fill="black" fill-opacity="1" filter="url(#filter-3)" xlink:href="#path-2"></use>
                    <use fill="url(#linearGradient-1)" fill-rule="evenodd" xlink:href="#path-2"></use>
                </g>
                <g id="编组-9" transform="translate(5.602409, 7.773934)" fill="#444444">
                    <path d="M1.83830033,0.842993079 C1.83830033,0.612330756 1.91916239,0.414212295 2.08187226,0.248443016 C2.24423235,0.0829008628 2.43797697,0 2.66440983,0 L13.8687187,0 C14.09477,0 14.2916626,0.0829008628 14.4589514,0.248443016 C14.6252862,0.414082509 14.7093598,0.612330756 14.7093598,0.842993079 L14.7093598,1.89370879 C14.7093598,2.12489026 14.6252862,2.3255071 14.4590785,2.49598112 C14.2916626,2.66645515 14.0973774,2.75175705 13.8687187,2.75175705 L2.66440983,2.75175705 C2.43797697,2.75175705 2.24423235,2.66645515 2.08187226,2.49598112 C1.91916239,2.3255071 1.83830033,2.12742108 1.83830033,1.89370879 L1.83830033,0.842993079 Z" id="路径"></path>
                    <path d="M0,4.55279858 C0,4.32200647 0.0810846509,4.12388801 0.243063165,3.95824851 C0.405423255,3.79296593 0.599549448,3.71019486 0.825600736,3.71019486 L11.6291924,3.71019486 C11.4821271,3.75013652 11.3394181,3.80299191 11.2016696,3.86798229 C11.0640483,3.93300512 10.9411812,4.03631485 10.8336407,4.17674339 C10.5180147,4.53797052 10.2059819,4.92440859 9.89124628,5.34024321 C9.58891183,5.74076307 9.28982076,6.14381377 8.99406847,6.5492655 L0.825600736,6.5492655 C0.599549448,6.5492655 0.405423255,6.46422317 0.243063165,6.29374914 C0.0810846509,6.12291821 0,5.92479975 0,5.69147681 L0,4.55279858 Z" id="路径"></path>
                    <path d="M0.825600736,10.3495643 L0.825600736,10.3520952 C0.599549448,10.3520952 0.405423255,10.2693241 0.243063165,10.1038144 C0.0810846509,9.93814245 0,9.73512457 0,9.49709688 L0,8.37045631 C0,8.13979399 0.0810846509,7.94154574 0.243063165,7.77603604 C0.405423255,7.61075346 0.599549448,7.52785259 0.825600736,7.52785259 L8.25874198,7.52785259 C8.22980589,7.5478721 8.20258688,7.57525696 8.1780071,7.61075346 C8.15342732,7.64547123 8.13116879,7.67324546 8.11167668,7.69313517 C8.01342116,7.83369351 7.95478583,7.99923566 7.93443517,8.18742549 C7.91529283,8.3752584 7.93443517,8.55867859 7.99354747,8.73421427 C8.05291416,8.90987974 8.14868944,9.05780343 8.28122309,9.17577898 C8.41388394,9.29618802 8.57872427,9.35614919 8.77507631,9.35614919 L9.46830238,9.35614919 L10.1000313,9.34106156 L10.1000313,9.4614706 C10.1000313,9.52178869 10.1028931,9.6196474 10.1077264,9.75501429 C10.1128459,9.89077053 10.1153261,10.088597 10.1153261,10.3495643 L0.825600736,10.3495643 Z" id="路径"></path>
                    <path d="M14.6842713,8.40556345 C14.6107545,8.4307744 14.4901451,8.44294184 14.3230789,8.44294184 L13.5273682,8.44294184 C13.3107609,8.44294184 13.148051,8.49845784 13.0425774,8.608484 C12.9346553,8.71925642 12.8806307,8.86474662 12.8806307,9.04524662 L12.8806307,10.5022901 C12.8806307,10.6730237 12.8067006,10.8436275 12.6592855,11.0143287 C12.5118386,11.1848027 12.3349469,11.2702344 12.1280379,11.2702344 L11.5556757,11.2702344 C11.4074975,11.2702344 11.2776666,11.2120578 11.1646569,11.0997604 C11.0519969,10.9839263 10.9973363,10.7836664 10.9973363,10.4926535 C10.9973363,10.3621212 10.9998166,10.2793501 11.0049042,10.2442429 C11.0096421,10.2091358 11.011868,10.1638729 11.011868,10.1084867 C11.011868,10.0533601 11.0147298,9.96059545 11.020199,9.83003064 C11.0245553,9.69988765 11.0270356,9.47402741 11.0270356,9.15575948 C11.0270356,8.90468829 10.9852849,8.72418829 10.9013384,8.61367544 C10.8179643,8.50355195 10.6679418,8.44803595 10.4515571,8.44803595 L9.65524225,8.44803595 C9.42954074,8.44803595 9.28670456,8.40037201 9.22771945,8.30494679 C9.16857536,8.21000826 9.2178939,8.06169521 9.37513453,7.86386877 C9.5225814,7.6630897 9.68494149,7.42950719 9.86924213,7.16662547 C10.0566908,6.89235502 10.2427721,6.61720852 10.4273271,6.34102372 C10.6190049,6.0553321 10.8059447,5.77687605 10.9852849,5.50591515 C11.1671371,5.23518137 11.3415168,4.99449308 11.5063571,4.7834609 C11.5751678,4.7032531 11.6635978,4.6407611 11.7715516,4.59562799 C11.8796009,4.55052732 11.9944867,4.52515414 12.1109942,4.52048184 C12.2292506,4.51503083 12.3375861,4.52758763 12.4353329,4.55786023 C12.5317123,4.58790571 12.608218,4.63810048 12.657155,4.70831476 C12.7749026,4.91908736 12.9099483,5.14974968 13.0625783,5.4056554 C13.2151128,5.66143133 13.3720037,5.91733705 13.5418999,6.17830442 C13.708966,6.43901222 13.8738064,6.69478815 14.0354033,6.95105078 C14.1984947,7.20656714 14.3459416,7.44498418 14.4857888,7.6630897 L14.707134,8.03953424 C14.7662463,8.13979399 14.7952142,8.21987201 14.7952142,8.28022254 C14.7952142,8.33800979 14.7589328,8.38301312 14.6843985,8.40556345 L14.6842713,8.40556345 Z" id="路径"></path>
                </g>
            </g>
        </g>
    </g>
</svg>