<?xml version="1.0" encoding="UTF-8"?>
<svg width="34px" height="34px" viewBox="0 0 34 34" version="1.1" xmlns="http://www.w3.org/2000/svg" xmlns:xlink="http://www.w3.org/1999/xlink">
    <title>编组 13备份 9</title>
    <defs>
        <polygon id="path-1" points="0 0 24 0 24 24 0 24"></polygon>
        <linearGradient x1="0%" y1="0%" x2="65.0525088%" y2="99.2256698%" id="linearGradient-3">
            <stop stop-color="#66A7FF" offset="0%"></stop>
            <stop stop-color="#8598FF" offset="100%"></stop>
        </linearGradient>
    </defs>
    <g id="页面-1" stroke="none" stroke-width="1" fill="none" fill-rule="evenodd">
        <g id="gongneng备份" transform="translate(-12.000000, -600.000000)">
            <g id="huodongyouli备份-2" transform="translate(12.000000, 600.000000)">
                <path d="M0,16.9999532 C0,23.0735703 3.24010307,28.6858134 8.50007027,31.7224112 C13.7598032,34.7591963 20.2401968,34.7591963 25.4999766,31.7224112 C30.7597095,28.6858134 34,23.0735703 34,16.9999532 C34,7.61121798 26.3888498,0 16.9999063,0 C7.611197,0 0,7.61121798 0,16.9999532 Z" id="Fill-1" fill="#709DFF" opacity="0.205324445"></path>
                <g id="tuichu" transform="translate(5.000000, 4.000000)">
                    <mask id="mask-2" fill="white">
                        <use xlink:href="#path-1"></use>
                    </mask>
                    <g id="Clip-2"></g>
                </g>
                <path d="M22.3626543,19.6806759 C22.0873854,20.3686333 21.6059736,20.9873572 21.1246962,21.5366327 C20.5971199,22.0720777 19.9654785,22.4935748 19.2687125,22.7753427 C18.5813728,23.049994 17.8253367,23.2560294 17.0000671,23.2560294 C16.1746633,23.2560294 15.4193523,23.1186903 14.7313949,22.7753427 C14.062317,22.443543 13.4385442,22.0271753 12.8753307,21.5366327 C12.3403154,21.0091907 11.9192211,20.3774419 11.6379903,19.6806759 C11.3619694,18.9939807 11.1560415,18.2366556 11.1560415,17.4120037 C11.1560415,16.9319616 11.2253824,16.4500396 11.2939982,16.0373511 C11.4306927,15.557309 11.5686225,15.143976 11.7746579,14.7306698 C11.9813379,14.3193241 12.2559622,13.9753589 12.5313385,13.5620258 C12.8239292,13.1905605 13.1717885,12.8660924 13.5626435,12.6000618 C13.7693234,12.4619976 13.9753589,12.3940264 14.1813943,12.4619976 C14.3880473,12.5319831 14.5939753,12.6000618 14.7313949,12.8059898 C14.8693516,13.0120252 14.938048,13.2192959 14.8693516,13.4247137 C14.8000107,13.6313667 14.7313949,13.836677 14.5246344,13.9747143 C13.9747143,14.3872954 13.4940546,14.8687071 13.2186782,15.4867059 C12.944027,16.106692 12.7366488,16.7246908 12.7366488,17.4120037 C12.7366488,17.9620312 12.8746861,18.5120319 13.0807215,19.0620594 C13.2873746,19.6120601 13.6306416,20.0253931 13.9747143,20.3686333 C14.3469316,20.7498471 14.7909873,21.053556 15.281315,21.2620084 C15.8013181,21.4886957 16.3634038,21.605356 16.9307262,21.6059736 C17.4807269,21.6059736 18.030647,21.4686615 18.5813728,21.2620084 C19.1314003,21.055973 19.5439814,20.7119808 19.887329,20.3686333 C20.2685697,19.9964429 20.5722517,19.5523871 20.7807041,19.0620594 C21.0073914,18.5413044 21.1240517,17.9799707 21.1253139,17.4120037 C21.1253139,16.7253085 20.9880017,16.1060475 20.7133505,15.5560468 C20.4379742,15.0060461 20.0253931,14.4560186 19.4746405,14.1120265 C19.269357,13.9753589 19.2000161,13.7693234 19.1314003,13.5620258 C19.0620594,13.3559904 19.1314003,13.149955 19.269357,12.944027 C19.4060247,12.7373739 19.6127046,12.6692953 19.8193577,12.6000618 C20.0253931,12.5313385 20.2306766,12.6000618 20.4373565,12.7366488 C20.7916074,13.0226062 21.1143031,13.3455973 21.4000457,13.6999825 C21.6746969,14.0440552 21.9500732,14.4560186 22.1560012,14.8000107 C22.3626543,15.2119741 22.4999664,15.6253877 22.6380306,16.0373511 C22.7753427,16.4500396 22.7753427,16.9307262 22.7753427,17.4120037 C22.844066,18.2373001 22.7060018,18.9939807 22.3626543,19.6820455 L22.3626543,19.6806759 Z M16.1746633,11.7066867 C16.1746633,11.5006512 16.2440042,11.2946158 16.4500396,11.0873451 C16.6106624,10.9160338 16.8339927,10.817313 17.0686561,10.8126939 C17.275336,10.8126939 17.4807269,10.8826524 17.6186836,11.0873451 C17.79072,11.2486661 17.8900585,11.4720233 17.8940599,11.7073312 L17.8940599,16.6573372 C17.8940599,16.8626207 17.824719,17.0700257 17.6186836,17.2079824 C17.4807269,17.3446769 17.275336,17.4813446 17.0686561,17.4813446 C16.862003,17.4813446 16.6559676,17.4126482 16.4500396,17.2067202 C16.3127274,17.069408 16.1746633,16.8626207 16.1746633,16.6566927 L16.1746633,11.7059616 L16.1746633,11.7066867 Z M17.0000671,6 C10.950006,6 6,10.950006 6,17.0000671 C6,23.049994 10.950006,28 17.0000671,28 C23.049994,28 28,23.049994 28,17.0000671 C28,10.950006 23.049994,6 17.0000671,6 Z" id="Fill-1" fill="url(#linearGradient-3)"></path>
            </g>
        </g>
    </g>
</svg>