<?xml version="1.0" encoding="UTF-8"?>
<svg width="81px" height="81px" viewBox="0 0 81 81" version="1.1" xmlns="http://www.w3.org/2000/svg" xmlns:xlink="http://www.w3.org/1999/xlink">
    <title>编组 4备份 2</title>
    <defs>
        <linearGradient x1="84.345128%" y1="12.1535961%" x2="11.4843809%" y2="84.2635228%" id="linearGradient-1">
            <stop stop-color="#3E464D" offset="0%"></stop>
            <stop stop-color="#384459" offset="100%"></stop>
        </linearGradient>
        <circle id="path-2" cx="40.5" cy="40.5" r="40.5"></circle>
        <filter x="-1.9%" y="-1.9%" width="103.7%" height="103.7%" filterUnits="objectBoundingBox" id="filter-3">
            <feGaussianBlur stdDeviation="1" in="SourceAlpha" result="shadowBlurInner1"></feGaussianBlur>
            <feOffset dx="0" dy="1" in="shadowBlurInner1" result="shadowOffsetInner1"></feOffset>
            <feComposite in="shadowOffsetInner1" in2="SourceAlpha" operator="arithmetic" k2="-1" k3="1" result="shadowInnerInner1"></feComposite>
            <feColorMatrix values="0 0 0 0 0.576101994   0 0 0 0 0.576101994   0 0 0 0 0.576101994  0 0 0 0.5 0" type="matrix" in="shadowInnerInner1"></feColorMatrix>
        </filter>
    </defs>
    <g id="页面-1" stroke="none" stroke-width="1" fill="none" fill-rule="evenodd">
        <g id="画板备份-17" transform="translate(-101.000000, -240.000000)">
            <g id="编组-4备份-2" transform="translate(101.000000, 240.000000)">
                <g id="椭圆形备份">
                    <use fill="url(#linearGradient-1)" fill-rule="evenodd" xlink:href="#path-2"></use>
                    <use fill="black" fill-opacity="1" filter="url(#filter-3)" xlink:href="#path-2"></use>
                </g>
                <path d="M40.5000336,14.7272727 C44.0537545,14.7272727 47.3966222,15.4042099 50.5289727,16.7583528 C53.6612559,18.1124957 56.3905856,19.9512778 58.7168274,22.2751019 C61.0430691,24.5991275 62.8841535,27.3254748 64.2394754,30.4542109 C65.5950663,33.5832156 66.2727273,36.9227812 66.2727273,40.4724377 C66.2727273,44.0588215 65.5950663,47.4165158 64.2394754,50.5455205 C62.8841535,53.6744581 61.0430691,56.4008725 58.7168274,58.7246295 C56.3905856,61.0483865 53.6612559,62.8875043 50.5289727,64.2416472 C47.3966222,65.5955215 44.0537545,66.2727273 40.5000336,66.2727273 C36.9465143,66.2727273 33.6033778,65.5955215 30.4710273,64.2416472 C27.3390129,62.8875043 24.6096832,61.0483865 22.2831726,58.7246295 C19.9569309,56.4008725 18.1161154,53.6744581 16.7605246,50.5455205 C15.4049337,47.4165158 14.7272727,44.0588215 14.7272727,40.4724377 C14.7272727,36.9227812 15.4049337,33.5832156 16.7605246,30.4542109 C18.1161154,27.3254748 19.9569309,24.5991275 22.2831726,22.2751019 C24.6096832,19.9512778 27.3390129,18.1124957 30.4710273,16.7583528 C33.6033778,15.4042099 36.9465143,14.7272727 40.5000336,14.7272727 Z M46.8905848,46.748986 C46.9958384,46.607841 46.9431818,46.4311992 46.7328652,46.2193846 C46.5226153,46.0076347 46.2772595,45.7692622 45.9969906,45.5043319 C45.7166574,45.2396608 45.4713016,44.9659211 45.2610517,44.6835663 C45.0508661,44.4011468 44.9807828,44.1362165 45.0508661,43.8892937 C45.2258814,43.3242603 45.2874133,42.9095699 45.23469,42.6446397 C45.182224,42.3799685 45.0156958,42.2033267 44.7353626,42.1150382 C44.4550937,42.0267497 44.0520183,41.9915768 43.5263293,42.0092604 C43.0006402,42.0267497 42.3699548,42.0356239 41.633823,42.0356239 C41.2485577,42.0356239 40.9331186,42.0533075 40.6876985,42.0887395 C40.4423426,42.1239124 40.2145397,42.1504702 40.0042898,42.1681538 C39.7941042,42.1856431 39.5663014,42.2033267 39.3208812,42.2210751 C39.0757826,42.2387587 38.7952565,42.2299493 38.4800102,42.1945173 C37.9892985,42.1593444 37.6125204,42.0709911 37.3498045,41.9298461 C37.0868314,41.7886364 36.8417327,41.6472323 36.6139299,41.5060225 C36.386127,41.3648127 36.0970495,41.2413513 35.7464401,41.1353144 C35.3960236,41.0295367 34.8879518,40.9589965 34.2221605,40.9235646 C33.2757787,40.8883917 32.6011788,40.8440855 32.1982962,40.791229 C31.7952208,40.7383077 31.506079,40.6851921 31.3308064,40.6323356 C31.1557268,40.5794143 31.0153673,40.5439823 30.910371,40.5262987 C30.8051174,40.5088094 30.5949318,40.5 30.2794284,40.5 C29.9642464,40.5351729 29.4822791,40.6940663 28.8340407,40.9764211 C28.1855451,41.2590349 27.5284981,41.5854368 26.8627068,41.9561448 C26.1968512,42.3268529 25.6186961,42.7063704 25.1279201,43.094762 C24.6374013,43.4831537 24.3920455,43.8010052 24.3920455,44.0481871 C24.3920455,44.7541064 24.4360243,45.3191399 24.5234034,45.7427044 C24.6110397,46.166269 24.7338462,46.4929299 24.8913729,46.7224282 C25.0490925,46.9519265 25.2156207,47.1373776 25.3908932,47.2785874 C25.5659729,47.4197972 25.7412454,47.5786906 25.9165823,47.7550085 C26.0916619,47.9316502 26.3282091,48.0551116 26.6260953,48.1257165 C26.9239815,48.1963214 27.2482292,48.2406276 27.5985814,48.2583112 C27.9491908,48.2758005 28.2731814,48.3200419 28.5710676,48.3906468 C28.8689537,48.4612517 29.1055653,48.5847131 29.2808378,48.7613548 C29.63119,49.1849194 29.9991595,49.3614964 30.3846819,49.2908915 C30.7702044,49.2203514 31.1118122,49.1054403 31.4096341,48.9465469 C31.7075203,48.7879126 31.9529404,48.7259228 32.145573,48.7613548 C32.3384628,48.7965277 32.4522035,49.1319981 32.4873738,49.7676364 C32.4873738,50.0499912 32.5399041,50.2618059 32.6450933,50.4029509 C32.7500897,50.5441606 32.8902563,50.6501975 33.0655288,50.7208024 L33.6964714,51.0385892 C33.9415701,51.179799 34.2045432,51.3738652 34.4848764,51.6210471 C34.7651453,51.9034019 34.8615902,52.1683322 34.7739539,52.4153197 C34.6862534,52.6625016 34.5548954,52.9008741 34.3796229,53.1303723 C34.2045432,53.3598706 34.038015,53.6070525 33.8802954,53.8717237 C33.7225759,54.1366539 33.7313845,54.3924509 33.906657,54.6396976 C34.1520772,55.0280892 34.4147931,55.310444 34.695062,55.4870858 C34.9755881,55.6634037 35.2471126,55.8134876 35.5098286,55.9372081 C35.7728017,56.0606695 36.0094132,56.2018793 36.2195988,56.3607727 C36.4298487,56.519666 36.569951,56.775463 36.6400343,57.1286818 C36.6400343,57.2344596 36.7628408,57.4376591 37.0080038,57.7377623 C37.2533596,58.0378655 37.4899711,58.346778 37.717774,58.6643057 C37.9455769,58.9821573 38.1294008,59.2470875 38.2695674,59.4588374 C38.4099912,59.6706521 38.374821,59.7589406 38.1645711,59.7235086 C38.5850066,59.7941135 39.0318037,59.8295455 39.5050267,59.8295455 C39.9781854,59.8295455 40.284623,59.7411922 40.4249825,59.5646152 L40.5299789,59.4588374 L40.5299789,59.4059809 L40.6876985,59.3528005 C40.7577818,59.3176276 40.8542267,59.2733862 40.976776,59.2204649 C41.0996468,59.1676084 41.2658535,59.0527621 41.4763606,58.8763795 C41.8967961,58.5937656 42.2999358,58.2230575 42.6852011,57.764061 C43.0707235,57.3050645 43.4037156,56.8020208 43.6840488,56.2547358 C43.9643177,55.7077098 44.2009292,55.1515506 44.3935619,54.5867763 C44.5864517,54.0218076 44.7178096,53.4922062 44.7878929,52.9980368 C44.8579762,52.5390402 44.9719741,52.2035051 45.1296937,51.9917552 C45.2874133,51.7799405 45.4275799,51.5944893 45.5501292,51.4355959 C45.6727428,51.2769616 45.7779321,51.0648879 45.8656326,50.8002167 C45.9532689,50.5352865 45.9444603,50.0851641 45.8392067,49.4498497 C45.7342747,48.6378287 45.8304624,48.0463022 46.1282843,47.6755942 C46.4261704,47.3048861 46.6803349,46.9959735 46.8905848,46.748986 Z M52.8842537,55.2910055 C53.2072884,54.8720357 53.3744133,54.5270842 53.3860092,54.2559701 C53.3975628,53.9848561 53.126625,53.7753712 52.5729841,53.6275606 C51.9961937,53.4797049 51.5868668,53.3995372 51.3447071,53.3871481 C51.1025051,53.374985 50.8774854,53.5042571 50.6698594,53.7753712 C50.4624028,54.0464852 50.3124602,54.3237939 50.2202008,54.6071162 C50.1278145,54.8905742 50.150964,55.2786164 50.2893107,55.7716045 C50.3585899,55.9934334 50.4162731,56.1719906 50.4624028,56.3076381 C50.5085325,56.4431047 50.5662158,56.5294669 50.6353257,56.5664083 C50.7046048,56.6033044 50.8084178,56.6156935 50.9467645,56.6033044 C51.0851536,56.5909605 51.2812259,56.5478698 51.5349815,56.4740323 C51.8117173,56.400014 52.0770265,56.2274705 52.3307821,55.956492 C52.5845377,55.6853779 52.7690564,55.4635491 52.8842537,55.2910055 Z M54.319619,40.0933478 C54.5729909,39.8245339 54.9983317,39.6227827 55.5953759,39.4885166 C56.1924864,39.3542506 56.7986269,39.1814518 57.4137975,38.9701202 C58.0290345,38.7590703 58.5718984,38.4615858 59.0423894,38.0774554 C59.5128139,37.6936067 59.7662523,37.1559086 59.802306,36.4649246 C59.8386253,35.7737293 59.8386253,35.140298 59.802306,34.5643489 C59.7662523,33.9883997 59.65756,33.4124506 59.4768266,32.8365719 C59.2957613,32.2606228 59.0514194,31.6560735 58.7438009,31.0223604 C58.4362488,30.3888586 58.0471609,29.6690631 57.57667,28.8627625 C57.0701253,28.0179995 56.6087308,27.3077844 56.1924864,26.7318353 C55.7764412,26.1559566 55.3692268,25.6663716 54.9711089,25.2632918 C54.5729909,24.8601415 54.1569457,24.4952422 53.7225085,24.1689462 C53.2883368,23.8425797 52.7997194,23.5065624 52.2568555,23.1609648 C51.6779378,22.8156489 51.1079173,22.4410988 50.5468605,22.0380189 C49.9861357,21.6348686 49.3797296,21.3659844 48.7285053,21.2317183 C48.076949,21.0974523 47.3712126,21.183887 46.611296,21.4909518 C45.8513794,21.7980167 44.9827705,22.4699808 44.0057349,23.5065624 L43.0828794,24.5434258 C42.6847615,24.9272745 42.2687827,25.291892 41.8343454,25.6374896 C41.4001738,25.9830873 40.983863,26.2805718 40.585745,26.5301544 C40.1878927,26.7797371 39.8258285,26.9046341 39.5000171,26.9046341 C39.2105915,26.9046341 38.758227,26.9428851 38.1430564,27.0196689 C37.5278194,27.0964527 36.9035524,27.2885532 36.270189,27.5956181 C35.6370912,27.9029647 35.0942272,28.3347152 34.6415971,28.8914331 C34.189299,29.4483624 33.9994693,30.1874596 34.0717759,31.1087246 C34.1078296,32.145588 34.2797985,32.8172703 34.587417,33.1246169 C34.8950355,33.4317522 35.2931534,33.6045511 35.7817708,33.6428021 C36.270189,33.6813349 36.8493059,33.7195859 37.518723,33.7581187 C38.1882065,33.7965811 38.902973,34.0458819 39.6628896,34.5067962 C40.5678178,34.7371477 41.4183002,34.9674992 42.2142705,35.1977802 C42.9018805,35.3898806 43.5985205,35.6298125 44.3042569,35.9179279 C45.0099934,36.2057616 45.5979411,36.5031756 46.068432,36.8105927 C46.611296,37.1559086 46.8286142,37.6071721 46.7199883,38.16389 C46.611296,38.7205375 46.4214662,39.2868358 46.1499015,39.862785 C45.8786023,40.4386636 45.6523868,40.9956634 45.4713879,41.5330797 C45.2903226,42.070496 45.3990149,42.4928775 45.7971328,42.8002241 C46.3399968,43.2223238 46.7381148,43.4912081 46.9912875,43.6064543 C47.2446594,43.7215909 47.5162242,43.7503711 47.8056498,43.6928889 C48.0951419,43.6350545 48.4932598,43.5486903 48.9998045,43.4336554 C49.5065483,43.3183388 50.2846578,43.2608566 51.3340664,43.2608566 C51.0445744,43.2608566 50.9903942,43.14554 51.1711939,42.915259 C51.3521928,42.6849075 51.6325885,42.396792 52.0125799,42.0514762 C52.392505,41.7058785 52.7997194,41.35063 53.2341567,40.9860125 C53.6683283,40.6211133 54.030127,40.3236992 54.319619,40.0933478 Z" id="wangluo" fill="#748091"></path>
            </g>
        </g>
    </g>
</svg>