<?xml version="1.0" encoding="UTF-8"?>
<svg width="50px" height="50px" viewBox="0 0 50 50" version="1.1" xmlns="http://www.w3.org/2000/svg" xmlns:xlink="http://www.w3.org/1999/xlink">
    <title>编组 3</title>
    <defs>
        <filter x="-16.3%" y="-16.3%" width="132.5%" height="132.5%" filterUnits="objectBoundingBox" id="filter-1">
            <feOffset dx="0" dy="0" in="SourceAlpha" result="shadowOffsetOuter1"></feOffset>
            <feGaussianBlur stdDeviation="1.5" in="shadowOffsetOuter1" result="shadowBlurOuter1"></feGaussianBlur>
            <feColorMatrix values="0 0 0 0 0.485543514   0 0 0 0 0.485543514   0 0 0 0 0.485543514  0 0 0 0.5 0" type="matrix" in="shadowBlurOuter1" result="shadowMatrixOuter1"></feColorMatrix>
            <feMerge>
                <feMergeNode in="shadowMatrixOuter1"></feMergeNode>
                <feMergeNode in="SourceGraphic"></feMergeNode>
            </feMerge>
        </filter>
        <linearGradient x1="75.6289109%" y1="10.5518482%" x2="64.9601521%" y2="100%" id="linearGradient-2">
            <stop stop-color="#FFCD0F" offset="0%"></stop>
            <stop stop-color="#E4B208" offset="99.1343251%"></stop>
        </linearGradient>
    </defs>
    <g id="页面-1" stroke="none" stroke-width="1" fill="none" fill-rule="evenodd">
        <g id="gongneng" transform="translate(-22.000000, -371.000000)">
            <g id="编组-3" transform="translate(27.000000, 376.000000)">
                <g id="huodongyouli" filter="url(#filter-1)" fill="url(#linearGradient-2)">
                    <path d="M0,19.9999449 C0,27.1453768 3.81188596,33.7480158 10.0000827,37.3204837 C16.1880038,40.8931721 23.8119962,40.8931721 29.9999724,37.3204837 C36.1878936,33.7480158 40,27.1453768 40,19.9999449 C40,8.95437409 31.0457057,0 19.9998898,0 C8.95434941,0 0,8.95437409 0,19.9999449 Z" id="Fill-1"></path>
                </g>
                <path d="M22.3434108,10.8352497 L17.4347826,10.8695652 L16.4346088,13.8303147 L17,13 L17,15.5 L17,21.5 L13.5,25 L13,39.5 C13.0264828,39.5066167 12.9720251,38.9935452 13,39 C14.6428194,39.3790543 18.8967145,40.0000003 20.5,40.0000003 C21.9258685,40.0000003 23.159483,39.7855329 24.5,39.5 C33.4556311,37.5924322 40.0434783,29.276854 40.0434783,19.764349 C40.0434783,19.2033371 40.0187244,18.6467997 39.9717849,18.0970287 L22,11 L22.3434108,10.8352497 Z" id="Fill-3" fill="#E4B308"></path>
                <g id="xiaoxi-(2)" transform="translate(8.000000, 8.000000)" fill="#FFFFFF">
                    <path d="M7,1.63988588 L5.19564219,0 C2.18245027,2.08787996 0.189065605,5.33123173 0,9 L2.52349688,9 C2.71256249,5.96234722 4.42682448,3.30238456 7,1.63988588 Z M22.4809268,9 L25,9 C24.811114,5.33123173 22.8213704,2.08513261 19.8009737,0 L18,1.63988588 C20.5808102,3.30238456 22.2922342,5.96234722 22.4809268,9 Z M19.6433595,9.9986085 C19.6433595,6.38713746 17.1365466,3.36269944 13.762312,2.56473645 L13.762312,1.76380975 C13.762312,0.786541829 12.9729581,0 11.9985182,0 C11.0212591,0 10.2347243,0.789360975 10.2347243,1.76380975 L10.2347243,2.56473645 C6.85767054,3.36566316 4.35364064,6.38713746 4.35364064,9.9986085 L4.35364064,16.4695975 L2,18.8232594 L2,20 L22,20 L22,18.8232594 L19.6463232,16.4695975 L19.6463232,9.9986085 L19.6433595,9.9986085 Z M12.5,24 C12.674982,24 12.837871,23.9901598 13.0005682,23.9606083 C13.8114049,23.8302557 14.4869934,23.3800643 14.8002564,22.779809 C14.9262143,22.5387229 15,22.2803549 15,22 L10,22 C10,23.0995864 11.1240998,24 12.5,24 Z" id="Fill-1"></path>
                </g>
            </g>
        </g>
    </g>
</svg>