<?xml version="1.0" encoding="UTF-8"?>
<svg width="40px" height="40px" viewBox="0 0 40 40" version="1.1" xmlns="http://www.w3.org/2000/svg" xmlns:xlink="http://www.w3.org/1999/xlink">
    <title>编组 3</title>
    <defs>
        <linearGradient x1="82.2319937%" y1="14.2449549%" x2="11.4843809%" y2="84.2635228%" id="linearGradient-1">
            <stop stop-color="#414D59" offset="0%"></stop>
            <stop stop-color="#31333A" offset="96.9108528%"></stop>
        </linearGradient>
        <linearGradient x1="82.2319937%" y1="14.2449549%" x2="11.4843809%" y2="84.2635228%" id="linearGradient-2">
            <stop stop-color="#0BA85A" offset="0%"></stop>
            <stop stop-color="#0BA85A" offset="96.9108528%"></stop>
        </linearGradient>
    </defs>
    <g id="页面-1" stroke="none" stroke-width="1" fill="none" fill-rule="evenodd">
        <g id="微商中心" transform="translate(-16.000000, -404.000000)">
            <g id="编组-3" transform="translate(16.000000, 404.000000)">
                <g id="编组-13备份-5" fill="url(#linearGradient-2)" opacity="0.241091047">
                    <g id="huodongyouli备份-2">
                        <path d="M0,19.9999449 C0,27.1453768 3.81188596,33.7480158 10.0000827,37.3204837 C16.1880038,40.8931721 23.8119962,40.8931721 29.9999724,37.3204837 C36.1878936,33.7480158 40,27.1453768 40,19.9999449 C40,8.95437409 31.0457057,0 19.9998898,0 C8.95434941,0 0,8.95437409 0,19.9999449 Z" id="Fill-1"></path>
                    </g>
                </g>
                <g id="dahuizhuce" transform="translate(9.000000, 8.000000)" fill="#36FF9B">
                    <path d="M5,6.49998498 C4.99984229,8.82220662 6.04806589,10.9680611 7.74992114,12.1291519 C9.45165811,13.2902827 11.5483813,13.2902827 13.2500789,12.1291519 C14.9519341,10.9680611 16.0001577,8.82220662 16,6.49998498 C16.0001577,4.17792359 14.9519341,2.03206915 13.2500789,0.870818094 C11.5483813,-0.290272698 9.45165811,-0.290272698 7.74992114,0.870818094 C6.04806589,2.03206915 4.99984229,4.17792359 5,6.49998498 Z" id="Fill-1"></path>
                    <path d="M17.4715024,18.1546831 C18.8702533,18.1546831 20.0363233,19.1136506 20.3016097,20.3867242 C20.7294211,19.9294398 21,19.2563821 21,18.5051797 C21,17.4001285 20.414763,16.4635466 19.6042624,16.1356219 L19.6056145,16.1356219 L13.515348,13 C11.6762302,14.2783254 9.23835427,14.2371672 7.18525359,13 C6.84316672,13.2474707 1.43769201,16.1187116 1.39438547,16.1356219 L1.3957376,16.1356219 C0.585198403,16.4635466 0,17.4001285 0,18.5051797 C0,19.8830297 0.909514524,21 2.03150536,21 L14.5863059,21 C14.5857264,20.979365 14.5846447,20.9588418 14.5846447,20.9381696 C14.5846447,19.4008641 15.8771574,18.1546831 17.4715024,18.1546831 Z" id="Fill-3"></path>
                    <path d="M20.5499256,24.5498849 C20.0141679,25.0855427 19.2128797,25.1526718 18.7600574,24.6997988 L16.3001772,22.2398512 C15.8473549,21.7870165 15.9144439,20.9857446 16.450087,20.4500868 C16.9858447,19.9144672 17.7870947,19.8473381 18.2399552,20.3001729 L20.6998354,22.7601205 C21.1526577,23.2129934 21.0855305,24.0142653 20.5499256,24.5498849 Z" id="Fill-4"></path>
                    <path d="M19.3409441,24.6590378 C18.8343637,24.1524574 18.8998035,23.2655534 19.4872447,22.6781123 L22.678156,19.4873093 C23.2655971,18.8999042 24.1525372,18.8342839 24.6591176,19.3409004 C25.1656981,19.8474808 25.1001138,20.7344209 24.5126727,21.321826 L21.3219058,24.5127734 C20.7344647,25.1001785 19.8475246,25.1656544 19.3409441,24.6590378 Z" id="Fill-5"></path>
                </g>
            </g>
        </g>
    </g>
</svg>