<?xml version="1.0" standalone="no"?><!DOCTYPE svg PUBLIC "-//W3C//DTD SVG 1.1//EN" "http://www.w3.org/Graphics/SVG/1.1/DTD/svg11.dtd"><svg t="1650185872693" class="icon" viewBox="0 0 1362 1024" version="1.1" xmlns="http://www.w3.org/2000/svg" p-id="72911" xmlns:xlink="http://www.w3.org/1999/xlink" width="343.16015625" height="258"><defs><style type="text/css">@font-face { font-family: feedback-iconfont; src: url("//at.alicdn.com/t/font_1031158_u69w8yhxdu.woff2?t=1630033759944") format("woff2"), url("//at.alicdn.com/t/font_1031158_u69w8yhxdu.woff?t=1630033759944") format("woff"), url("//at.alicdn.com/t/font_1031158_u69w8yhxdu.ttf?t=1630033759944") format("truetype"); }
</style></defs><path d="M1326.297036 910.856678a58.801898 58.801898 0 0 1 36.143729 54.324068c-0.034712 32.472949-26.216136 58.784542-58.524204 58.819254-23.682169 0-45.038644-14.318644-54.081084-36.299932a59.001492 59.001492 0 0 1 12.66983-64.095458 58.315932 58.315932 0 0 1 63.783051-12.747932z m-1179.22278 16.141017c24.246237 0 43.910508 19.751051 43.910509 44.101424a43.979932 43.979932 0 0 1-12.791322 31.266712 43.624136 43.624136 0 0 1-31.119187 12.843389c-24.237559 0-43.884475-19.751051-43.884474-44.110101 0-24.350373 19.646915-44.110102 43.884474-44.110102z m1156.842305 5.762169a31.223322 31.223322 0 0 0-28.845559 19.386577 31.501017 31.501017 0 0 0 6.794847 34.191186 31.110508 31.110508 0 0 0 34.043662 6.768814 31.388203 31.388203 0 0 0 19.23905-29.027797 31.093153 31.093153 0 0 0-9.04244-22.267661 30.746034 30.746034 0 0 0-22.18956-9.051119z m-1156.842305 21.521356a16.618305 16.618305 0 0 0-16.167051 16.661695c0 9.042441 7.168 16.453424 16.167051 16.679051 4.425763 0.060746 8.677966-1.692203 11.802034-4.816271 3.124068-3.141424 4.842305-7.419661 4.772882-11.845424a17.182373 17.182373 0 0 0-16.574916-16.679051z m862.277424-517.258847c11.585085 0 22.258983 6.300203 27.899661 16.462102l110.687458 199.766779c2.629424 4.755525 4.017898 10.127186 4.017898 15.576949v238.557289a31.995661 31.995661 0 0 1-31.917559 32.073762H325.857714c-17.616271 0-31.917559-14.362034-31.917559-32.065085V668.845559c0-5.467119 1.388475-10.83878 4.035254-15.620339l110.782915-199.749423a31.856814 31.856814 0 0 1 27.882305-16.453424z m-7.914305 35.735864H444.364019L345.105443 663.013966h268.826034c0 60.433356 48.770169 109.446508 109.029966 109.446509 60.242441 0 109.01261-49.013153 109.01261-109.446509h268.721898L1001.437375 472.758237zM57.482934 582.725424c7.931661 0 14.405424 6.352271 14.631051 14.309966v28.342237h28.20339a14.665763 14.665763 0 0 1 14.631051 14.709153 14.665763 14.665763 0 0 1-14.631051 14.700474H72.113985v28.33356a14.683119 14.683119 0 0 1-14.631051 14.318644 14.665763 14.665763 0 0 1-14.631051-14.318644v-28.33356h-28.203389C6.560629 654.787254 0.000087 648.192 0.000087 640.08678a14.665763 14.665763 0 0 1 14.648407-14.709153h28.203389V597.044068a14.665763 14.665763 0 0 1 14.631051-14.309966z m908.730577-334.223187l26.433084 26.571932-95.067118 95.527051-26.441763-26.563254 95.075797-95.535729z m-480.533695-0.060745l95.084474 95.52705-26.441763 26.571933L459.255409 275.004746l26.424407-26.563254z m264.730033-40.508746v135.115932h-37.402033V207.924068h37.402033zM1096.34829 53.543051c8.070508 0 14.613695 6.595254 14.613695 14.700474v28.33356h28.229424c7.922983 0.225627 14.231864 6.734102 14.231864 14.709152 0 7.966373-6.308881 14.474847-14.231864 14.700475h-28.229424v28.333559a14.665763 14.665763 0 0 1-14.613695 14.700475 14.665763 14.665763 0 0 1-14.622373-14.700475v-28.333559H1053.505172a14.665763 14.665763 0 0 1-14.622373-14.700475c0-8.131254 6.543186-14.709153 14.622373-14.709152h28.229423V68.243525a14.665763 14.665763 0 0 1 14.622373-14.700474z m-638.785085-33.974237a44.110102 44.110102 0 0 1-5.467118 55.478237 43.676203 43.676203 0 0 1-31.067119 12.869424 43.823729 43.823729 0 0 1-42.791051-35.492882A43.997288 43.997288 0 0 1 404.480087 3.323661a43.650169 43.650169 0 0 1 53.07444 16.245153z m-36.534237 7.419661a17.182373 17.182373 0 0 0-16.600949 16.661694 17.182373 17.182373 0 0 0 16.592271 16.722441 16.592271 16.592271 0 0 0 16.574915-16.679051 17.208407 17.208407 0 0 0-16.574915-16.687728V26.988475z" fill="#D7E3F7" p-id="72912"></path></svg>