<?xml version="1.0" standalone="no"?><!DOCTYPE svg PUBLIC "-//W3C//DTD SVG 1.1//EN" "http://www.w3.org/Graphics/SVG/1.1/DTD/svg11.dtd"><svg t="1649950694429" class="icon" viewBox="0 0 1024 1024" version="1.1" xmlns="http://www.w3.org/2000/svg" p-id="6198" xmlns:xlink="http://www.w3.org/1999/xlink" width="258" height="258"><defs><style type="text/css">@font-face { font-family: feedback-iconfont; src: url("//at.alicdn.com/t/font_1031158_u69w8yhxdu.woff2?t=1630033759944") format("woff2"), url("//at.alicdn.com/t/font_1031158_u69w8yhxdu.woff?t=1630033759944") format("woff"), url("//at.alicdn.com/t/font_1031158_u69w8yhxdu.ttf?t=1630033759944") format("truetype"); }
</style></defs><path d="M512 573.44m-450.56 0a450.56 450.56 0 1 0 901.12 0 450.56 450.56 0 1 0-901.12 0Z" fill="#F7893B" fill-opacity=".1" p-id="6199"></path><path d="M257.024 697.344l23.552 131.072c36.864-23.552 83.968-46.08 154.624-58.368 14.336-2.048 27.648-3.072 41.984-3.072l-23.552-131.072c-14.336 0-28.672 0-41.984 3.072-70.656 12.288-117.76 34.816-154.624 58.368z m66.56-345.088c-26.624 5.12-59.392 10.24-92.16 33.792-3.072 15.36-11.264 29.696-21.504 39.936l22.528 129.024c36.864-23.552 83.968-46.08 154.624-58.368 14.336-2.048 27.648-3.072 41.984-3.072L403.456 348.16c-24.576-1.024-51.2-1.024-79.872 4.096z m351.232 423.936c67.584-12.288 117.76-44.032 161.792-87.04 5.12-5.12 9.216-11.264 11.264-18.432 2.048-7.168 3.072-14.336 1.024-21.504l-18.432-104.448c-44.032 43.008-111.616 88.064-179.2 100.352-4.096 1.024-7.168 1.024-10.24 2.048L664.576 778.24c3.072 0 7.168-1.024 10.24-2.048z m131.072-372.736l-15.36-88.064c-5.12-31.744-43.008-47.104-70.656-28.672-37.888 25.6-82.944 53.248-130.048 66.56l26.624 152.576c3.072 0 7.168-1.024 10.24-2.048 67.584-12.288 135.168-57.344 179.2-100.352z m-376.832 90.112l24.576 142.336c57.344 2.048 115.712 21.504 187.392 11.264l-24.576-142.336c-71.68 10.24-130.048-9.216-187.392-11.264z" fill="#FBC49D" p-id="6200"></path><path d="M387.072 496.64c-70.656 12.288-117.76 34.816-154.624 58.368l-22.528-129.024c12.288-12.288 20.48-26.624 22.528-44.032 3.072-16.384 0-33.792-8.192-48.128-8.192-14.336-20.48-26.624-34.816-33.792-15.36-7.168-32.768-10.24-49.152-7.168-16.384 3.072-31.744 11.264-44.032 23.552-11.264 12.288-19.456 27.648-21.504 44.032-2.048 16.384 1.024 33.792 9.216 48.128 8.192 14.336 20.48 26.624 35.84 32.768l94.208 534.528c1.024 8.192 6.144 15.36 13.312 19.456 7.168 5.12 15.36 6.144 23.552 5.12l27.648-5.12c8.192-1.024 15.36-6.144 20.48-12.288 5.12-7.168 7.168-15.36 5.12-23.552l-46.08-264.192c36.864-23.552 83.968-46.08 154.624-58.368 14.336-2.048 27.648-3.072 41.984-3.072L430.08 491.52c-14.336 2.048-28.672 3.072-43.008 5.12z m90.112 270.336c57.344 1.024 115.712 21.504 187.392 11.264l-23.552-131.072c-71.68 10.24-129.024-10.24-187.392-11.264l23.552 131.072z m112.64-413.696c-8.192 2.048-17.408 4.096-25.6 6.144-52.224 9.216-102.4-6.144-159.744-10.24L430.08 494.592c57.344 2.048 115.712 21.504 187.392 11.264l-27.648-152.576z m236.544 165.888l-20.48-115.712c-44.032 43.008-111.616 88.064-179.2 100.352-4.096 1.024-7.168 1.024-10.24 2.048l24.576 142.336c3.072 0 7.168-1.024 10.24-2.048 67.584-12.288 135.168-57.344 179.2-100.352l-4.096-23.552c1.024-1.024 0-2.048 0-3.072z" fill="#F7893B" p-id="6201"></path><path d="M809.984 138.24c6.144 5.12 14.336 4.096 18.432-1.024l54.272-68.608c4.096-5.12 3.072-13.312-3.072-18.432s-14.336-4.096-18.432 1.024l-54.272 68.608c-5.12 5.12-3.072 13.312 3.072 18.432zM863.232 201.728c4.096 7.168 12.288 9.216 18.432 5.12l74.752-46.08c6.144-4.096 7.168-12.288 3.072-18.432-4.096-6.144-12.288-9.216-18.432-5.12l-74.752 46.08c-5.12 3.072-7.168 11.264-3.072 18.432zM735.232 111.616c-8.192-1.024-13.312-8.192-12.288-14.336L737.28 11.264c1.024-7.168 8.192-11.264 16.384-10.24 8.192 1.024 13.312 8.192 12.288 14.336L751.616 102.4c-2.048 6.144-9.216 11.264-16.384 9.216z" fill="#66839A" p-id="6202"></path></svg>