<?xml version="1.0" encoding="UTF-8"?>
<svg width="18px" height="23px" viewBox="0 0 18 23" version="1.1" xmlns="http://www.w3.org/2000/svg" xmlns:xlink="http://www.w3.org/1999/xlink">
    <title>suo</title>
    <g id="页面-1" stroke="none" stroke-width="1" fill="none" fill-rule="evenodd">
        <g id="gongneng备份-7" transform="translate(-35.000000, -284.000000)" fill="#828CA3">
            <path d="M50.8554379,292.873239 L37.1441652,292.873239 C35.9599264,292.873239 35,293.818608 35,294.985198 L35,303.94438 C35,305.110969 35.9599264,306.056338 37.1441652,306.056338 L50.8554379,306.056338 C52.039776,306.056338 53,305.110969 53,303.94438 L53,294.985198 C53,293.818608 52.0396768,292.873239 50.8554379,292.873239 Z M44.7603278,299.506001 L44.7603278,301.866037 C44.7603278,302.359738 44.3633908,302.760563 43.8730282,302.760563 C43.3830556,302.760563 42.9857611,302.359738 42.9857611,301.866037 L42.9857611,299.506001 C42.4560461,299.196546 42.0985915,298.619927 42.0985915,297.957935 C42.0985915,296.969878 42.8929529,296.169014 43.8730282,296.169014 C44.853136,296.169014 45.6478873,296.969878 45.6478873,297.957935 C45.6478873,298.619927 45.2906603,299.196546 44.7603278,299.506001 Z M43.8730902,284 C40.3729062,284 37.5352113,286.797389 37.5352113,290.472702 L37.5352113,293.283817 C37.5352113,292.925592 37.5352113,292.746479 37.5352113,292.746479 C37.5352113,292.746479 41.7605634,292.746479 50.2112676,292.746479 L50.2112676,290.472702 C50.2112676,286.797389 47.3735727,284 43.8730902,284 Z M39.5633803,292.555712 L39.5633803,289.822797 C39.5633803,287.30743 41.5497508,285.267606 44,285.267606 C46.4505417,285.267606 48.4366197,287.30743 48.4366197,289.822797 L48.4366197,292.619718 L39.5633803,292.555712 Z" id="suo"></path>
        </g>
    </g>
</svg>