<?xml version="1.0" encoding="UTF-8"?>
<svg width="23px" height="20px" viewBox="0 0 23 20" version="1.1" xmlns="http://www.w3.org/2000/svg" xmlns:xlink="http://www.w3.org/1999/xlink">
    <title>qianbao (1)</title>
    <defs>
        <polygon id="path-1" points="0.00200873362 0.00130413544 22.9688646 0.00130413544 22.9688646 19.8094903 0.00200873362 19.8094903"></polygon>
    </defs>
    <g id="页面-1" stroke="none" stroke-width="1" fill="none" fill-rule="evenodd">
        <g id="切图页面" transform="translate(-866.000000, -729.000000)">
            <g id="qianbao-(1)" transform="translate(866.000000, 729.000000)">
                <path d="M21,7.74725235 C20.9997354,7.33472188 20.6640306,7.00026353 20.2496265,7 L3.7502743,7 C3.33596939,7.00026353 3,7.33472188 3,7.74725235 L3,17.2530441 C3,17.6653111 3.33623404,18 3.75000965,18 L20.2496265,18 C20.6636336,18 21,17.6653111 21,17.2531429 L21,7.74725235 Z" id="Fill-1" fill="#4E9BF3"></path>
                <g id="编组">
                    <mask id="mask-2" fill="white">
                        <use xlink:href="#path-1"></use>
                    </mask>
                    <g id="Clip-3"></g>
                    <path d="M19.6423013,3.71646075 L17.5413668,3.71646075 L6.46678311,0.123876448 C5.8342329,-0.0838223938 5.14436681,-0.0257992278 4.55547307,0.284527671 C3.96450364,0.590906049 3.52351965,1.12409009 3.33335953,1.76167568 L2.72618632,3.77254311 C1.17778748,4.05462806 0,5.41151351 0,7.04031145 L0,16.4859073 C0,18.3180541 1.49125036,19.8094903 3.32552547,19.8094903 L19.6433392,19.8094903 C21.4765764,19.8094903 22.9688646,18.3192587 22.9688646,16.4859073 L22.9688646,7.04031145 C22.967559,5.20826512 21.4764425,3.71646075 19.6423013,3.71646075 Z M4.83351528,2.21327928 C4.90295051,1.97931274 5.06472052,1.78376062 5.28156332,1.6714955 C5.49760262,1.55752381 5.75066958,1.53634234 5.98264483,1.61280309 L12.4664352,3.71646075 L4.37907278,3.71646075 L4.83351528,2.21327928 Z M19.6423013,18.2437014 L3.3242198,18.2437014 C2.35410189,18.2437014 1.56540611,17.4552355 1.56540611,16.4859073 L1.56540611,7.04031145 C1.56540611,6.07071557 2.35410189,5.28238353 3.3242198,5.28238353 L19.6423013,5.28238353 C20.6124192,5.28238353 21.4009811,6.07071557 21.4009811,7.04031145 L21.4009811,8.13137452 L16.4251805,8.13137452 C14.4351616,8.13137452 12.8161223,9.74943115 12.8161223,11.7382136 C12.8161223,13.7272304 14.4354294,15.3451866 16.4251805,15.3451866 L21.4009811,15.3451866 L21.4009811,16.4859073 C21.4009811,17.4555032 20.6121514,18.2437014 19.6423013,18.2437014 Z" id="Fill-4" fill="#000000" mask="url(#mask-2)"></path>
                </g>
                <path d="M16.4251805,13.77913 C15.2995866,13.77913 14.3831019,12.8632407 14.3831019,11.7382136 C14.3831019,10.6133205 15.2994527,9.6972973 16.4251805,9.6972973 L21.4009811,9.6972973 L21.4009811,13.7792638 L16.4251805,13.77913 Z" id="路径" fill="#4E9BF3"></path>
                <path d="M15.3949344,11.7382136 C15.3948006,12.0133385 15.5416725,12.267583 15.7799418,12.4050785 C16.018345,12.5426075 16.3119214,12.5426075 16.5503581,12.4050785 C16.7886274,12.267583 16.9354658,12.0133385 16.9353654,11.7382136 C16.9353654,11.3131454 16.5904993,10.9685869 16.165083,10.9685869 C15.7398006,10.9685869 15.3949344,11.3131454 15.3949344,11.7382136 Z" id="Fill-2" fill="#000000"></path>
            </g>
        </g>
    </g>
</svg>