<?xml version="1.0" encoding="UTF-8"?>
<svg width="40px" height="40px" viewBox="0 0 40 40" version="1.1" xmlns="http://www.w3.org/2000/svg" xmlns:xlink="http://www.w3.org/1999/xlink">
    <title>编组 13备份</title>
    <defs>
        <linearGradient x1="12.0858206%" y1="50%" x2="100%" y2="50%" id="linearGradient-1">
            <stop stop-color="#FFA56A" offset="0%"></stop>
            <stop stop-color="#FC7032" offset="100%"></stop>
        </linearGradient>
        <linearGradient x1="12.0858206%" y1="50%" x2="100%" y2="50%" id="linearGradient-2">
            <stop stop-color="#FFB98A" offset="0%"></stop>
            <stop stop-color="#FF7F47" offset="100%"></stop>
        </linearGradient>
    </defs>
    <g id="页面-1" stroke="none" stroke-width="1" fill="none" fill-rule="evenodd">
        <g id="微商中心" transform="translate(-16.000000, -474.000000)">
            <g id="huodongyouli备份-2" transform="translate(16.000000, 474.000000)">
                <path d="M0,19.9999449 C0,27.1453768 3.81188596,33.7480158 10.0000827,37.3204837 C16.1880038,40.8931721 23.8119962,40.8931721 29.9999724,37.3204837 C36.1878936,33.7480158 40,27.1453768 40,19.9999449 C40,8.95437409 31.0457057,0 19.9998898,0 C8.95434941,0 0,8.95437409 0,19.9999449 Z" id="Fill-1" fill="url(#linearGradient-1)" opacity="0.305133638"></path>
                <path d="M32,28.7283764 C32,29.0446534 31.9451771,29.339965 31.8353768,29.6145857 C31.7255765,29.8891759 31.5693947,30.1304593 31.3668315,30.3385274 C31.1641755,30.546626 30.9276611,30.7088631 30.6574737,30.8252691 C30.3874101,30.941797 30.0918366,31 29.7709079,31 L11.3810377,31 C11.0602327,31 10.7562178,30.941797 10.4691167,30.8252691 C10.1821083,30.7088631 9.92883474,30.546626 9.709265,30.3385274 C9.48966433,30.1304593 9.3165688,29.8891759 9.1900093,29.6145857 C9.06329521,29.339965 9,29.0446534 9,28.7283764 L9,16.271654 C9,15.6393439 9.22368223,15.1026269 9.67120129,14.6615944 C10.1187204,14.2205924 10.6633312,14 11.3050649,14 L29.6949351,14 C30.3366688,14 30.8812796,14.2205924 31.3287987,14.6615944 C31.7763178,15.1026269 32,15.6393439 32,16.271654 L32,19.6667479 L26.2500309,19.6667479 C25.6082973,19.6667479 25.0636864,19.8830437 24.6161674,20.3157266 C24.1686483,20.7484401 23.9449661,21.2809823 23.9449661,21.9134143 C23.9618798,22.3460972 24.0547664,22.7289267 24.2236258,23.0617504 C24.3586576,23.3446901 24.5824635,23.6026422 24.8948271,23.8355761 C25.2072834,24.0685404 25.6590386,24.1850683 26.2500309,24.1850683 L32,24.1850683 L32,28.7283764 Z M29,13 L17,13 C17.9515646,12.5010078 18.8502143,12.0197378 19.6960136,11.5563203 C20.4361123,11.1641501 21.1674993,10.7719799 21.8899489,10.3798424 C22.6123662,9.98780278 23.1762647,9.68476516 23.5815798,9.47082745 C24.1982964,9.13221514 24.7489339,8.97617606 25.2335569,9.00293867 C25.7180185,9.02970128 26.127754,9.11436252 26.4625052,9.25688975 C26.8502035,9.45297483 27.1850838,9.71139722 27.4670169,10.0322875 L29,13 Z M26,21.9889868 C26,21.7106389 26.0963025,21.4762096 26.2888533,21.2856721 C26.4815126,21.0952419 26.7185525,21 27,21 C27.2814475,21 27.5184874,21.0952419 27.7111467,21.2856721 C27.9036975,21.4762096 28,21.7106389 28,21.9889868 C28,22.2673347 27.9036975,22.5054395 27.7111467,22.7033013 C27.5184874,22.9010557 27.2814475,23 27,23 C26.7185525,23 26.4815126,22.9010557 26.2888533,22.7033013 C26.0963025,22.5054395 26,22.2673347 26,21.9889868 Z" id="licai" fill="url(#linearGradient-2)"></path>
            </g>
        </g>
    </g>
</svg>