<?xml version="1.0" encoding="UTF-8"?>
<svg width="16px" height="17px" viewBox="0 0 16 17" version="1.1" xmlns="http://www.w3.org/2000/svg" xmlns:xlink="http://www.w3.org/1999/xlink">
    <title>jiazai_shuaxin</title>
    <g id="页面-1" stroke="none" stroke-width="1" fill="none" fill-rule="evenodd">
        <g id="gongneng备份-13" transform="translate(-114.000000, -123.000000)" fill="#000000">
            <path d="M124.986715,139.355954 L122.725925,137.148006 C125.674853,136.779933 128.034077,134.479967 128.034077,131.71999 C128.034077,129.051951 125.871489,126.751985 123.020792,126.292002 L120.956522,124.36 L121.84118,124.36 C126.362962,124.36 130,127.671977 130,131.71999 C130,134.479967 128.230597,136.96397 125.773171,138.160016 L125.773171,140 L124.986715,139.355954 Z M123.043478,139.225647 C122.754884,139.225647 122.370091,139.32 121.985298,139.32 C117.559672,139.32 114,135.923855 114,131.773187 C114,128.94308 115.731765,126.396034 118.136918,125.169743 L118.136918,123 L121.311798,126.113084 C118.329399,126.396034 116.02036,128.848727 116.02036,131.773187 C116.02036,134.603211 118.233173,136.96155 121.119345,137.338964 L123.043478,139.225647 Z" id="jiazai_shuaxin" transform="translate(122.000000, 131.500000) scale(-1, 1) translate(-122.000000, -131.500000) "></path>
        </g>
    </g>
</svg>