<?xml version="1.0" encoding="UTF-8"?>
<svg width="34px" height="34px" viewBox="0 0 34 34" version="1.1" xmlns="http://www.w3.org/2000/svg" xmlns:xlink="http://www.w3.org/1999/xlink">
    <title>编组 5</title>
    <g id="页面-1" stroke="none" stroke-width="1" fill="none" fill-rule="evenodd">
        <g id="gongneng备份-2" transform="translate(-12.000000, -364.000000)">
            <g id="编组-5" transform="translate(12.000000, 364.000000)">
                <g id="编组-13备份-5" fill="#0BA85A" opacity="0.241091047">
                    <g id="huodongyouli备份-2">
                        <path d="M0,16.9999532 C0,23.0735703 3.24010307,28.6858134 8.50007027,31.7224112 C13.7598032,34.7591963 20.2401968,34.7591963 25.4999766,31.7224112 C30.7597095,28.6858134 34,23.0735703 34,16.9999532 C34,7.61121798 26.3888498,0 16.9999063,0 C7.611197,0 0,7.61121798 0,16.9999532 Z" id="Fill-1"></path>
                    </g>
                </g>
                <g id="义乌恒风项目" transform="translate(8.000000, 6.000000)" fill="#32E14D" fill-rule="nonzero">
                    <path d="M9.5,0 L19,3.98482219 L19,10.0216962 C19,11.4056382 18.7595944,12.7500423 18.2795648,14.0542405 C17.7991689,15.3587728 17.1439636,16.5357916 16.3136316,17.5856786 C15.450477,18.6832877 14.441184,19.6138932 13.2853617,20.3774474 C12.1291488,21.1410016 10.8676057,21.6815979 9.5,22 C8.13239426,21.6815979 6.87050933,21.1410016 5.71463827,20.3774474 C4.5584253,19.6138932 3.54913226,18.6832877 2.68636842,17.5856786 C1.85603636,16.5357916 1.20046478,15.3587728 0.720435166,14.0542405 C0.240039229,12.75009 0,11.4056382 0,10.0216962 L0,3.98479833 L9.5,0 L9.5,0 Z M9.5,10.9760912 L9.5,2.17133331 L2.10030051,5.29715706 L2.10030051,10.9760912 L9.5,10.9760912 L9.5,19.9001306 C10.4928818,19.6298324 11.4048794,19.2044373 12.2352115,18.6235635 C13.0655435,18.0430475 13.7981895,17.3552045 14.4331493,16.5595811 C15.0841296,15.7803741 15.6214033,14.9172715 16.0449703,13.9706552 C16.4681466,13.0243969 16.7532191,12.0259782 16.8997483,10.9760912 L9.5,10.9760912 Z" id="形状"></path>
                </g>
            </g>
        </g>
    </g>
</svg>