<?xml version="1.0" encoding="UTF-8"?>
<svg width="50px" height="50px" viewBox="0 0 50 50" version="1.1" xmlns="http://www.w3.org/2000/svg" xmlns:xlink="http://www.w3.org/1999/xlink">
    <title>编组 2备份</title>
    <g id="页面-1" stroke="none" stroke-width="1" fill="none" fill-rule="evenodd">
        <g id="gongneng备份-8" transform="translate(-75.000000, -601.000000)" fill="#FFFFFF">
            <g id="编组-2备份" transform="translate(75.000000, 601.000000)">
                <circle id="椭圆形" opacity="0.230295817" cx="25" cy="25" r="25"></circle>
                <g id="编组-10" transform="translate(11.000000, 11.000000)">
                    <path d="M27.6386797,9.71886366 C26.9743974,9.19435511 26.1384476,8.86854811 25.2461564,8.78375684 C25.1735405,7.74443249 24.928968,6.73439005 24.5126453,5.77338157 C24.026846,4.64926595 23.3362518,3.63922351 22.4572199,2.77253615 C21.5781466,1.9060117 20.5539242,1.22177627 19.4137973,0.74609804 C18.2307536,0.250871393 16.9783571,0 15.6896527,0 L13.3600383,0 C12.0711687,0 10.8189375,0.250871393 9.63589373,0.74609804 C8.49580816,1.22495288 7.47137925,1.9060117 6.59251251,2.77253615 C5.71343925,3.63922351 5.01949926,4.64926595 4.53704574,5.77338157 C4.12398622,6.73439005 3.87615051,7.74443249 3.80336943,8.78058022 C2.89141662,8.85869245 2.03221152,9.18783897 1.35487652,9.72204028 C0.495671421,10.3997189 0,11.3674471 0,12.3709734 L0,16.4402214 C0,17.443707 0.492449557,18.4080957 1.35487652,19.0889917 C1.88685588,19.5092827 2.51805213,19.7927755 3.18216922,19.9361306 C3.51261683,20.0078489 3.85966944,20.0533397 4.19676731,20.0533397 C4.86749336,20.0566792 5.59113232,20.0306146 6.10006296,19.522315 C6.34789867,19.2747831 6.49003245,18.9326043 6.49003245,18.5840315 L6.49003245,9.44188698 C6.49003245,5.70479919 9.57314999,2.66514202 13.3633015,2.66514202 L15.6930398,2.66514202 C19.4831913,2.66514202 22.5662676,5.70479919 22.5662676,9.44188698 L22.5662676,19.5549364 C22.5662676,21.9626909 21.287394,24.0770969 19.3642715,25.2793247 C19.4368874,24.9535177 19.4765824,24.6146377 19.4765824,24.2661057 C19.4765824,21.6791981 17.3418908,19.571186 14.7147496,19.571186 C12.087815,19.571186 9.95312344,21.6758585 9.95312344,24.2661057 C9.95312344,26.7258671 11.8828962,28.7492915 14.3281672,28.9446535 C14.4504742,28.9806145 14.57939,29 14.7147496,29 L15.6930398,29 C16.9817442,29 18.2341407,28.7492915 19.4170192,28.2540649 C20.5571461,27.7750471 21.5815337,27.0941512 22.4606069,26.2274638 C23.3394737,25.3607765 24.033455,24.350897 24.5159085,23.2267813 C24.9586257,22.2037066 25.2064614,21.1252854 25.2628027,20.0175823 C26.1516655,19.9295737 26.9810064,19.6037667 27.6452887,19.0824755 C28.5043286,18.4049191 29,17.4371909 29,16.4337053 L29,12.3644573 C28.9935563,11.360931 28.4978849,10.3965422 27.6386797,9.71886366 Z M2.76190476,15.7313381 L2.76190476,11.887748 C2.76190476,11.5460417 3.32450512,11.1736769 4.14285714,11.047619 L4.14285714,16.5714286 C3.32450512,16.4483712 2.76190476,16.072852 2.76190476,15.7313381 Z M12.4285714,24.1667501 C12.4285714,23.0258841 13.3592175,22.0952381 14.4999166,22.0952381 C15.6407825,22.0952381 16.5714286,23.0258841 16.5714286,24.1667501 C16.5714286,25.3074492 15.6407825,26.2380952 14.4999166,26.2380952 C13.3592175,26.2380952 12.4285714,25.3074492 12.4285714,24.1667501 Z M26.2380952,15.739965 C26.2380952,16.070634 25.6801585,16.4354594 24.8571429,16.5714286 L24.8571429,11.047619 C25.6801585,11.1837814 26.2380952,11.5484136 26.2380952,11.8792758 L26.2380952,15.739965 Z" id="kefu-(1)"></path>
                </g>
            </g>
        </g>
    </g>
</svg>