<?xml version="1.0" encoding="UTF-8"?>
<svg width="50px" height="50px" viewBox="0 0 50 50" version="1.1" xmlns="http://www.w3.org/2000/svg" xmlns:xlink="http://www.w3.org/1999/xlink">
    <title>编组 3备份 4</title>
    <defs>
        <filter x="-16.3%" y="-16.3%" width="132.5%" height="132.5%" filterUnits="objectBoundingBox" id="filter-1">
            <feOffset dx="0" dy="0" in="SourceAlpha" result="shadowOffsetOuter1"></feOffset>
            <feGaussianBlur stdDeviation="1.5" in="shadowOffsetOuter1" result="shadowBlurOuter1"></feGaussianBlur>
            <feColorMatrix values="0 0 0 0 0.485543514   0 0 0 0 0.485543514   0 0 0 0 0.485543514  0 0 0 0.5 0" type="matrix" in="shadowBlurOuter1" result="shadowMatrixOuter1"></feColorMatrix>
            <feMerge>
                <feMergeNode in="shadowMatrixOuter1"></feMergeNode>
                <feMergeNode in="SourceGraphic"></feMergeNode>
            </feMerge>
        </filter>
        <linearGradient x1="75.6289109%" y1="10.5518482%" x2="65.0525088%" y2="99.2256698%" id="linearGradient-2">
            <stop stop-color="#74C3FF" offset="0%"></stop>
            <stop stop-color="#488CFF" offset="100%"></stop>
        </linearGradient>
        <polygon id="path-3" points="0 0 30 0 30 31.011236 0 31.011236"></polygon>
    </defs>
    <g id="页面-1" stroke="none" stroke-width="1" fill="none" fill-rule="evenodd">
        <g id="gongneng" transform="translate(-21.000000, -458.000000)">
            <g id="编组-3备份-4" transform="translate(26.000000, 463.000000)">
                <g id="huodongyouli" filter="url(#filter-1)" fill="url(#linearGradient-2)">
                    <path d="M0,19.9999449 C0,27.1453768 3.81188596,33.7480158 10.0000827,37.3204837 C16.1880038,40.8931721 23.8119962,40.8931721 29.9999724,37.3204837 C36.1878936,33.7480158 40,27.1453768 40,19.9999449 C40,8.95437409 31.0457057,0 19.9998898,0 C8.95434941,0 0,8.95437409 0,19.9999449 Z" id="Fill-1"></path>
                </g>
                <g id="kefu-(1)" transform="translate(5.000000, 4.000000)">
                    <mask id="mask-4" fill="white">
                        <use xlink:href="#path-3"></use>
                    </mask>
                    <g id="Clip-2"></g>
                    <path d="M15.1412775,24.4656313 C15.2926896,24.4656313 15.4467486,24.4563188 15.6017153,24.4379967 C17.0889111,24.2592049 18.3517493,23.2186313 18.8177837,21.7847006 C18.8529519,21.6774937 18.8021282,21.562602 18.6996113,21.5153962 C18.5981153,21.4680767 18.4753672,21.5090364 18.4180772,21.6051895 C18.412594,21.6143506 17.8217316,22.5697492 15.5215093,22.8807326 C15.177202,22.9270299 14.8421594,22.9512575 14.5245874,22.9512575 C12.9130175,22.9502354 12.1947936,22.3421616 12.1882894,22.3365589 C12.1072136,22.2644062 11.9834445,22.2624756 11.9002511,22.3328491 C11.816377,22.403109 11.7970156,22.5253825 11.8541922,22.6188478 C12.5558152,23.7574673 13.8146451,24.4656313 15.1412775,24.4656313 Z M27.5095294,10.1948427 C27.489147,10.1948427 27.4706554,10.1985147 27.4514831,10.1985147 C26.1037119,4.35725053 20.9537369,0 14.7793862,0 C8.43513182,0 3.16702213,4.59797403 1.99947815,10.6808702 C0.864152713,10.8854038 0,11.8842606 0,13.0924207 L0,17.9274084 C0,19.2825239 1.08556065,20.3813572 2.42592004,20.3813572 C3.18195913,20.3813572 3.8493216,20.0239628 4.29319629,19.4750572 C5.36589977,22.3152463 7.54961353,24.6052426 10.3132232,25.8133649 C10.3198409,25.7990176 10.3721393,25.6971105 10.4350638,25.6159481 C10.4786647,25.5597326 10.5274084,25.5136246 10.5691942,25.5136246 C10.6126439,25.5136246 10.6523498,25.5292968 10.6863457,25.5533729 C10.0467396,25.0766578 7.73645838,22.6262297 7.23601216,19.2066613 C7.01634372,17.7014486 8.14251789,16.2239083 9.45409992,15.9796264 C11.5596497,15.5870264 13.654233,15.1399901 15.7597828,14.7549612 C17.0982136,14.51049 18.0128874,13.7755622 18.5722875,12.5517676 C18.7033171,12.2656553 18.8925444,11.6871467 18.979368,10.8529994 C19.0024353,10.7289468 19.1040447,10.6337022 19.2342046,10.6337022 C19.3210661,10.6337022 19.3949192,10.6780689 19.4438142,10.7421205 L19.5018605,10.7058927 C20.3317148,11.9120844 21.9775832,14.5826805 22.2139281,17.3987555 C22.4852521,20.6184087 22.3338401,22.823495 19.8721847,25.0794592 C19.8692351,25.0822605 19.8655292,25.0858189 19.8619746,25.0887716 C19.827714,25.1256051 19.8074829,25.1737952 19.8074829,25.2266037 C19.8074829,25.2959551 19.8443905,25.3552369 19.897899,25.3913133 C19.9181301,25.399755 19.9385125,25.4108467 19.9588949,25.4192507 C19.9754201,25.4229605 19.9912269,25.4282981 20.0077899,25.4282981 C20.0244664,25.4282981 20.0392522,25.4229605 20.0540001,25.4192507 C20.089017,25.4007771 20.1222565,25.3793509 20.1563658,25.3608395 C22.6459666,23.9878563 24.555785,21.6950965 25.4382402,18.9372433 C25.795556,19.4685461 26.3548426,19.8509629 27.004621,19.9843281 C25.9624722,24.7294467 21.7348853,27.6991774 16.4973302,28.1500371 C16.1834264,27.3705911 15.410862,26.8169536 14.5034487,26.8169536 C13.3183207,26.8169536 12.3572855,27.7567178 12.3572855,28.9146815 C12.3572855,30.0726831 13.3181694,31.011236 14.5034487,31.011236 C15.4588873,31.011236 16.259208,30.3966888 16.5369228,29.552472 C22.5997565,29.0590248 27.4597268,25.4515036 28.4742327,19.8463824 C29.370604,19.4713474 30,18.5910542 30,17.5635029 L30,12.6712776 C30,11.3038592 28.8849057,10.1948427 27.5095294,10.1948427 Z M25.27295,11.6000789 C23.6916701,7.31217975 19.5941674,4.24898364 14.7739408,4.24898364 C9.97375626,4.24898364 5.89103931,7.28617298 4.29512487,11.5463997 C4.21563734,11.4490731 4.12261197,11.3658287 4.03117484,11.2817136 C4.93473098,6.09016445 9.39783092,2.14296533 14.7793862,2.14296533 C20.1351137,2.14296533 24.5842976,6.05140036 25.5175765,11.2067218 C25.4252318,11.3307745 25.3402989,11.4603162 25.27295,11.6000789 Z" id="Fill-1" fill="#FFFFFF" mask="url(#mask-4)"></path>
                </g>
            </g>
        </g>
    </g>
</svg>