<?xml version="1.0" encoding="UTF-8"?>
<svg width="38px" height="38px" viewBox="0 0 38 38" version="1.1" xmlns="http://www.w3.org/2000/svg" xmlns:xlink="http://www.w3.org/1999/xlink">
    <title>编组 2备份</title>
    <defs>
        <linearGradient x1="84.345128%" y1="12.1535961%" x2="11.4843809%" y2="84.2635228%" id="linearGradient-1">
            <stop stop-color="#414B54" offset="2.90023697%"></stop>
            <stop stop-color="#1E1F24" offset="100%"></stop>
        </linearGradient>
        <circle id="path-2" cx="14" cy="14" r="14"></circle>
        <filter x="-26.8%" y="-26.8%" width="153.6%" height="153.6%" filterUnits="objectBoundingBox" id="filter-3">
            <feOffset dx="0" dy="0" in="SourceAlpha" result="shadowOffsetOuter1"></feOffset>
            <feGaussianBlur stdDeviation="2.5" in="shadowOffsetOuter1" result="shadowBlurOuter1"></feGaussianBlur>
            <feColorMatrix values="0 0 0 0 0.257843075   0 0 0 0 0.286152217   0 0 0 0 0.303080241  0 0 0 1 0" type="matrix" in="shadowBlurOuter1"></feColorMatrix>
        </filter>
    </defs>
    <g id="页面-1" stroke="none" stroke-width="1" fill="none" fill-rule="evenodd">
        <g id="gongneng备份" transform="translate(-7.000000, -39.000000)">
            <g id="编组-2备份" transform="translate(12.000000, 44.000000)">
                <g id="椭圆形">
                    <use fill="black" fill-opacity="1" filter="url(#filter-3)" xlink:href="#path-2"></use>
                    <use fill="url(#linearGradient-1)" fill-rule="evenodd" xlink:href="#path-2"></use>
                </g>
                <g id="编组-10" transform="translate(5.600000, 5.600000)" fill="#FFFFFF">
                    <path d="M15.2489268,5.36213168 C14.8824262,5.07274765 14.4212125,4.89299206 13.9289139,4.84621067 C13.88885,4.27279034 13.7539134,3.71552555 13.5242181,3.18531397 C13.2561909,2.56511225 12.8751734,2.00784745 12.3901903,1.52967512 C11.9051843,1.05159266 11.3400961,0.674083457 10.7110606,0.411640298 C10.0583468,0.138411803 9.36736944,0 8.65636012,0 L7.37105564,0 C6.65995516,0 5.96906896,0.138411803 5.31635516,0.411640298 C4.68734243,0.675836074 4.12214028,1.05159266 3.63724828,1.52967512 C3.15224234,2.00784745 2.7693789,2.56511225 2.50319765,3.18531397 C2.27530274,3.71552555 2.1385658,4.27279034 2.09841072,4.84445805 C1.59526434,4.88755445 1.12122015,5.06915254 0.747518082,5.36388429 C0.273473888,5.73777592 0,6.27169495 0,6.82536464 L0,9.070467 C0,9.62411421 0.271696307,10.1561908 0.747518082,10.5318575 C1.04102393,10.7637422 1.38927014,10.920152 1.75567957,10.9992445 C1.93799549,11.0388132 2.12947279,11.0639115 2.31545783,11.0639115 C2.68551358,11.065754 3.08476266,11.0513736 3.36555198,10.7709324 C3.50228892,10.6343631 3.58070756,10.4455748 3.58070756,10.2532588 L3.58070756,5.20931696 C3.58070756,3.14747542 5.28173793,1.47042318 7.37285601,1.47042318 L8.65822886,1.47042318 C10.7493469,1.47042318 12.4503545,3.14747542 12.4503545,5.20931696 L12.4503545,10.7889304 C12.4503545,12.1173467 11.7447691,13.2839155 10.683736,13.9472136 C10.7237999,13.7674581 10.7457006,13.5804898 10.7457006,13.3881962 C10.7457006,11.9609369 9.56793974,10.7978957 8.11848256,10.7978957 C6.66913933,10.7978957 5.49137845,11.9590944 5.49137845,13.3881962 C5.49137845,14.745306 6.55608066,15.8616781 7.90519572,15.969464 C7.9726754,15.9893045 8.0438014,16 8.11848256,16 L8.65822886,16 C9.36923818,16 10.0602155,15.8616781 10.7128382,15.5884496 C11.3418737,15.3241639 11.9070531,14.9484972 12.392059,14.4703249 C12.876951,13.9921525 13.2598372,13.4349776 13.5260185,12.8147759 C13.7702762,12.2503209 13.9070132,11.6553299 13.938098,11.0441834 C14.4285051,10.9956269 14.8860725,10.8158713 15.2525731,10.5282624 C15.7265261,10.1544381 16,9.6205191 16,9.06687189 L16,6.82176953 C15.9964448,6.26809984 15.722971,5.7360233 15.2489268,5.36213168 Z M1.52380952,8.67935893 L1.52380952,6.55875753 C1.52380952,6.37022991 1.83420972,6.16478723 2.28571429,6.0952381 L2.28571429,9.14285714 C1.83420972,9.07496343 1.52380952,8.86778043 1.52380952,8.67935893 Z M6.85714286,13.3333793 C6.85714286,12.7039361 7.37060275,12.1904762 7.99995399,12.1904762 C8.62939725,12.1904762 9.14285714,12.7039361 9.14285714,13.3333793 C9.14285714,13.9627306 8.62939725,14.4761905 7.99995399,14.4761905 C7.37060275,14.4761905 6.85714286,13.9627306 6.85714286,13.3333793 Z M14.4761905,8.68411865 C14.4761905,8.86655668 14.1683633,9.06783968 13.7142857,9.14285714 L13.7142857,6.0952381 C14.1683633,6.17036215 14.4761905,6.37153856 14.4761905,6.55408318 L14.4761905,8.68411865 Z" id="kefu-(1)"></path>
                </g>
            </g>
        </g>
    </g>
</svg>