<?xml version="1.0" encoding="UTF-8"?>
<svg width="37px" height="31px" viewBox="0 0 37 31" version="1.1" xmlns="http://www.w3.org/2000/svg" xmlns:xlink="http://www.w3.org/1999/xlink">
    <title>面性办卡进度查询图标</title>
    <defs>
        <filter x="-32.0%" y="-44.1%" width="164.0%" height="188.2%" filterUnits="objectBoundingBox" id="filter-1">
            <feOffset dx="0" dy="2" in="SourceAlpha" result="shadowOffsetOuter1"></feOffset>
            <feGaussianBlur stdDeviation="1" in="shadowOffsetOuter1" result="shadowBlurOuter1"></feGaussianBlur>
            <feColorMatrix values="0 0 0 0 0.130763508   0 0 0 0 0.141197352   0 0 0 0 0.165046139  0 0 0 1 0" type="matrix" in="shadowBlurOuter1" result="shadowMatrixOuter1"></feColorMatrix>
            <feMerge>
                <feMergeNode in="shadowMatrixOuter1"></feMergeNode>
                <feMergeNode in="SourceGraphic"></feMergeNode>
            </feMerge>
        </filter>
        <linearGradient x1="62.2100178%" y1="76.3306673%" x2="31.9885889%" y2="30.8849832%" id="linearGradient-2">
            <stop stop-color="#CA962E" offset="0%"></stop>
            <stop stop-color="#FFD37D" offset="100%"></stop>
        </linearGradient>
    </defs>
    <g id="页面-1" stroke="none" stroke-width="1" fill="none" fill-rule="evenodd">
        <g id="画板备份-13" transform="translate(-329.000000, -269.000000)" fill-rule="nonzero">
            <g id="面性办卡进度查询图标" filter="url(#filter-1)" transform="translate(335.000000, 275.000000)">
                <path d="M22.6118239,18.1420325 L2.38817614,18.1420325 C1.07489598,18.1420325 0,17.0961877 0,15.8184016 L0,2.32363084 C0,1.04584474 1.07489598,0 2.38817614,0 L22.6118239,0 C23.925104,0 25,1.04584474 25,2.32363084 L25,15.8184016 C25,17.0961877 23.925104,18.1420325 22.6118239,18.1420325 Z" id="路径" fill="url(#linearGradient-2)"></path>
                <path d="M5.33169693,7.38566055 C5.59310993,7.53989271 5.96298152,7.64000833 6.27445232,7.64000833 C6.58870412,7.64000833 6.9057369,7.53718689 7.16436891,7.38566055 C7.7428147,7.07990204 8.1599631,6.51979576 8.1599631,5.80275148 C8.1599631,4.78265452 7.32288531,3.96549462 6.27167133,3.96549462 C5.22323835,3.96549462 4.38337957,4.77994869 4.38337957,5.80275148 C4.38616055,6.46567921 4.75603214,7.07990204 5.33169693,7.38566055 L5.33169693,7.38566055 Z" id="路径" fill="#202738"></path>
                <path d="M7.32824776,8.04485137 C7.03213719,8.21837071 6.68218834,8.3362329 6.27167142,8.35260265 C5.86451939,8.33950685 5.51457054,8.21837071 5.21509508,8.04485137 C3.81866457,8.66362787 2.73853398,10.3922733 2.61066805,12.4941491 L6.14717039,12.4941491 L6.39617245,12.4941491 L9.93267479,12.4941491 C9.80480886,10.3922733 8.72804316,8.66362787 7.32824776,8.04485137 Z M6.27840121,12.1602062 L5.70636943,11.6036347 L6.21446824,9.06959764 L5.95873639,8.69964132 C6.02266935,8.57523123 6.53076817,8.57523123 6.65863409,8.69964132 L6.34233417,9.06959764 L6.84706809,11.6036347 L6.27840121,12.1602062 Z" id="形状" fill="#202738"></path>
                <path d="M22.7660701,12.2971099 L14.0628066,12.2971099 C13.3287328,12.2971099 13.1479777,11.9520009 13.1479777,11.5274862 C13.1479777,11.1029716 13.3287328,10.7578626 14.0628066,10.7578626 L22.7713512,10.7578626 C23.505425,10.7578626 23.6946721,11.1029716 23.6946721,11.5274862 C23.689391,11.9489468 23.5001439,12.2971099 22.7660701,12.2971099 Z" id="路径备份-2" fill="#202738"></path>
                <path d="M22.7660701,9.21861529 L14.0628066,9.21861529 C13.3287328,9.21861529 13.1479777,8.87350627 13.1479777,8.44899164 C13.1479777,8.02447701 13.3287328,7.67936799 14.0628066,7.67936799 L22.7713512,7.67936799 C23.505425,7.67936799 23.6946721,8.02447701 23.6946721,8.44899164 C23.689391,8.87045221 23.5001439,9.21861529 22.7660701,9.21861529 Z" id="路径备份-3" fill="#202738"></path>
                <path d="M22.7660701,6.1401207 L14.0628066,6.1401207 C13.3287328,6.1401207 13.1479777,5.79501169 13.1479777,5.37049706 C13.1479777,4.94598243 13.3287328,4.60087341 14.0628066,4.60087341 L22.7713512,4.60087341 C23.505425,4.60087341 23.6946721,4.94598243 23.6946721,5.37049706 C23.689391,5.79195763 23.5001439,6.1401207 22.7660701,6.1401207 Z" id="路径备份-4" fill="#202738"></path>
            </g>
        </g>
    </g>
</svg>