<?xml version="1.0" encoding="UTF-8"?>
<svg width="24px" height="24px" viewBox="0 0 24 24" version="1.1" xmlns="http://www.w3.org/2000/svg" xmlns:xlink="http://www.w3.org/1999/xlink">
    <title>shaixuan (1)</title>
    <defs>
        <polygon id="path-1" points="0 0 24 0 24 24 0 24"></polygon>
        <linearGradient x1="62.2100178%" y1="54.0816327%" x2="31.9885889%" y2="47.0368971%" id="linearGradient-3">
            <stop stop-color="#CA962E" offset="0%"></stop>
            <stop stop-color="#FFD37D" offset="100%"></stop>
        </linearGradient>
    </defs>
    <g id="页面-1" stroke="none" stroke-width="1" fill="none" fill-rule="evenodd">
        <g id="画板备份-15" transform="translate(-333.000000, -40.000000)">
            <g id="shaixuan-(1)" transform="translate(333.000000, 40.000000)">
                <mask id="mask-2" fill="white">
                    <use xlink:href="#path-1"></use>
                </mask>
                <g id="Clip-2"></g>
                <path d="M13.5193787,24 C13.1147865,24 12.7428336,23.9074218 12.3844756,23.7205369 L9.2917144,21.9977332 C8.53037562,21.5906822 8.0577215,20.7951837 8.06410872,19.932068 L8.06410872,10.1212714 C8.06044632,9.97513848 7.9912124,9.83849778 7.8756272,9.74923015 L0.726513944,4.02019367 L0.649369244,3.9276155 C-0.0192376818,3.25906043 -0.175226432,2.26651103 0.198543005,1.39733085 C0.561940539,0.540279579 1.40886218,-0.0134902681 2.34151317,0.000249974146 L21.6353644,0.000249974146 C22.5662867,0.000249974146 23.411509,0.547164349 23.7954745,1.39733085 C24.1795866,2.24764383 24.0132845,3.2470487 23.3754417,3.9276155 L23.281157,4.02019367 L16.0378469,9.81104659 C15.9299088,9.90465016 15.8674137,10.0401483 15.8663882,10.1829706 L15.8663882,21.6411315 C15.8855206,22.9243646 14.8609581,23.9803125 13.5776254,24 L13.5193787,24 Z M1.95397313,2.6231128 L9.07390441,8.30591878 C9.63117451,8.75498153 9.96032132,9.4235366 9.96032132,10.1367401 L9.96032132,19.9474196 C9.96032132,20.1188357 10.0357374,20.2902811 10.1917554,20.3674198 L13.2862452,22.0594325 C13.4267933,22.1348427 13.6119641,22.1348427 13.7662534,22.0594325 C13.9116945,21.970282 14.0000608,21.8117859 13.9993869,21.6411315 L13.9993869,10.2001386 C13.9993869,9.48532375 14.3114816,8.81838001 14.8720625,8.36586022 L22.0074344,2.62472413 C22.1139955,2.48040764 22.1312527,2.28860089 22.0519399,2.12758517 C21.9738869,1.96656946 21.810925,1.86414752 21.6319071,1.86367877 L2.34324182,1.86367877 C2.16229018,1.85694049 1.99563654,1.96164758 1.923209,2.12758517 C1.83838792,2.28572979 1.85028339,2.47835686 1.95397313,2.62472413 L1.95397313,2.6231128 Z" id="Fill-1" fill="#7D7F82" mask="url(#mask-2)"></path>
                <path d="M23.1594003,12 L18.3784423,12 C17.905616,11.9861423 17.5312251,11.574769 17.5385677,11.0769086 C17.5385677,10.5686185 17.9148909,10.1538462 18.3784423,10.1538462 L23.1594003,10.1538462 C23.6214335,10.1538462 23.9993853,10.5686185 23.9993853,11.0769086 C24.0081081,11.3177188 23.9236956,11.5518471 23.7652771,11.7258092 C23.6069967,11.8998875 23.388319,11.9987508 23.1594003,12 Z" id="路径" fill="url(#linearGradient-3)" fill-rule="nonzero" mask="url(#mask-2)"></path>
                <path d="M23.1594003,15.6923077 L18.3784423,15.6923077 C17.905616,15.678462 17.5312251,15.2674444 17.5385677,14.7700145 C17.5385677,14.2605965 17.9148909,13.8461538 18.3784423,13.8461538 L23.1594003,13.8461538 C23.6214335,13.8461538 23.9993853,14.2622801 23.9993853,14.7701306 C24.0081081,15.0106165 23.9236956,15.2445424 23.7652771,15.4184701 C23.6069967,15.5922818 23.388319,15.6911757 23.1594003,15.6923077 Z" id="路径" fill="url(#linearGradient-3)" fill-rule="nonzero" mask="url(#mask-2)"></path>
                <path d="M23.1595993,20.3075762 L18.378494,20.3075762 C17.9049907,20.2937314 17.530395,19.8817238 17.5385936,19.3836576 C17.5385936,18.8776385 17.9149284,18.4615385 18.378494,18.4615385 L23.1595993,18.4615385 C23.6216467,18.4615385 23.9996102,18.8776385 23.9996102,19.3837737 C24.0065113,19.6238961 23.9215441,19.8569075 23.7636729,20.0305922 C23.6056912,20.2042768 23.3880834,20.3041803 23.1595993,20.3076923 L23.1595993,20.3075762 Z" id="路径" fill="url(#linearGradient-3)" fill-rule="nonzero" mask="url(#mask-2)"></path>
            </g>
        </g>
    </g>
</svg>