<?xml version="1.0" encoding="UTF-8"?>
<svg width="21px" height="20px" viewBox="0 0 21 20" version="1.1" xmlns="http://www.w3.org/2000/svg" xmlns:xlink="http://www.w3.org/1999/xlink">
    <title>泰国</title>
    <defs>
        <polygon id="path-1" points="0 0 20 0 20 20.001465 0 20.001465"></polygon>
    </defs>
    <g id="页面-1" stroke="none" stroke-width="1" fill="none" fill-rule="evenodd">
        <g id="画板备份-17" transform="translate(-335.000000, -1537.000000)">
            <g id="泰国" transform="translate(335.272727, 1537.000000)">
                <mask id="mask-2" fill="white">
                    <use xlink:href="#path-1"></use>
                </mask>
                <g id="Clip-2"></g>
                <path d="M-0.00146495283,10.0007935 C-0.00146495283,15.5240075 4.47599248,20.001465 9.99932856,20.001465 C15.5225426,20.001465 20,15.5240075 20,10.0007935 C20,4.47745743 15.5225426,0 9.99932856,0 C4.47599248,0 -0.00146495283,4.47745743 -0.00146495283,10.0007935 Z" id="Fill-1" fill="#D42D1F" mask="url(#mask-2)"></path>
                <path d="M2.12366888,3.75032809 C0.873600207,5.50043399 -0.00146495283,7.62556782 -0.00146495283,10.0007935 C-0.00146495283,12.3758971 0.873600207,14.6260647 2.2487026,16.2512589 L17.7498324,16.2512589 C19.1249348,14.5011286 20,12.3758971 20,10.0007935 C20,7.62556782 19.1249348,5.50043399 17.8748662,3.75032809 L2.12366888,3.75032809 Z" id="Fill-3" fill="#FFFFFF" mask="url(#mask-2)"></path>
                <path d="M0.623630422,6.62546894 C0.248504833,7.62556782 -0.00146495283,8.75060277 -0.00146495283,10.0007935 C-0.00146495283,11.2508622 0.248504833,12.3758971 0.623630422,13.5010297 L19.3750267,13.5010297 C19.7500302,12.3758971 20,11.2508622 20,10.0007935 C20,8.75060277 19.7500302,7.62556782 19.3750267,6.62546894 L0.623630422,6.62546894 Z" id="Fill-4" fill="#012094" mask="url(#mask-2)"></path>
            </g>
        </g>
    </g>
</svg>