<?xml version="1.0" encoding="UTF-8"?>
<svg width="20px" height="24px" viewBox="0 0 20 24" version="1.1" xmlns="http://www.w3.org/2000/svg" xmlns:xlink="http://www.w3.org/1999/xlink">
    <title>wodedamaijihuo (1)</title>
    <g id="页面-1" stroke="none" stroke-width="1" fill="none" fill-rule="evenodd">
        <g id="gongneng备份-7" transform="translate(-34.000000, -217.000000)" fill="#828CA3">
            <path d="M44.0000599,228.818182 C40.6011238,228.818182 37.8709677,226.164013 37.8709677,222.909091 C37.8709677,219.654169 40.6011238,217 44.0000599,217 C47.3988762,217 50.1290323,219.654169 50.1290323,222.909091 C50.1290323,226.164013 47.3988762,228.818182 44.0000599,228.818182 Z M34,235.929619 C34,233.34633 36.1141875,231.252199 38.7222186,231.252199 L49.2778187,231.252199 C50.9649136,231.252199 52.5237882,232.143739 53.3673506,233.59085 C54.2108831,235.038079 54.2108831,236.821158 53.3673506,238.268388 C52.5237882,239.715499 50.9649136,240.607038 49.2778187,240.607038 L38.7222186,240.607038 C36.1154706,240.604053 34.0030436,238.511666 34,235.929619 Z" id="wodedamaijihuo-(1)"></path>
        </g>
    </g>
</svg>