<?xml version="1.0" encoding="UTF-8"?>
<svg width="22px" height="21px" viewBox="0 0 22 21" version="1.1" xmlns="http://www.w3.org/2000/svg" xmlns:xlink="http://www.w3.org/1999/xlink">
    <title>yaoqing</title>
    <g id="页面-1" stroke="none" stroke-width="1" fill="none" fill-rule="evenodd">
        <g id="gongneng备份-9" transform="translate(-33.000000, -416.000000)">
            <g id="yaoqing" transform="translate(33.000000, 416.000000)">
                <path d="M21.6885066,10.0323815 C21.8919676,10.3518207 22,10.7223204 22,11.1006966 L22,17.9372562 C22,19.5883715 20.6568584,20.9268293 19.0000873,20.9268293 L3.00003467,20.9268293 C1.34314151,20.9268293 0,19.5883715 0,17.9372562 L0,11.1081777 C0,10.3804377 0.398041323,9.71069179 1.03820945,9.36071969 C1.67846912,9.01074759 2.45929296,9.03641465 3.07501646,9.42747228 L10.9790801,14.4494868 L18.9274859,9.4185618 C19.3753625,9.13500776 19.9178743,9.04042893 20.4356057,9.15556573 C20.9534592,9.27067213 21.4041739,9.58606669 21.6885066,10.0323815 Z M16.0000527,0 C17.6568238,0 19.0000873,1.33845777 19.0000873,2.98957311 L19.0000873,7.97214426 L11.0164947,12.954685 L3.00003467,7.97214426 L3.00003467,2.98957311 C3.00003467,1.33845777 4.34314566,0 6.00003467,0 L16.0000527,0 Z" id="Fill-1" fill="#828CA3"></path>
                <path d="M7.73024146,2.95121951 L14.2698507,2.95121951 C14.7728668,2.95121951 15.0243902,3.21947944 15.0243902,3.75603206 C15.0243902,4.29271568 14.7728668,4.56097561 14.2698507,4.56097561 L7.73024146,4.56097561 C7.22710248,4.56097561 6.97560976,4.29271568 6.97560976,3.75603206 C6.97560976,3.21947944 7.22710248,2.95121951 7.73024146,2.95121951 Z" id="Fill-2" fill="#1C3152"></path>
                <path d="M7.73023282,6.43902439 L10.2453769,6.43902439 C10.7485102,6.43902439 11,6.70731161 11,7.24382056 C11,7.78049326 10.7485102,8.04878049 10.2453769,8.04878049 L7.73023282,8.04878049 C7.22709961,8.04878049 6.97560976,7.78049326 6.97560976,7.24382056 C6.97560976,6.70731161 7.22709961,6.43902439 7.73023282,6.43902439 Z" id="Fill-3" fill="#1C3152"></path>
            </g>
        </g>
    </g>
</svg>