<?xml version="1.0" encoding="UTF-8"?>
<svg width="33px" height="33px" viewBox="0 0 33 33" version="1.1" xmlns="http://www.w3.org/2000/svg" xmlns:xlink="http://www.w3.org/1999/xlink">
    <title>yiliaohangyedeICON-备份 3</title>
    <defs>
        <polygon id="path-1" points="0 0 15 0 15 21 0 21"></polygon>
    </defs>
    <g id="页面-1" stroke="none" stroke-width="1" fill="none" fill-rule="evenodd">
        <g id="个人资料备份" transform="translate(-15.000000, -455.000000)">
            <g id="yiliaohangyedeICON-备份-3" transform="translate(15.000000, 455.000000)">
                <path d="M0,16.5001147 C0,25.6127636 7.38724665,33 16.5000918,33 C25.6127533,33 33,25.6127636 33,16.5001147 C33,7.38723638 25.6127533,0 16.5000918,0 C7.38724665,0 0,7.38723638 0,16.5001147 Z" id="Fill-1" fill="#5EFF9F" opacity="0.21862793"></path>
                <g id="shoujitianchong-(1)" transform="translate(9.000000, 6.000000)">
                    <mask id="mask-2" fill="white">
                        <use xlink:href="#path-1"></use>
                    </mask>
                    <g id="Clip-2"></g>
                    <path d="M13.0597344,0 L1.86565682,0 C0.820942567,0 0,0.816300412 0,1.85510716 L0,19.0707059 C0,20.1095942 0.820942567,21 1.9402656,21 L13.0597344,21 C14.104558,21 15,20.1838083 15,19.0707059 L15,1.85510716 C15,0.816300412 14.1791668,0 13.0597344,0 Z M5.67166123,1.33571737 L9.40294755,1.33571737 C9.55219244,1.33571737 9.70154665,1.48411834 9.70154665,1.6325193 C9.70154665,1.78089309 9.55219244,1.92929405 9.40294755,1.92929405 L5.67166123,1.92929405 C5.52241634,1.92929405 5.37317145,1.78089309 5.37317145,1.6325193 C5.37317145,1.48411834 5.44780756,1.33571737 5.67166123,1.33571737 Z M7.46268194,19.5158817 C6.71648481,19.5158817 6.11939591,18.922305 6.11939591,18.1801915 C6.11939591,17.4381866 6.71648481,16.84461 7.46268194,16.84461 C8.20901573,16.84461 8.8059953,17.4381866 8.8059953,18.1801915 C8.8059953,18.922305 8.20901573,19.5158817 7.46268194,19.5158817 Z" id="Fill-1" fill="#81FFB4" mask="url(#mask-2)"></path>
                </g>
            </g>
        </g>
    </g>
</svg>