<svg xmlns="http://www.w3.org/2000/svg" width="50" height="50" viewBox="0 0 50 50"><defs><style>.a,.d{fill:none;}.b{fill:#ffb300;}.c{fill:#fff;}.d{stroke:#fff;stroke-miterlimit:10;stroke-width:2px;}</style></defs><g transform="translate(-541 -196)"><rect class="a" width="50" height="50" transform="translate(541 196)"/><g transform="translate(553 200)"><g transform="translate(0)"><path class="b" d="M17.951,44.5C13.847,37.537,6,23.151,6,17.951a11.951,11.951,0,1,1,23.9,0C29.9,23.151,22.055,37.537,17.951,44.5Z" transform="translate(-4.78 -4.78)"/><path class="c" d="M13.171,2.441A10.743,10.743,0,0,1,23.9,13.171c0,1.186-.61,5.123-6.3,16.043-1.6,3.073-3.211,5.949-4.432,8.07-1.22-2.121-2.833-5-4.432-8.07C3.051,18.3,2.441,14.357,2.441,13.171a10.743,10.743,0,0,1,10.73-10.73m0-2.441A13.169,13.169,0,0,0,0,13.173C0,20.446,13.171,42.1,13.171,42.1S26.342,20.446,26.342,13.171A13.169,13.169,0,0,0,13.169,0Z" transform="translate(0)"/><circle class="d" cx="4.279" cy="4.279" r="4.279" transform="translate(8.892 6.962)"/></g></g></g></svg>