<svg xmlns="http://www.w3.org/2000/svg" viewBox="0 0 53.87 58.44"><defs><style>.cls-1{fill:none;stroke:#fff;stroke-miterlimit:10;stroke-width:2.97px;}.cls-2{fill:#ffb300;}</style></defs><g id="图层_2" data-name="图层 2"><g id="图层_1-2" data-name="图层 1"><path class="cls-1" d="M35.83,29.93H52.39a0,0,0,0,1,0,0v8.9a0,0,0,0,1,0,0H35.83a4.45,4.45,0,0,1-4.45-4.45v0A4.45,4.45,0,0,1,35.83,29.93Z"/><circle class="cls-2" cx="41.89" cy="34.38" r="2.35"/><polyline class="cls-2" points="5.86 11.73 34.94 1.83 39.17 10.94"/><polyline class="cls-1" points="5.36 11.73 34.45 1.83 38.67 10.94"/><path class="cls-2" d="M14,28.33l5.75,5.54a.34.34,0,0,1-.36.56l-5.51-2.12a.33.33,0,0,0-.24,0L8.16,34.43a.34.34,0,0,1-.36-.56l5.75-5.54A.34.34,0,0,1,14,28.33Z"/><rect class="cls-2" x="9.41" y="34.56" width="8.76" height="2.78" rx="0.39" transform="translate(49.74 22.16) rotate(90)"/><rect class="cls-1" x="1.48" y="11.49" width="50.91" height="45.47" rx="5.39"/></g></g></svg>