<?xml version="1.0" encoding="utf-8"?>
<!-- Generator: Adobe Illustrator 24.1.2, SVG Export Plug-In . SVG Version: 6.00 Build 0)  -->
<svg version="1.1" id="图层_1" xmlns="http://www.w3.org/2000/svg" xmlns:xlink="http://www.w3.org/1999/xlink" x="0px" y="0px"
	 viewBox="0 0 1024 1024" style="enable-background:new 0 0 1024 1024;" xml:space="preserve">
<style type="text/css">
	.st0{fill:url(#SVGID_1_);}
</style>
<g>
	<g>
		<linearGradient id="SVGID_1_" gradientUnits="userSpaceOnUse" x1="847.3694" y1="835.0883" x2="132.1818" y2="119.9007">
			<stop  offset="0" style="stop-color:#0056F7"/>
			<stop  offset="0.1657" style="stop-color:#0260F7"/>
			<stop  offset="0.447" style="stop-color:#067BF7"/>
			<stop  offset="0.8075" style="stop-color:#0DA6F7"/>
			<stop  offset="1" style="stop-color:#11C0F7"/>
		</linearGradient>
		<path class="st0" d="M709,928.5c-59.9,0-108.6-48.7-108.6-108.6c0-59.9,48.7-108.6,108.6-108.6c59.9,0,108.6,48.7,108.6,108.6
			C817.7,879.8,768.9,928.5,709,928.5z M709,769.8c-27.6,0-50.1,22.5-50.1,50.1c0,27.6,22.5,50.1,50.1,50.1
			c27.6,0,50.1-22.5,50.1-50.1C759.1,792.2,736.6,769.8,709,769.8z M391.7,928.5c-59.9,0-108.6-48.7-108.6-108.6
			c0-55.5,41.8-101.4,95.6-107.9h-22.4c-27.2,0-52.2-12.2-72.3-35.2c-15.2-17.3-26.4-39.7-30.8-61.5l-0.2-1.7l-70.7-417.7
			c-0.1-1.1-2.8-23.8-16-36.9c-4-4-8.5-7-12.5-9.7c-6.5-4.4-12.6-8.5-15.5-15.5c-3.1-7.4-2.3-14.8,2.1-21.5
			c5.9-8.8,18.2-14.9,29.9-14.9c1.5,0,2.9,0.1,4.3,0.3c11.7,1.6,33.8,8.6,50.7,37c7.6,12.7,12.2,37.6,12.7,40.4l72.6,429.1
			c2.4,11.4,9.1,24.5,17.4,34c6.1,6.9,15.9,15.2,28.2,15.2H685c43.8,0,74.4-14.7,93.6-44.9c16.7-26.5,21.1-59.1,23.2-74.8
			c0.3-1.7,0.5-3,0.6-4.2l26.9-203c-0.4-11.3-6.1-25.2-14.6-35.1c-5.1-5.9-15.7-15.9-29.9-15.9H471.7c-21.9,0-44.3,8.7-63.2,24.5
			c-16.3,13.6-28.5,31-35.4,50.3c-0.4,1.2-9.9,32.6-1.4,63.1c7.1,22.4,22.4,41.7,42.9,54.2c2.9,2.1,28,19.5,48.9,19.5
			c1.1,0,2.2,0,3.3-0.2l75.3,0c14.9,0,26.9,12.1,26.9,26.9c0,14.7-12,26.8-26.8,26.9l-74.4,0.4c-88,0-159.5-70.6-159.5-157.4
			c0-9.1,0.9-18.4,2.6-27.5c2.3-21.3,17.8-49.9,18-50.2c10.7-19.5,24.8-36.6,41.9-50.9c29.3-24.6,65.1-38.1,100.8-38.1h313.1
			c27.9,0,54.3,12.9,74.3,36.3c18.2,21.2,28.6,48.8,28.6,75.5c0,1.3-0.1,2.5-0.2,3.7l-27.1,204.7l-0.5,4.2
			c-2.7,19.9-8.3,61.2-31.8,98.4c-13.8,21.8-31.8,38.9-53.5,51c-25.1,14-55.2,21.1-89.6,21.1H404.7c53.8,6.4,95.6,52.4,95.6,107.9
			C500.4,879.8,451.6,928.5,391.7,928.5z M391.7,769.8c-27.6,0-50.1,22.5-50.1,50.1c0,27.6,22.5,50.1,50.1,50.1
			c27.5,0,50-22.5,50.1-50.1C441.8,792.2,419.4,769.8,391.7,769.8z"/>
	</g>
</g>
</svg>
