<?xml version="1.0" encoding="utf-8"?>
<!-- Generator: Adobe Illustrator 24.1.2, SVG Export Plug-In . SVG Version: 6.00 Build 0)  -->
<svg version="1.1" id="图层_1" xmlns="http://www.w3.org/2000/svg" xmlns:xlink="http://www.w3.org/1999/xlink" x="0px" y="0px"
	 viewBox="0 0 1024 1024" style="enable-background:new 0 0 1024 1024;" xml:space="preserve">
<style type="text/css">
	.st0{fill:url(#SVGID_1_);}
</style>
<linearGradient id="SVGID_1_" gradientUnits="userSpaceOnUse" x1="64.4297" y1="512" x2="959.2841" y2="512">
	<stop  offset="0" style="stop-color:#0056F7"/>
	<stop  offset="0.1657" style="stop-color:#0260F7"/>
	<stop  offset="0.447" style="stop-color:#067BF7"/>
	<stop  offset="0.8075" style="stop-color:#0DA6F7"/>
	<stop  offset="1" style="stop-color:#11C0F7"/>
</linearGradient>
<path class="st0" d="M959.2,581.1V293.9c0-12-7.3-22.7-18.3-27.2C938.3,265.6,675.6,159,596.3,125c-84.4-36.2-148.7-9.8-161.3-3.8
	L121.8,239.6c-6.1,2.3-32.6,9.4-40.4,14.5c-8,5.3-12.9,14.2-13.1,23.8c0,1.8-3.8,178.3-3.8,311.3c0,135.6,81.2,145.2,109,162.8
	l321.3,162.5c0.1,0.1,0.2,0.1,0.3,0.1c1.8,0.9,3.7,1.6,5.7,2.1c0.4,0.1,0.8,0.2,1.1,0.2c2,0.4,4,0.7,6.1,0.7c2.4,0,4.8-0.4,7.1-1
	c0.7-0.2,1.4-0.4,2.1-0.7c0.9-0.3,1.8-0.5,2.6-0.8c11.5-5,282.3-123.9,355.7-166.4C960.2,699.8,959.5,591.7,959.2,581.1z M457,175.7
	c1-0.4,2.2-0.9,3.1-1.4c1.9-1,47.5-23.3,112.9,4.8c48.2,20.7,163.1,67.7,247.3,102.1l-91.2,37l-124.3-58.5
	c-14.7-6.9-32.2-0.6-39.1,14.1c-6.9,14.7-0.6,32.2,14.1,39.1l75.2,35.4L507.8,408L181.4,279.9L457,175.7z M123.2,589.2
	c0-92.9,1.9-207.3,3-267.8l352.4,138.3v380.8L195.3,697.2C195.1,697.5,119.7,667.8,123.2,589.2z M846.1,698
	c-54,31.3-228.4,109.6-308.7,145.2V459.4l156-63.3V501c0,16.2,13.2,29.4,29.4,29.4c16.2,0,29.4-13.2,29.4-29.4V372.3l146.3-59.4
	c0.7,0.3,1.4,0.6,2,0.8v267.8c0,0.3,0,0.7,0,1C900.5,583.4,902.4,665.4,846.1,698z"/>
</svg>
