<?xml version="1.0" encoding="utf-8"?>
<!-- Generator: Adobe Illustrator 24.1.2, SVG Export Plug-In . SVG Version: 6.00 Build 0)  -->
<svg version="1.1" id="图层_1" xmlns="http://www.w3.org/2000/svg" xmlns:xlink="http://www.w3.org/1999/xlink" x="0px" y="0px"
	 viewBox="0 0 1024 1024" style="enable-background:new 0 0 1024 1024;" xml:space="preserve">
<style type="text/css">
	.st0{fill:url(#SVGID_1_);}
	.st1{fill:url(#SVGID_2_);}
</style>
<g>
	<g>
		<linearGradient id="SVGID_1_" gradientUnits="userSpaceOnUse" x1="98.2652" y1="557.2111" x2="926.1464" y2="557.2111">
			<stop  offset="0" style="stop-color:#0056F7"/>
			<stop  offset="0.1657" style="stop-color:#0260F7"/>
			<stop  offset="0.447" style="stop-color:#067BF7"/>
			<stop  offset="0.8075" style="stop-color:#0DA6F7"/>
			<stop  offset="1" style="stop-color:#11C0F7"/>
		</linearGradient>
		<path class="st0" d="M831.5,913.2H190.1c-64.1,0-90-50.5-91.8-84.5c0-0.6,0-1.1,0-1.7V301.5c0-61.4,44.5-91.5,68-98.8
			c3.1-1,6.4-1.5,9.7-1.5h158.2c17.9,0,32.5,14.5,32.5,32.5s-14.5,32.5-32.5,32.5H182.3c-6.9,3.6-19.1,13.1-19.1,35.3v524.3
			c1.5,14.7,10.5,22.4,26.8,22.4h639.5c10.1-1.4,31.6-7.3,31.6-32.5V569.9c0-17.9,14.5-32.5,32.5-32.5c17.9,0,32.5,14.5,32.5,32.5
			v245.8c0,70.4-60,94.5-91.7,97.3C833.5,913.2,832.5,913.2,831.5,913.2z"/>
	</g>
	<g>
		<linearGradient id="SVGID_2_" gradientUnits="userSpaceOnUse" x1="341.9639" y1="333.9906" x2="924.0347" y2="333.9906">
			<stop  offset="0" style="stop-color:#0056F7"/>
			<stop  offset="0.1657" style="stop-color:#0260F7"/>
			<stop  offset="0.447" style="stop-color:#067BF7"/>
			<stop  offset="0.8075" style="stop-color:#0DA6F7"/>
			<stop  offset="1" style="stop-color:#11C0F7"/>
		</linearGradient>
		<path class="st1" d="M374.5,557.2c-5.9,0-11.9-1.6-17.2-5c-12.9-8.1-18.5-24.1-13.4-38.4c4.3-12.1,102.8-283.2,297.9-315.3
			c0.1-13.8,0.5-32,1.1-56.1c0.3-12.4,7.6-23.5,18.8-28.7c11.2-5.2,24.4-3.6,34,4.1l216.2,173.8c7.5,6.1,12,15.2,12.1,24.8
			c0.1,9.7-4,18.9-11.4,25.2L707.1,517.6c-9.6,8.2-23.2,10.1-34.7,4.8c-11.5-5.3-18.9-16.8-18.9-29.5v-65.4
			c-53.4,5.4-165.2,27.9-255.9,120C391.3,553.9,382.9,557.2,374.5,557.2z M681.8,360.8c2.9,0,4.7,0.1,5.3,0.1
			c17.5,0.6,31.3,15,31.3,32.5v29l122.2-104.5L706.9,210.3c0,4.7,0.1,8.4,0.2,10.7c0.5,2.1,0.7,4.3,0.8,6.6
			c0.2,17.8-14,32.5-31.8,32.8c-94.4,2-166.4,83.7-212.4,157.5C564.2,364.4,658.4,360.8,681.8,360.8z M675.4,195.5
			c4.8,0,9.3,1,13.4,2.9C684.9,196.6,680.4,195.5,675.4,195.5z"/>
	</g>
</g>
</svg>
