<svg width="18" height="18" viewBox="0 0 18 18" fill="none" xmlns="http://www.w3.org/2000/svg">
<circle cx="9" cy="9" r="9" fill="white"/>
<mask id="mask0_1572_701" style="mask-type:alpha" maskUnits="userSpaceOnUse" x="0" y="0" width="18" height="18">
<path d="M9 18C13.9706 18 18 13.9706 18 9C18 4.02944 13.9706 0 9 0C4.02944 0 0 4.02944 0 9C0 13.9706 4.02944 18 9 18Z" fill="#F0F0F0"/>
</mask>
<g mask="url(#mask0_1572_701)">
<path d="M0.417112 14.0972C0.298203 14.0165 0.264549 13.8774 0.199485 13.763C-0.141538 13.1594 -0.397305 12.5178 -0.596983 11.8537C-0.917814 10.7925 -1.04121 9.70658 -1.00307 8.6005C-0.951467 7.17358 -0.60147 5.82071 0.0289739 4.54187C0.192755 4.20758 0.376728 3.88451 0.58538 3.57714C0.668392 3.52329 0.762622 3.539 0.854609 3.539H17.1385C17.226 3.539 17.3135 3.52554 17.3942 3.57489C17.7038 4.01463 17.9461 4.49251 18.1615 4.9861C18.8481 6.5566 19.1106 8.19665 18.958 9.90401C18.8862 10.7117 18.7247 11.5014 18.4554 12.2665C18.2445 12.8655 17.9888 13.4444 17.6635 13.9896C17.6388 14.0299 17.6231 14.0793 17.5715 14.0972" fill="#FDC200"/>
<path d="M17.4614 14.1064C17.5041 14.1064 17.5489 14.102 17.5916 14.102C17.5826 14.2411 17.4794 14.3353 17.4098 14.4407C16.4945 15.8452 15.3054 16.9558 13.8381 17.7635C12.8128 18.3288 11.7224 18.7013 10.5625 18.8785C9.24996 19.0804 7.94645 19.0333 6.65864 18.7237C5.34615 18.4096 4.14583 17.8442 3.05995 17.0365C2.08399 16.3119 1.26733 15.4369 0.603234 14.4183C0.53817 14.3196 0.452915 14.2276 0.439453 14.102L17.4614 14.1064ZM0.65708 3.50332C1.19105 2.68218 1.83944 1.96199 2.5888 1.33155C3.34264 0.698858 4.17051 0.187324 5.07467 -0.198571C5.85768 -0.532863 6.66761 -0.766194 7.51119 -0.889591C8.30766 -1.00626 9.11311 -1.03094 9.91406 -0.961385C11.0717 -0.860424 12.1801 -0.564273 13.2323 -0.0751742C14.4304 0.483475 15.4781 1.24853 16.3711 2.22224C16.7435 2.62833 17.0935 3.05461 17.3829 3.52576C17.3134 3.57287 17.2326 3.55268 17.1563 3.55268C12.4628 3.55493 7.76696 3.55268 3.07341 3.55268C2.32181 3.55268 1.57246 3.55268 0.82086 3.55044C0.764771 3.55493 0.68849 3.58858 0.65708 3.50332Z" fill="#C40B1E"/>
<path d="M8.68257 10.4561C8.64892 10.2407 8.69155 10.0276 8.70501 9.81445C8.70725 9.79874 8.7095 9.78304 8.71398 9.76733C8.75661 9.68656 8.82616 9.62374 8.88001 9.54971C9.02808 9.44201 9.18289 9.35003 9.37584 9.359C9.40949 9.36125 9.43866 9.34105 9.47007 9.32983C9.7909 9.41509 9.9816 9.6215 10.0444 9.94682C10.0556 10.0074 10.0624 10.0747 10.1342 10.1016C10.4662 10.1308 10.8005 10.1106 11.1326 10.1128C11.505 10.1151 11.4422 10.1398 11.4444 10.418C11.4467 10.6894 11.4332 10.9587 11.4489 11.2301C11.4691 11.5981 11.4085 11.9391 11.1842 12.2397C11.1774 12.2465 11.1685 12.2487 11.1595 12.2487C11.0092 12.3407 10.8633 12.4372 10.6928 12.4865L10.6951 12.4843C10.5582 12.5561 10.4101 12.5157 10.2665 12.5224C10.2082 12.5247 10.1499 12.5224 10.0938 12.5224C9.90532 12.5359 9.78193 12.4103 9.64507 12.3115C9.62712 12.2981 9.61366 12.2824 9.59795 12.2667C9.55084 12.1971 9.49475 12.1388 9.44315 12.0737C9.38481 11.984 9.03033 12.3071 8.97648 12.2151C8.9361 12.0244 8.9518 11.7103 8.93834 11.5173C8.93385 11.459 8.91815 10.7612 8.90918 10.7051" fill="#AA1619"/>
<path d="M10.0771 10.1306C10.0165 10.1037 10.0322 10.0453 10.0187 9.99599C9.9604 9.73797 9.87066 9.50464 9.579 9.4306C9.53637 9.41939 9.5274 9.34086 9.46458 9.379C9.3681 9.37452 9.31201 9.33638 9.31201 9.23093C9.31201 8.80689 9.30753 8.38286 9.31426 7.95882C9.31426 7.93414 9.32099 7.91171 9.32996 7.88927C9.37708 7.80626 9.4556 7.7928 9.54086 7.79055C10.1242 7.77485 10.7098 7.81523 11.2931 7.80177C11.421 7.79953 11.4389 7.87356 11.4456 7.97901C11.4636 8.36491 11.4524 8.7508 11.4614 9.1367C11.5152 9.31843 11.5017 9.49791 11.4456 9.67515V9.67291C11.4838 9.80304 11.4322 9.93092 11.4412 10.0588C11.4456 10.1194 11.4053 10.1396 11.3469 10.1373C10.9229 10.1328 10.4989 10.153 10.0771 10.1306Z" fill="#DADADA"/>
<path d="M10.6481 7.47909C10.5988 7.52396 10.7177 7.6137 10.7311 7.66082C10.7805 7.82909 10.5113 7.7528 10.426 7.78646C10.4013 7.79543 10.9331 7.76627 10.9084 7.79095C11.1799 7.79095 10.9757 7.77524 11.2472 7.77524C11.4715 7.77524 11.4715 7.77524 11.4715 8.00633L11.4783 9.13709C11.467 9.14831 11.4558 9.14831 11.4446 9.13709C11.4379 8.75119 11.4244 8.3653 11.4244 7.97941C11.4244 7.86274 11.384 7.82909 11.2741 7.82909C10.6908 7.83133 8.29911 7.83357 7.91995 7.82909C7.63726 7.71691 7.95584 7.40281 7.88405 7.47909H10.6481Z" fill="#9F8604"/>
<path d="M9.16205 5.5271C9.19346 5.51812 9.22487 5.51812 9.25852 5.52037C9.35275 5.51364 9.43801 5.55626 9.52775 5.57646C9.63768 5.53832 9.74762 5.51139 9.86428 5.49793C10.0931 5.46876 10.2502 5.6146 10.4319 5.70658C10.4543 5.7178 10.4521 5.75819 10.497 5.74697C10.7438 5.68415 10.9793 5.7178 11.2037 5.83447C11.4236 5.94889 11.5559 6.17773 11.538 6.37068C11.5402 6.61972 11.0624 7.26587 10.6495 7.48125H7.88321C7.6768 7.45657 6.76367 6.32132 7.01943 5.9444" fill="#9F8604"/>
<path d="M7.00195 5.96694C7.20836 5.52047 8.01156 5.72015 8.07438 5.72463C8.15964 5.73136 8.23816 5.60348 8.29425 5.53617C8.29425 5.53617 8.51861 5.38585 8.65547 5.4756C8.81252 5.5429 9.00771 5.60124 9.16476 5.5272" fill="#9F8604"/>
<path d="M12.1375 9.55003C12.1039 9.53657 12.0837 9.48496 12.0388 9.50291C11.893 9.56349 11.7359 9.54105 11.5834 9.57022C11.5093 9.58368 11.4734 9.61958 11.4443 9.67567C11.4286 9.49618 11.4263 9.3167 11.4443 9.13497H11.4779C11.6776 9.12375 11.8773 9.11029 12.077 9.09907C12.0994 9.08785 12.1196 9.07663 12.1465 9.07215C12.2116 9.06541 12.2766 9.06766 12.3395 9.07888C12.4898 9.12599 12.6536 9.06542 12.8016 9.13497C12.9071 9.2449 13.0619 9.26509 13.183 9.34811C13.284 9.41541 13.3244 9.48496 13.2773 9.60163C13.2593 9.64201 13.2503 9.68464 13.2391 9.72503C13.1808 9.92695 13.0574 10.0459 12.8375 10.0414" fill="#AB2C17"/>
<path d="M12.8225 10.4067C12.8629 10.4224 12.9056 10.4358 12.9437 10.4515C13.2937 10.6018 13.2511 10.6871 13.1725 11.0057C13.1479 11.1044 13.0177 11.1179 12.9953 11.2233C12.9931 11.2368 12.9527 11.2143 12.9414 11.1919C12.91 11.1313 12.8809 11.064 12.9235 10.999C12.9886 10.8958 12.9392 10.8442 12.8472 10.806C12.8338 10.8127 12.8203 10.815 12.8068 10.815C12.7216 10.7858 12.6363 10.7567 12.5488 10.7297C12.4344 10.6826 12.3222 10.631 12.2056 10.5861C12.1293 10.5727 12.1181 10.4852 12.0575 10.4515C12.0283 10.4336 11.9991 10.4179 11.9722 10.3977C11.7995 10.2676 11.7501 10.0454 11.8645 9.86595C11.8937 9.82108 11.9453 9.7807 12.0081 9.77845C12.0597 9.77845 12.1024 9.76051 12.1382 9.72461" fill="#AB1719"/>
<path d="M6.74976 10.3511C6.66001 10.3937 6.26066 10.6719 6.16643 10.7056C6.08342 10.7482 5.99143 10.7684 5.90842 10.8088C5.87701 10.8245 5.84335 10.8155 5.8097 10.8132C5.72444 10.8581 5.73342 10.9277 5.76034 10.9995C5.78502 11.0668 5.79848 11.1386 5.72669 11.1812C5.65041 11.2283 5.49784 10.9187 5.45073 10.8828C5.29144 10.7594 5.57861 10.4543 5.76034 10.36C5.99592 10.194 6.50296 9.77671 6.55905 9.73633" fill="#AA1819"/>
<path d="M6.54883 9.70239C6.65203 9.72258 6.82703 9.82355 6.84274 9.94245C6.86293 10.0928 6.93023 10.2566 6.73729 10.3598" fill="#AA1819"/>
<path d="M7.23837 9.47775C6.58101 9.27134 6.04255 10.0431 5.8855 10.0431C5.6746 10.0117 5.28871 9.71781 5.32461 9.5114C5.3448 9.39923 5.75537 9.21076 5.85184 9.16589C5.88774 9.11205 7.11722 9.03801 7.23837 9.13" fill="#A9231A"/>
<path d="M6.76624 12.1862C6.73932 12.2199 6.70342 12.2289 6.66304 12.2289C6.3624 12.2356 6.064 12.2356 5.76336 12.2289C5.72298 12.2266 5.68708 12.2199 5.66016 12.1862C5.6781 12.0068 5.79028 11.8632 5.83964 11.6949C5.85759 11.6792 5.88003 11.6613 5.90246 11.6657C6.12458 11.7084 6.34669 11.6635 6.5688 11.6657C6.6047 11.6971 6.62714 11.7824 6.62714 11.7824" fill="#B9A303"/>
<path d="M7.4668 12.1906C7.51167 12.1457 7.49148 12.0896 7.49148 12.0402C7.49372 11.4995 7.49148 10.9588 7.49148 10.4204C7.49148 10.3822 7.48923 10.3419 7.49372 10.3037C7.50045 10.2454 7.51391 10.1803 7.57673 10.1646C7.65526 10.1444 7.6216 10.2319 7.6575 10.2588C7.66872 10.2678 7.68442 10.2678 7.69789 10.2723C7.74051 10.3149 7.73603 10.371 7.73603 10.4226C7.73827 11.0082 7.73827 11.5938 7.73378 12.1793C7.73378 12.2511 7.76744 12.379 7.60814 12.3364L7.4668 12.1906Z" fill="#A31518"/>
<path d="M9.64682 12.2734C9.78592 12.3317 9.86669 12.5 10.0439 12.4821C10.1449 12.5247 10.2548 12.5045 10.3558 12.5337C10.4029 12.5471 10.4792 12.5628 10.3894 12.6279C10.2257 12.6391 10.0776 12.7131 9.91829 12.7423C9.43368 12.8433 8.9558 12.8119 8.4824 12.6817H8.48465C8.44651 12.6503 8.3949 12.6615 8.35228 12.6436C8.30516 12.6234 8.25805 12.5965 8.27824 12.5292C8.30067 12.509 8.49586 12.518 8.52503 12.5157C8.58785 12.5112 8.7965 12.4215 8.85708 12.4035C8.884 12.3968 9.26317 12.1276 9.35291 11.8965" fill="#CECECB"/>
<path d="M12.8034 10.7993L12.846 10.8038C12.8483 11.1314 12.8101 11.4589 12.8685 11.7842C12.8797 11.8403 12.9021 11.8807 12.9313 11.9256C12.9178 12.0063 12.8483 11.9974 12.7944 11.9996C12.5723 12.0063 12.3502 12.0086 12.1281 11.9974C12.0697 11.9951 11.9822 12.0063 11.9979 11.8964C12.0944 11.8179 12.072 11.6967 12.0765 11.6025C12.0922 11.2458 12.0832 10.8868 12.0832 10.5278C12.0832 10.5009 12.0653 10.474 12.0563 10.4471C12.1281 10.4448 12.1371 10.5301 12.1954 10.5458C12.1819 10.8442 12.1887 11.1448 12.1887 11.4432C12.1887 11.607 12.2021 11.616 12.3592 11.6205C12.431 11.6227 12.5028 11.6182 12.5768 11.6227C12.7653 11.6115 12.7675 11.6115 12.7675 11.423C12.7697 11.2705 12.7675 11.1179 12.7675 10.9631C12.7697 10.907 12.763 10.8487 12.8034 10.7993Z" fill="#A8920A"/>
<path d="M7.29195 10.1579C7.4288 10.131 7.4647 10.1915 7.46246 10.3239C7.45573 10.8242 7.45797 11.3268 7.46021 11.8271C7.46021 11.9348 7.45573 12.0358 7.40637 12.1322C7.31214 12.0829 7.29868 11.9819 7.26502 11.8967C7.27624 11.8809 7.28746 11.863 7.28297 11.8428C7.19098 11.3223 7.274 10.7995 7.24707 10.2768C7.24707 10.2319 7.25829 10.1915 7.29195 10.1579Z" fill="#B8A100"/>
<path d="M5.89143 7.82682C5.90489 7.70118 5.75457 7.67201 5.73438 7.56656C5.80168 7.52394 5.88918 7.57329 5.95424 7.51945C6.14719 7.54188 6.12027 7.38483 6.15392 7.27714V7.2749C6.20777 7.24349 6.23245 7.2749 6.2504 7.31977C6.30873 7.47009 6.30873 7.47009 6.42091 7.35567L6.56001 7.37137C6.52636 7.45439 6.50841 7.52842 6.6318 7.55086C6.64975 7.5531 6.66097 7.57329 6.64975 7.59573L6.56225 7.71464C6.46802 7.86047 6.61834 7.82682 6.67443 7.86496L6.67668 7.91656C6.66097 7.94573 6.63853 7.95919 6.60488 7.95246C6.39399 7.91207 6.18085 7.939 5.96771 7.93002C5.90713 7.92778 5.84431 7.93002 5.79944 7.88066C5.82187 7.83131 5.87123 7.85598 5.89143 7.82682Z" fill="#6D5703"/>
<path d="M12.4329 10.2431C12.1592 10.1444 12.1592 10.1444 12.1457 9.86842C12.1435 9.8213 12.139 9.77419 12.1367 9.72483C12.1367 9.6665 12.139 9.60817 12.139 9.54759C12.1726 9.5072 12.204 9.46682 12.2601 9.51618C12.3229 9.5431 12.3835 9.56329 12.4531 9.55881C12.5518 9.55432 12.6079 9.60817 12.6168 9.7024C12.6303 9.85047 12.6303 10.0008 12.6168 10.1489C12.6056 10.2767 12.5293 10.2812 12.4329 10.2431Z" fill="#D9D8D8"/>
<path d="M12.1443 9.10094L12.077 9.0987C12.0882 8.89454 12.1151 8.68813 12.1062 8.48396C12.1017 8.36281 12.1062 8.2282 12.0254 8.1205C12.0366 8.04647 12.0994 8.05095 12.1488 8.04871C12.3507 8.03974 12.5526 8.03974 12.7546 8.05095C12.8084 8.0532 12.8937 8.04647 12.869 8.14967C12.8062 8.1923 12.8622 8.23717 12.8622 8.28204C12.8622 8.33589 12.851 8.39422 12.8151 8.44133C12.6671 8.42339 12.5212 8.41666 12.3731 8.42563C12.1981 8.43685 12.1892 8.44358 12.1869 8.62082C12.1847 8.73076 12.1892 8.84293 12.1847 8.95287C12.1847 9.00447 12.1869 9.06056 12.1443 9.10094Z" fill="#A38F09"/>
<path d="M12.8706 8.14983C12.8684 8.10945 12.846 8.0915 12.8056 8.0915C12.5633 8.0915 12.3187 8.0915 12.0764 8.09374C12.0607 8.09374 12.045 8.11169 12.0293 8.12066C11.9373 8.07804 11.9261 7.99727 11.9508 7.9165C11.9799 7.8133 12.0742 7.83124 12.1527 7.829C12.2424 7.78413 12.3277 7.84246 12.4197 7.83349C12.5565 7.82003 12.6912 7.8133 12.8123 7.73926C12.819 7.77067 12.8123 7.80432 12.8504 7.82451C12.9963 7.90977 13.003 8.03316 12.8706 8.14983Z" fill="#C1A900"/>
<path d="M12.001 11.8989C12.0055 11.9371 12.0279 11.9573 12.0683 11.9573C12.3398 11.9573 12.6135 11.9573 12.885 11.955C12.9007 11.955 12.9164 11.9371 12.9321 11.9281C12.9814 12.0089 12.9455 12.1166 13.0196 12.1906C12.9927 12.222 12.9545 12.231 12.9141 12.2332C12.6247 12.2399 12.3331 12.2422 12.0436 12.231C12.0032 12.2287 11.9651 12.222 11.9404 12.1883C11.9651 12.0919 11.8933 11.9752 12.001 11.8989Z" fill="#C1AB01"/>
<path d="M6.63315 8.04199C6.59276 8.15641 6.6152 8.39199 6.56135 8.50417C6.4559 8.4234 6.33251 8.4234 6.20687 8.42115C6.09245 8.41891 5.97354 8.45481 5.86809 8.3875C5.78283 8.32692 5.84565 8.11603 5.80078 8.04424" fill="#A48F08"/>
<path d="M5.85352 9.16612L5.86698 8.38536C6.06441 8.38312 6.2596 8.38312 6.45704 8.37639C6.558 8.3719 6.52883 8.4594 6.56248 8.50203C6.56248 8.56709 6.56024 8.6344 6.56024 8.69946C6.53556 8.78696 6.54678 8.8767 6.55575 8.96644C6.56024 9.01356 6.57146 9.06067 6.53781 9.1033L5.85352 9.16612Z" fill="#B7B2AB"/>
<path d="M6.62103 8.14978C6.6143 8.10042 6.58289 8.0892 6.53802 8.0892H5.88514C5.84027 8.0892 5.80886 8.10042 5.80213 8.14978C5.7079 8.09594 5.66078 8.01741 5.69444 7.90972C5.7236 7.81549 5.8111 7.82671 5.88738 7.82446L5.82681 7.87606C6.11399 7.90299 6.39668 7.85587 6.67488 7.91196C6.71975 8.00844 6.69283 8.08472 6.62103 8.14978Z" fill="#BDA600"/>
<path d="M12.4325 10.243C12.5425 10.2587 12.5896 10.2183 12.5806 10.0994C12.5716 9.98049 12.5761 9.85933 12.5784 9.73818C12.5806 9.62376 12.5357 9.56543 12.4168 9.57216C12.3585 9.5744 12.3001 9.56767 12.2598 9.51831L12.6703 9.56094C12.6883 9.55196 12.7062 9.55645 12.7219 9.56767C12.8767 9.6978 12.7937 9.88401 12.8386 10.0411C12.8072 10.16 12.8139 10.2834 12.8207 10.4045C12.6771 10.3843 12.5626 10.2946 12.4325 10.243Z" fill="#BEB7B1"/>
<path d="M12.3774 8.38555C12.4873 8.38555 12.5995 8.38555 12.7095 8.38107C12.7588 8.37882 12.7947 8.39453 12.8149 8.4394L12.8037 9.13266C12.6489 9.1551 12.4941 9.14164 12.3438 9.10799C12.5345 9.05863 12.5591 8.91953 12.5412 8.7535C12.5367 8.71087 12.5367 8.666 12.5412 8.62337C12.5479 8.52914 12.5345 8.45062 12.42 8.43267C12.3931 8.43267 12.3752 8.41472 12.3774 8.38555Z" fill="#C3C3C0"/>
<path d="M11.8477 12.5493C11.7826 12.4282 11.7961 12.3945 11.9083 12.3496C12.0474 12.2935 12.1842 12.2891 12.3301 12.3339C12.4355 12.3676 12.5499 12.3631 12.6554 12.3205C12.8035 12.2621 13.0121 12.3227 13.0906 12.4326C13.1108 12.4641 13.1086 12.4977 13.1019 12.5314" fill="#1C5DA4"/>
<path d="M12.8069 7.73918C12.6117 7.94784 12.3783 7.87829 12.1495 7.82893C12.145 7.75489 12.1069 7.70104 12.0508 7.65842C12.2527 7.53278 12.4771 7.54175 12.7014 7.56867C12.7553 7.5754 12.8091 7.60681 12.8428 7.65842L12.8069 7.73918Z" fill="#685303"/>
<path d="M13.1006 12.6009C13.1118 12.6996 13.1073 12.7692 12.9727 12.7109C12.8493 12.657 12.717 12.6682 12.5913 12.7109C12.515 12.7355 12.441 12.7512 12.367 12.7198C12.2211 12.6593 12.0753 12.6593 11.9295 12.7131C11.8734 12.7333 11.824 12.7468 11.8105 12.666C11.8128 12.6346 11.8038 12.5987 11.8375 12.5785C12.0035 12.5179 12.174 12.4955 12.3445 12.5538C12.4455 12.5875 12.5487 12.5695 12.6429 12.5403C12.8089 12.491 12.9548 12.5291 13.1006 12.6009Z" fill="#27639F"/>
<path d="M6.81656 12.2129C6.88387 12.3655 6.87265 12.5472 6.86143 12.7357C6.72681 12.6886 6.46656 12.6594 6.3297 12.7155C6.24893 12.7491 6.17265 12.7379 6.08964 12.7132C5.95054 12.6706 5.76881 12.6616 5.62522 12.7132C5.4749 12.7334 5.58259 12.2466 5.57811 12.1882" fill="#2C6498"/>
<path d="M12.3418 7.59805C12.2408 7.59805 12.16 7.69004 12.0524 7.65863C12.0254 7.64966 12.0052 7.62498 11.9985 7.59805C11.9918 7.47915 12.0591 7.3894 12.1802 7.40511C12.3799 7.42979 12.5774 7.39613 12.7748 7.4253C12.8376 7.43427 12.9049 7.44549 12.9318 7.5128C12.961 7.59132 12.8847 7.61825 12.8443 7.66087L12.8421 7.65863L12.3418 7.59805Z" fill="#7E2F0E"/>
<path d="M12.8461 7.66056C12.9493 7.51024 12.9291 7.46088 12.7429 7.45639C12.6599 7.45415 12.5634 7.39357 12.4893 7.48556C12.4153 7.41825 12.3211 7.46088 12.2358 7.44069C12.1214 7.41152 12.0249 7.48107 12.0002 7.59774C11.9531 7.4721 11.9913 7.40255 12.1034 7.35992C12.2134 7.31953 12.348 7.34197 12.431 7.23203C12.449 7.20735 12.4849 7.2096 12.5095 7.23652C12.5903 7.32851 12.7025 7.35319 12.8147 7.3644C12.8909 7.37114 12.9493 7.39357 12.956 7.47883C12.9627 7.56184 12.965 7.6471 12.8461 7.66056Z" fill="#986C02"/>
<path d="M11.8295 12.5985L11.8093 12.6658C11.8004 12.52 11.7891 12.3764 11.8138 12.2328C11.8228 12.2373 11.834 12.244 11.8407 12.2418C12.1257 12.1632 12.4106 12.318 12.6978 12.2283C12.8346 12.1857 12.976 12.2238 13.0971 12.3068C13.1106 12.3494 13.1061 12.3921 13.0882 12.4325C12.9311 12.3786 12.7898 12.2687 12.6058 12.3809C12.5183 12.4325 12.3949 12.4212 12.2962 12.3696C12.1369 12.2844 11.9955 12.3651 11.8542 12.4078C11.7959 12.4257 11.8093 12.493 11.852 12.5357C11.8699 12.5671 11.8407 12.5805 11.8295 12.5985Z" fill="#AFB2B6"/>
<path d="M6.86818 12.5942C6.80985 12.6032 6.756 12.5919 6.69991 12.5785C6.57876 12.5516 6.45312 12.5381 6.33645 12.5964C6.28261 12.6211 6.22652 12.6301 6.16818 12.6144C6.00665 12.565 5.84287 12.5403 5.67684 12.6009C5.64768 12.6121 5.60954 12.5987 5.57812 12.5964V12.5359C5.76659 12.4551 5.9528 12.4147 6.1435 12.5291C6.18613 12.5538 6.24447 12.5538 6.28261 12.5291C6.45761 12.4237 6.63036 12.4528 6.80536 12.5224C6.83453 12.5336 6.85023 12.5157 6.86594 12.5022C6.86818 12.5314 6.86818 12.5628 6.86818 12.5942Z" fill="#A4B2C1"/>
<path d="M9.62736 5.53633C9.60716 5.53633 9.54883 5.57672 9.52864 5.57672C9.48377 5.57447 9.47031 5.53858 9.42543 5.53633C9.41197 5.53409 9.34915 5.54082 9.33794 5.53633C9.30877 5.52512 9.14499 5.53633 9.12031 5.5139C9.11358 5.50268 9.13826 5.36582 9.13601 5.35236C9.14723 5.29627 9.24146 5.25364 9.20781 5.20877C9.25044 5.16166 9.21903 5.11903 9.19883 5.0764C9.15845 4.9889 9.17415 4.91711 9.26165 4.86775C9.31774 4.83634 9.3671 4.82063 9.40973 4.89018C9.45236 4.95974 9.55108 5.01582 9.43217 5.10332C9.38954 5.13473 9.42095 5.17287 9.44338 5.20428C9.44114 5.24467 9.403 5.28954 9.44787 5.32544C9.47704 5.34787 9.50172 5.31871 9.52415 5.303C9.56229 5.38601 9.51966 5.47576 9.62736 5.53633Z" fill="#B79401"/>
<path d="M13.0959 12.3092C13.0398 12.3025 12.9838 12.3069 12.9277 12.2778C12.8424 12.2329 12.7527 12.2396 12.6629 12.2778C12.5507 12.3271 12.4251 12.3294 12.3107 12.2868C12.1761 12.2396 12.0482 12.2262 11.9225 12.3002C11.8418 12.3473 11.8104 12.3182 11.8126 12.2329C11.8418 12.188 11.8934 12.1925 11.9383 12.1858L13.0174 12.188C13.0914 12.197 13.1296 12.2284 13.0959 12.3092Z" fill="#1F5E9B"/>
<path d="M5.57675 12.3029C5.76521 12.2648 5.94919 12.2199 6.14213 12.3007C6.22066 12.3321 6.32162 12.3141 6.41136 12.2805C6.48316 12.2558 6.56168 12.2311 6.63796 12.2603C6.68956 12.2805 6.77706 12.3007 6.75687 12.3613C6.72995 12.4398 6.67162 12.3635 6.62899 12.35C6.57739 12.3321 6.51905 12.3186 6.47194 12.3411C6.30367 12.4218 6.14438 12.4084 5.97387 12.3433C5.90431 12.3164 5.81457 12.3119 5.73829 12.368C5.69118 12.4039 5.63284 12.4106 5.57227 12.3994L5.57675 12.3029Z" fill="#ABB4BE"/>
<path d="M11.8301 12.5987C11.8391 12.5785 11.8458 12.5583 11.8548 12.5358C11.9894 12.464 12.1262 12.4573 12.2721 12.4977C12.3775 12.5269 12.4852 12.5583 12.5951 12.5067C12.7679 12.4282 12.9339 12.5022 13.1022 12.5314L13.1044 12.5987C12.6781 12.5628 12.2541 12.5583 11.8301 12.5987Z" fill="#A8B7C6"/>
<path d="M6.70626 9.33451C6.56043 9.2515 6.66587 9.20887 6.73094 9.15502C6.7444 9.14381 6.75337 9.12362 6.76459 9.10791L6.85433 9.11015C6.82292 9.21784 6.87004 9.32554 6.85658 9.43547" fill="#B7610D"/>
<path d="M6.52958 9.54522C6.54977 9.60579 6.52509 9.67534 6.55875 9.73368V9.73592C6.55202 9.83913 6.52061 9.94233 6.54753 10.0478C6.56324 10.1084 6.52061 10.1196 6.47349 10.1263C6.4017 10.1285 6.38151 10.0769 6.37702 10.0231C6.3658 9.89297 6.36131 9.76285 6.37926 9.63496C6.39272 9.55644 6.43311 9.4981 6.52958 9.54522Z" fill="#CFCBC8"/>
<path d="M6.15315 7.27713C6.1554 7.29956 6.15315 7.32424 6.15764 7.34668C6.18681 7.5127 6.1352 7.5643 5.95572 7.53738C5.90187 7.497 5.86822 7.44091 5.83008 7.3893C5.91533 7.29283 6.05668 7.34668 6.15315 7.27713ZM6.42014 7.35565C6.3977 7.42071 6.39546 7.51494 6.29899 7.49924C6.22495 7.48802 6.20027 7.41847 6.2227 7.34219C6.23841 7.2861 6.19354 7.28161 6.1554 7.27488C6.15315 7.23001 6.14867 7.18065 6.207 7.17168C6.24514 7.16495 6.26533 7.20309 6.27206 7.23674C6.28552 7.322 6.39322 7.28834 6.42014 7.35565Z" fill="#945409"/>
<path d="M5.73366 7.5664C5.70674 7.47442 5.74039 7.41608 5.82789 7.38916C5.91539 7.40038 5.93558 7.46769 5.95353 7.53724L5.73366 7.5664Z" fill="#9E2D11"/>
<path d="M6.65062 7.59794C6.63491 7.58897 6.62145 7.57326 6.6035 7.57102C6.55414 7.56429 6.49581 7.57326 6.48011 7.50371C6.46216 7.43192 6.516 7.40499 6.56087 7.37134C6.65286 7.42294 6.73587 7.47679 6.65062 7.59794Z" fill="#9D400E"/>
<path d="M9.52582 5.30253C9.52358 5.34067 9.52807 5.3833 9.47198 5.38554C9.42935 5.38554 9.3957 5.36984 9.38448 5.32721C9.37326 5.27336 9.37102 5.21952 9.44281 5.20605C9.46974 5.23746 9.4989 5.26888 9.52582 5.30253ZM9.20724 5.2083C9.33512 5.21503 9.30371 5.28458 9.26557 5.35862C9.20724 5.40125 9.15788 5.39003 9.11974 5.33169C9.11301 5.26439 9.16461 5.23971 9.20724 5.2083Z" fill="#7C7F43"/>
<path d="M6.67514 7.86467C6.61681 7.86243 6.56072 7.85794 6.50014 7.8557C6.4979 7.79288 6.52258 7.75025 6.56296 7.71436C6.52931 7.8198 6.63475 7.81756 6.67514 7.86467Z" fill="#BDA600"/>
<path d="M10.2551 11.1741C10.1878 11.0933 10.1272 11.0171 10.0128 10.9856C9.88491 10.9497 9.89613 10.7972 9.85351 10.6962C9.84004 10.6648 9.89389 10.6334 9.9253 10.6603C10.024 10.7433 10.208 10.7389 10.2057 10.9318C10.2057 10.9901 10.2641 11.0574 10.3157 11.0395C10.3718 11.0193 10.3583 10.9318 10.3269 10.8892C10.2641 10.8017 10.2327 10.7276 10.3045 10.6267C10.3359 10.5818 10.2888 10.5347 10.2551 10.5033C10.2147 10.4674 10.1856 10.5033 10.1564 10.528C10.1025 10.5751 10.0307 10.5908 9.98812 10.5437C9.94549 10.4943 9.98588 10.418 10.015 10.3687C10.0532 10.3058 10.116 10.3664 10.1609 10.3642C10.3134 10.353 10.466 10.3799 10.6186 10.3597C10.6455 10.3552 10.6724 10.3328 10.6993 10.3328C10.8339 10.335 10.9573 10.4225 11.1099 10.3462C11.1772 10.3126 11.2445 10.427 11.1839 10.5212C11.1256 10.611 11.1211 10.6895 11.1929 10.7703C11.2176 10.7972 11.2221 10.8353 11.2109 10.8667C11.1391 11.0821 11.2086 11.2997 11.1952 11.5129C11.1862 11.6722 11.1099 11.8382 11.0247 11.9773C10.9798 12.0513 10.8586 12.0828 10.825 12.1882C10.8227 12.1972 10.8115 12.2084 10.8048 12.2084C10.6298 12.2263 10.4682 12.343 10.282 12.2869C10.2775 12.2847 10.2731 12.2802 10.2686 12.2802C10.0263 12.3138 9.90959 12.1052 9.74133 12.002C9.71665 11.9885 9.68075 11.9594 9.68299 11.9436C9.70543 11.7642 9.59101 11.6138 9.59325 11.4299C9.59549 11.2773 9.63588 11.118 9.59774 10.9699C9.57979 10.9004 9.5753 10.8667 9.63588 10.8667C9.70992 10.8645 9.72787 10.7276 9.79742 10.7927C9.86024 10.8533 9.76152 10.9071 9.74133 10.9677C9.72338 11.026 9.7144 11.0933 9.75703 11.1472C9.78844 11.1853 9.84902 11.1943 9.87594 11.1741H10.2551Z" fill="#C29C04"/>
<path d="M9.12679 10.602C8.92262 10.4831 8.83737 10.2947 8.84634 10.0681C8.85532 9.85045 8.93608 9.66872 9.14922 9.56551C9.35339 9.4668 9.62262 9.56776 9.7348 9.78763C9.88961 10.0905 9.78416 10.4607 9.51044 10.5998C9.38031 10.6536 9.25467 10.6671 9.12679 10.602Z" fill="#0359B7"/>
<path d="M8.59523 9.91995C8.21831 9.91995 7.59684 9.9379 7.60357 9.83021C7.61254 9.74495 7.65517 8.3315 7.801 8.12509C7.87953 8.0017 8.70516 8.02413 8.80837 8.14977C8.86894 8.22381 9.14715 9.18406 8.82632 9.51835" fill="#6D5F03"/>
<path d="M8.90786 12.3453C8.86299 12.4193 8.77549 12.4193 8.70818 12.4575C8.63639 12.444 8.65434 12.3879 8.65434 12.343V10.5594C8.65434 10.5123 8.64088 10.4562 8.71491 10.4495C8.89889 10.6873 8.86075 10.9677 8.86075 11.2392C8.86075 11.5668 8.86075 11.8943 8.86299 12.2219C8.86075 12.269 8.85402 12.3184 8.90786 12.3453Z" fill="#C2AB00"/>
<path d="M9.17775 12.0447C9.14185 11.9864 9.12166 11.9258 9.12166 11.854C9.12166 11.5758 9.11493 11.2953 9.11493 11.0171C9.11493 10.9633 9.08576 10.8848 9.19345 10.8848C9.28544 10.8848 9.32582 10.9296 9.32358 11.0171C9.31685 11.2325 9.33929 11.4501 9.31236 11.6655C9.30563 11.7126 9.31685 11.7598 9.32134 11.8069C9.3505 11.9168 9.29442 11.9908 9.21813 12.0582C9.20467 12.0604 9.18897 12.0559 9.17775 12.0447Z" fill="#BBA501"/>
<path d="M10.6868 8.70606C10.6689 8.68811 10.6644 8.66792 10.6599 8.64324C10.6554 8.5176 10.6218 8.39196 10.6711 8.27081C10.725 8.22818 10.7923 8.2035 10.8371 8.14741C10.8775 8.21248 10.9201 8.24164 10.9987 8.18555C11.0413 8.15639 11.1153 8.11825 11.158 8.16761C11.2051 8.22145 11.1916 8.29998 11.14 8.35158C10.9493 8.5378 10.9897 8.73972 11.0727 8.95734C11.1131 9.06279 11.0615 9.16151 10.956 9.21984C10.7878 9.31183 10.7878 9.31407 10.8932 9.46888C10.9403 9.53619 10.9112 9.58554 10.8663 9.6349C10.8012 9.56311 10.7676 9.47337 10.7205 9.3926C10.6599 9.28939 10.7631 9.24452 10.8192 9.18394C10.7093 9.15029 10.7093 9.15029 10.7003 9.06728" fill="#B57E96"/>
<path d="M10.6919 9.07887C10.7278 9.18432 10.8445 9.10579 10.9095 9.1731C10.8647 9.20451 10.8175 9.2247 10.7817 9.26284C10.7278 9.31669 10.7166 9.35483 10.7749 9.41765C10.8288 9.47598 10.8692 9.55226 10.8669 9.63752L10.8579 9.83271C10.7615 9.85963 10.7054 9.76765 10.6246 9.7497C10.5797 9.63976 10.6964 9.65547 10.739 9.60387C10.6897 9.54329 10.5259 9.65996 10.5461 9.48944C10.5192 9.44682 10.5259 9.39746 10.5326 9.35259C10.5663 9.15515 10.564 9.15067 10.3666 9.13496L10.3397 9.05419C10.3038 8.9981 10.2544 8.93977 10.3172 8.87246C10.3935 8.78945 10.4877 8.79842 10.5842 8.8231C10.665 8.89041 10.6986 8.97567 10.6919 9.07887Z" fill="#E173A5"/>
<path d="M10.6894 8.2688V8.64348C10.566 8.81399 10.4987 8.8297 10.3125 8.71528C10.2676 8.68835 10.2205 8.66367 10.1734 8.64124C10.124 8.61656 10.0971 8.5829 10.142 8.52906C10.1936 8.52008 10.2564 8.54028 10.2811 8.47073C10.3103 8.3922 10.3731 8.33387 10.4045 8.25085C10.4269 8.19028 10.5548 8.19701 10.6378 8.18579C10.6737 8.20374 10.7074 8.21944 10.6894 8.2688Z" fill="#E56FA5"/>
<path d="M9.96575 8.70176L9.95902 8.70401C9.87601 8.71522 9.82216 8.67484 9.78402 8.60304C9.7728 8.58285 9.76158 8.54696 9.74812 8.54471C9.62697 8.53125 9.60678 8.50208 9.63819 8.36523C9.65838 8.27324 9.62921 8.22612 9.74588 8.25529C9.7728 8.26202 9.79075 8.24407 9.8087 8.22612C9.83562 8.1992 9.85806 8.15657 9.90293 8.19247C9.9321 8.21491 9.93882 8.25529 9.91863 8.28446C9.87152 8.36298 9.94331 8.40561 9.9635 8.46394" fill="#AA7489"/>
<path d="M10.5112 9.36571C10.4708 9.37468 10.4641 9.40385 10.4596 9.44199C10.4326 9.65737 10.4326 9.65737 10.2262 9.60128C10.1769 9.59231 10.1298 9.57212 10.1073 9.52724C10.0804 9.4734 10.0602 9.40609 10.1679 9.42853C10.2711 9.48237 10.2846 9.4218 10.2733 9.34103C10.2644 9.28494 10.233 9.21763 10.298 9.18622C10.3631 9.15257 10.4416 9.14584 10.5089 9.17725C10.6278 9.23109 10.5269 9.30289 10.5112 9.36571Z" fill="#E173A5"/>
<path d="M10.6298 8.2082C10.5648 8.20595 10.5199 8.29794 10.4436 8.24858C10.4302 8.23961 10.4144 8.25531 10.4189 8.27102C10.4593 8.39666 10.3471 8.41909 10.2821 8.47518C10.2529 8.41012 10.1834 8.40339 10.134 8.36973C10.1026 8.3473 10.0712 8.32037 10.0824 8.2755C10.0936 8.23512 10.1318 8.24409 10.1654 8.23512C10.3157 8.20147 10.4773 8.17679 10.5154 7.98608C10.5536 8.05788 10.5962 8.12967 10.6298 8.2082Z" fill="#A96571"/>
<path d="M9.93153 9.02042C9.92256 9.05407 9.91359 9.08548 9.90461 9.11689C9.88666 9.17971 9.86871 9.18195 9.80589 9.14606C9.68699 9.07651 9.69372 8.97106 9.69147 8.86561C9.68923 8.80728 9.74308 8.81625 9.77897 8.8185C9.84179 8.82298 9.90237 8.8342 9.96519 8.84317C9.98314 8.88356 9.95621 8.90599 9.92929 8.9217C9.86647 8.96208 9.90237 8.98901 9.93153 9.02042Z" fill="#A67C8D"/>
<path d="M10.1667 9.42641C10.0859 9.44885 10.0994 9.49148 10.1487 9.53186C10.1757 9.5543 10.2228 9.54981 10.2228 9.59917C10.1442 9.74276 10.1644 9.71583 10.0433 9.62609C9.91764 9.53186 10.0208 9.45558 10.0119 9.37257C10.0074 9.34116 10.0523 9.33891 10.0814 9.33667C10.1442 9.33891 10.1757 9.36359 10.1667 9.42641Z" fill="#AC6986"/>
<path d="M9.93164 9.0203C9.89349 9.01357 9.83516 9.04274 9.82394 8.98216C9.81273 8.92831 9.85984 8.91261 9.90247 8.90139C9.93164 8.89466 9.94958 8.87222 9.9608 8.84306L9.98548 8.81838C10.0595 8.85652 10.1291 8.74883 10.2054 8.81165C10.2233 8.82735 10.2682 8.81165 10.2659 8.85428C10.2637 8.88569 10.2323 8.8969 10.2031 8.90139C10.1111 8.9171 10.0236 8.93953 9.95856 9.01133L9.93164 9.0203Z" fill="#DB6D9F"/>
<path d="M9.96651 8.70162C9.88799 8.64104 9.88574 8.52437 9.79824 8.47053C9.77356 8.45707 9.76235 8.43688 9.78029 8.4122C9.80049 8.38527 9.82292 8.39874 9.84087 8.41668C9.87677 8.45482 9.91715 8.47502 9.96875 8.46604C9.98895 8.49745 10.0495 8.45931 10.054 8.5154C10.054 8.53784 10.0495 8.56476 10.0585 8.58495C10.0742 8.62085 10.1303 8.64104 10.0966 8.69264C10.0563 8.75322 10.0091 8.69713 9.96651 8.70162Z" fill="#DD6DA0"/>
<path d="M10.6242 9.74941C10.7297 9.70005 10.7723 9.82344 10.8576 9.83242C10.8576 9.87729 10.8441 9.94011 10.7947 9.91319C10.7274 9.87729 10.5838 9.90197 10.6242 9.74941Z" fill="#8B5765"/>
<path d="M8.90778 6.8688C8.89656 6.85758 8.89208 6.83066 8.86964 6.83739C8.85618 6.84188 8.86291 6.86207 8.86067 6.87553C8.7799 7.03931 8.64528 7.06848 8.4815 6.95854C8.4299 6.84636 8.51516 6.82617 8.58919 6.797C8.63407 6.77457 8.67221 6.7454 8.67669 6.68931C8.65875 6.622 8.6049 6.62874 8.5533 6.62649C8.51964 6.62425 8.47477 6.63995 8.47702 6.57938C8.46355 6.49412 8.36035 6.45374 8.38727 6.33707C8.40522 6.26303 8.42317 6.20021 8.47702 6.14861C8.65426 6.02297 8.86291 6.01624 9.06708 5.99829C9.17477 6.00502 9.15906 6.07457 9.13663 6.14188C9.11419 6.20919 9.1097 6.25855 9.18374 6.29669C9.30489 6.35951 9.13663 6.42681 9.1815 6.49188C9.17701 6.57265 9.10522 6.54124 9.06483 6.56367C9.00874 6.59059 8.92797 6.60406 8.97733 6.69829C9.05137 6.75662 9.13663 6.7454 9.22188 6.7454C9.2847 6.78354 9.26675 6.84412 9.26451 6.89797L9.23759 6.92938L8.90778 6.8688Z" fill="#A91718"/>
<path d="M9.55631 6.57934C9.42618 6.52101 9.4015 6.42005 9.49573 6.30339C9.52938 6.26076 9.53387 6.21364 9.52714 6.16653C9.51368 6.05211 9.56752 6.01621 9.67073 6.02967C9.83227 6.00948 9.98707 6.01621 10.1127 6.14185C10.1329 6.19121 10.2002 6.15531 10.2226 6.20018C10.29 6.48736 10.29 6.48736 10.023 6.63543C9.93996 6.68031 9.9265 6.72742 10.0185 6.77902C10.0319 6.78351 10.0454 6.79024 10.0566 6.79473C10.1217 6.82165 10.2451 6.78575 10.1935 6.92934C10.1374 7.05274 10.0275 7.01684 9.93098 7.01235C9.84797 7.00787 9.83002 6.93832 9.81881 6.86877C9.81207 6.85306 9.81656 6.82614 9.79637 6.82389C9.78066 6.82389 9.77618 6.85082 9.76272 6.86428C9.75599 6.92934 9.68868 6.95627 9.66849 7.01235L9.67073 7.01011C9.54733 7.02582 9.46208 6.97421 9.40599 6.86652C9.38355 6.81941 9.3858 6.77902 9.43964 6.75434C9.45759 6.74761 9.47554 6.74537 9.49573 6.74313C9.55182 6.73639 9.62586 6.74537 9.64829 6.68479C9.67073 6.6287 9.57201 6.63319 9.55631 6.57934Z" fill="#AA1819"/>
<path d="M7.38002 6.55226C7.3688 6.48271 7.38675 6.39969 7.46079 6.35034C7.52361 6.25386 7.61559 6.23143 7.72329 6.25386C7.78162 6.26508 7.83546 6.25162 7.89155 6.2404C8.02841 6.21348 8.15629 6.21796 8.22136 6.37277C8.23258 6.38175 8.25277 6.39521 8.25052 6.40194C8.21463 6.50963 8.23033 6.63303 8.13835 6.72052C8.07328 6.80354 8.10245 6.84392 8.19892 6.84841C8.23258 6.85065 8.26623 6.83943 8.29988 6.8529C8.36943 6.9045 8.37168 6.95834 8.3111 7.01892C8.19668 7.14232 8.16751 7.14232 7.95886 6.99424C7.91623 7.04136 7.95662 7.13783 7.87136 7.15578C7.81527 7.16924 7.76816 7.14456 7.72777 7.10642L7.70982 7.04809C7.51015 7.02116 7.46976 6.93591 7.40919 6.7654L7.38002 6.55226Z" fill="#AA1719"/>
<path d="M10.6638 7.04367C10.5158 7.13566 10.444 7.13117 10.3385 7.01675C10.3138 6.85745 10.3138 6.85297 10.4574 6.89335C10.5045 6.90681 10.5247 6.87316 10.5584 6.8597C10.5696 6.85297 10.5808 6.84624 10.592 6.84175C10.6616 6.80585 10.6145 6.75649 10.5853 6.74528C10.4597 6.69143 10.4372 6.57028 10.3879 6.46707C10.3834 6.45361 10.3834 6.44015 10.3834 6.42669C10.3879 6.40425 10.4058 6.39303 10.4238 6.38182C10.4799 6.24047 10.592 6.21579 10.7244 6.24496C10.7805 6.25618 10.8366 6.26739 10.8927 6.25842C11.0206 6.24047 11.1327 6.26291 11.2045 6.38406C11.2965 6.4581 11.2561 6.57252 11.2898 6.66675C11.2988 6.69143 11.0879 6.83278 11.0542 6.82829C11.0206 6.8238 10.9869 6.81483 10.9555 6.81707C10.9061 6.81931 10.8545 6.82829 10.8388 6.88438C10.8254 6.93598 10.8815 6.95617 10.9017 6.99207C10.9241 7.03021 11.0138 7.00777 10.9914 7.06386C10.9712 7.11547 10.9174 7.16707 10.8456 7.16482C10.7962 7.16482 10.7356 7.18726 10.7132 7.11322C10.7065 7.09079 10.693 7.07059 10.6818 7.04816C10.6818 7.03918 10.6795 7.02572 10.6751 7.02572C10.6638 7.02124 10.6683 7.0347 10.6638 7.04367Z" fill="#A91718"/>
<path d="M10.1943 7.53275C10.3535 7.53948 10.385 7.61801 10.1628 7.66512C9.99009 7.66512 9.34618 7.70999 9.34618 7.70999C9.0074 7.70999 8.44426 7.66961 8.40837 7.66064C8.22215 7.60903 8.19074 7.5507 8.5183 7.48564C8.66862 7.47891 8.98721 7.43628 9.34618 7.43628L10.1943 7.53275Z" fill="#931B14"/>
<path d="M8.30804 6.01382C8.29458 5.8994 8.37983 5.75581 8.4965 5.71767C8.67374 5.66158 8.85547 5.65934 9.0372 5.69972C9.11124 5.71543 9.14265 5.75581 9.15387 5.82312C9.16733 5.90164 9.15162 5.96446 9.07085 5.99363L8.30804 6.01382Z" fill="#FAC100"/>
<path d="M10.1162 6.14408C9.97487 6.0835 9.82231 6.06555 9.67423 6.0319C9.6518 5.96235 9.53962 6.00273 9.5284 5.91075C9.51494 5.79408 9.49923 5.70658 9.6675 5.67741C9.88961 5.63703 10.087 5.646 10.2553 5.80978C10.3294 5.88158 10.3742 5.96908 10.3316 6.07228C10.2912 6.16876 10.1925 6.13735 10.1162 6.14408ZM11.2088 6.37965C11.1146 6.31235 11.0069 6.28093 10.897 6.25401C10.8297 6.21811 10.7534 6.20017 10.6749 6.20241C10.5515 6.20914 10.5223 6.11715 10.5537 6.04312C10.5829 5.97581 10.5672 5.82773 10.7242 5.86587C10.8544 5.89504 10.9845 5.91523 11.1124 5.96235C11.247 6.01171 11.2986 6.11042 11.3277 6.22709C11.3502 6.31459 11.3143 6.3819 11.2088 6.37965ZM7.72232 6.25401C7.63707 6.28991 7.53835 6.28991 7.45982 6.35049C7.4172 6.34824 7.35886 6.40433 7.33418 6.33702C7.30951 6.26972 7.30053 6.19344 7.35213 6.13062C7.44861 6.01395 7.5563 5.91299 7.72232 5.9085C7.76495 5.90626 7.80758 5.89055 7.84796 5.88382C8.06783 5.84344 8.12392 5.9085 8.07681 6.13735C8.06335 6.2069 8.01623 6.20017 7.96912 6.20241C7.88386 6.20241 7.79412 6.18895 7.72232 6.25401Z" fill="#F9BF00"/>
<path d="M9.40677 6.16882C9.39556 6.22042 9.40229 6.28548 9.31479 6.28548C9.24524 6.28548 9.23178 6.24734 9.24075 6.19125C9.24973 6.12843 9.25646 6.05664 9.33947 6.05664C9.40453 6.05888 9.40453 6.11722 9.40677 6.16882Z" fill="#B0AA83"/>
<path d="M9.50596 7.25012C9.48128 7.38249 9.1784 7.38249 9.1582 7.25237C9.20307 7.06391 9.47679 7.11551 9.50596 7.25012Z" fill="#A71817"/>
<path d="M9.90479 7.36448C9.86665 7.27698 9.8487 7.29942 9.90479 7.24108C9.99453 7.22538 10.1179 7.21192 10.1628 7.31288L10.1359 7.35775C10.0596 7.40038 9.98332 7.41159 9.90479 7.36448Z" fill="#218957"/>
<path d="M8.86007 6.87559C8.83091 6.85315 8.79052 6.83296 8.81744 6.78585C8.82418 6.77238 8.8511 6.76117 8.86456 6.76565C8.92065 6.78136 8.9184 6.82399 8.90494 6.86886L8.86007 6.87559Z" fill="#B87875"/>
<path d="M9.77009 6.86651C9.76112 6.82389 9.7499 6.78126 9.79253 6.7476C9.79926 6.74312 9.82169 6.74536 9.82842 6.75434C9.86432 6.79248 9.85759 6.83286 9.82618 6.86876L9.77009 6.86651Z" fill="#B6827C"/>
<path d="M9.33284 6.01834C9.29695 6.01609 9.28573 5.99141 9.28573 5.96225C9.28348 5.95103 9.28797 5.93757 9.29695 5.93084C9.30592 5.92186 9.31714 5.91738 9.32836 5.91738C9.35752 5.91513 9.38669 5.92186 9.38445 5.96C9.3822 5.98693 9.36201 6.01161 9.33284 6.01834Z" fill="#B0AA83"/>
<path d="M10.6645 7.0438C10.6353 7.00566 10.6219 6.96752 10.6735 6.93835C10.6847 6.93162 10.7139 6.9406 10.7206 6.95182C10.7542 6.99893 10.7004 7.01239 10.6824 7.04156C10.678 7.04156 10.6712 7.04156 10.6645 7.0438Z" fill="#A36F6F"/>
<path d="M12.3798 8.38539C12.5817 8.38987 12.6064 8.51327 12.584 8.67705C12.575 8.73763 12.5817 8.80269 12.5817 8.86551C12.5817 9.08538 12.566 9.10109 12.3462 9.11006L12.1487 9.10109C12.1487 8.93282 12.1465 8.76455 12.1465 8.59404C12.1465 8.36519 12.1465 8.36519 12.3798 8.38539Z" fill="#DADADA"/>
<path d="M12.7199 9.56764L12.6683 9.56091C12.6571 9.52726 12.6436 9.49585 12.6055 9.48912C12.4596 9.46893 12.5314 9.37694 12.5471 9.30739C12.5718 9.20867 12.6391 9.23335 12.7042 9.26027C12.758 9.28047 12.7962 9.3029 12.7648 9.37694C12.7401 9.43527 12.7356 9.50482 12.7199 9.56764Z" fill="#C19405"/>
<path d="M13.082 9.5092C13.0798 9.54734 13.0798 9.58773 13.0708 9.62363C13.0641 9.64606 13.0484 9.66401 13.0282 9.67747C13.0169 9.6842 12.981 9.66625 12.981 9.66177C12.9833 9.56529 12.8352 9.56305 12.8554 9.48228C12.8711 9.41498 12.9586 9.37459 13.0304 9.38357C13.091 9.3903 13.1044 9.45087 13.082 9.5092Z" fill="#C08E05"/>
<path d="M11.8166 9.45327C11.7156 9.41513 11.6662 9.33436 11.6281 9.24462C11.6191 9.22667 11.6303 9.20648 11.6528 9.19974C11.6864 9.18853 11.7246 9.19301 11.7448 9.22218C11.7874 9.285 11.8255 9.33436 11.8884 9.24013C11.8973 9.22442 11.9287 9.22667 11.9332 9.2491C11.9467 9.29846 11.9175 9.34109 11.8996 9.38372C11.8839 9.41962 11.8569 9.45327 11.8166 9.45327Z" fill="#BF8207"/>
<path d="M12.4793 9.20878C12.4501 9.26712 12.4008 9.29853 12.4053 9.3591C12.4075 9.38827 12.4008 9.42192 12.3626 9.41744C12.3335 9.41295 12.3223 9.38378 12.3155 9.35237C12.2908 9.22898 12.329 9.19084 12.4793 9.20878Z" fill="#C08D06"/>
<path d="M12.0608 9.20215C12.1191 9.27619 12.1326 9.33676 12.09 9.40183C12.0855 9.40856 12.0585 9.40856 12.0541 9.40407C12.0069 9.34125 12.0182 9.28067 12.0608 9.20215Z" fill="#C08A06"/>
<path d="M12.5759 11.6631C12.4659 11.6676 12.3538 11.6699 12.2416 11.6744C12.1788 11.6766 12.1406 11.6587 12.1406 11.5846C12.1429 11.2638 12.1406 10.9452 12.1406 10.6266C12.1406 10.5885 12.1586 10.5638 12.1922 10.5481C12.3179 10.5862 12.439 10.6311 12.549 10.7007" fill="#DADADA"/>
<path d="M12.8088 11.4543C12.811 11.6831 12.8088 11.6831 12.5755 11.6629C12.5642 11.3421 12.6024 11.0213 12.5508 10.7004C12.6383 10.7206 12.7303 10.7363 12.8021 10.7992L12.8088 11.4543Z" fill="#C2C0BE"/>
<path d="M6.33036 11.6635C5.89736 11.6837 5.89736 11.6837 5.89511 11.2551C5.89511 11.1026 5.89062 10.9478 5.89062 10.7952C5.96242 10.7167 6.07908 10.7346 6.15985 10.6763C6.35056 10.6449 6.37524 10.6628 6.37748 10.8468C6.38197 11.0644 6.37972 11.2821 6.37748 11.4997C6.37748 11.5603 6.37524 11.6186 6.33036 11.6635Z" fill="#D9D9D9"/>
<path d="M6.09763 10.3241C5.89123 10.3779 5.88674 10.3734 5.88898 10.1536C5.89122 10.0302 5.88898 9.90453 5.88898 9.78114C5.88898 9.65774 5.93385 9.57697 6.06847 9.57248C6.37584 9.53659 6.37808 9.53883 6.37359 9.8462C6.37135 9.9696 6.40949 10.0975 6.33097 10.2119C6.25244 10.2478 6.17392 10.2859 6.09763 10.3241Z" fill="#D8D6D6"/>
<path d="M6.33067 11.6632C6.33067 11.3894 6.32394 11.118 6.3374 10.8443C6.34413 10.7007 6.29253 10.6536 6.16016 10.676C6.25439 10.6334 6.34413 10.5773 6.44733 10.5593C6.4922 10.5997 6.48996 10.6536 6.4922 10.7052V11.5128C6.4922 11.5667 6.4922 11.6205 6.45182 11.6609C6.40919 11.6632 6.36881 11.6632 6.33067 11.6632Z" fill="#ADACAC"/>
<path d="M8.71401 7.37357C8.63997 7.37133 8.58388 7.39601 8.49414 7.31973C8.55472 7.21428 8.66914 7.21428 8.74318 7.24345C8.77683 7.26588 8.73196 7.34665 8.71401 7.37357Z" fill="#1A895C"/>
<path d="M6.0367 9.13708C5.95144 9.14157 5.91779 9.10118 5.92003 9.01368C5.92452 8.84541 5.92452 8.67715 5.92003 8.50888C5.91779 8.43484 5.9492 8.41241 6.02099 8.40792C6.32836 8.38997 6.32836 8.38773 6.32836 8.69285C6.32836 8.7467 6.32163 8.80054 6.33061 8.85215C6.34856 8.97779 6.30817 9.06528 6.18478 9.11016C6.13766 9.14381 6.08606 9.13932 6.0367 9.13708Z" fill="#D9D9D9"/>
<path d="M5.84027 9.27145C5.88066 9.26921 5.91655 9.28491 5.93899 9.31857C5.96591 9.35895 5.94348 9.39036 5.91207 9.41953C5.8986 9.43074 5.8829 9.44421 5.87168 9.45991C5.847 9.49581 5.88963 9.59677 5.79989 9.56536C5.71688 9.53619 5.70342 9.43075 5.70117 9.35446C5.70117 9.28267 5.78643 9.2894 5.84027 9.27145Z" fill="#C08D06"/>
<path d="M6.55126 9.16162C6.58716 9.26034 6.52434 9.33437 6.47947 9.40841C6.45479 9.4488 6.41216 9.47123 6.37178 9.42412C6.32691 9.37027 6.26409 9.30521 6.28877 9.23566C6.31569 9.16162 6.36056 9.2222 6.40094 9.24688C6.5019 9.3097 6.47947 9.16162 6.55126 9.16162Z" fill="#B8710E"/>
<path d="M6.22516 9.47789C6.1758 9.49584 6.13093 9.49808 6.09055 9.48013C6.0008 9.43975 6.00753 9.35898 6.01202 9.28045C6.01426 9.25353 6.00753 9.20866 6.04119 9.20866C6.1242 9.20417 6.09952 9.29391 6.13317 9.3343C6.17131 9.37468 6.19599 9.42629 6.22516 9.47789Z" fill="#BD7C09"/>
<path d="M7.26093 7.91649C7.27215 7.84469 7.32823 7.8604 7.37311 7.8604C7.97438 7.8604 8.57566 7.86264 9.17469 7.85815C9.27117 7.85815 9.29809 7.89181 9.29809 7.98379C9.2936 8.39661 9.29585 8.80719 9.29809 9.22C9.29809 9.28955 9.28687 9.32994 9.20386 9.35013C9.08495 9.38154 8.97277 9.43987 8.85611 9.48699C8.78207 9.49147 8.73944 9.47353 8.74168 9.38378C8.74841 9.19532 8.73944 9.01135 8.79104 8.82513C8.81797 8.72866 8.84713 8.61199 8.717 8.53123C8.65418 8.49309 8.77983 8.42129 8.74393 8.35398C8.70354 8.29565 8.64072 8.30911 8.58463 8.30238C8.51284 8.29341 8.45675 8.28443 8.46348 8.18347C8.47021 8.06232 8.36925 8.05335 8.27951 8.04886C8.18977 8.04437 8.13143 8.08251 8.14489 8.18796C8.15163 8.22161 8.13592 8.25751 8.109 8.2777C8.02599 8.32257 7.92278 8.25751 7.84426 8.32482C7.84201 8.37193 7.83528 8.42129 7.85772 8.46616C7.8824 8.51776 7.85547 8.53347 7.81285 8.56264C7.7231 8.62321 7.68945 8.7309 7.759 8.81167C7.84874 8.91712 7.83977 9.03154 7.83977 9.15045C7.83977 9.26039 7.83753 9.37257 7.83753 9.4825C7.63785 9.45558 7.7074 9.6059 7.69394 9.70013C7.67823 9.81455 7.73432 9.84147 7.83753 9.83474C7.934 9.82801 8.03047 9.8325 8.12695 9.8325C8.25483 9.89307 8.39169 9.84596 8.52406 9.86166C8.5779 9.86839 8.64521 9.84147 8.65194 9.93346C8.65867 10.0142 8.62502 10.0658 8.55098 10.0838C8.47246 10.104 8.39169 10.1219 8.30867 10.1219C8.01252 10.1197 7.71862 10.1174 7.42246 10.1242C7.29682 10.1264 7.24971 10.0883 7.2542 9.95814C7.26093 9.70237 7.25644 9.4466 7.25644 9.18859C7.26093 8.76904 7.26093 8.34277 7.26093 7.91649Z" fill="#AB1519"/>
<path d="M7.93924 11.7867L7.92578 10.1624C8.12322 10.1825 8.12995 10.1893 8.12995 10.3777V12.4082C8.12995 12.4553 8.112 12.48 8.06264 12.4822C8.00431 12.4845 7.98636 12.4553 7.98636 12.4014C7.98636 12.2377 7.9886 12.0716 7.98411 11.9079C7.98411 11.863 8.01104 11.8046 7.93924 11.7867Z" fill="#9E1717"/>
<path d="M8.62594 12.4821L8.56761 12.5135C8.41056 12.5315 8.40832 12.5315 8.40832 12.3856V10.3238C8.40832 10.2654 8.40383 10.2071 8.45095 10.16C8.56312 10.1398 8.60127 10.1802 8.60127 10.2991C8.59678 10.952 8.59902 11.6026 8.59902 12.2555C8.59678 12.3318 8.60351 12.4058 8.62594 12.4821Z" fill="#9F2115"/>
<path d="M7.83974 12.4219C7.77692 12.3883 7.75 12.3434 7.75 12.2626C7.75449 11.621 7.75224 10.9793 7.75224 10.3354C7.75224 10.3107 7.75224 10.286 7.75449 10.2636C7.75897 10.221 7.77917 10.1873 7.82628 10.1918C7.87115 10.1963 7.86891 10.2367 7.86891 10.2703C7.86891 10.387 7.86218 10.5037 7.87115 10.6181C7.89583 10.9434 7.86891 11.271 7.86891 11.5963C7.86891 11.6636 7.86891 11.7309 7.92724 11.7825C7.92724 11.9665 7.925 12.1482 7.925 12.3322C7.92724 12.3928 7.92051 12.4399 7.83974 12.4219Z" fill="#C4AD00"/>
<path d="M8.14844 9.80776C8.15068 9.77411 8.15068 9.74045 8.15741 9.7068C8.16863 9.63949 8.12151 9.53629 8.23818 9.52507C8.37728 9.51161 8.42664 9.56994 8.43113 9.7225C8.43113 9.75167 8.43561 9.78084 8.4401 9.80776C8.34138 9.84814 8.24491 9.85488 8.14844 9.80776Z" fill="#133DC3"/>
<path d="M8.19375 12.5067C8.19375 11.7731 8.1915 11.0372 8.1915 10.3036C8.1915 10.2385 8.18477 10.1757 8.28349 10.1802C8.37548 10.1824 8.36426 10.243 8.36426 10.3013C8.36426 11.0462 8.36202 11.7888 8.36202 12.5337L8.28125 12.5471L8.19375 12.5067Z" fill="#C3B000"/>
<path d="M9.41393 12.4733C9.46553 12.599 9.52611 12.498 9.58444 12.4801C9.65175 12.4823 9.7213 12.4778 9.78636 12.489C9.85143 12.5025 9.86264 12.5451 9.80655 12.59C9.76393 12.6237 9.71457 12.6483 9.66072 12.6483C9.55079 12.6483 9.42963 12.5967 9.35111 12.7314C9.33765 12.7538 9.30399 12.6551 9.29053 12.6281C9.27707 12.6102 9.16938 12.6887 9.01682 12.6865C8.95175 12.6685 8.8822 12.5474 9.0056 12.498C9.06842 12.4935 9.32867 12.5429 9.3197 12.4801C9.35111 12.4576 9.38252 12.4532 9.41393 12.4733Z" fill="#2A6355"/>
<path d="M9.23874 5.53166C9.19611 5.41275 9.29707 5.43743 9.35316 5.41724C9.36213 5.41948 9.37111 5.41948 9.38008 5.41948C9.4429 5.48679 9.45188 5.53614 9.33745 5.53614C9.3038 5.53614 9.27015 5.5339 9.23874 5.53166Z" fill="#1F63A5"/>
<path d="M7.70594 6.7205C7.7194 6.7205 7.7351 6.71826 7.74857 6.71826C7.80241 6.72275 7.88991 6.70256 7.88991 6.77211C7.89216 6.83493 7.86972 6.92691 7.76427 6.92691C7.70145 6.92691 7.6476 6.90672 7.62517 6.8439C7.60273 6.77435 7.67902 6.76089 7.70594 6.7205Z" fill="#A68503"/>
<path d="M10.346 11.5197C10.3438 11.5646 10.3482 11.6072 10.3191 11.6453C10.2607 11.7239 10.263 11.8046 10.3191 11.8854C10.346 11.9235 10.346 11.9662 10.346 12.011C10.346 12.0537 10.3505 12.103 10.2989 12.121C10.2563 12.1389 10.2114 12.1322 10.1822 12.0918C10.1418 12.038 10.0813 12.02 10.0229 11.9998C9.97581 11.9819 9.91299 11.9841 9.91075 11.9101C9.90626 11.8316 9.92646 11.7485 9.99601 11.7239C10.1194 11.6812 10.2047 11.6229 10.2293 11.4883C10.2338 11.4591 10.2742 11.403 10.3236 11.4187C10.364 11.4344 10.337 11.4883 10.346 11.5197Z" fill="#AD1E17"/>
<path d="M10.4837 11.4185C10.5869 11.4633 10.5106 11.6024 10.5914 11.6495C10.6699 11.6944 10.7709 11.6967 10.8337 11.7707C10.9055 11.8537 10.8741 11.9704 10.7686 11.9995C10.7036 12.0175 10.6407 12.0444 10.5869 12.0826C10.4882 12.1499 10.4007 12.1117 10.4388 12.013C10.5173 11.8133 10.4456 11.6204 10.468 11.4274C10.4657 11.4252 10.4725 11.4229 10.4837 11.4185Z" fill="#AD1D17"/>
<path d="M10.5078 11.1518C10.5549 11.0845 10.6088 11.0261 10.6918 10.997C10.777 10.9678 10.8466 10.9162 10.8421 10.8108C10.8399 10.7636 10.878 10.7345 10.9072 10.7008C10.9363 10.6672 10.961 10.5976 11.0149 10.6313C11.062 10.6604 11.0014 10.7053 10.9947 10.7457C10.9812 10.8265 10.961 10.9072 11.0328 10.9745C11.0777 11.0172 11.0552 11.0643 11.0283 11.1047C11.0014 11.1473 10.9498 11.1989 10.9139 11.1697C10.7748 11.0598 10.6492 11.1608 10.5168 11.172L10.5078 11.163V11.1518Z" fill="#AD1F17"/>
<path d="M10.9117 10.519C10.8669 10.6154 10.822 10.7052 10.7165 10.7388C10.6268 10.768 10.5685 10.8151 10.5662 10.9228C10.564 10.9744 10.5303 11.0372 10.4653 11.0103C10.4137 10.9901 10.4181 10.9251 10.4473 10.8847C10.5056 10.7994 10.4922 10.7164 10.463 10.6244C10.4338 10.5369 10.5079 10.4696 10.5819 10.5167C10.6963 10.5885 10.7951 10.5638 10.9117 10.519Z" fill="#AE2117"/>
<path d="M9.88838 11.2929C10.0118 11.3265 10.1352 11.322 10.2563 11.2884L10.2541 11.2861C10.2272 11.3445 10.1823 11.3961 10.1284 11.4185C10.014 11.4656 9.93325 11.524 9.91979 11.6608C9.9153 11.7012 9.8637 11.7595 9.80088 11.7371C9.74255 11.7147 9.75601 11.6586 9.76947 11.6115C9.78518 11.5554 9.8121 11.5015 9.76723 11.4499L9.88838 11.2929Z" fill="#AD2017"/>
<path d="M11.0424 11.3873C10.9706 11.4815 10.9706 11.5914 11.0065 11.7081C11.0132 11.7305 10.9863 11.7485 10.9594 11.7507C10.9033 11.753 10.8517 11.7193 10.8517 11.6744C10.8494 11.5174 10.7597 11.4456 10.6273 11.4007C10.5937 11.3895 10.5465 11.3581 10.5645 11.3177C10.5847 11.2661 10.6296 11.3087 10.6632 11.3155C10.7417 11.3267 10.8135 11.3087 10.8898 11.293C10.9571 11.2773 11.0289 11.2841 11.0424 11.3873Z" fill="#AE2217"/>
<path d="M10.5077 11.1518C10.51 11.1585 10.5122 11.1653 10.5145 11.1743C10.4965 11.3605 10.4382 11.3874 10.252 11.2887L10.2542 11.2909V11.1743L10.252 11.1765C10.3327 11.098 10.4135 11.0553 10.5077 11.1518Z" fill="#368F53"/>
<path d="M8.07223 8.96869C8.10364 9.02703 8.13954 9.07863 8.14178 9.15042C8.14627 9.2469 8.11262 9.29401 8.01614 9.28953C7.86358 9.25812 7.93986 9.13921 7.93313 9.05844C7.9264 8.96196 8.00268 8.96421 8.07223 8.96869Z" fill="#183B9F"/>
<path d="M8.56804 9.2895L8.46035 9.28053C8.4581 9.22444 8.45137 9.16611 8.45137 9.11002C8.44913 9.0472 8.46483 8.99335 8.54112 8.98887C8.60842 8.98438 8.66227 9.02476 8.66451 9.0831C8.669 9.15938 8.68246 9.25809 8.56804 9.2895Z" fill="#0C34AB"/>
<path d="M8.59679 8.75571C8.53621 8.75571 8.52051 8.71084 8.51826 8.67046C8.51602 8.62559 8.51602 8.56277 8.57211 8.55379C8.63493 8.54257 8.6641 8.59418 8.67307 8.65251C8.68429 8.71084 8.6439 8.73552 8.59679 8.75571Z" fill="#9F8D00"/>
<path d="M7.95302 8.53784C8.00462 8.55355 8.03379 8.58271 8.04052 8.62983C8.04725 8.67246 8.05174 8.72182 7.99116 8.72855C7.93956 8.73528 7.92834 8.69489 7.92834 8.65451C7.92834 8.61637 7.92161 8.5715 7.95302 8.53784Z" fill="#A18F00"/>
<path d="M8.2733 8.61182C8.30695 8.61182 8.33163 8.62528 8.33163 8.65893C8.33163 8.69707 8.32041 8.74194 8.27554 8.74194C8.23965 8.74194 8.22843 8.69932 8.22394 8.66791C8.21721 8.63425 8.2374 8.61406 8.2733 8.61182Z" fill="#AD9900"/>
<path d="M9.56765 9.77856C9.59008 9.79651 9.61252 9.80997 9.62374 9.82792C9.65515 9.89074 9.7247 9.98049 9.7045 10.0141C9.67085 10.0725 9.62598 10.1218 9.61252 10.1914C9.61028 10.2026 9.56989 10.2161 9.5497 10.2116C9.43528 10.1869 9.44201 10.0657 9.4263 9.99619C9.40835 9.92664 9.49137 9.83914 9.56765 9.77856Z" fill="#918D1A"/>
<path d="M9.35661 10.1531C9.41495 10.1912 9.42617 10.2765 9.45982 10.3326C9.50918 10.4178 9.40822 10.4986 9.36559 10.5771C9.34764 10.613 9.26912 10.5883 9.26014 10.5479C9.24219 10.4672 9.13226 10.3774 9.25341 10.2967C9.28931 10.272 9.28931 10.2428 9.29379 10.2114C9.29828 10.1845 9.30501 10.1576 9.35661 10.1531Z" fill="#898314"/>
<path d="M9.26356 9.70244C9.26356 9.86846 9.26132 10.0995 9.13568 10.0906C9.07286 10.0861 9.08183 10.0143 9.05491 9.99186C8.89562 9.85724 9.18504 9.57904 9.26356 9.70244Z" fill="#657234"/>
<path d="M9.56452 12.4057C9.52189 12.4618 9.32445 12.4551 9.19657 12.4393C9.12253 12.4304 9.10458 12.2711 9.17638 12.2464C9.35138 12.1903 9.35138 12.1903 9.54881 12.2127C9.57349 12.2935 9.60939 12.3294 9.56452 12.4057Z" fill="#D6B37C"/>
<path d="M9.30494 12.4282C9.28923 12.3474 9.28923 12.2666 9.32513 12.1904C9.37449 12.1769 9.38346 12.224 9.40814 12.2465C9.46423 12.3205 9.43282 12.3968 9.41711 12.4731L9.32513 12.4775L9.30494 12.4282Z" fill="#822C24"/>
<path d="M10.6035 8.84746C10.6529 8.81157 10.6551 8.7465 10.6888 8.69939C10.7897 8.66798 10.7897 8.59394 10.7673 8.51541C10.7516 8.46381 10.7381 8.41221 10.7628 8.36061C10.7852 8.31349 10.8279 8.28208 10.8817 8.29779C10.9423 8.31574 10.9199 8.36285 10.9109 8.40548C10.8817 8.54907 10.8929 8.69041 10.9199 8.83624C10.9647 9.08977 10.9333 9.11894 10.6933 9.07855C10.6529 9.00451 10.6147 8.93272 10.6035 8.84746Z" fill="#D7D4D5"/>
<path d="M10.3597 6.79454C10.3463 6.79454 10.3306 6.7923 10.3171 6.7923C10.2431 6.79454 10.1758 6.78557 10.1892 6.68685C10.1982 6.62403 10.252 6.6016 10.2947 6.62628C10.353 6.65769 10.454 6.68461 10.3844 6.7923C10.3754 6.7923 10.3665 6.79454 10.3597 6.79454Z" fill="#B08D03"/>
<path d="M9.23828 6.69341C9.24052 6.67546 9.24053 6.65751 9.24053 6.63956C9.28091 6.63956 9.32129 6.5902 9.35943 6.63732C9.37738 6.65975 9.37514 6.68219 9.35495 6.70014C9.31456 6.74276 9.27642 6.71584 9.23828 6.69341Z" fill="#A91718"/>
</g>
</svg>
