<svg width="18" height="18" viewBox="0 0 18 18" fill="none" xmlns="http://www.w3.org/2000/svg">
<path d="M0 9C0 11.3869 0.948212 13.6761 2.63604 15.364C4.32387 17.0518 6.61305 18 9 18C11.3869 18 13.6761 17.0518 15.364 15.364C17.0518 13.6761 18 11.3869 18 9C18 6.61305 17.0518 4.32387 15.364 2.63604C13.6761 0.948212 11.3869 0 9 0C6.61305 0 4.32387 0.948212 2.63604 2.63604C0.948212 4.32387 0 6.61305 0 9H0Z" fill="#F0F0F0"/>
<path d="M17.9985 9.00002C17.9985 5.13034 15.5561 1.83145 12.1289 0.559814V17.4403C15.5561 16.1686 17.9985 12.8697 17.9985 9.00002Z" fill="#D80027"/>
<path d="M0 9.00002C0 12.8697 2.44241 16.1686 5.86958 17.4402V0.559814C2.44241 1.83145 0 5.13034 0 9.00002Z" fill="#0052B4"/>
</svg>
