<svg width="18" height="18" viewBox="0 0 18 18" fill="none" xmlns="http://www.w3.org/2000/svg">
<g clip-path="url(#clip0_1913_933)">
<path d="M0 9C0 11.3869 0.948212 13.6761 2.63604 15.364C4.32387 17.0518 6.61305 18 9 18C11.3869 18 13.6761 17.0518 15.364 15.364C17.0518 13.6761 18 11.3869 18 9C18 6.61305 17.0518 4.32387 15.364 2.63604C13.6761 0.948212 11.3869 0 9 0C6.61305 0 4.32387 0.948212 2.63604 2.63604C0.948212 4.32387 0 6.61305 0 9H0Z" fill="#F0F0F0"/>
<path d="M1.86097 3.52063C1.15402 4.44042 0.620941 5.50056 0.310547 6.65224H4.99258L1.86097 3.52063ZM17.6905 6.65224C17.3801 5.50059 16.8469 4.44046 16.14 3.52067L13.0085 6.65224H17.6905ZM0.310547 11.3479C0.620976 12.4995 1.15405 13.5597 1.86097 14.4794L4.99248 11.3479H0.310547ZM14.4799 1.86052C13.5601 1.15356 12.5 0.620488 11.3483 0.310059V4.99206L14.4799 1.86052ZM3.52112 16.1395C4.44091 16.8465 5.50105 17.3795 6.6527 17.69V13.008L3.52112 16.1395ZM6.65266 0.310059C5.50101 0.620488 4.44088 1.15356 3.52112 1.86048L6.65266 4.99202V0.310059ZM11.3483 17.69C12.5 17.3795 13.5601 16.8465 14.4799 16.1395L11.3483 13.008V17.69ZM13.0085 11.3479L16.14 14.4795C16.8469 13.5597 17.3801 12.4995 17.6905 11.3479H13.0085Z" fill="#0052B4"/>
<path d="M17.9238 7.8261H10.1739V0.0761836C9.78468 0.0254674 9.39255 1.95541e-05 9 0C8.60746 1.60999e-05 8.21534 0.0254639 7.8261 0.0761836V7.82606H0.0761836C0.0254674 8.21532 1.95541e-05 8.60745 0 9C0 9.39793 0.0261563 9.78964 0.0761836 10.1739H7.82606V17.9238C8.60538 18.0254 9.39458 18.0254 10.1739 17.9238V10.1739H17.9238C17.9745 9.78468 18 9.39255 18 9C18 8.60214 17.9738 8.21035 17.9238 7.8261Z" fill="#D80027"/>
<path d="M11.3482 11.3477L15.3643 15.3639C15.549 15.179 15.7255 14.9862 15.8934 14.7861L12.455 11.3477H11.3482V11.3477ZM6.65256 11.3477H6.65249L2.63642 15.3638C2.82127 15.5484 3.01404 15.725 3.21421 15.8929L6.65256 12.4544V11.3477ZM6.65256 6.65211V6.65204L2.63645 2.63589C2.45183 2.82074 2.27532 3.01352 2.10742 3.21369L5.54581 6.65207H6.65256V6.65211ZM11.3482 6.65211L15.3644 2.63593C15.1795 2.45131 14.9868 2.27481 14.7866 2.10693L11.3482 5.54532V6.65211Z" fill="#D80027"/>
</g>
<defs>
<clipPath id="clip0_1913_933">
<rect width="18" height="18" fill="white"/>
</clipPath>
</defs>
</svg>
