<svg width="135" height="80" viewBox="0 0 135 80" fill="none" xmlns="http://www.w3.org/2000/svg">
<path d="M54.0757 44.9771H52.1291L62.9807 32.6758V42.5748H66.4599V44.9771H62.9807V64.2369H54.0757V44.9771Z" fill="#D9D9D9"/>
<path d="M63.1892 64.4475H53.8621V45.1879H51.6588L63.1894 32.1172V42.3633H66.6686V45.1881H63.1894V64.4475H63.1892ZM54.2842 64.0254H62.7671V44.7657H66.2462V42.7854H62.7671V33.2338L52.5942 44.766H54.2842V64.0254Z" fill="#595757"/>
<path d="M54.0757 43.2896H52.1291L62.9807 30.9883V40.8873H66.4599V43.2896H62.9807V62.5494H54.0757V43.2896Z" fill="#0A1430"/>
<path d="M63.1892 62.76H53.8621V43.5004H51.6588L63.1894 30.4297V40.6758H66.6686V43.5006H63.1894V62.76H63.1892ZM54.2842 62.3377H62.7671V43.078H66.2462V41.0977H62.7671V31.5461L52.5942 43.0782H54.2842V62.3377Z" fill="#595757"/>
<path d="M75.0253 32.6758H66.1203V64.2369H75.0253V32.6758Z" fill="#0A1430"/>
<path d="M75.2331 64.4481H65.9062V32.4648H75.2331V64.4481ZM66.3283 64.026H74.811V32.8872H66.3283V64.026Z" fill="#595757"/>
<path d="M79.4985 42.5742C82.0664 42.5742 84.0683 43.6791 85.5042 45.8877C86.2497 46.9926 86.8227 48.1385 87.223 49.3254C87.6234 50.5132 87.8236 51.7558 87.8236 53.0531V53.2602V53.4259V53.9643L87.7822 54.5028C87.7822 55.6625 87.5751 56.8015 87.1609 57.9198C86.7467 59.0381 86.1392 60.1499 85.3385 61.254C83.9303 63.2421 81.9836 64.2361 79.4985 64.2361H77.469V42.5742H79.4985Z" fill="#E60012"/>
<path d="M79.4954 64.4477H77.2548V42.3633H79.4954C82.1272 42.3633 84.2073 43.5102 85.6781 45.7732C86.4288 46.8852 87.0156 48.0588 87.4201 49.258C87.8264 50.4627 88.032 51.7398 88.032 53.0535V53.9647L87.9896 54.5192C87.9904 55.6827 87.7768 56.8571 87.3557 57.9938C86.9371 59.1244 86.315 60.2632 85.5061 61.3784C84.0642 63.4146 82.0414 64.4477 79.4954 64.4477ZM77.677 64.0256H79.4952C81.8964 64.0256 83.8034 63.0521 85.1628 61.1324C85.9504 60.0467 86.5543 58.9418 86.9597 57.8471C87.3635 56.7577 87.5678 55.6325 87.5678 54.5033L87.6103 53.9488L87.6095 53.0537C87.6095 51.7858 87.4111 50.5541 87.0198 49.3936C86.6273 48.2301 86.0575 47.0904 85.326 46.0064C83.936 43.8686 81.9747 42.7858 79.495 42.7858H77.6767V64.0256H77.677Z" fill="#595757"/>
<path d="M95.6253 64.2379C93.9958 64.2379 92.5254 63.7409 91.2142 62.7468C89.9022 61.7528 89.2469 60.2897 89.2469 58.3564C89.2469 56.4512 89.8953 54.9951 91.1935 53.9868C92.4909 52.9794 93.9686 52.475 95.6253 52.475L98.6075 52.4336V64.2379H95.6253Z" fill="#0A1430"/>
<path d="M98.8156 64.4485H95.6222C93.9532 64.4485 92.4259 63.9323 91.084 62.9148C89.723 61.8835 89.0327 60.3498 89.0327 58.3558C89.0327 56.3911 89.7151 54.8647 91.0614 53.8198C92.3912 52.7869 93.9257 52.2633 95.6224 52.2633L98.8159 52.2188V64.4485H98.8156ZM98.3935 52.6467L95.6252 52.6854C94.0218 52.6854 92.574 53.1793 91.3201 54.1529C90.0824 55.1141 89.4548 56.5278 89.4548 58.3556C89.4548 60.2102 90.0887 61.631 91.3388 62.5782C92.6062 63.539 94.0473 64.0262 95.6222 64.0262H98.3933V52.6467H98.3935Z" fill="#595757"/>
<path d="M97.7735 43.9C98.4634 44.7564 98.809 45.709 98.809 46.7579V46.8821C98.809 47.8762 98.4634 48.8016 97.7735 49.6571C97.0828 50.5135 96.0473 50.9411 94.6671 50.9411C93.3137 50.9411 92.2649 50.5135 91.5193 49.6571C90.8286 48.7459 90.4839 47.7933 90.4839 46.7993V46.675C90.4839 45.681 90.8359 44.7564 91.54 43.9C92.2441 43.0444 93.2861 42.616 94.6671 42.616C96.0476 42.5612 97.083 42.9888 97.7735 43.9Z" fill="#00913A"/>
<path d="M94.6642 51.1531C93.2537 51.1531 92.1408 50.6967 91.357 49.7966C90.6326 48.8416 90.2696 47.8373 90.2696 46.8002V46.6757C90.2696 45.6367 90.6411 44.6579 91.3741 43.7668C92.1167 42.8638 93.2237 42.4059 94.664 42.4059C96.0944 42.3439 97.2051 42.8079 97.9369 43.771C98.6535 44.6613 99.0167 45.6664 99.0167 46.7586V46.883C99.0167 47.9221 98.6527 48.9004 97.9344 49.7903C97.2058 50.6948 96.1053 51.1531 94.6642 51.1531ZM94.9016 42.8232C94.8261 42.8232 94.7504 42.8249 94.6723 42.8282C93.3562 42.8282 92.3588 43.2342 91.7 44.035C91.0313 44.8485 90.692 45.7371 90.692 46.6759V46.8004C90.692 47.7434 91.026 48.6615 91.6843 49.5307C92.3853 50.3348 93.3628 50.731 94.6642 50.731C95.9712 50.731 96.9612 50.3252 97.6059 49.5259C98.262 48.7128 98.5948 47.8235 98.5948 46.8835V46.759C98.5948 45.7645 98.262 44.8475 97.6059 44.0335L97.6022 44.0285C96.9889 43.219 96.1036 42.8232 94.9016 42.8232Z" fill="#595757"/>
<path d="M101.037 47.006C101.037 46.0676 100.843 45.225 100.457 44.4795C100.098 43.6791 99.4764 43.0579 98.5932 42.6156L99.3802 42.5742L100.913 42.6156H101.078H101.327H101.948H102.569C104.475 42.6156 106.179 43.1407 107.685 44.1895C109.189 45.2392 109.942 46.6747 109.942 48.4971V64.2363H101.037V47.006Z" fill="#E60012"/>
<path d="M110.156 64.4473H100.828V47.0059C100.828 46.1066 100.641 45.2891 100.272 44.5762C99.9295 43.8146 99.3354 43.2222 98.5011 42.8045L97.787 42.447L99.3716 42.3633L102.572 42.4045C104.511 42.4045 106.273 42.9467 107.808 44.0163C109.366 45.1032 110.155 46.6106 110.155 48.4968V64.4473H110.156ZM101.251 64.0252H109.734V48.497C109.734 46.7323 109.025 45.3804 107.566 44.3627C106.104 43.3435 104.423 42.8268 102.572 42.8268H100.915L99.377 42.7852L99.3023 42.7894C99.9108 43.2132 100.364 43.7506 100.652 44.3928C101.048 45.1555 101.25 46.0382 101.25 47.0061V64.0252H101.251Z" fill="#595757"/>
<path d="M121.8 32.6758V64.2369H112.895V32.6758H121.8Z" fill="#0A1430"/>
<path d="M122.009 64.4481H112.681V32.4648H122.009V64.4481ZM113.103 64.026H121.586V32.8872H113.103V64.026Z" fill="#595757"/>
<path d="M133.099 36.4766V64.2379H124.194V36.4766H133.099Z" fill="#E60012"/>
<path d="M133.308 64.4491H123.98V36.2656H133.308V64.4491ZM124.402 64.0269H132.885V36.688H124.402V64.0269Z" fill="#595757"/>
<path d="M34.4741 64.2386H33.3384C31.9501 64.2386 30.6489 64.0656 29.4348 63.7181C28.2201 63.3713 27.0453 62.8036 25.9099 62.0147C23.7333 60.5324 22.6451 58.0875 22.6451 54.6807C22.6451 51.3375 23.7408 48.9164 25.9335 47.4178C28.1255 45.9198 30.5941 45.1703 33.3384 45.1703L34.4741 45.123V64.2386Z" fill="#0A1430"/>
<path d="M34.6819 64.449H33.3351C31.9326 64.449 30.5998 64.2712 29.3736 63.9204C28.1421 63.5691 26.9351 62.9857 25.7863 62.1871C23.5604 60.6713 22.431 58.1452 22.431 54.6801C22.431 51.2781 23.5683 48.7756 25.8114 47.2427C28.0296 45.727 30.5611 44.9584 33.3353 44.9584L34.6821 44.9023V64.449H34.6819ZM34.2597 45.3427L33.3437 45.3805C30.6473 45.3805 28.1961 46.1244 26.0494 47.5914C23.9285 49.0411 22.8529 51.426 22.8529 54.6798C22.8529 57.9969 23.9202 60.4057 26.0252 61.8392C27.1378 62.6123 28.3028 63.1755 29.4895 63.5143C30.6781 63.8541 31.9717 64.0264 33.3349 64.0264H34.2595V45.3427H34.2597Z" fill="#595757"/>
<path d="M34.4754 43.9869H33.3398L33.1977 44.0341C30.8003 44.0341 28.6237 43.4116 26.6683 42.1651C24.7122 40.9194 23.7346 38.8928 23.7346 36.0851C23.7346 33.3097 24.7358 31.3063 26.7392 30.0761C28.7419 28.8459 30.8948 28.2309 33.1977 28.2309H33.3398L34.4754 28.1836V43.9869Z" fill="#0A1430"/>
<path d="M33.2294 44.2448H33.1949C30.7671 44.2448 28.5319 43.6049 26.5518 42.3429C24.5403 41.0622 23.5205 38.9566 23.5205 36.0847C23.5205 33.2433 24.5654 31.1613 26.6256 29.8958C28.6531 28.6505 30.8633 28.0194 33.1949 28.0194H33.3367L34.6834 27.9629V44.1973H33.371L33.2294 44.2448ZM34.2615 28.4032L33.1951 28.4415C30.9426 28.4415 28.8068 29.0517 26.847 30.2553C24.9199 31.4387 23.9431 33.4 23.9431 36.0847C23.9431 38.8026 24.8972 40.7884 26.779 41.9866C28.6811 43.1989 30.8282 43.8166 33.161 43.8226L33.3371 43.7752H34.2617V28.4032H34.2615Z" fill="#595757"/>
<path d="M38.9679 28.1819C41.3965 28.1819 43.5967 28.7969 45.5685 30.0271C47.5395 31.2573 48.5258 33.2763 48.5258 36.0834C48.5258 38.8595 47.5397 40.8785 45.5685 42.1397C43.5967 43.4017 41.3965 44.0324 38.9679 44.0324L37.8797 43.9851V28.1816H38.9679V28.1819Z" fill="#0A1430"/>
<path d="M38.965 44.2436L37.6656 44.1871V27.9707H38.965C41.4221 27.9707 43.6807 28.6024 45.6774 29.8479C47.7058 31.1137 48.734 33.2116 48.734 36.0833C48.734 38.923 47.7062 41.0207 45.6792 42.3174C43.683 43.596 41.424 44.2436 38.965 44.2436ZM38.0877 43.7832L38.9742 43.8215C41.342 43.8215 43.5244 43.196 45.4517 41.9622C47.3494 40.7479 48.3116 38.7701 48.3116 36.0835C48.3116 33.3672 47.3502 31.3896 45.4537 30.2061C43.5251 29.0032 41.342 28.393 38.9648 28.393H38.0877V43.7832Z" fill="#595757"/>
<path d="M21.6912 29.4997L16.72 29.5589C14.471 29.5589 12.4976 28.7703 10.8017 27.1916C9.10479 25.6139 8.25676 23.6999 8.25676 21.4509V21.0957C8.37516 19.7938 8.6312 18.7284 9.02614 17.8998C9.49953 16.9141 10.17 16.0855 11.0383 15.4141C9.2939 15.805 7.834 16.4667 5.71182 19.4976L5.17924 20.3853L4.76505 21.2139C4.33036 22.1609 3.99379 24.3272 3.99567 25.2974C3.99651 25.7321 3.99567 26.1659 3.99567 26.5994V29.4993H1.21414V32.8822H21.6912V29.4997Z" fill="#0A1430"/>
<path d="M21.8994 33.093H1V29.2877H3.78174V25.2973C3.77965 24.3361 4.11727 22.1119 4.57036 21.1251L4.98769 20.2903L5.52822 19.3885C7.59287 16.4388 9.03959 15.6447 10.9894 15.2073L11.9153 15L11.1649 15.5805C10.3271 16.2288 9.6707 17.0398 9.21384 17.9909C8.83229 18.7917 8.58001 19.8426 8.46454 21.1143L8.46538 21.4502C8.46538 23.6285 9.29877 25.5078 10.9428 27.0363C12.5901 28.5696 14.533 29.3473 16.7175 29.3473L21.8998 29.2854V33.093H21.8994ZM1.42213 32.6709H21.4771V29.7126L16.7194 29.7695C14.4223 29.7695 12.3826 28.9539 10.6547 27.3455C8.92161 25.7341 8.04262 23.7504 8.04262 21.4502V21.0952C8.16373 19.7543 8.42919 18.6551 8.83271 17.8087C9.18602 17.0732 9.65146 16.4168 10.2211 15.8487C8.95696 16.2576 7.655 17.086 5.88216 19.6184L5.35752 20.4934L4.95129 21.3082C4.5235 22.2405 4.2022 24.3725 4.20408 25.2969L4.20429 26.1657L4.20408 29.7103H1.42234V32.6709H1.42213Z" fill="#595757"/>
<path d="M79.4985 42.5742C82.0664 42.5742 84.0683 43.6791 85.5042 45.8877C86.2497 46.9926 86.8227 48.1385 87.223 49.3254C87.6234 50.5132 87.8236 51.7558 87.8236 53.0531V53.2602V53.4259V53.9643L87.7822 54.5028C87.7822 55.6625 87.5751 56.8015 87.1609 57.9198C86.7467 59.0381 86.1392 60.1499 85.3385 61.254C83.9303 63.2421 81.9836 64.2361 79.4985 64.2361H77.469V42.5742H79.4985Z" fill="#D9D9D9"/>
<path d="M79.4954 64.4477H77.2548V42.3633H79.4954C82.1272 42.3633 84.2073 43.5102 85.6781 45.7732C86.4288 46.8852 87.0156 48.0588 87.4201 49.258C87.8264 50.4627 88.032 51.7398 88.032 53.0535V53.9647L87.9896 54.5192C87.9904 55.6827 87.7768 56.8571 87.3557 57.9938C86.9371 59.1244 86.315 60.2632 85.5061 61.3784C84.0642 63.4146 82.0414 64.4477 79.4954 64.4477ZM77.677 64.0256H79.4952C81.8964 64.0256 83.8034 63.0521 85.1628 61.1324C85.9504 60.0467 86.5543 58.9418 86.9597 57.8471C87.3635 56.7577 87.5678 55.6325 87.5678 54.5033L87.6103 53.9488L87.6095 53.0537C87.6095 51.7858 87.4111 50.5541 87.0198 49.3936C86.6273 48.2301 86.0575 47.0904 85.326 46.0064C83.936 43.8686 81.9747 42.7858 79.495 42.7858H77.6767V64.0256H77.677Z" fill="#595757"/>
<path d="M101.037 47.006C101.037 46.0676 100.843 45.225 100.457 44.4795C100.098 43.6791 99.4764 43.0579 98.5932 42.6156L99.3802 42.5742L100.913 42.6156H101.078H101.327H101.948H102.569C104.475 42.6156 106.179 43.1407 107.685 44.1895C109.189 45.2392 109.942 46.6747 109.942 48.4971V64.2363H101.037V47.006Z" fill="#D9D9D9"/>
<path d="M110.156 64.4473H100.828V47.0059C100.828 46.1066 100.641 45.2891 100.272 44.5762C99.9295 43.8146 99.3354 43.2222 98.5011 42.8045L97.787 42.447L99.3716 42.3633L102.572 42.4045C104.511 42.4045 106.273 42.9467 107.808 44.0163C109.366 45.1032 110.155 46.6106 110.155 48.4968V64.4473H110.156ZM101.251 64.0252H109.734V48.497C109.734 46.7323 109.025 45.3804 107.566 44.3627C106.104 43.3435 104.423 42.8268 102.572 42.8268H100.915L99.377 42.7852L99.3023 42.7894C99.9108 43.2132 100.364 43.7506 100.652 44.3928C101.048 45.1555 101.25 46.0382 101.25 47.0061V64.0252H101.251Z" fill="#595757"/>
<path d="M133.099 36.4766V64.2379H124.194V36.4766H133.099Z" fill="#D9D9D9"/>
<path d="M133.308 64.4491H123.98V36.2656H133.308V64.4491ZM124.402 64.0269H132.885V36.688H124.402V64.0269Z" fill="#595757"/>
<path d="M38.9679 45.1233C41.7122 45.1233 44.1881 45.873 46.3965 47.3707C48.604 48.8693 49.7085 51.3061 49.7085 54.6809C49.7085 58.0565 48.6122 60.4933 46.4201 61.9911C44.2274 63.4897 41.7434 64.2386 38.9679 64.2386H37.8797V45.123H38.9679V45.1233Z" fill="#D9D9D9"/>
<path d="M38.965 64.4497H37.6656V44.9121H38.965C41.7384 44.9121 44.2777 45.6802 46.5122 47.1956C48.7712 48.7293 49.9167 51.2479 49.9167 54.6808C49.9167 58.1146 48.7794 60.6325 46.5363 62.1657C44.3187 63.6812 41.7715 64.4497 38.965 64.4497ZM38.0877 64.0276H38.9648C41.6847 64.0276 44.1518 63.2838 46.2978 61.8167C48.4187 60.3675 49.4944 57.9665 49.4944 54.6808C49.4944 51.3964 48.4112 48.9954 46.275 47.5453C44.1118 46.0783 41.6522 45.3345 38.9648 45.3345H38.0877V64.0276Z" fill="#595757"/>
<path d="M16.6236 34.5957H3.89929V64.2363H16.6236V34.5957Z" fill="#D9D9D9"/>
<path d="M16.8314 64.4475H3.68515V34.3848H16.8314V64.4475ZM4.10749 64.0254H16.4092V34.8071H4.10749V64.0254Z" fill="#595757"/>
<path d="M81.1874 40.043C83.7553 40.043 85.7572 41.1479 87.1931 43.3565C87.9386 44.4614 88.5116 45.6073 88.9119 46.7942C89.3123 47.9819 89.5125 49.2245 89.5125 50.5219V50.729V50.8946V51.4331L89.4711 51.9715C89.4711 53.1312 89.264 54.2702 88.8498 55.3885C88.4356 56.5068 87.8282 57.6187 87.0274 58.7227C85.6192 60.7108 83.6725 61.7049 81.1874 61.7049H79.1579V40.043H81.1874Z" fill="#0A1430"/>
<path d="M81.1843 61.9165H78.9437V39.832H81.1843C83.8163 39.832 85.8962 40.979 87.367 43.242C88.1177 44.354 88.7045 45.5275 89.109 46.7268C89.5151 47.9315 89.7209 49.2085 89.7209 50.5222V51.4334L89.6785 51.988C89.6793 53.1514 89.4657 54.3258 89.0448 55.4625C88.6262 56.5932 88.0041 57.732 87.1952 58.8471C85.7531 60.8831 83.7305 61.9165 81.1843 61.9165ZM79.3661 61.4944H81.1843C83.5855 61.4944 85.4927 60.5208 86.852 58.6011C87.6395 57.5155 88.2435 56.4105 88.6489 55.3159C89.0526 54.2264 89.2569 53.1012 89.2569 51.9721L89.2994 51.4175L89.2986 50.5224C89.2986 49.2545 89.1003 48.0229 88.7089 46.8623C88.3165 45.6988 87.7466 44.5592 87.0151 43.4752C85.6253 41.3373 83.664 40.2546 81.1841 40.2546H79.3659V61.4944H79.3661Z" fill="#595757"/>
<path d="M102.73 44.4748C102.73 43.5364 102.537 42.6938 102.15 41.9482C101.791 41.1479 101.17 40.5266 100.287 40.0844L101.074 40.043L102.606 40.0844H102.772H103.02H103.642H104.263C106.168 40.0844 107.873 40.6094 109.378 41.6583C110.882 42.708 111.635 44.1434 111.635 45.9658V61.7051H102.73V44.4748Z" fill="#0A1430"/>
<path d="M111.849 61.9161H102.522V44.4747C102.522 43.5754 102.335 42.7579 101.966 42.045C101.623 41.2834 101.029 40.6909 100.195 40.2732L99.4804 39.9157L101.065 39.832L104.265 39.8732C106.205 39.8732 107.966 40.4154 109.501 41.485C111.059 42.5719 111.849 44.0793 111.849 45.9655V61.9161H111.849ZM102.944 61.4939H111.427V45.9657C111.427 44.2011 110.718 42.8491 109.26 41.8314C107.797 40.8123 106.117 40.2956 104.266 40.2956H102.609L101.07 40.254L100.996 40.2581C101.604 40.6819 102.057 41.2193 102.346 41.8615C102.741 42.6242 102.944 43.507 102.944 44.4749V61.4939Z" fill="#595757"/>
<path d="M134.792 33.9434V61.7047H125.887V33.9434H134.792Z" fill="#0A1430"/>
<path d="M135.001 61.9159H125.673V33.7324H135.001V61.9159ZM126.095 61.4937H134.579V34.1548H126.095V61.4937Z" fill="#595757"/>
<path d="M40.3639 43.0451C43.1082 43.0451 45.5841 43.7948 47.7924 45.2926C50 46.7912 51.1045 49.228 51.1045 52.6028C51.1045 55.9784 50.0081 58.4152 47.8161 59.9129C45.6234 61.4115 43.1393 62.1604 40.3639 62.1604H39.2757V43.0449H40.3639V43.0451Z" fill="#F39800"/>
<path d="M40.361 62.372H39.0616V42.834H40.361C43.1348 42.834 45.6739 43.6025 47.908 45.1179C50.1672 46.6516 51.3127 49.1702 51.3127 52.6031C51.3127 56.0369 50.1753 58.5548 47.9322 60.088C45.714 61.6035 43.1668 62.372 40.361 62.372ZM39.4837 61.9499H40.3608C43.08 61.9499 45.5471 61.206 47.6938 59.739C49.8147 58.2898 50.8903 55.8888 50.8903 52.6031C50.8903 49.3187 49.8072 46.9177 47.6708 45.4676C45.508 44.0002 43.0484 43.2563 40.3608 43.2563H39.4837V61.9499Z" fill="#595757"/>
<path d="M18.1465 32.3242H5.42221V61.9648H18.1465V32.3242Z" fill="#E60012"/>
<path d="M18.3545 62.1761H5.20807V32.1133H18.3545V62.1761ZM5.6302 61.7537H17.9321V32.5354H5.6302V61.7537Z" fill="#595757"/>
<path d="M16.7145 26.6588C18.6082 26.6588 20.0185 26.067 20.9461 24.8833C21.8726 23.6997 22.3369 22.3975 22.3369 20.9772C22.3369 19.5967 21.8636 18.3343 20.9166 17.1895C19.9299 15.967 18.5289 15.3752 16.7147 15.4139C14.8209 15.4139 13.4098 15.9965 12.4831 17.1597C11.5556 18.3241 11.0922 19.6361 11.0922 21.0953C11.0922 22.4768 11.575 23.7493 12.5423 24.9125C13.5085 26.0773 14.8994 26.6588 16.7145 26.6588Z" fill="#0A1430"/>
<path d="M16.7116 26.8699C14.8386 26.8699 13.3801 26.2568 12.3767 25.0479C11.3824 23.8522 10.8781 22.5224 10.8781 21.0958C10.8781 19.5936 11.3615 18.2256 12.3148 17.0286C13.2793 15.8172 14.7587 15.2028 16.7114 15.2028C18.587 15.1646 20.0521 15.7867 21.0777 17.0566C22.0508 18.2333 22.5449 19.5533 22.5449 20.9774C22.5449 22.439 22.0619 23.7968 21.1091 25.0136C20.1441 26.2453 18.6646 26.8699 16.7116 26.8699ZM16.8739 15.6235C16.8216 15.6235 16.7691 15.6239 16.716 15.6252C14.8938 15.6252 13.5255 16.186 12.6451 17.2918C11.7529 18.4119 11.3002 19.6919 11.3002 21.0958C11.3002 22.4214 11.7717 23.66 12.7013 24.7783C13.6207 25.8861 14.9699 26.4478 16.7116 26.4478C18.5282 26.4478 19.8958 25.8775 20.7769 24.7532C21.6699 23.6127 22.123 22.3423 22.123 20.9776C22.123 19.6541 21.6613 18.4249 20.751 17.324C19.8389 16.1946 18.5355 15.6235 16.8739 15.6235Z" fill="#595757"/>
</svg>
