<svg width="76" height="29" viewBox="0 0 76 29" fill="none" xmlns="http://www.w3.org/2000/svg">
<path d="M30.1014 17H28.9973L35.1517 10.0234V15.6375H37.1249V17H35.1517V27.9229H30.1014V17Z" fill="#D9D9D9"/>
<path d="M35.2706 28.0427H29.9809V17.1199H28.7313L35.2707 9.70703V15.5179H37.2439V17.12H35.2707V28.0427H35.2706ZM30.2203 27.8033H35.0312V16.8805H37.0044V15.7574H35.0312V10.3403L29.2618 16.8806H30.2203V27.8033Z" fill="#595757"/>
<path d="M30.1014 16.0429H28.9973L35.1517 9.06641V14.6805H37.1249V16.0429H35.1517V26.9659H30.1014V16.0429Z" fill="#0A1430"/>
<path d="M35.2706 27.0857H29.9809V16.1629H28.7313L35.2707 8.75V14.5609H37.2439V16.163H35.2707V27.0857H35.2706ZM30.2203 26.8462H35.0312V15.9233H37.0044V14.8002H35.0312V9.38316L29.2618 15.9235H30.2203V26.8462Z" fill="#595757"/>
<path d="M41.9831 10.0234H36.9327V27.9229H41.9831V10.0234Z" fill="#0A1430"/>
<path d="M42.105 28.0432H36.8154V9.9043H42.105V28.0432ZM37.0548 27.8038H41.8656V10.1438H37.0548V27.8038Z" fill="#595757"/>
<path d="M44.5181 15.6387C45.9745 15.6387 47.1098 16.2653 47.9242 17.5179C48.347 18.1445 48.6719 18.7944 48.899 19.4675C49.1261 20.1411 49.2396 20.8458 49.2396 21.5816V21.6991V21.793V22.0984L49.2161 22.4038C49.2161 23.0615 49.0986 23.7075 48.8637 24.3417C48.6288 24.9759 48.2843 25.6065 47.8302 26.2326C47.0315 27.3602 45.9275 27.9239 44.5181 27.9239H43.3671V15.6387H44.5181Z" fill="#E60012"/>
<path d="M44.5204 28.0444H43.2497V15.5195H44.5204C46.013 15.5195 47.1927 16.17 48.0268 17.4534C48.4526 18.0841 48.7854 18.7496 49.0148 19.4298C49.2452 20.113 49.3619 20.8373 49.3619 21.5823V22.0991L49.3378 22.4136C49.3383 23.0735 49.2171 23.7395 48.9783 24.3841C48.7409 25.0254 48.3881 25.6712 47.9293 26.3037C47.1116 27.4585 45.9644 28.0444 44.5204 28.0444ZM43.4891 27.805H44.5203C45.8821 27.805 46.9636 27.2529 47.7346 26.1642C48.1813 25.5484 48.5238 24.9218 48.7537 24.301C48.9827 23.6831 49.0986 23.045 49.0986 22.4046L49.1227 22.0901L49.1222 21.5824C49.1222 20.8634 49.0097 20.1648 48.7878 19.5067C48.5652 18.8468 48.242 18.2005 47.8272 17.5857C47.0388 16.3732 45.9265 15.7592 44.5202 15.7592H43.489V27.805H43.4891Z" fill="#595757"/>
<path d="M53.658 27.9232C52.7338 27.9232 51.8999 27.6413 51.1563 27.0775C50.4122 26.5138 50.0405 25.684 50.0405 24.5876C50.0405 23.507 50.4083 22.6812 51.1445 22.1094C51.8803 21.538 52.7184 21.252 53.658 21.252L55.3492 21.2285V27.9232H53.658Z" fill="#0A1430"/>
<path d="M55.4714 28.0434H53.6603C52.7137 28.0434 51.8475 27.7506 51.0865 27.1735C50.3146 26.5886 49.9231 25.7188 49.9231 24.588C49.9231 23.4737 50.3101 22.608 51.0737 22.0155C51.8278 21.4296 52.6982 21.1327 53.6604 21.1327L55.4715 21.1074V28.0434H55.4714ZM55.232 21.3502L53.662 21.3721C52.7526 21.3721 51.9315 21.6522 51.2204 22.2043C50.5185 22.7495 50.1625 23.5512 50.1625 24.5879C50.1625 25.6397 50.522 26.4455 51.231 26.9826C51.9498 27.5275 52.7671 27.8038 53.6603 27.8038H55.2319V21.3502H55.232Z" fill="#595757"/>
<path d="M54.884 16.391C55.2753 16.8767 55.4713 17.417 55.4713 18.0118V18.0823C55.4713 18.646 55.2753 19.1709 54.884 19.6561C54.4923 20.1418 53.905 20.3843 53.1223 20.3843C52.3547 20.3843 51.7598 20.1418 51.337 19.6561C50.9453 19.1393 50.7498 18.599 50.7498 18.0353V17.9648C50.7498 17.4011 50.9494 16.8767 51.3488 16.391C51.7481 15.9058 52.339 15.6628 53.1223 15.6628C53.9051 15.6317 54.4924 15.8742 54.884 16.391Z" fill="#00913A"/>
<path d="M53.1247 20.5031C52.3248 20.5031 51.6936 20.2442 51.2491 19.7337C50.8382 19.1921 50.6324 18.6226 50.6324 18.0344V17.9638C50.6324 17.3745 50.8431 16.8194 51.2588 16.314C51.68 15.8019 52.3078 15.5422 53.1246 15.5422C53.9358 15.5071 54.5658 15.7702 54.9808 16.3164C55.3872 16.8213 55.5932 17.3913 55.5932 18.0107V18.0813C55.5932 18.6706 55.3867 19.2255 54.9794 19.7301C54.5661 20.2431 53.942 20.5031 53.1247 20.5031ZM53.2594 15.7788C53.2165 15.7788 53.1736 15.7798 53.1293 15.7817C52.3829 15.7817 51.8172 16.012 51.4436 16.4661C51.0644 16.9275 50.8719 17.4314 50.8719 17.9639V18.0345C50.8719 18.5693 51.0614 19.09 51.4347 19.5829C51.8323 20.0389 52.3867 20.2636 53.1247 20.2636C53.866 20.2636 54.4275 20.0335 54.7931 19.5802C55.1651 19.119 55.3539 18.6147 55.3539 18.0816V18.011C55.3539 17.447 55.1651 16.9269 54.7931 16.4653L54.791 16.4624C54.4431 16.0033 53.941 15.7788 53.2594 15.7788Z" fill="#595757"/>
<path d="M56.7434 18.1521C56.7434 17.6199 56.6336 17.142 56.4146 16.7192C56.2108 16.2653 55.8584 15.913 55.3575 15.6622L55.8038 15.6387L56.673 15.6622H56.7669H56.9079H57.2602H57.6126C58.6931 15.6622 59.6599 15.9599 60.5136 16.5548C61.3668 17.1501 61.7938 17.9642 61.7938 18.9977V27.924H56.7434V18.1521Z" fill="#E60012"/>
<path d="M61.9106 28.0442H56.6207V18.1525C56.6207 17.6425 56.5145 17.1789 56.3053 16.7746C56.1109 16.3426 55.774 16.0067 55.3009 15.7697L54.8959 15.567L55.7945 15.5195L57.6096 15.5429C58.7096 15.5429 59.7085 15.8504 60.579 16.457C61.4625 17.0734 61.9105 17.9283 61.9105 18.9981V28.0442H61.9106ZM56.8602 27.8048H61.6712V18.9982C61.6712 17.9974 61.2692 17.2306 60.4421 16.6535C59.6127 16.0755 58.6596 15.7824 57.6097 15.7824H56.6701L55.7976 15.7588L55.7553 15.7612C56.1004 16.0016 56.3571 16.3063 56.5208 16.6705C56.7451 17.1031 56.8601 17.6037 56.8601 18.1527V27.8048H56.8602Z" fill="#595757"/>
<path d="M68.5082 10.0234V27.9229H63.4579V10.0234H68.5082Z" fill="#0A1430"/>
<path d="M68.6303 28.0432H63.3405V9.9043H68.6303V28.0432ZM63.5799 27.8038H68.3908V10.1438H63.5799V27.8038Z" fill="#595757"/>
<path d="M74.9151 12.1797V27.9241H69.8648V12.1797H74.9151Z" fill="#E60012"/>
<path d="M75.0373 28.0444H69.7474V12.0605H75.0373V28.0444ZM69.9868 27.805H74.7979V12.3001H69.9868V27.805Z" fill="#595757"/>
<path d="M18.9776 27.9251H18.3336C17.5462 27.9251 16.8083 27.827 16.1197 27.6299C15.4308 27.4332 14.7645 27.1112 14.1206 26.6639C12.8861 25.8232 12.269 24.4366 12.269 22.5045C12.269 20.6084 12.8904 19.2353 14.134 18.3854C15.3771 17.5359 16.7772 17.1108 18.3336 17.1108L18.9776 17.084V27.9251Z" fill="#0A1430"/>
<path d="M19.0995 28.0446H18.3358C17.5403 28.0446 16.7845 27.9437 16.089 27.7448C15.3906 27.5456 14.7061 27.2147 14.0546 26.7618C12.7921 25.9021 12.1516 24.4695 12.1516 22.5043C12.1516 20.5749 12.7967 19.1557 14.0688 18.2863C15.3268 17.4267 16.7625 16.9908 18.3359 16.9908L19.0997 16.959V28.0446H19.0995ZM18.8601 17.2087L18.3406 17.2302C16.8114 17.2302 15.4212 17.6521 14.2038 18.4841C13.0009 19.3062 12.3909 20.6588 12.3909 22.5042C12.3909 24.3854 12.9962 25.7515 14.19 26.5645C14.8211 27.003 15.4817 27.3223 16.1548 27.5145C16.8289 27.7072 17.5625 27.8049 18.3357 27.8049H18.86V17.2087H18.8601Z" fill="#595757"/>
<path d="M18.9796 16.4392H18.3356L18.255 16.466C16.8953 16.466 15.6609 16.1129 14.5519 15.406C13.4425 14.6995 12.8881 13.5501 12.8881 11.9578C12.8881 10.3837 13.4559 9.24756 14.5921 8.54986C15.7279 7.85216 16.9489 7.50337 18.255 7.50337H18.3356L18.9796 7.47656V16.4392Z" fill="#0A1430"/>
<path d="M18.277 16.5856H18.2574C16.8806 16.5856 15.6129 16.2227 14.4899 15.507C13.3491 14.7807 12.7708 13.5865 12.7708 11.9577C12.7708 10.3463 13.3634 9.16551 14.5318 8.44776C15.6816 7.74152 16.9351 7.38359 18.2574 7.38359H18.3379L19.1017 7.35156V16.5587H18.3573L18.277 16.5856ZM18.8624 7.60129L18.2576 7.623C16.9801 7.623 15.7688 7.96907 14.6573 8.6517C13.5644 9.32282 13.0104 10.4352 13.0104 11.9577C13.0104 13.4992 13.5515 14.6254 14.6188 15.3049C15.6975 15.9924 16.9152 16.3428 18.2382 16.3462L18.3381 16.3193H18.8625V7.60129H18.8624Z" fill="#595757"/>
<path d="M21.5267 7.47668C22.904 7.47668 24.1519 7.82547 25.2701 8.52317C26.3879 9.22087 26.9473 10.3659 26.9473 11.9579C26.9473 13.5323 26.388 14.6774 25.2701 15.3927C24.1519 16.1084 22.904 16.4661 21.5267 16.4661L20.9095 16.4393V7.47656H21.5267V7.47668Z" fill="#0A1430"/>
<path d="M21.5291 16.5864L20.7922 16.5543V7.35742H21.5291C22.9226 7.35742 24.2035 7.7157 25.3359 8.42206C26.4863 9.13993 27.0694 10.3297 27.0694 11.9584C27.0694 13.5689 26.4866 14.7585 25.337 15.494C24.2048 16.2191 22.9237 16.5864 21.5291 16.5864ZM21.0316 16.3252L21.5343 16.347C22.8772 16.347 24.1149 15.9922 25.2079 15.2925C26.2842 14.6038 26.8299 13.4821 26.8299 11.9585C26.8299 10.418 26.2847 9.29641 25.2091 8.62517C24.1153 7.94301 22.8772 7.59695 21.529 7.59695H21.0316V16.3252Z" fill="#595757"/>
<path d="M11.7307 8.22286L8.91127 8.25643C7.63581 8.25643 6.5166 7.80917 5.55482 6.91382C4.59244 6.01907 4.11149 4.93355 4.11149 3.6581V3.45665C4.17864 2.71826 4.32385 2.11404 4.54784 1.64413C4.81631 1.08511 5.19654 0.615197 5.689 0.234375C4.69969 0.456106 3.87173 0.831351 2.66816 2.55027L2.36612 3.05376L2.13122 3.52368C1.88469 4.06074 1.69381 5.28934 1.69487 5.83958C1.69535 6.0861 1.69487 6.33215 1.69487 6.57797V8.22262H0.117371V10.1412H11.7307V8.22286Z" fill="#0A1430"/>
<path d="M11.8528 10.2612H0V8.10308H1.57762V5.83998C1.57644 5.29485 1.76791 4.03339 2.02488 3.47378L2.26156 3.00031L2.56812 2.48887C3.73905 0.81598 4.55954 0.365636 5.66535 0.117568L6.19043 0L5.76488 0.329218C5.28975 0.696871 4.91747 1.15682 4.65836 1.69626C4.44197 2.1504 4.2989 2.74643 4.23341 3.46761L4.23389 3.65815C4.23389 4.8935 4.70653 5.95933 5.63889 6.8262C6.57315 7.69581 7.67505 8.13689 8.91396 8.13689L11.8531 8.10178V10.2612H11.8528ZM0.239406 10.0218H11.6133V8.34403L8.91503 8.3763C7.61229 8.3763 6.45546 7.91374 5.47553 7.00155C4.49263 6.08769 3.99412 4.96267 3.99412 3.65815V3.45682C4.06281 2.69636 4.21336 2.07293 4.44221 1.59293C4.64259 1.1758 4.90655 0.803523 5.2296 0.481307C4.51268 0.713241 3.77429 1.18304 2.76885 2.61925L2.47131 3.1155L2.24092 3.57759C1.99831 4.10635 1.81608 5.31549 1.81715 5.83974L1.81727 6.33244L1.81715 8.34273H0.239526V10.0218H0.239406Z" fill="#595757"/>
<path d="M44.5181 15.6387C45.9745 15.6387 47.1098 16.2653 47.9242 17.5179C48.347 18.1445 48.6719 18.7944 48.899 19.4675C49.1261 20.1411 49.2396 20.8458 49.2396 21.5816V21.6991V21.793V22.0984L49.2161 22.4038C49.2161 23.0615 49.0986 23.7075 48.8637 24.3417C48.6288 24.9759 48.2843 25.6065 47.8302 26.2326C47.0315 27.3602 45.9275 27.9239 44.5181 27.9239H43.3671V15.6387H44.5181Z" fill="#D9D9D9"/>
<path d="M44.5204 28.0444H43.2497V15.5195H44.5204C46.013 15.5195 47.1927 16.17 48.0268 17.4534C48.4526 18.0841 48.7854 18.7496 49.0148 19.4298C49.2452 20.113 49.3619 20.8373 49.3619 21.5823V22.0991L49.3378 22.4136C49.3383 23.0735 49.2171 23.7395 48.9783 24.3841C48.7409 25.0254 48.3881 25.6712 47.9293 26.3037C47.1116 27.4585 45.9644 28.0444 44.5204 28.0444ZM43.4891 27.805H44.5203C45.8821 27.805 46.9636 27.2529 47.7346 26.1642C48.1813 25.5484 48.5238 24.9218 48.7537 24.301C48.9827 23.6831 49.0986 23.045 49.0986 22.4046L49.1227 22.0901L49.1222 21.5824C49.1222 20.8634 49.0097 20.1648 48.7878 19.5067C48.5652 18.8468 48.242 18.2005 47.8272 17.5857C47.0388 16.3732 45.9265 15.7592 44.5202 15.7592H43.489V27.805H43.4891Z" fill="#595757"/>
<path d="M56.7434 18.1521C56.7434 17.6199 56.6336 17.142 56.4146 16.7192C56.2108 16.2653 55.8584 15.913 55.3575 15.6622L55.8038 15.6387L56.673 15.6622H56.7669H56.9079H57.2602H57.6126C58.6931 15.6622 59.6599 15.9599 60.5136 16.5548C61.3668 17.1501 61.7938 17.9642 61.7938 18.9977V27.924H56.7434V18.1521Z" fill="#D9D9D9"/>
<path d="M61.9106 28.0442H56.6207V18.1525C56.6207 17.6425 56.5145 17.1789 56.3053 16.7746C56.1109 16.3426 55.774 16.0067 55.3009 15.7697L54.8959 15.567L55.7945 15.5195L57.6096 15.5429C58.7096 15.5429 59.7085 15.8504 60.579 16.457C61.4625 17.0734 61.9105 17.9283 61.9105 18.9981V28.0442H61.9106ZM56.8602 27.8048H61.6712V18.9982C61.6712 17.9974 61.2692 17.2306 60.4421 16.6535C59.6127 16.0755 58.6596 15.7824 57.6097 15.7824H56.6701L55.7976 15.7588L55.7553 15.7612C56.1004 16.0016 56.3571 16.3063 56.5208 16.6705C56.7451 17.1031 56.8601 17.6037 56.8601 18.1527V27.8048H56.8602Z" fill="#595757"/>
<path d="M74.9151 12.1797V27.9241H69.8648V12.1797H74.9151Z" fill="#D9D9D9"/>
<path d="M75.0373 28.0444H69.7474V12.0605H75.0373V28.0444ZM69.9868 27.805H74.7979V12.3001H69.9868V27.805Z" fill="#595757"/>
<path d="M21.5267 17.0822C23.0831 17.0822 24.4872 17.5073 25.7397 18.3568C26.9916 19.2067 27.618 20.5887 27.618 22.5026C27.618 24.4171 26.9963 25.7991 25.7531 26.6485C24.5095 27.4984 23.1007 27.9231 21.5267 27.9231H20.9095V17.082H21.5267V17.0822Z" fill="#D9D9D9"/>
<path d="M21.5291 28.0434H20.7922V16.9629H21.5291C23.102 16.9629 24.5421 17.3985 25.8094 18.2579C27.0905 19.1278 27.7402 20.5561 27.7402 22.5031C27.7402 24.4505 27.0952 25.8785 25.823 26.748C24.5654 27.6075 23.1207 28.0434 21.5291 28.0434ZM21.0316 27.804H21.529C23.0715 27.804 24.4707 27.3821 25.6878 26.5501C26.8906 25.7282 27.5007 24.3665 27.5007 22.5031C27.5007 20.6404 26.8864 19.2787 25.6749 18.4563C24.4481 17.6243 23.0531 17.2024 21.529 17.2024H21.0316V27.804Z" fill="#595757"/>
<path d="M8.8542 11.1133H1.6378V27.9235H8.8542V11.1133Z" fill="#D9D9D9"/>
<path d="M8.97612 28.0438H1.52043V10.9941H8.97612V28.0438ZM1.75996 27.8044H8.73671V11.2337H1.75996V27.8044Z" fill="#595757"/>
<path d="M45.4703 14.2012C46.9267 14.2012 48.0621 14.8278 48.8764 16.0804C49.2992 16.707 49.6241 17.3569 49.8512 18.03C50.0783 18.7037 50.1918 19.4084 50.1918 20.1441V20.2616V20.3555V20.6609L50.1683 20.9663C50.1683 21.624 50.0509 22.27 49.816 22.9042C49.5811 23.5384 49.2366 24.169 48.7824 24.7951C47.9838 25.9227 46.8797 26.4864 45.4703 26.4864H44.3193V14.2012H45.4703Z" fill="#0A1430"/>
<path d="M45.4727 26.6069H44.202V14.082H45.4727C46.9654 14.082 48.145 14.7325 48.9791 16.0159C49.4049 16.6466 49.7376 17.3121 49.9671 17.9923C50.1974 18.6755 50.3141 19.3998 50.3141 20.1448V20.6616L50.29 20.9761C50.2905 21.6359 50.1694 22.302 49.9307 22.9466C49.6933 23.5879 49.3404 24.2337 48.8817 24.8662C48.0638 26.0209 46.9167 26.6069 45.4727 26.6069ZM44.4415 26.3675H45.4727C46.8345 26.3675 47.9161 25.8154 48.687 24.7267C49.1337 24.1109 49.4762 23.4843 49.7061 22.8635C49.9351 22.2456 50.051 21.6075 50.051 20.9671L50.075 20.6526L50.0746 20.1449C50.0746 19.4259 49.9621 18.7273 49.7401 18.0692C49.5176 17.4093 49.1944 16.763 48.7795 16.1482C47.9913 14.9357 46.879 14.3217 45.4726 14.3217H44.4414V26.3675H44.4415Z" fill="#595757"/>
<path d="M57.6996 16.7146C57.6996 16.1824 57.5897 15.7045 57.3707 15.2817C57.1669 14.8278 56.8145 14.4755 56.3137 14.2247L56.76 14.2012L57.6291 14.2247H57.7231H57.864H58.2163H58.5687C59.6492 14.2247 60.6161 14.5224 61.4697 15.1173C62.3229 15.7126 62.7499 16.5267 62.7499 17.5602V26.4865H57.6996V16.7146Z" fill="#0A1430"/>
<path d="M62.8667 26.6067H57.5768V16.715C57.5768 16.205 57.4707 15.7414 57.2614 15.3371C57.0671 14.9051 56.7301 14.5692 56.257 14.3322L55.852 14.1295L56.7507 14.082L58.5657 14.1054C59.6657 14.1054 60.6646 14.4129 61.5351 15.0195C62.4186 15.6359 62.8666 16.4908 62.8666 17.5606V26.6067H62.8667ZM57.8162 26.3673H62.6273V17.5607C62.6273 16.5599 62.2254 15.7931 61.3982 15.216C60.5688 14.638 59.6157 14.3449 58.5658 14.3449H57.6262L56.7537 14.3213L56.7114 14.3237C57.0565 14.564 57.3132 14.8688 57.477 15.233C57.7012 15.6656 57.8162 16.1662 57.8162 16.7152V26.3673Z" fill="#595757"/>
<path d="M75.8752 10.7422V26.4866H70.8248V10.7422H75.8752Z" fill="#0A1430"/>
<path d="M75.9973 26.6069H70.7075V10.623H75.9973V26.6069ZM70.9469 26.3675H75.7579V10.8626H70.9469V26.3675Z" fill="#595757"/>
<path d="M22.3261 15.9044C23.8825 15.9044 25.2867 16.3296 26.5391 17.179C27.7911 18.029 28.4175 19.4109 28.4175 21.3249C28.4175 23.2393 27.7957 24.6213 26.5525 25.4708C25.309 26.3207 23.9001 26.7454 22.3261 26.7454H21.7089V15.9043H22.3261V15.9044Z" fill="#F39800"/>
<path d="M22.3285 26.8659H21.5916V15.7852H22.3285C23.9016 15.7852 25.3417 16.221 26.6087 17.0804C27.89 17.9503 28.5396 19.3786 28.5396 21.3256C28.5396 23.273 27.8946 24.701 26.6224 25.5705C25.3644 26.43 23.9198 26.8659 22.3285 26.8659ZM21.831 26.6265H22.3284C23.8706 26.6265 25.2698 26.2046 26.4872 25.3726C27.6901 24.5507 28.3001 23.189 28.3001 21.3256C28.3001 19.4629 27.6858 18.1012 26.4742 17.2788C25.2476 16.4466 23.8527 16.0247 22.3284 16.0247H21.831V26.6265Z" fill="#595757"/>
<path d="M9.71629 9.82617H2.49989V26.6364H9.71629V9.82617Z" fill="#E60012"/>
<path d="M9.83833 26.7567H2.38252V9.70703H9.83833V26.7567ZM2.62193 26.5172H9.5988V9.94644H2.62193V26.5172Z" fill="#595757"/>
<path d="M8.90565 6.61084C9.97966 6.61084 10.7795 6.27521 11.3055 5.60385C11.831 4.93261 12.0944 4.1941 12.0944 3.38856C12.0944 2.60568 11.8259 1.88971 11.2888 1.24042C10.7292 0.547107 9.9347 0.211485 8.90577 0.233432C7.83176 0.233432 7.03144 0.563835 6.50588 1.22357C5.97985 1.8839 5.71707 2.62798 5.71707 3.45559C5.71707 4.23906 5.99088 4.96072 6.53946 5.62046C7.08744 6.28102 7.87625 6.61084 8.90565 6.61084Z" fill="#0A1430"/>
<path d="M8.90811 6.73104C7.84584 6.73104 7.01871 6.38331 6.44961 5.69771C5.88573 5.01959 5.5997 4.26542 5.5997 3.45633C5.5997 2.6044 5.87387 1.82852 6.41449 1.14968C6.96152 0.462659 7.80052 0.114225 8.90799 0.114225C9.97168 0.0925149 10.8026 0.445339 11.3843 1.16558C11.9362 1.83291 12.2164 2.5815 12.2164 3.38918C12.2164 4.21809 11.9425 4.98815 11.4021 5.67826C10.8548 6.37679 10.0157 6.73104 8.90811 6.73104ZM9.00017 0.352804C8.97051 0.352804 8.94073 0.353041 8.9106 0.353753C7.87716 0.353753 7.10116 0.671814 6.60182 1.29892C6.09584 1.93422 5.83911 2.66016 5.83911 3.45633C5.83911 4.20812 6.10651 4.91056 6.63373 5.54479C7.15514 6.17309 7.92034 6.49163 8.90811 6.49163C9.93834 6.49163 10.714 6.16823 11.2137 5.53056C11.7201 4.88375 11.9771 4.16328 11.9771 3.3893C11.9771 2.63868 11.7153 1.94158 11.199 1.3172C10.6817 0.676681 9.94249 0.352804 9.00017 0.352804Z" fill="#595757"/>
</svg>
