<?xml version="1.0" standalone="no"?><!DOCTYPE svg PUBLIC "-//W3C//DTD SVG 1.1//EN" "http://www.w3.org/Graphics/SVG/1.1/DTD/svg11.dtd"><svg t="1656301711381" class="icon" viewBox="0 0 1024 1024" version="1.1" xmlns="http://www.w3.org/2000/svg" p-id="13663" xmlns:xlink="http://www.w3.org/1999/xlink" width="200" height="200"><defs></defs><path d="M872.50975 959.864284 232.703923 959.864284c-23.557532 0-42.653449-19.095917-42.653449-42.653449L190.050474 767.921717l-85.307921 0L104.742553 597.306898l85.307921 0L190.050474 426.692079l-85.307921 0L104.742553 256.07726l85.307921 0L190.050474 106.789165c0-23.557532 19.095917-42.653449 42.653449-42.653449l639.805828 0c23.557532 0 42.653449 19.095917 42.653449 42.653449l0 810.420647C915.163199 940.768367 896.067282 959.864284 872.50975 959.864284zM872.50975 149.442614c0-23.557532-19.095917-42.653449-42.653449-42.653449l-554.49893 0c-23.557532 0-42.653449 19.095917-42.653449 42.653449l0 725.113749c0 23.557532 19.095917 42.653449 42.653449 42.653449l554.49893 0c23.557532 0 42.653449-19.095917 42.653449-42.653449L872.50975 149.442614zM318.011844 703.941544 787.202852 703.941544l0 42.653449L318.011844 746.594993 318.011844 703.941544zM318.011844 490.673276 787.202852 490.673276l0 42.653449L318.011844 533.326724 318.011844 490.673276zM318.011844 277.403984 616.58701 277.403984l0 42.653449L318.011844 320.057433 318.011844 277.403984z" p-id="13664" fill="#3d8dfe"></path></svg>