<?xml version="1.0" standalone="no"?><!DOCTYPE svg PUBLIC "-//W3C//DTD SVG 1.1//EN" "http://www.w3.org/Graphics/SVG/1.1/DTD/svg11.dtd"><svg t="1656319011613" class="icon" viewBox="0 0 1024 1024" version="1.1" xmlns="http://www.w3.org/2000/svg" p-id="3204" xmlns:xlink="http://www.w3.org/1999/xlink" width="200" height="200"><defs></defs><path d="M512 981.333333c-211.2 0-384-172.8-384-384v-34.133333c0-89.6 72.533333-164.266667 164.266667-164.266667h462.933333c78.933333 0 142.933333 64 142.933333 142.933334V597.333333C896 808.533333 723.2 981.333333 512 981.333333zM290.133333 462.933333c-55.466667 0-100.266667 44.8-100.266666 100.266667V597.333333c0 177.066667 142.933333 320 320 320s320-142.933333 320-320v-53.333333c0-44.8-36.266667-78.933333-78.933334-78.933333H290.133333z" fill="#ffffff" p-id="3205" data-spm-anchor-id="a313x.7781069.0.i9" class=""></path><path d="M697.6 422.4c-17.066667 0-32-14.933333-32-32v-130.133333C665.6 174.933333 597.333333 106.666667 512 106.666667s-153.6 68.266667-153.6 153.6v130.133333c0 17.066667-14.933333 32-32 32s-32-14.933333-32-32v-130.133333C294.4 140.8 392.533333 42.666667 512 42.666667s217.6 98.133333 217.6 217.6v130.133333c0 17.066667-14.933333 32-32 32z" fill="#ffffff" p-id="3206" data-spm-anchor-id="a313x.7781069.0.i10" class=""></path><path d="M512 759.466667c-17.066667 0-32-14.933333-32-32v-138.666667c0-17.066667 14.933333-32 32-32s32 14.933333 32 32v138.666667c0 17.066667-14.933333 32-32 32z" fill="#ffffff" p-id="3207" data-spm-anchor-id="a313x.7781069.0.i8" class=""></path></svg>