<svg xmlns="http://www.w3.org/2000/svg" viewBox="0 0 52.91 48.23"><defs><style>.cls-1,.cls-3{fill:none;stroke:#fff;stroke-miterlimit:10;}.cls-1{stroke-width:2.95px;}.cls-2{fill:#ffb300;}.cls-3{stroke-width:3.03px;}</style></defs><g id="图层_2" data-name="图层 2"><g id="图层_1-2" data-name="图层 1"><path class="cls-1" d="M46.06,46.75H6.84a5.36,5.36,0,0,1-5.36-5.36V6.84A5.36,5.36,0,0,1,6.84,1.48H41.39a5.36,5.36,0,0,1,5.36,5.36v8.28h0a4.74,4.74,0,0,1,4.68,4.74V41.39A5.36,5.36,0,0,1,46.06,46.75Z"/><path class="cls-1" d="M34.94,29.53H51.43a0,0,0,0,1,0,0v8.86a0,0,0,0,1,0,0H34.94A4.43,4.43,0,0,1,30.51,34v0a4.43,4.43,0,0,1,4.43-4.43Z"/><circle class="cls-2" cx="42.32" cy="33.96" r="2.34"/><path class="cls-1" d="M11.2,7.75H39.25a7.38,7.38,0,0,1,7.38,7.38v0a0,0,0,0,1,0,0H11.2a3.69,3.69,0,0,1-3.69-3.69v0A3.69,3.69,0,0,1,11.2,7.75Z"/><polyline class="cls-2" points="10.76 14.91 41.51 5.27 45.16 14.15"/><polyline class="cls-3" points="10.25 14.91 41 5.26 44.93 14.45"/><path class="cls-2" d="M13.72,39.88l5.73-5.51a.34.34,0,0,0-.36-.57l-5.48,2.11a.36.36,0,0,1-.25,0L7.88,33.8a.34.34,0,0,0-.36.57l5.73,5.51A.33.33,0,0,0,13.72,39.88Z"/><rect class="cls-2" x="9.12" y="30.91" width="8.72" height="2.77" rx="0.39" transform="translate(-18.81 45.78) rotate(-90)"/></g></g></svg>