<?xml version="1.0" standalone="no"?><!DOCTYPE svg PUBLIC "-//W3C//DTD SVG 1.1//EN" "http://www.w3.org/Graphics/SVG/1.1/DTD/svg11.dtd"><svg t="1656252013345" class="icon" viewBox="0 0 1070 1024" version="1.1" xmlns="http://www.w3.org/2000/svg" p-id="3836" xmlns:xlink="http://www.w3.org/1999/xlink" width="208.984375" height="200"><defs></defs><path d="M819.45098 912.313725H621.176471c-50.196078 0-90.352941-40.156863-90.352942-90.352941V677.647059c0-10.039216 8.784314-18.823529 18.82353-18.82353s18.823529 8.784314 18.823529 18.82353v144.313725c0 28.862745 23.843137 52.705882 52.705883 52.705883h197.019607c28.862745 0 52.705882-23.843137 52.705883-52.705883V623.686275c0-28.862745-23.843137-52.705882-52.705883-52.705883H675.137255c-10.039216 0-18.823529-8.784314-18.82353-18.823529s8.784314-18.823529 18.82353-18.82353h144.313725c50.196078 0 90.352941 40.156863 90.352942 90.352942v197.019607c0 50.196078-40.156863 91.607843-90.352942 91.607843zM342.588235 490.666667H199.529412c-50.196078 0-90.352941-40.156863-90.352941-90.352942V203.294118c0-50.196078 40.156863-90.352941 90.352941-90.352942h197.019608c50.196078 0 90.352941 40.156863 90.352941 90.352942v144.313725c0 10.039216-8.784314 18.823529-18.82353 18.82353s-18.823529-8.784314-18.823529-18.82353V203.294118c0-28.862745-23.843137-52.705882-52.705882-52.705883H199.529412c-28.862745 0-52.705882 23.843137-52.705883 52.705883v197.019607c0 28.862745 23.843137 52.705882 52.705883 52.705883h144.313725c10.039216 0 18.823529 8.784314 18.82353 18.823529s-8.784314 18.823529-20.078432 18.82353zM819.45098 490.666667H675.137255c-10.039216 0-18.823529-8.784314-18.82353-18.82353s8.784314-18.823529 18.82353-18.823529h144.313725c28.862745 0 52.705882-23.843137 52.705883-52.705883V203.294118c0-28.862745-23.843137-52.705882-52.705883-52.705883H621.176471c-28.862745 0-52.705882 23.843137-52.705883 52.705883v144.313725c0 10.039216-8.784314 18.823529-18.823529 18.82353s-18.823529-8.784314-18.82353-18.82353V203.294118c0-50.196078 40.156863-90.352941 90.352942-90.352942h197.019607c50.196078 0 90.352941 40.156863 90.352942 90.352942v197.019607c1.254902 50.196078-38.901961 90.352941-89.09804 90.352942zM396.54902 912.313725H199.529412c-50.196078 0-90.352941-40.156863-90.352941-90.352941V623.686275c0-50.196078 40.156863-90.352941 90.352941-90.352942h144.313725c10.039216 0 18.823529 8.784314 18.82353 18.82353s-8.784314 18.823529-18.82353 18.823529H199.529412c-28.862745 0-52.705882 23.843137-52.705883 52.705883v197.019607c0 28.862745 23.843137 52.705882 52.705883 52.705883h197.019608c28.862745 0 52.705882-23.843137 52.705882-52.705883V677.647059c0-10.039216 8.784314-18.823529 18.823529-18.82353s18.823529 8.784314 18.82353 18.82353v144.313725c1.254902 48.941176-40.156863 90.352941-90.352941 90.352941zM500.705882 619.921569c-60.235294 0-107.921569-48.941176-107.921568-107.921569 0-60.235294 48.941176-107.921569 107.921568-107.921569s107.921569 48.941176 107.921569 107.921569c0 58.980392-48.941176 107.921569-107.921569 107.921569z m0-179.450981c-38.901961 0-70.27451 31.372549-70.274509 70.27451s31.372549 70.27451 70.274509 70.27451 70.27451-31.372549 70.27451-70.27451-31.372549-70.27451-70.27451-70.27451z" fill="#3d8dfe" p-id="3837"></path></svg>