<?xml version="1.0" encoding="utf-8"?>
<!-- Generator: Adobe Illustrator 24.2.1, SVG Export Plug-In . SVG Version: 6.00 Build 0)  -->
<svg version="1.1" id="图层_1" xmlns="http://www.w3.org/2000/svg" xmlns:xlink="http://www.w3.org/1999/xlink" x="0px" y="0px"
	 viewBox="0 0 1024 1024" style="enable-background:new 0 0 1024 1024;" xml:space="preserve">
<style type="text/css">
	.st0{fill:#47A3FF;}
	.st1{opacity:0.15;fill:#47A3FF;enable-background:new    ;}
	.st2{fill:#FFFFFF;}
</style>
<path class="st0" d="M730.6,512c0-16.2,13.1-29.3,29.3-29.3V374.2c0-13.1-10.7-23.7-23.7-23.7h-461c-13.1,0-23.7,10.7-23.7,23.7
	v108.6c0.8-0.1,1.7-0.1,2.5-0.1c16.2,0,29.3,13.1,29.3,29.3s-13.1,29.3-29.3,29.3c-0.8,0-1.7,0-2.5-0.1v119.3
	c0,13.1,10.7,23.7,23.7,23.7h461c13.1,0,23.7-10.7,23.7-23.7V541.3C743.7,541.3,730.6,528.2,730.6,512z"/>
<circle class="st1" cx="510.8" cy="511.8" r="448"/>
<path class="st2" d="M694.9,468.1L694.9,468.1c-3.9,3.9-10.3,3.9-14.1,0l-55.9-55.9c-3.9-3.9-3.9-10.3,0-14.1l0,0
	c3.9-3.9,10.3-3.9,14.1,0l55.9,55.9C698.8,457.8,698.8,464.2,694.9,468.1z"/>
<path class="st2" d="M624.8,523.9L624.8,523.9c3.9,3.9,10.3,3.9,14.1,0l55.9-55.9c3.9-3.9,3.9-10.3,0-14.1h0
	c-3.9-3.9-10.3-3.9-14.1,0l-55.9,55.9C621,513.7,621,520,624.8,523.9z"/>
<path class="st2" d="M639.2,473.7H330.8c-5.5,0-10-4.5-10-10v0c0-5.5,4.5-10,10-10h308.4c5.5,0,10,4.5,10,10v0
	C649.2,469.2,644.7,473.7,639.2,473.7z"/>
<path class="st2" d="M323.7,580.4L323.7,580.4c3.9,3.9,10.3,3.9,14.1,0l55.9-55.9c3.9-3.9,3.9-10.3,0-14.1l0,0
	c-3.9-3.9-10.3-3.9-14.1,0l-55.9,55.9C319.8,570.2,319.8,576.5,323.7,580.4z"/>
<path class="st2" d="M393.8,636.2L393.8,636.2c-3.9,3.9-10.3,3.9-14.1,0l-55.9-55.9c-3.9-3.9-3.9-10.3,0-14.1h0
	c3.9-3.9,10.3-3.9,14.1,0l55.9,55.9C397.7,626,397.7,632.4,393.8,636.2z"/>
<path class="st2" d="M379.4,586h308.4c5.5,0,10-4.5,10-10l0,0c0-5.5-4.5-10-10-10H379.4c-5.5,0-10,4.5-10,10l0,0
	C369.4,581.5,373.9,586,379.4,586z"/>
</svg>
