<?xml version="1.0" encoding="UTF-8"?>
<svg width="27px" height="28px" viewBox="0 0 27 28" version="1.1" xmlns="http://www.w3.org/2000/svg" xmlns:xlink="http://www.w3.org/1999/xlink">
    <title>线性会员</title>
    <defs>
        <path d="M7.37776347,8.13250508 L9.64387355,5.25817561 C10.6696698,3.95705764 12.5560066,3.73386533 13.8571245,4.75966163 C14.0423114,4.90566227 14.2096379,5.0729887 14.3556385,5.25817561 L16.6217486,8.13250508 L16.6217486,8.13250508 L19.76511,6.436218 C20.2511412,6.17393556 20.8577693,6.3553198 21.1200518,6.84135104 C21.2209265,7.02828028 21.2596587,7.24247442 21.2306355,7.45289281 L20.214507,14.8198244 C19.8050163,17.7886316 17.2676951,20 14.2707802,20 L9.73206028,20 C6.73582238,20 4.19885641,17.7896037 3.78857714,14.8215888 L2.77006557,7.45354034 C2.69444041,6.90645782 3.07663211,6.40165351 3.62371462,6.32602835 C3.83424712,6.29692569 4.04857657,6.33565681 4.23560822,6.43660263 L7.37776347,8.13250508 L7.37776347,8.13250508 Z" id="path-1"></path>
        <filter x="-11.8%" y="-3.7%" width="123.6%" height="117.8%" filterUnits="objectBoundingBox" id="filter-2">
            <feOffset dx="3" dy="0" in="SourceAlpha" result="shadowOffsetInner1"></feOffset>
            <feComposite in="shadowOffsetInner1" in2="SourceAlpha" operator="arithmetic" k2="-1" k3="1" result="shadowInnerInner1"></feComposite>
            <feColorMatrix values="0 0 0 0 0.909803922   0 0 0 0 0.945098039   0 0 0 0 0.996078431  0 0 0 1 0" type="matrix" in="shadowInnerInner1"></feColorMatrix>
        </filter>
    </defs>
    <g id="页面-1" stroke="none" stroke-width="1" fill="none" fill-rule="evenodd">
        <g id="电商icon" transform="translate(-59.000000, -164.000000)">
            <g id="线性会员" transform="translate(59.000000, 164.000000)">
                <g id="编组" transform="translate(3.000000, 4.000000)">
                    <rect id="矩形" x="0" y="0" width="24" height="24"></rect>
                    <g id="路径" stroke-linejoin="round" fill-rule="nonzero">
                        <use fill="black" fill-opacity="1" filter="url(#filter-2)" xlink:href="#path-1"></use>
                        <use stroke="#2A83FC" stroke-width="2" xlink:href="#path-1"></use>
                    </g>
                    <rect id="矩形" fill="#2AD2FC" x="8.5" y="11.5" width="7" height="3" rx="1.5"></rect>
                </g>
                <path d="M1,7 C1.55228475,7 2,7.44771525 2,8 C2,8.55228475 1.55228475,9 1,9 C0.44771525,9 0,8.55228475 0,8 C0,7.44771525 0.44771525,7 1,7 Z M26,0 C26.5522847,0 27,0.44771525 27,1 C27,1.55228475 26.5522847,2 26,2 C25.4477153,2 25,1.55228475 25,1 C25,0.44771525 25.4477153,0 26,0 Z" id="形状结合" fill="#2A83FC"></path>
                <circle id="椭圆形备份-5" fill="#2AD2FC" cx="2" cy="4" r="1"></circle>
            </g>
        </g>
    </g>
</svg>