<svg xmlns="http://www.w3.org/2000/svg" width="45" height="45" viewBox="0 0 45 45"><defs><style>.a{fill:none;}.b{fill:#ffb300;}</style></defs><g transform="translate(-32 -566)"><rect class="a" width="45" height="45" transform="translate(32 566)"/><path class="b" d="M27.053,20.941a3.815,3.815,0,0,0,0,7.622H40.062V37.2A2.738,2.738,0,0,1,37.391,40H2.734A2.74,2.74,0,0,1,.062,37.2V12.309a2.738,2.738,0,0,1,2.671-2.8H37.391a2.739,2.739,0,0,1,2.671,2.8v8.637l-13.01,0ZM37.381,7.778H13.619L31.624.2A2.631,2.631,0,0,1,35.1,1.753l2.31,6.025h-.024ZM28.914,24.74a1.819,1.819,0,1,1-1.817-1.9,1.865,1.865,0,0,1,1.817,1.9" transform="translate(33.938 568.002)"/></g></svg>