<?xml version="1.0" standalone="no"?><!DOCTYPE svg PUBLIC "-//W3C//DTD SVG 1.1//EN" "http://www.w3.org/Graphics/SVG/1.1/DTD/svg11.dtd"><svg t="1656301693108" class="icon" viewBox="0 0 1024 1024" version="1.1" xmlns="http://www.w3.org/2000/svg" p-id="12722" xmlns:xlink="http://www.w3.org/1999/xlink" width="200" height="200"><defs></defs><path d="M785.237333 460.544h-395.52a42.666667 42.666667 0 0 1-42.666666-42.666667v-1.706666a42.666667 42.666667 0 0 1 42.666666-42.666667h440.490667a42.666667 42.666667 0 0 1 42.666667 42.666667V853.333333a42.666667 42.666667 0 0 1-42.666667 42.666667H170.666667a42.666667 42.666667 0 0 1-42.666667-42.666667V241.066667a85.333333 85.333333 0 0 1 85.333333-85.333334h484.266667V107.093333a21.845333 21.845333 0 0 1 33.194667-18.645333l154.581333 92.16a21.717333 21.717333 0 0 1 0 37.333333l-154.581333 92.16a21.973333 21.973333 0 0 1-33.194667-18.645333v-48.64H258.304a42.666667 42.666667 0 0 0-42.666667 42.666667V808.96h569.6v-348.373333z m-395.52 130.645333h265.216a42.666667 42.666667 0 0 1 42.666667 42.666667v1.749333a42.666667 42.666667 0 0 1-42.666667 42.666667H389.76a42.666667 42.666667 0 0 1-42.666667-42.666667v-1.749333a42.666667 42.666667 0 0 1 42.666667-42.666667z" p-id="12723" fill="#3d8dfe"></path></svg>