<?xml version="1.0" encoding="UTF-8"?>
<svg width="33px" height="33px" viewBox="0 0 33 33" version="1.1" xmlns="http://www.w3.org/2000/svg" xmlns:xlink="http://www.w3.org/1999/xlink">
    <title>编组 2</title>
    <defs>
        <linearGradient x1="15.1902667%" y1="6.04020785%" x2="97.7338607%" y2="87.1397941%" id="linearGradient-1">
            <stop stop-color="#FFE691" offset="0%"></stop>
            <stop stop-color="#FFC24A" offset="100%"></stop>
        </linearGradient>
        <linearGradient x1="62.2100178%" y1="76.7011834%" x2="31.9885889%" y2="30.6160032%" id="linearGradient-2">
            <stop stop-color="#CA962E" offset="0%"></stop>
            <stop stop-color="#FFD37D" offset="100%"></stop>
        </linearGradient>
        <polygon id="path-3" points="0 0 4.32870903 0 4.32870903 8.16644391 0 8.16644391"></polygon>
    </defs>
    <g id="页面-1" stroke="none" stroke-width="1" fill="none" fill-rule="evenodd">
        <g id="帮助中心" transform="translate(-14.000000, -100.000000)">
            <g id="编组-2" transform="translate(14.000000, 100.000000)">
                <path d="M0,16.5001147 C0,25.6127636 7.38724665,33 16.5000918,33 C25.6127533,33 33,25.6127636 33,16.5001147 C33,7.38723638 25.6127533,0 16.5000918,0 C7.38724665,0 0,7.38723638 0,16.5001147 Z" id="Fill-1" fill="url(#linearGradient-1)" opacity="0.327797299"></path>
                <g id="编组-12" transform="translate(6.000000, 8.000000)">
                    <path d="M21,13.2955253 C21,13.5810332 20.9499443,13.8476155 20.8496919,14.0955197 C20.7494394,14.3433963 20.6068386,14.5612065 20.4218896,14.7490327 C20.2368559,14.9368864 20.0209079,15.0833402 19.7742151,15.1884217 C19.5276353,15.2936131 19.2577638,15.3461538 18.964742,15.3461538 L2.1739909,15.3461538 C1.88108202,15.3461538 1.60350321,15.2936131 1.34136741,15.1884217 C1.0793163,15.0833402 0.848066499,14.9368864 0.647589778,14.7490327 C0.447084826,14.5612065 0.289041074,14.3433963 0.173486755,14.0955197 C0.0577912754,13.8476155 0,13.5810332 0,13.2955253 L0,2.05065603 C0,1.47986025 0.204231601,0.995357797 0.612835963,0.597231183 C1.02144033,0.199132077 1.51869374,0 2.10462443,0 L18.8953756,0 C19.4813063,0 19.9785597,0.199132077 20.387164,0.597231183 C20.7957684,0.995357797 21,1.47986025 21,2.05065603 L21,5.11545797 L15.7500282,5.11545797 C15.1640975,5.11545797 14.6668441,5.31071139 14.2582398,5.70130075 C13.8496354,6.09191761 13.6454038,6.57265144 13.6454038,7.14355725 C13.6608468,7.53414661 13.7456563,7.8797325 13.8998322,8.18017739 C14.0231222,8.43559131 14.2274667,8.66844847 14.5126682,8.87872138 C14.7979544,9.0890218 15.2104265,9.19421327 15.7500282,9.19421327 L21,9.19421327 L21,13.2955253 Z M14.5384615,7.2603355 C14.5384615,7.03551606 14.6162443,6.84616932 14.7717661,6.69227364 C14.9273756,6.53846463 15.1188308,6.46153846 15.3461538,6.46153846 C15.5734768,6.46153846 15.7649321,6.53846463 15.9205415,6.69227364 C16.0760633,6.84616932 16.1538462,7.03551606 16.1538462,7.2603355 C16.1538462,7.48515495 16.0760633,7.67747038 15.9205415,7.8372818 C15.7649321,7.99700653 15.5734768,8.07692308 15.3461538,8.07692308 C15.1188308,8.07692308 14.9273756,7.99700653 14.7717661,7.8372818 C14.6162443,7.67747038 14.5384615,7.48515495 14.5384615,7.2603355 Z" id="licai" fill="url(#linearGradient-2)" fill-rule="nonzero"></path>
                    <g id="michi" transform="translate(5.250000, 3.500000)">
                        <mask id="mask-4" fill="white">
                            <use xlink:href="#path-3"></use>
                        </mask>
                        <g id="Clip-2"></g>
                        <path d="M2.89070735,3.9755737 C3.1009098,4.05248311 3.29315841,4.15754446 3.46746316,4.29083749 C3.64175793,4.42413053 3.79296493,4.57922537 3.92115393,4.75606219 C4.04931303,4.93292892 4.14798436,5.12774948 4.21718788,5.34048401 C4.28642131,5.55324845 4.32100313,5.77494494 4.32100313,6.00566321 C4.32100313,6.30811708 4.26460954,6.59004516 4.1518423,6.85149729 C4.03906508,7.11297933 3.88397025,7.34109574 3.6866176,7.53591631 C3.48922508,7.730697 3.25982269,7.88451583 2.99838053,7.99728307 C2.7369284,8.11006028 2.4575324,8.16644391 2.16022244,8.16644391 C1.8628726,8.16644391 1.58346663,8.11006028 1.32202447,7.99728307 C1.06057234,7.88451583 0.831179921,7.730697 0.6337874,7.53591631 C0.436434754,7.34109574 0.281369825,7.11297933 0.168562706,6.85149729 C0.055785493,6.59004516 -0.000598128946,6.30811708 -0.000598128946,6.00566321 C-0.000598128946,5.76984091 0.0353095454,5.54554255 0.10707505,5.33280802 C0.178840555,5.12003362 0.278797871,4.92525293 0.406956966,4.7483862 C0.535106093,4.57151947 0.687638943,4.41645454 0.864505672,4.28316151 C1.04134249,4.14986847 1.23487708,4.04476725 1.44507953,3.96789771 L1.44507953,0.738200776 C1.44507953,0.645949355 1.46173742,0.556230013 1.49503327,0.469082626 C1.52836899,0.38192527 1.57580061,0.303739848 1.63732815,0.234536329 C1.6988158,0.165342778 1.77186728,0.108959156 1.85644272,0.0653854626 C1.94105802,0.0218018001 2.03202347,0 2.12945867,0 C2.22684403,0 2.32170729,0.0218018001 2.41395871,0.0653854626 C2.50625,0.108959156 2.58825348,0.165342778 2.66002895,0.234536329 C2.73179446,0.303739848 2.78817808,0.38192527 2.8292197,0.469082626 C2.87022144,0.556230013 2.89070735,0.645949355 2.89070735,0.738200776 L2.89070735,3.9755737 Z M2.17560432,6.75153998 C2.38062299,6.75153998 2.55495764,6.6797645 2.69849861,6.5362335 C2.84202962,6.39270249 2.9138051,6.21582579 2.9138051,6.00566321 C2.9138051,5.80060467 2.84202962,5.6263099 2.69849861,5.48272905 C2.55495764,5.33919804 2.38062299,5.26743253 2.17560432,5.26743253 C1.96540187,5.26743253 1.78853514,5.33919804 1.64499416,5.48272905 C1.50146316,5.6263099 1.42969765,5.80060467 1.42969765,6.00566321 C1.42969765,6.21582579 1.50146316,6.39270249 1.64499416,6.5362335 C1.78853514,6.6797645 1.96540187,6.75153998 2.17560432,6.75153998 Z M3.83653862,0.968879173 C4.16465222,0.968879173 4.32870903,1.122698 4.32870903,1.43029578 L4.32870903,1.93009233 C4.32870903,2.10953101 4.28384935,2.23387205 4.19413001,2.3030656 C4.10441067,2.37226912 4.00573933,2.40688085 3.89806615,2.40688085 L3.36749587,2.40688085 L3.36749587,0.968879173 L3.83653862,0.968879173 Z" id="Fill-1" fill="#685C3F" mask="url(#mask-4)"></path>
                    </g>
                </g>
            </g>
        </g>
    </g>
</svg>