<?xml version="1.0" encoding="UTF-8"?>
<svg width="33px" height="33px" viewBox="0 0 33 33" version="1.1" xmlns="http://www.w3.org/2000/svg" xmlns:xlink="http://www.w3.org/1999/xlink">
    <title>编组 8</title>
    <g id="页面-1" stroke="none" stroke-width="1" fill="none" fill-rule="evenodd">
        <g id="帮助中心" transform="translate(-15.000000, -393.000000)">
            <g id="编组-8" transform="translate(15.000000, 393.000000)">
                <g id="编组-5备份" fill="#0BA85A" opacity="0.241091047">
                    <g id="huodongyouli备份-2">
                        <path d="M0,16.4999545 C0,22.3949358 3.14480592,27.842113 8.25006821,30.7893991 C13.3551031,33.736867 19.6448969,33.736867 24.7499773,30.7893991 C29.8550122,27.842113 33,22.3949358 33,16.4999545 C33,7.38735862 25.6127072,0 16.4999091,0 C7.38733827,0 0,7.38735862 0,16.4999545 Z" id="Fill-1"></path>
                    </g>
                </g>
                <path d="M22.958106,10 L11.041894,10 C9.9180778,10 9,10.9168721 9,12.0392124 L9,24.9607876 C9,26.0829873 9.9180778,27 11.041894,27 L22.958106,27 C24.0817814,27 25,26.0829873 25,24.9607876 L25,12.0392124 C25,10.9168721 24.0817814,10 22.958106,10 Z M11.7301262,14 L17.2697328,14 C17.6729074,14 18,14.223957 18,14.4999638 C18,14.776043 17.6729074,15 17.2697328,15 L11.7301262,15 C11.3269164,15 11,14.776043 11,14.4999638 C11,14.223957 11.3269164,14 11.7301262,14 Z M15.2549213,23 L11.7452226,23 C11.3337553,23 11,22.7760485 11,22.4999517 C11,22.2239757 11.3337553,22 11.7452226,22 L15.2549213,22 C15.6663886,22 16,22.2239757 16,22.4999517 C16,22.7760485 15.6663886,23 15.2549213,23 Z M21.2807851,19 L12.7192149,19 C12.3220308,19 12,18.7760243 12,18.4999517 C12,18.2239515 12.3220308,18 12.7192149,18 L21.2807851,18 C21.6779692,18 22,18.2239515 22,18.4999517 C22,18.7760243 21.6779692,19 21.2807851,19 Z M12.7192149,8 L21.2807851,8 C21.6779692,8 22,7.77604305 22,7.4999638 C22,7.22395695 21.6779692,7 21.2807851,7 L12.7192149,7 C12.3220308,7 12,7.22395695 12,7.4999638 C12,7.77604305 12.3220308,8 12.7192149,8 Z" id="guize" fill="#32E14D" fill-rule="nonzero"></path>
            </g>
        </g>
    </g>
</svg>