<?xml version="1.0" encoding="UTF-8"?>
<svg width="44px" height="35px" viewBox="0 0 44 35" version="1.1" xmlns="http://www.w3.org/2000/svg" xmlns:xlink="http://www.w3.org/1999/xlink">
    <title>编组 17</title>
    <defs>
        <filter x="-25.0%" y="-34.8%" width="150.0%" height="169.6%" filterUnits="objectBoundingBox" id="filter-1">
            <feOffset dx="0" dy="2" in="SourceAlpha" result="shadowOffsetOuter1"></feOffset>
            <feGaussianBlur stdDeviation="1" in="shadowOffsetOuter1" result="shadowBlurOuter1"></feGaussianBlur>
            <feColorMatrix values="0 0 0 0 0.130763508   0 0 0 0 0.141197352   0 0 0 0 0.165046139  0 0 0 1 0" type="matrix" in="shadowBlurOuter1" result="shadowMatrixOuter1"></feColorMatrix>
            <feMerge>
                <feMergeNode in="shadowMatrixOuter1"></feMergeNode>
                <feMergeNode in="SourceGraphic"></feMergeNode>
            </feMerge>
        </filter>
        <linearGradient x1="62.2100178%" y1="75.8300781%" x2="31.9885889%" y2="31.248391%" id="linearGradient-2">
            <stop stop-color="#CA962E" offset="0%"></stop>
            <stop stop-color="#FFD37D" offset="100%"></stop>
        </linearGradient>
    </defs>
    <g id="页面-1" stroke="none" stroke-width="1" fill="none" fill-rule="evenodd">
        <g id="gongneng备份-2" transform="translate(-305.000000, -277.000000)" fill-rule="nonzero">
            <g id="编组-17" filter="url(#filter-1)" transform="translate(311.000000, 283.000000)">
                <g id="面性办卡进度查询图标">
                    <path d="M28.9431345,23 L3.05686546,23 C1.37586685,23 0,21.6741051 0,20.0541609 L0,2.94583914 C0,1.32589493 1.37586685,0 3.05686546,0 L28.9431345,0 C30.6241331,0 32,1.32589493 32,2.94583914 L32,20.0541609 C32,21.6741051 30.6241331,23 28.9431345,23 Z" id="路径" fill="url(#linearGradient-2)"></path>
                    <path d="M6.82457207,9.36334961 C7.15918071,9.55888117 7.63261634,9.68580516 8.03129897,9.68580516 C8.43354127,9.68580516 8.83934324,9.55545079 9.17039221,9.36334961 C9.91080281,8.97571688 10.4447528,8.2656286 10.4447528,7.35657839 C10.4447528,6.06332582 9.37329319,5.02735162 8.02773931,5.02735162 C6.68574509,5.02735162 5.61072584,6.05989545 5.61072584,7.35657839 C5.61428551,8.19702104 6.08772114,8.97571688 6.82457207,9.36334961 L6.82457207,9.36334961 Z" id="路径" fill="#171E25"></path>
                    <path d="M9.38015713,10.1990547 C9.00113561,10.419038 8.55320108,10.5684607 8.02773942,10.5892138 C7.50658482,10.5726113 7.05865029,10.419038 6.6753217,10.1990547 C4.88789065,10.9835236 3.50532349,13.1750556 3.34165511,15.8397594 L7.86837809,15.8397594 L8.18710074,15.8397594 L12.7138237,15.8397594 C12.5501553,13.1750556 11.1718952,10.9835236 9.38015713,10.1990547 Z M8.03635354,15.4163952 L7.30415287,14.7107883 L7.95451935,11.4982015 L7.62718258,11.0291805 C7.70901677,10.8714566 8.35938325,10.8714566 8.52305164,11.0291805 L8.11818774,11.4982015 L8.76424715,14.7107883 L8.03635354,15.4163952 Z" id="形状" fill="#171E25"></path>
                    <path d="M29.1405697,15.5899582 L18.0003925,15.5899582 C17.060778,15.5899582 16.8294114,15.1524379 16.8294114,14.6142492 C16.8294114,14.0760605 17.060778,13.6385402 18.0003925,13.6385402 L29.1473295,13.6385402 C30.086944,13.6385402 30.3291803,14.0760605 30.3291803,14.6142492 C30.3224204,15.148566 30.0801842,15.5899582 29.1405697,15.5899582 Z" id="路径备份-2" fill="#171E25"></path>
                    <path d="M29.1405697,11.6871223 L18.0003925,11.6871223 C17.060778,11.6871223 16.8294114,11.249602 16.8294114,10.7114133 C16.8294114,10.1732246 17.060778,9.73570432 18.0003925,9.73570432 L29.1473295,9.73570432 C30.086944,9.73570432 30.3291803,10.1732246 30.3291803,10.7114133 C30.3224204,11.2457301 30.0801842,11.6871223 29.1405697,11.6871223 Z" id="路径备份-3" fill="#171E25"></path>
                    <path d="M29.1405697,7.78428638 L18.0003925,7.78428638 C17.060778,7.78428638 16.8294114,7.34676609 16.8294114,6.80857741 C16.8294114,6.27038873 17.060778,5.83286843 18.0003925,5.83286843 L29.1473295,5.83286843 C30.086944,5.83286843 30.3291803,6.27038873 30.3291803,6.80857741 C30.3224204,7.34289422 30.0801842,7.78428638 29.1405697,7.78428638 Z" id="路径备份-4" fill="#171E25"></path>
                </g>
            </g>
        </g>
    </g>
</svg>