<?xml version="1.0" encoding="UTF-8"?>
<svg width="20px" height="20px" viewBox="0 0 20 20" version="1.1" xmlns="http://www.w3.org/2000/svg" xmlns:xlink="http://www.w3.org/1999/xlink">
    <title>tianjia (1)</title>
    <g id="页面-1" stroke="none" stroke-width="1" fill="none" fill-rule="evenodd">
        <g id="银行卡列表" transform="translate(-123.000000, -750.000000)" fill="#333333">
            <g id="编组" transform="translate(123.000000, 748.000000)">
                <path d="M9.9993992,2 C4.48572981,2 0,6.48574079 0,11.9998623 C0,17.5143594 4.48572981,22 9.9993992,22 C15.513369,22 20,17.5143594 20,11.9998623 C20,6.48574079 15.513369,2 9.9993992,2 Z M15.2941176,13.1791643 L11.1799125,13.1791643 L11.1799125,17.2941176 L8.82066768,17.2941176 L8.82066768,13.179261 L4.70588235,13.179261 L4.70588235,10.8197964 L8.82057099,10.8197964 L8.82057099,6.70588235 L11.1798158,6.70588235 L11.1798158,10.8197964 L15.2941176,10.8197964 L15.2941176,13.1791643 L15.2941176,13.1791643 Z" id="tianjia-(1)"></path>
            </g>
        </g>
    </g>
</svg>