<?xml version="1.0" encoding="UTF-8"?>
<svg width="50px" height="50px" viewBox="0 0 50 50" version="1.1" xmlns="http://www.w3.org/2000/svg" xmlns:xlink="http://www.w3.org/1999/xlink">
    <title>编组 2备份 2</title>
    <g id="页面-1" stroke="none" stroke-width="1" fill="none" fill-rule="evenodd">
        <g id="gongneng备份-8" transform="translate(-260.000000, -601.000000)" fill="#FFFFFF">
            <g id="编组-2备份-2" transform="translate(260.000000, 601.000000)">
                <circle id="椭圆形" opacity="0.230295817" cx="25" cy="25" r="25"></circle>
                <g id="caiyouduo_shouye-appxiazai" transform="translate(11.000000, 11.000000)">
                    <path d="M13.2882562,11.4871795 L13.2882562,14.591705 L15.3942315,14.591705 C16.0323643,14.591705 16.5002757,14.4653742 16.7911103,14.2202847 C17.0817788,13.9603557 17.2307692,13.5668286 17.2307692,13.0320443 C17.2307692,12.4749791 17.0817788,12.0887629 16.7839641,11.8660848 C16.4932956,11.6209517 16.0323643,11.4946645 15.4012115,11.4946645 L13.2882562,11.4946645 L13.2882562,11.4871795 Z M7.15459485,11.7843157 L5.74358974,15.7948718 L8.59401866,15.7948718 L7.1971398,11.7843157 L7.15459485,11.7843157 Z" id="Fill-1"></path>
                    <path d="M25.1998688,7.00004102 L23.1419138,7.00004102 L23.1419138,2.79996719 C23.1419138,1.25306591 21.8890119,0 20.3419466,0 L7.74201222,0 C6.19494688,0 4.94204504,1.25306591 4.94204504,2.79996719 L4.94204504,7.00004102 L2.79996719,7.00004102 C1.25306591,7.00004102 0,8.25294287 0,9.8000082 L0,18.9000041 C0,20.4469054 1.25306591,21.6999713 2.79996719,21.6999713 L4.94204504,21.6999713 L4.94204504,25.1999098 C4.94204504,26.7469751 6.19494688,28 7.74201222,28 L20.3419466,28 C21.8890119,28 23.1419138,26.7469751 23.1419138,25.1999098 L23.1419138,21.6999713 L25.1998688,21.6999713 C26.7469341,21.6999713 28,20.4469054 28,18.9000041 L28,9.8000082 C28,8.25294287 26.7469341,7.00004102 25.1998688,7.00004102 Z M7.39194455,3.66096551 C7.39194455,2.92604897 7.96599811,2.33099545 8.67991469,2.33099545 L19.4040441,2.33099545 C20.1179607,2.33099545 20.6920143,2.92604897 20.6920143,3.66096551 L20.6920143,7.00004102 L7.39194455,7.00004102 L7.39194455,3.66096551 Z M18.2768959,12.7119478 C18.2768959,14.4200402 17.2760346,15.2739838 15.2739838,15.2739838 L13.1110291,15.2739838 L13.1110291,18.5220459 L11.8370042,18.5220459 L11.8370042,10.1779664 L15.2949428,10.1779664 C17.2829252,10.1779664 18.2768959,11.0250195 18.2768959,12.7119478 Z M4.49390919,18.5220459 L3.13592552,18.5220459 L6.34891924,10.1779664 L7.79791641,10.1779664 L11.0109101,18.5220459 L9.64603585,18.5220459 L8.86190066,16.3729133 L5.27098971,16.3729133 L4.49390919,18.5220459 Z M15.7919281,26.6000164 L12.2919897,26.6000164 C11.9070178,26.6000164 11.5920184,26.284894 11.5920184,25.8998811 C11.5920184,25.5148681 11.9070178,25.1999098 12.2919897,25.1999098 L15.7919281,25.1999098 C16.1769411,25.1999098 16.4919404,25.5148681 16.4919404,25.8998811 C16.4919404,26.284894 16.1769411,26.6000164 15.7919281,26.6000164 Z M20.6920143,23.1699684 C20.6920143,23.905008 20.1179607,24.4998975 19.4040441,24.4998975 L8.67991469,24.4998975 C7.96599811,24.4998975 7.39194455,23.905008 7.39194455,23.1699684 L7.39194455,21.6999713 L20.6920143,21.6999713 L20.6920143,23.1699684 Z M22.8969279,15.2739838 L20.7340142,15.2739838 L20.7340142,18.5220459 L19.4599483,18.5220459 L19.4599483,10.1779664 L22.9179279,10.1779664 C24.9058693,10.1779664 25.8998811,11.0250195 25.8998811,12.7119478 C25.8998811,14.4200402 24.8989787,15.2739838 22.8969279,15.2739838 Z" id="Fill-2"></path>
                    <path d="M23.9970708,11.8307563 C23.7322568,11.6039996 23.3126022,11.4871795 22.7380314,11.4871795 L20.8205128,11.4871795 L20.8205128,14.3589744 L22.7380314,14.3589744 C23.3190712,14.3589744 23.7452705,14.242114 24.0099332,14.0153976 C24.274596,13.7749542 24.4102564,13.4109278 24.4102564,12.9162336 C24.4102564,12.4009287 24.274596,12.0369024 23.9970708,11.8307563 Z" id="Fill-3"></path>
                </g>
            </g>
        </g>
    </g>
</svg>