<?xml version="1.0" encoding="UTF-8"?>
<svg width="50px" height="50px" viewBox="0 0 50 50" version="1.1" xmlns="http://www.w3.org/2000/svg" xmlns:xlink="http://www.w3.org/1999/xlink">
    <title>编组 3备份 3</title>
    <defs>
        <filter x="-16.3%" y="-16.3%" width="132.5%" height="132.5%" filterUnits="objectBoundingBox" id="filter-1">
            <feOffset dx="0" dy="0" in="SourceAlpha" result="shadowOffsetOuter1"></feOffset>
            <feGaussianBlur stdDeviation="1.5" in="shadowOffsetOuter1" result="shadowBlurOuter1"></feGaussianBlur>
            <feColorMatrix values="0 0 0 0 0.485543514   0 0 0 0 0.485543514   0 0 0 0 0.485543514  0 0 0 0.5 0" type="matrix" in="shadowBlurOuter1" result="shadowMatrixOuter1"></feColorMatrix>
            <feMerge>
                <feMergeNode in="shadowMatrixOuter1"></feMergeNode>
                <feMergeNode in="SourceGraphic"></feMergeNode>
            </feMerge>
        </filter>
        <linearGradient x1="75.6289109%" y1="10.5518482%" x2="65.2381603%" y2="97.6691455%" id="linearGradient-2">
            <stop stop-color="#F14B89" offset="0%"></stop>
            <stop stop-color="#E23678" offset="100%"></stop>
        </linearGradient>
    </defs>
    <g id="页面-1" stroke="none" stroke-width="1" fill="none" fill-rule="evenodd">
        <g id="gongneng" transform="translate(-116.000000, -371.000000)">
            <g id="编组-3备份-3" transform="translate(121.000000, 376.000000)">
                <g id="huodongyouli" filter="url(#filter-1)" fill="url(#linearGradient-2)">
                    <path d="M0,19.9999449 C0,27.1453768 3.81188596,33.7480158 10.0000827,37.3204837 C16.1880038,40.8931721 23.8119962,40.8931721 29.9999724,37.3204837 C36.1878936,33.7480158 40,27.1453768 40,19.9999449 C40,8.95437409 31.0457057,0 19.9998898,0 C8.95434941,0 0,8.95437409 0,19.9999449 Z" id="Fill-1"></path>
                </g>
                <path d="M22.3434108,10.8352497 L17.4347826,10.8695652 L16.4346088,13.8303147 L17,13 L17,15.5 L17,21.5 L13.5,25 L13,39.5 C13.0264828,39.5066167 12.9720251,38.9935452 13,39 C14.6428194,39.3790543 18.8967145,40.0000003 20.5,40.0000003 C21.9258685,40.0000003 23.159483,39.7855329 24.5,39.5 C33.4556311,37.5924322 40.0434783,29.276854 40.0434783,19.764349 C40.0434783,19.2033371 40.0187244,18.6467997 39.9717849,18.0970287 L22,11 L22.3434108,10.8352497 Z" id="Fill-3" fill="#D02867"></path>
                <path d="M15.1307061,7.78760337 C15.7386915,7.28698301 16.514838,7.00645409 17.2964124,7.00109103 C18.0590233,6.98723648 18.8244498,7.23472762 19.4431552,7.68866192 C19.6955835,7.87289654 19.9180908,8.09285047 20.1270625,8.32383991 C20.4961213,8.73920149 20.7946862,9.21768207 21.0036579,9.73483852 C21.2126295,9.21500054 21.5166222,8.73088188 21.8884629,8.31565782 C22.1136163,8.06816668 22.3525428,7.83153915 22.6293624,7.64176959 C23.011923,7.37506084 23.4461838,7.18250661 23.9021559,7.08353078 C24.7352947,6.89647712 25.6362475,7.02577483 26.3799288,7.44935287 C27.066516,7.8343582 27.6175092,8.45867256 27.9132923,9.19578294 C28.2823172,10.09516 28.2633877,11.1428806 27.8725835,12.0312222 C28.5482812,12.0312222 29.2213327,12.0285406 29.8971661,12.0340412 C30.591929,12.0450423 31.281298,12.2953869 31.8212998,12.7408297 C32.3505477,13.172693 32.7387057,13.7805056 32.901439,14.4487214 C32.9829244,14.7677887 33.0046697,15.0978915 32.9992079,15.4251752 L32.9992079,17.8233193 C32.9964262,18.1781403 32.9368217,18.5302454 32.8200554,18.8630297 C32.5893385,19.5285639 32.1335021,20.1116584 31.547262,20.4911632 C31.0451533,20.8212659 30.4508053,20.9944994 29.8537095,21 L21.6277911,21 L21.6277911,13.3212083 C21.2072017,13.3157077 20.7892584,13.3157077 20.3686351,13.3212083 C20.3658533,15.8789376 20.3686351,18.4394516 20.3686351,20.997181 L12.1590341,20.997181 C11.8278683,20.9944994 11.4940903,20.9449256 11.179208,20.8404492 C10.4437703,20.6011401 9.8061014,20.0731201 9.42058939,19.3910497 C9.14919762,18.9179322 9.00807391,18.3733761 9,17.8261384 L9,15.2244045 C9.00807391,14.9465571 9.03802877,14.6660282 9.11130455,14.3965004 C9.29856487,13.6897119 9.73547169,13.0570779 10.3217118,12.6336374 C10.8399683,12.2539951 11.4751268,12.0450423 12.1155775,12.0367227 C12.785983,12.0340412 13.4562189,12.0367227 14.1266244,12.0367227 C13.7846029,11.250176 13.7249646,10.3398321 13.9772911,9.51756612 C14.1836167,8.83549579 14.5907043,8.22768312 15.1307061,7.78760337 L15.1307061,7.78760337 Z M16.828125,8.0441588 C16.2855792,8.1500716 15.7864711,8.48801535 15.4554504,8.96416373 C15.1354502,9.41375126 14.978078,9.98978757 15.0024586,10.5540313 C15.0213799,11.0772765 15.2086938,11.58568 15.498888,12 L19.9694646,12 C20.1023205,10.9567057 19.7958161,9.8604733 19.1637164,9.06103923 C18.935915,8.77603351 18.6809185,8.50267342 18.3716336,8.32056806 C17.907757,8.03541539 17.3517155,7.93251503 16.828125,8.0441588 L16.828125,8.0441588 Z M24.1949175,8.07285124 C23.76105,8.18757539 23.3624315,8.44632044 23.0588497,8.80214543 C22.2778475,9.61385281 21.8873973,10.8370747 22.0283932,11.9987257 C23.5170525,11.9987257 25.0083555,12.0015929 26.4968792,11.9987257 C26.8521144,11.5104956 27.0391712,10.8723999 26.9931103,10.2489343 C26.9605389,9.79606608 26.8114425,9.35209354 26.562022,8.98737292 C26.3071787,8.61405075 25.9519436,8.31998052 25.5506475,8.15813161 C25.1222368,7.9816527 24.6422745,7.95239272 24.1949175,8.07285124 Z M11.0011173,22 L20,22 L20,30.9990022 L14.5414563,30.9990022 C14.2886394,30.9962347 14.0359515,31.0070345 13.7832635,30.9908348 C13.0097289,30.9369031 12.2671679,30.5535424 11.7566673,29.9460513 C11.3337372,29.4519248 11.0682215,28.8147678 11.014074,28.1532438 C10.9960894,27.9885799 11.0037602,27.8237811 11.0011173,27.6591172 C11.0011173,25.7745448 10.9986033,23.8873399 11.0011173,22 Z M22,22 L31,22 L31,27.8262186 C31,28.2746334 30.9174303,28.7203133 30.7422717,29.1308791 C30.40977,29.924966 29.747344,30.5625246 28.961305,30.8352672 C28.675291,30.9378749 28.3762618,30.9919643 28.0747519,31 L22,31 L22,22 Z" id="zhaohuodong" fill="#FFFFFF"></path>
            </g>
        </g>
    </g>
</svg>