<?xml version="1.0" encoding="UTF-8"?>
<svg width="40px" height="40px" viewBox="0 0 40 40" version="1.1" xmlns="http://www.w3.org/2000/svg" xmlns:xlink="http://www.w3.org/1999/xlink">
    <title>编组 13备份 3</title>
    <defs>
        <linearGradient x1="50%" y1="0%" x2="50%" y2="96.676656%" id="linearGradient-1">
            <stop stop-color="#8A85DA" offset="0%"></stop>
            <stop stop-color="#4741E0" offset="100%"></stop>
        </linearGradient>
    </defs>
    <g id="页面-1" stroke="none" stroke-width="1" fill="none" fill-rule="evenodd">
        <g id="微商中心" transform="translate(-16.000000, -616.000000)">
            <g id="huodongyouli备份-2" transform="translate(16.000000, 616.000000)">
                <path d="M0,19.9999449 C0,27.1453768 3.81188596,33.7480158 10.0000827,37.3204837 C16.1880038,40.8931721 23.8119962,40.8931721 29.9999724,37.3204837 C36.1878936,33.7480158 40,27.1453768 40,19.9999449 C40,8.95437409 31.0457057,0 19.9998898,0 C8.95434941,0 0,8.95437409 0,19.9999449 Z" id="Fill-1" fill="url(#linearGradient-1)" opacity="0.300288609"></path>
                <path d="M23.5479634,23.6918581 C23.5479634,23.6918581 22.9052109,24.486163 21.940565,23.6918581 C20.9759537,22.8976926 17.6549049,19.1604554 17.6549049,19.1604554 C17.6549049,19.1604554 16.8691155,18.2033377 15.9759709,19.1604554 C15.0828607,20.1175731 12.3330978,24.2330923 12.3330978,24.2330923 C12.3330978,24.2330923 11.4760485,25.7136365 10.2256736,24.2330923 C9.14967335,22.9577368 8.23363729,23.5041285 8,23.6797657 L8,29.2671168 C8,30.2241997 8.76748315,31 9.71433989,31 L30.2856946,31 C31.2325513,31 32,30.2241997 32,29.2671168 L32,14 C31.9348422,14.0121273 31.866823,14.0386471 31.797735,14.0744715 L23.5479634,23.6918581 Z M10.9990053,22 C12.1029443,22 12.9978727,21.0845647 12.9978727,19.9554597 C12.9978727,19.6658091 12.9372989,19.3911715 12.8311052,19.1417316 L16.335532,14.7151775 C16.5331033,14.782348 16.7403912,14.8273867 16.9603245,14.8273867 C17.2600582,14.8273867 17.5422881,14.7549653 17.7969532,14.6339809 L20.8620647,17.769072 C20.7970461,17.9706186 20.7535625,18.1820681 20.7535625,18.4052178 C20.7535625,19.5343228 21.6479395,20.4496524 22.7525677,20.4496524 C23.8565068,20.4496524 24.7514352,19.5343228 24.7514352,18.4052178 C24.7514352,18.1534519 24.7005435,17.9151483 24.6195372,17.6925625 L29.3951875,11.9832854 C29.5870047,12.0457687 29.7880905,12.0890102 30.0011326,12.0890102 C31.1050716,12.0890102 32,11.1735396 32,10.0444346 C32,8.91532958 31.1050716,8 30.0011326,8 C28.8965388,8 28.0021617,8.91532958 28.0021617,10.0444346 C28.0021617,10.3068082 28.0547762,10.5550146 28.1426737,10.7852126 L23.383011,16.4746487 C23.1836825,16.4062448 22.9741205,16.3606774 22.7525677,16.3606774 C22.5023475,16.3606774 22.2648071,16.4132579 22.0443225,16.4991416 L18.8940355,13.2770391 C18.9329364,13.1181701 18.9597088,12.9540853 18.9597088,12.7829521 C18.9597088,11.6537062 18.0647805,10.7383766 16.9608414,10.7383766 C15.8569023,10.7383766 14.9620084,11.6537062 14.9620084,12.7829521 C14.9620084,13.0358457 15.0127278,13.2746779 15.0944232,13.4985324 L11.5346943,17.9945829 C11.3633441,17.9454209 11.1863431,17.9110251 10.9990053,17.9110251 C9.89506619,17.9110251 9,18.8263194 9,19.9554597 C9,21.0845647 9.89506619,22 10.9990053,22 Z" id="touzi002" fill="#A6A1FF"></path>
            </g>
        </g>
    </g>
</svg>