<?xml version="1.0" standalone="no"?><!DOCTYPE svg PUBLIC "-//W3C//DTD SVG 1.1//EN" "http://www.w3.org/Graphics/SVG/1.1/DTD/svg11.dtd"><svg t="1651833366712" class="icon" viewBox="0 0 1024 1024" version="1.1" xmlns="http://www.w3.org/2000/svg" p-id="9903" xmlns:xlink="http://www.w3.org/1999/xlink" width="258" height="258"><defs><style type="text/css">@font-face { font-family: feedback-iconfont; src: url("//at.alicdn.com/t/font_1031158_u69w8yhxdu.woff2?t=1630033759944") format("woff2"), url("//at.alicdn.com/t/font_1031158_u69w8yhxdu.woff?t=1630033759944") format("woff"), url("//at.alicdn.com/t/font_1031158_u69w8yhxdu.ttf?t=1630033759944") format("truetype"); }
</style></defs><path d="M298.666667 896h512c48.853333 0 85.333333-38.314667 85.333333-85.333333V298.666667a42.666667 42.666667 0 0 0-42.666667-42.666667 21.333333 21.333333 0 1 1 0-42.666667 85.333333 85.333333 0 0 1 85.333334 85.333334v512c0 77.952-53.162667 128-128 128H298.666667a85.333333 85.333333 0 0 1-85.333334-85.333334 21.333333 21.333333 0 1 1 42.666667-0.426666c0 23.978667 19.114667 43.093333 42.666667 43.093333zM165.930667 85.333333H730.026667C774.570667 85.333333 810.666667 121.429333 810.666667 165.930667V730.026667A80.597333 80.597333 0 0 1 730.069333 810.666667H165.973333A80.597333 80.597333 0 0 1 85.333333 730.069333V165.973333C85.333333 121.429333 121.429333 85.333333 165.930667 85.333333z m2.090666 42.666667A40.021333 40.021333 0 0 0 128 168.021333v559.957334c0 22.101333 17.92 40.021333 40.021333 40.021333h559.957334c22.101333 0 40.021333-17.92 40.021333-40.021333V168.021333A39.978667 39.978667 0 0 0 727.978667 128H168.021333zM426.666667 426.666667V277.333333a21.333333 21.333333 0 1 1 42.666666 0V426.666667h149.333334a21.333333 21.333333 0 1 1 0 42.666666H469.333333v149.333334a21.333333 21.333333 0 1 1-42.666666 0V469.333333H277.333333a21.333333 21.333333 0 1 1 0-42.666666H426.666667z" p-id="9904" fill="#ffffff"></path></svg>