<?xml version="1.0" encoding="UTF-8"?>
<svg width="42px" height="42px" viewBox="0 0 42 42" version="1.1" xmlns="http://www.w3.org/2000/svg" xmlns:xlink="http://www.w3.org/1999/xlink">
    <title>编组 2备份</title>
    <defs>
        <linearGradient x1="84.345128%" y1="12.1535961%" x2="11.4843809%" y2="84.2635228%" id="linearGradient-1">
            <stop stop-color="#414B54" offset="2.90023697%"></stop>
            <stop stop-color="#1E1F24" offset="100%"></stop>
        </linearGradient>
        <circle id="path-2" cx="16" cy="16" r="16"></circle>
        <filter x="-23.4%" y="-23.4%" width="146.9%" height="146.9%" filterUnits="objectBoundingBox" id="filter-3">
            <feOffset dx="0" dy="0" in="SourceAlpha" result="shadowOffsetOuter1"></feOffset>
            <feGaussianBlur stdDeviation="2.5" in="shadowOffsetOuter1" result="shadowBlurOuter1"></feGaussianBlur>
            <feColorMatrix values="0 0 0 0 0.257843075   0 0 0 0 0.286152217   0 0 0 0 0.303080241  0 0 0 1 0" type="matrix" in="shadowBlurOuter1"></feColorMatrix>
        </filter>
        <polygon id="path-4" points="0 0 20 0 20 18 0 18"></polygon>
    </defs>
    <g id="页面-1" stroke="none" stroke-width="1" fill="none" fill-rule="evenodd">
        <g id="赛事结果" transform="translate(-323.000000, -34.000000)">
            <g id="编组-2备份" transform="translate(328.000000, 39.000000)">
                <g id="椭圆形">
                    <use fill="black" fill-opacity="1" filter="url(#filter-3)" xlink:href="#path-2"></use>
                    <use fill="url(#linearGradient-1)" fill-rule="evenodd" xlink:href="#path-2"></use>
                </g>
                <g id="riliriqi2" transform="translate(6.000000, 7.000000)">
                    <mask id="mask-5" fill="white">
                        <use xlink:href="#path-4"></use>
                    </mask>
                    <g id="Clip-2"></g>
                    <path d="M14.2856944,0.692359698 C14.2856944,0.304668556 13.9713533,0 13.5713538,0 C13.1713544,0 12.8571528,0.304668556 12.8571528,0.692359698 L12.8571528,1.38458418 L14.2856944,1.38458418 L14.2856944,0.692359698 Z M7.14284718,0.692359698 C7.14284718,0.304668556 6.8285061,0 6.42850666,0 C6.02850721,0 5.71430564,0.304668556 5.71430564,0.692359698 L5.71430564,1.38458418 L7.14284718,1.38458418 L7.14284718,0.692359698 Z M17.1427774,1.38458418 L14.2856944,1.38458418 L14.2856944,3.46152806 C14.2856944,3.8492192 13.9713533,4.15388776 13.5713538,4.15388776 C13.1713544,4.15388776 12.8571528,3.8492192 12.8571528,3.46152806 L12.8571528,1.38458418 L7.14284718,1.38458418 L7.14284718,3.46152806 C7.14284718,3.8492192 6.8285061,4.15388776 6.42850666,4.15388776 C6.02850721,4.15388776 5.71430564,3.8492192 5.71430564,3.46152806 L5.71430564,1.38458418 L2.85708307,1.38458418 C1.28565669,1.38458418 0,2.63078837 0,4.15388776 L0,15.2306964 C0,16.7537958 1.28565669,18 2.85708307,18 L17.1427774,18 C18.7142317,18 20,16.7537958 20,15.2306964 L20,4.15388776 C20,2.63078837 18.7142317,1.38458418 17.1427774,1.38458418 Z M6.42850666,13.8461122 L4.99996512,13.8461122 C4.59996568,13.8461122 4.28576411,13.5414437 4.28576411,13.1537525 C4.28576411,12.7660884 4.59996568,12.4615281 4.99996512,12.4615281 L6.42850666,12.4615281 C6.8285061,12.4615281 7.14284718,12.7660884 7.14284718,13.1537525 C7.14284718,13.5414437 6.8285061,13.8461122 6.42850666,13.8461122 Z M6.42850666,11.0769439 L4.99996512,11.0769439 C4.59996568,11.0769439 4.28576411,10.7722753 4.28576411,10.3845842 C4.28576411,9.99689304 4.59996568,9.69222448 4.99996512,9.69222448 L6.42850666,9.69222448 C6.8285061,9.69222448 7.14284718,9.99689304 7.14284718,10.3845842 C7.14284718,10.7722753 6.8285061,11.0769439 6.42850666,11.0769439 Z M10.7142708,13.8461122 L9.28572923,13.8461122 C8.88572979,13.8461122 8.57138871,13.5414437 8.57138871,13.1537525 C8.57138871,12.7660884 8.88572979,12.4615281 9.28572923,12.4615281 L10.7142708,12.4615281 C11.1142702,12.4615281 11.4286113,12.7660884 11.4286113,13.1537525 C11.4286113,13.5414437 11.1142702,13.8461122 10.7142708,13.8461122 Z M10.7142708,11.0769439 L9.28572923,11.0769439 C8.88572979,11.0769439 8.57138871,10.7722753 8.57138871,10.3845842 C8.57138871,9.99689304 8.88572979,9.69222448 9.28572923,9.69222448 L10.7142708,9.69222448 C11.1142702,9.69222448 11.4286113,9.99689304 11.4286113,10.3845842 C11.4286113,10.7722753 11.1142702,11.0769439 10.7142708,11.0769439 Z M15.0000349,13.8461122 L13.5713538,13.8461122 C13.1713544,13.8461122 12.8571528,13.5414437 12.8571528,13.1537525 C12.8571528,12.7660884 13.1713544,12.4615281 13.5713538,12.4615281 L15.0000349,12.4615281 C15.4000343,12.4615281 15.7142359,12.7660884 15.7142359,13.1537525 C15.7142359,13.5414437 15.4000343,13.8461122 15.0000349,13.8461122 Z M15.0000349,11.0769439 L13.5713538,11.0769439 C13.1713544,11.0769439 12.8571528,10.7722753 12.8571528,10.3845842 C12.8571528,9.99689304 13.1713544,9.69222448 13.5713538,9.69222448 L15.0000349,9.69222448 C15.4000343,9.69222448 15.7142359,9.99689304 15.7142359,10.3845842 C15.7142359,10.7722753 15.4000343,11.0769439 15.0000349,11.0769439 Z M17.8571179,6.92305612 L2.14288206,6.92305612 C1.74288261,6.92305612 1.42854153,6.61838756 1.42854153,6.23069642 C1.42854153,5.84303232 1.74288261,5.53847194 2.14288206,5.53847194 L17.8571179,5.53847194 C18.2571174,5.53847194 18.5714585,5.84303232 18.5714585,6.23069642 C18.5714585,6.61838756 18.2571174,6.92305612 17.8571179,6.92305612 Z" id="Fill-1" fill="#FFFFFF" mask="url(#mask-5)"></path>
                </g>
            </g>
        </g>
    </g>
</svg>