<?xml version="1.0" encoding="UTF-8"?>
<svg width="39px" height="39px" viewBox="0 0 39 39" version="1.1" xmlns="http://www.w3.org/2000/svg" xmlns:xlink="http://www.w3.org/1999/xlink">
    <title>erweima</title>
    <g id="页面-1" stroke="none" stroke-width="1" fill="none" fill-rule="evenodd">
        <g id="微商中心" transform="translate(-170.000000, -171.000000)" fill="#FFFFFF">
            <path d="M170,210 L188,210 L188,192 L170,192 L170,210 Z M203,210 L209,210 L209,204 L203,204 L203,210 Z M191,210 L197,210 L197,204 L191,204 L191,210 Z M176,204 L182,204 L182,198 L176,198 L176,204 Z M196.999854,192 L196.999854,198 L202.999795,198 L202.999795,192 L209,192 L209,201 L202.999795,201 L202.999795,204 L196.999854,204 L196.999854,201 L191,201 L191,192 L196.999854,192 Z M170,189 L188,189 L188,171 L170,171 L170,189 Z M191,189 L209,189 L209,171 L191,171 L191,189 Z M176,183 L182,183 L182,177 L176,177 L176,183 Z M197,183 L203,183 L203,177 L197,177 L197,183 Z" id="erweima"></path>
        </g>
    </g>
</svg>