<?xml version="1.0" encoding="UTF-8"?>
<svg width="24px" height="19px" viewBox="0 0 24 19" version="1.1" xmlns="http://www.w3.org/2000/svg" xmlns:xlink="http://www.w3.org/1999/xlink">
    <title>biyanjing-mianxing3-1</title>
    <g id="页面-1" stroke="none" stroke-width="1" fill="none" fill-rule="evenodd">
        <g id="gongneng备份-7" transform="translate(-274.000000, -286.000000)" fill="#FFFFFF">
            <g id="biyanjing-mianxing3-1" transform="translate(274.000000, 286.687349)">
                <path d="M11.5030102,2.3126511 C6.29103014,2.3126511 1.83938984,5.2132593 0,9.31501294 C0.999529483,11.5320813 2.75914016,13.4018688 4.99746274,14.6486462 L8.09407614,12.1100046 C7.2293956,11.4264345 6.69616793,10.4661056 6.69616793,9.40561058 C6.69616793,7.31950303 8.75642786,5.63030519 11.3011985,5.63030519 C12.5950613,5.63030519 13.7598002,6.06760837 14.5999191,6.77149631 L18.0091855,3.97650462 C16.1201553,2.92085438 13.8942798,2.3126511 11.5030102,2.3126511 Z M19.4558477,4.92157245 L15.6050996,8.07837938 C15.8012972,8.49070159 15.905638,8.9379366 15.905638,9.40561058 C15.905638,11.4867825 13.8451934,13.180916 11.300903,13.180916 C10.7305558,13.180916 10.7924148,13.1255813 10.2894737,12.964825 L7.26315789,15.7039555 C8.75325535,16.2767917 9.77978029,16.3126511 11.5030102,16.3126511 C16.7086744,16.3126511 21.1665197,13.4120429 23,9.31501294 C22.2273979,7.5958985 21.0071091,6.09280129 19.4558477,4.92157245 Z" id="Fill-1"></path>
                <path d="M4.6625432,17.5788117 C4.41011061,17.5788117 4.15808872,17.4825584 3.96539465,17.2899029 C3.58037988,16.9048905 3.58037988,16.2809628 3.96539465,15.8956144 L18.5383985,0.709947627 C18.9234506,0.324935241 19.5473821,0.324935241 19.9326956,0.709947627 C20.3177477,1.09499735 20.3177477,1.71892501 19.9326956,2.10423608 C18.0559664,4.38945579 16.137776,6.51188542 14.1781243,8.47152495 C12.2184726,10.4311645 9.2789951,13.3706238 5.35969175,17.2899029 C5.17491303,17.4749791 4.92404858,17.5788117 4.6625432,17.5788117 Z" id="Fill-3" transform="translate(11.949059, 9.000000) rotate(3.000000) translate(-11.949059, -9.000000) "></path>
            </g>
        </g>
    </g>
</svg>