<?xml version="1.0" encoding="UTF-8"?>
<svg width="23px" height="14px" viewBox="0 0 23 14" version="1.1" xmlns="http://www.w3.org/2000/svg" xmlns:xlink="http://www.w3.org/1999/xlink">
    <title>yanjing-</title>
    <defs>
        <polygon id="path-1" points="0 0 23 0 23 14 0 14"></polygon>
    </defs>
    <g id="页面-1" stroke="none" stroke-width="1" fill="none" fill-rule="evenodd">
        <g id="gongneng备份-7" transform="translate(-308.000000, -289.000000)">
            <g id="yanjing-" transform="translate(308.000000, 289.000000)">
                <g id="编组">
                    <mask id="mask-2" fill="white">
                        <use xlink:href="#path-1"></use>
                    </mask>
                    <g id="Clip-2"></g>
                    <path d="M11.4988927,0 C6.18462487,0 1.67618509,2.9243656 -0.00204421125,7 C1.67618509,11.0754977 6.18462487,14 11.4988927,14 C16.8133309,14 21.3217707,11.0754977 23,7 C21.3217707,2.9243656 16.8133309,0 11.4988927,0 Z M11.4988927,12.2498718 C8.60865057,12.2498718 6.26581412,9.89951709 6.26581412,7 C6.26581412,4.10048291 8.60865057,1.74995728 11.4988927,1.74995728 C14.3891349,1.74995728 16.7321417,4.10048291 16.7321417,7 C16.7321417,9.89951709 14.3891349,12.2498718 11.4988927,12.2498718 Z" id="Fill-1" fill="#FFFFFF" mask="url(#mask-2)"></path>
                </g>
                <path d="M9,7.00007324 C9,8.65692062 10.3431966,10 11.9999268,10 C13.6568034,10 15,8.65692062 15,7.00007324 C15,5.34319657 13.6568034,4 11.9999268,4 C10.3431966,4 9,5.34319657 9,7.00007324 Z" id="Fill-3" fill="#FFFFFF"></path>
            </g>
        </g>
    </g>
</svg>