<?xml version="1.0" encoding="UTF-8"?>
<svg width="21px" height="20px" viewBox="0 0 21 20" version="1.1" xmlns="http://www.w3.org/2000/svg" xmlns:xlink="http://www.w3.org/1999/xlink">
    <title>法</title>
    <defs>
        <polygon id="path-1" points="0 0 20 0 20 20.001465 0 20.001465"></polygon>
    </defs>
    <g id="页面-1" stroke="none" stroke-width="1" fill="none" fill-rule="evenodd">
        <g id="画板备份-17" transform="translate(-220.000000, -1537.000000)">
            <g id="法" transform="translate(220.727273, 1537.000000)">
                <mask id="mask-2" fill="white">
                    <use xlink:href="#path-1"></use>
                </mask>
                <g id="Clip-2"></g>
                <path d="M-0.00146495283,10.0007935 C-0.00146495283,15.5240075 4.47599248,20.001465 9.99932856,20.001465 C15.5225426,20.001465 20,15.5240075 20,10.0007935 C20,4.47745743 15.5225426,0 9.99932856,0 C4.47599248,0 -0.00146495283,4.47745743 -0.00146495283,10.0007935 Z" id="Fill-1" fill="#F3F3F3" mask="url(#mask-2)"></path>
                <path d="M20,10.0007935 C20,5.70081512 17.2860284,2.03511248 13.4778102,0.622043389 L13.4778102,19.3795436 C17.2860284,17.9663769 20,14.3007475 20,10.0007935 Z" id="Fill-3" fill="#D80027" mask="url(#mask-2)"></path>
                <path d="M-0.00146495283,10.0007935 C-0.00146495283,14.3007475 2.71250667,17.9663769 6.52082247,19.379446 L6.52082247,0.622043389 C2.71250667,2.03511248 -0.00146495283,5.70081512 -0.00146495283,10.0007935 Z" id="Fill-4" fill="#0052B4" mask="url(#mask-2)"></path>
            </g>
        </g>
    </g>
</svg>