<?xml version="1.0" encoding="UTF-8"?>
<svg width="21px" height="20px" viewBox="0 0 21 20" version="1.1" xmlns="http://www.w3.org/2000/svg" xmlns:xlink="http://www.w3.org/1999/xlink">
    <title>韩</title>
    <defs>
        <circle id="path-1" cx="10" cy="10" r="10"></circle>
    </defs>
    <g id="页面-1" stroke="none" stroke-width="1" fill="none" fill-rule="evenodd">
        <g id="画板备份-17" transform="translate(-106.000000, -1537.000000)">
            <g id="韩" transform="translate(106.181818, 1537.000000)">
                <mask id="mask-2" fill="white">
                    <use xlink:href="#path-1"></use>
                </mask>
                <use id="蒙版" fill="#FFFFFF" xlink:href="#path-1"></use>
                <g id="hanguo" mask="url(#mask-2)">
                    <g transform="translate(0.000000, 2.000000)">
                        <path d="M0.0861428638,13.9141207 L20.9138743,13.9141207 L20.9138743,0.103058562 L0.0861428638,0.103058562 L0.0861428638,13.9141207 Z M20.9897515,13.9969414 L20.9897515,13.8969414 L20.9897515,13.9969414 Z M0,14 L0,0 L21,0 L21,13.9828207 L0,13.9828207 L0,14 Z" id="Fill-1" fill="#353636"></path>
                        <polygon id="Fill-2" fill="#FFFFFF" points="0 14 21 14 21 0 0 0"></polygon>
                        <path d="M13.9853799,7.18332469 C14.1605216,9.11063337 12.7418718,10.810166 10.8152254,10.9853743 C8.88864881,11.1605826 7.1897617,9.7413937 7.01461996,7.81408502 C6.83947822,5.88670653 8.25814552,4.18717387 10.1847047,4.01196557 C12.1113511,3.85427986 13.8102382,5.27348623 13.9853799,7.18332469 Z" id="Fill-3" fill="#CC303C"></path>
                        <path d="M7.52440986,5 C6.99701441,5.77846451 7.26980578,6.78886473 8.14270558,7.26918512 C8.99743618,7.74952202 10.1067528,7.48450685 10.6341482,6.70605884 C11.161598,5.92752833 12.2709146,5.67907764 13.1256452,6.14285005 C13.9803577,6.62323644 14.253149,7.63357066 13.7439409,8.41203518 C12.7073735,9.96894771 10.4704625,10.4658326 8.76101941,9.52175628 C7.03338901,8.59422795 6.48775191,6.573543 7.52440986,5 Z" id="Fill-4" fill="#005C9E"></path>
                        <path d="M3,4.79910587 L4.97723062,2.00923537 L5.43162611,2.30104635 L3.45418415,5.09091685 L3,4.79910587 Z M3.70742057,5.25179001 L5.68547893,2.46223797 L6.13987442,2.75398191 L4.16179844,5.54353394 L3.70742057,5.25179001 Z M4.40788457,5.7114803 L4.86758114,5.99752545 L6.84784094,3.20431949 L6.38809154,2.90142942 L4.40788457,5.7114803 Z M15.2098909,10.2921081 L16.1301646,8.9950829 L16.5843487,9.28702797 L15.6642864,10.5840532 L15.2098909,10.2921081 Z M14.1502394,11.8129109 L15.0689281,10.5150309 L15.5235173,10.8064564 L14.6048286,12.1043364 L14.1502394,11.8129109 Z M15.906498,10.7580168 L16.8272648,9.46151115 L17.281308,9.75365735 L16.3604884,11.0501462 L15.906498,10.7580168 Z M14.8570964,12.2571475 L15.316793,12.5431926 L16.2362389,11.2474915 L15.7765424,10.9614296 L14.8570964,12.2571475 Z M16.6158558,11.2114719 L17.534474,9.9136757 L17.9890632,10.2050844 L17.0703746,11.5029644 L16.6158558,11.2114719 Z M15.5532456,12.709245 L16.4698032,11.4100576 L16.9248856,11.7008294 L16.0081166,13 L15.5532456,12.709245 Z M16.8373738,5.54321548 L17.2970528,5.25715357 L15.316793,2.46388056 L14.8570964,2.74992572 L16.8373738,5.54321548 Z M15.5560634,2.29207916 L16.0104589,2 L16.9307326,3.29682407 L16.476478,3.58876914 L15.5560634,2.29207916 Z M16.6248553,3.80634515 L17.0788457,3.51406486 L18,4.81023525 L17.5461681,5.10251554 L16.6248553,3.80634515 Z M14.1440401,3.20195617 L14.5988407,2.91079888 L15.5167721,4.2091985 L15.0618306,4.50028875 L14.1440401,3.20195617 Z M15.2032865,4.70036615 L15.6576644,4.40895744 L16.5767758,5.70663633 L16.1221866,5.99824618 L15.2032865,4.70036615 Z M4.39784599,9.29860989 L4.85203014,9.00666483 L6.83153265,11.7955632 L6.37713716,12.0875082 L4.39784599,9.29860989 Z M3.00123281,10.1971732 L3.4556283,9.90574769 L5.431767,12.6966741 L4.97723062,12.9880828 L3.00123281,10.1971732 Z M3.70081624,9.76352965 L4.15519411,9.4719198 L5.07464008,10.7696657 L4.62005086,11.0612085 L3.70081624,9.76352965 Z M5.6808647,12.5431926 L6.14056127,12.2571475 L5.22118575,10.9614296 L4.76148919,11.2474915 L5.6808647,12.5431926 Z" id="Fill-5" fill="#231815"></path>
                    </g>
                </g>
            </g>
        </g>
    </g>
</svg>