<?xml version="1.0" encoding="UTF-8"?>
<svg width="50px" height="50px" viewBox="0 0 50 50" version="1.1" xmlns="http://www.w3.org/2000/svg" xmlns:xlink="http://www.w3.org/1999/xlink">
    <title>编组 13备份</title>
    <defs>
        <filter x="-16.3%" y="-16.3%" width="132.5%" height="132.5%" filterUnits="objectBoundingBox" id="filter-1">
            <feOffset dx="0" dy="0" in="SourceAlpha" result="shadowOffsetOuter1"></feOffset>
            <feGaussianBlur stdDeviation="1.5" in="shadowOffsetOuter1" result="shadowBlurOuter1"></feGaussianBlur>
            <feColorMatrix values="0 0 0 0 0.485543514   0 0 0 0 0.485543514   0 0 0 0 0.485543514  0 0 0 0.5 0" type="matrix" in="shadowBlurOuter1" result="shadowMatrixOuter1"></feColorMatrix>
            <feMerge>
                <feMergeNode in="shadowMatrixOuter1"></feMergeNode>
                <feMergeNode in="SourceGraphic"></feMergeNode>
            </feMerge>
        </filter>
        <linearGradient x1="12.0858206%" y1="50%" x2="100%" y2="50%" id="linearGradient-2">
            <stop stop-color="#FFA56A" offset="0%"></stop>
            <stop stop-color="#FC7032" offset="100%"></stop>
        </linearGradient>
    </defs>
    <g id="页面-1" stroke="none" stroke-width="1" fill="none" fill-rule="evenodd">
        <g id="gongneng" transform="translate(-20.000000, -132.000000)">
            <g id="编组-13备份" filter="url(#filter-1)" transform="translate(25.000000, 137.000000)">
                <g id="huodongyouli备份-2">
                    <path d="M0,19.9999449 C0,27.1453768 3.81188596,33.7480158 10.0000827,37.3204837 C16.1880038,40.8931721 23.8119962,40.8931721 29.9999724,37.3204837 C36.1878936,33.7480158 40,27.1453768 40,19.9999449 C40,8.95437409 31.0457057,0 19.9998898,0 C8.95434941,0 0,8.95437409 0,19.9999449 Z" id="Fill-1" fill="url(#linearGradient-2)"></path>
                    <path d="M22.2999325,11.2700323 L16.498452,8.07825028 L16.3911305,14.2650974 L8.68026742,16.5113279 L8,17.4924576 L12.5100708,22.508006 L12.3529412,23.5294118 L15.3347461,39.4053195 C16.9164266,39.8004998 18.5407843,40 20.1713715,40 C31.1230813,40 40,31.1355089 40,20.1991316 C40,19.6381197 39.9752461,19.0815823 39.9283066,18.5318113 L25.4155344,8 L22.2999325,11.2700323 Z" id="Fill-3" fill="#F7834F"></path>
                    <path d="M20.5000163,8 C22.2236023,8 23.8449226,8.32832049 25.3641402,8.98509174 C26.8833252,9.64186298 28.2070742,10.5336885 29.3353219,11.6607637 C30.4635697,12.7879366 31.3565118,14.1102391 32.0138549,15.6277037 C32.6713284,17.1452986 33,18.7650174 33,20.4866321 C33,22.2260598 32.6713284,23.8545712 32.0138549,25.372166 C31.3565118,26.8897283 30.4635697,28.2120634 29.3353219,29.339106 C28.2070742,30.4661487 26.8833252,31.358137 25.3641402,32.0149083 C23.8449226,32.6715492 22.2236023,33 20.5000163,33 C18.7765281,33 17.1550774,32.6715492 15.6358598,32.0149083 C14.1168052,31.358137 12.7930562,30.4661487 11.6646781,29.339106 C10.5364303,28.2120634 9.64361858,26.8897283 8.98614507,25.372166 C8.32867156,23.8545712 8,22.2260598 8,20.4866321 C8,18.7650174 8.32867156,17.1452986 8.98614507,15.6277037 C9.64361858,14.1102391 10.5364303,12.7879366 11.6646781,11.6607637 C12.7930562,10.5336885 14.1168052,9.64186298 15.6358598,8.98509174 C17.1550774,8.32832049 18.7765281,8 20.5000163,8 Z M23.9743442,23.9095808 C24.0256848,23.8438625 24,23.7616166 23.8974117,23.6629939 C23.794856,23.5644013 23.6751762,23.4534131 23.5384666,23.3300593 C23.4017256,23.2068262 23.2820458,23.0793707 23.17949,22.9479039 C23.0769657,22.816407 23.0427804,22.6930532 23.0769657,22.5780838 C23.1623347,22.3149995 23.1923487,22.1219162 23.1666314,21.9985624 C23.1410395,21.8753292 23.0598103,21.7930833 22.9230693,21.7519755 C22.7863596,21.7108676 22.5897474,21.6944908 22.3333266,21.7027244 C22.0769059,21.7108676 21.76927,21.7149995 21.4101994,21.7149995 C21.2222746,21.7149995 21.0684096,21.7232331 20.9486985,21.7397306 C20.8290187,21.7561074 20.717901,21.7684729 20.6153452,21.7767065 C20.5128208,21.7848497 20.4017031,21.7930833 20.281992,21.8013471 C20.1624377,21.8095808 20.0256026,21.805479 19.8718316,21.7889816 C19.6324722,21.7726048 19.4486872,21.7314668 19.3205396,21.6657485 C19.1922665,21.6 19.0727122,21.5341611 18.9615944,21.4684126 C18.8504767,21.4026641 18.7094703,21.3451795 18.53845,21.2958078 C18.3675237,21.2465568 18.1196963,21.2137127 17.7949364,21.1972152 C17.3333101,21.1808384 17.0042535,21.1602091 16.8077353,21.1355987 C16.6111231,21.1109581 16.4700854,21.086227 16.3845909,21.0616166 C16.2991905,21.036976 16.2307259,21.0204785 16.1795107,21.0122449 C16.1281701,21.0041017 16.0256457,21 15.8717494,21 C15.7180098,21.0163768 15.4829157,21.0903589 15.1667178,21.2218257 C14.8503944,21.3534131 14.5298998,21.5053886 14.2051399,21.6779934 C13.8803487,21.8505982 13.598336,22.0273047 13.3589452,22.2081432 C13.1196797,22.3889816 13,22.536976 13,22.6520659 C13,22.980748 13.021452,23.2438323 13.0640738,23.4410476 C13.1068211,23.6382628 13.1667237,23.7903589 13.2435621,23.8972152 C13.3204946,24.0040716 13.4017238,24.0904192 13.4872183,24.1561677 C13.5726187,24.2219162 13.6581132,24.2958983 13.743639,24.3779934 C13.8290394,24.4602393 13.9444225,24.5177239 14.0897255,24.5505982 C14.2350285,24.5834724 14.3931902,24.6041017 14.5640851,24.6123354 C14.7351054,24.6204785 14.8931416,24.6410777 15.0384447,24.6739519 C15.1837477,24.7068262 15.2991621,24.7643108 15.3846566,24.8465568 C15.5555515,25.043772 15.7350397,25.1259877 15.92309,25.0931135 C16.1111402,25.0602694 16.2777698,25.0067659 16.4230415,24.9327838 C16.5683445,24.8589223 16.6880556,24.8300593 16.782018,24.8465568 C16.8761058,24.8629335 16.9315863,25.0191314 16.9487417,25.31509 C16.9487417,25.4465568 16.9743649,25.5451795 17.0256742,25.6108978 C17.0768893,25.6766462 17.1452598,25.7260179 17.2307543,25.7588921 L17.5385157,25.9068563 C17.65807,25.9726048 17.7863431,26.0629637 17.9230841,26.1780537 C18.0597937,26.3095205 18.1068377,26.4328742 18.0640904,26.5478737 C18.0213118,26.6629637 17.957238,26.7739519 17.8717435,26.8808083 C17.7863431,26.9876646 17.7051139,27.1027546 17.6281814,27.2259877 C17.5512489,27.3493415 17.5555456,27.4684427 17.6410401,27.5835629 C17.7607512,27.7644013 17.8888988,27.8958681 18.0256085,27.978114 C18.1624436,28.0602091 18.2948879,28.1300895 18.4230356,28.1876948 C18.5513087,28.2451795 18.6667231,28.3109279 18.7692475,28.38491 C18.8718032,28.4588921 18.9401424,28.5779934 18.9743276,28.742455 C18.9743276,28.791706 19.0342302,28.8863175 19.1538159,29.0260481 C19.2734956,29.1657786 19.3889101,29.3096109 19.5000278,29.4574545 C19.6111456,29.6054489 19.7008113,29.7288027 19.7691818,29.8273952 C19.8376778,29.9260179 19.8205224,29.9671258 19.7179666,29.9506283 C19.9230468,29.9835026 20.1409856,30 20.3718145,30 C20.602612,30 20.7520862,29.958862 20.8205508,29.8766462 L20.871766,29.8273952 L20.871766,29.8027848 L20.9486985,29.7780235 C20.9828837,29.7616467 21.0299276,29.7410476 21.0897048,29.716407 C21.1496388,29.6917965 21.2307111,29.6383231 21.3333923,29.5561978 C21.5384725,29.4246104 21.7351161,29.2520056 21.9230409,29.038293 C22.1110911,28.8245803 22.2735181,28.5903589 22.4102591,28.3355384 C22.5469688,28.0808384 22.6623832,27.821886 22.7563456,27.5589223 C22.8504335,27.2958681 22.9145073,27.0492812 22.9486926,26.8191917 C22.9828778,26.605479 23.0384837,26.449251 23.1154162,26.3506585 C23.1923487,26.2520358 23.2607192,26.1656881 23.3204964,26.091706 C23.3803049,26.0178446 23.4316141,25.9191012 23.4743927,25.7958681 C23.51714,25.6725143 23.5128433,25.4629335 23.4615027,25.1671258 C23.4103189,24.7890419 23.4572374,24.5136222 23.602509,24.3410174 C23.747812,24.1684126 23.8717885,24.0245803 23.9743442,23.9095808 Z M26.6882845,28.1824232 C26.8888281,27.922322 26.9925811,27.7081722 26.99978,27.5398615 C27.0069526,27.3715509 26.8387513,27.2415003 26.4950448,27.1497378 C26.1369668,27.0579473 25.8828521,27.0081783 25.7325166,27.000487 C25.5821549,26.992936 25.44246,27.0731896 25.3135635,27.2415003 C25.1847721,27.4098109 25.091686,27.5819673 25.0344104,27.757857 C24.9770559,27.9338309 24.9914274,28.1747319 25.0773146,28.4807845 C25.1203239,28.6184983 25.1561343,28.7293487 25.1847721,28.8135602 C25.21341,28.8976594 25.2492204,28.951274 25.2921246,28.9742076 C25.3351339,28.9971131 25.3995821,29.0048044 25.4854693,28.9971131 C25.5713828,28.9894499 25.6931067,28.9626987 25.8506411,28.9168596 C26.0224418,28.8709082 26.1871487,28.7637912 26.3446831,28.5955647 C26.5022174,28.427254 26.6167687,28.2895402 26.6882845,28.1824232 Z M27.4345316,20.2302145 C27.5525037,20.0990924 27.750546,20.0006821 28.0285348,19.9351898 C28.3065545,19.8696975 28.5887787,19.7854096 28.8752073,19.6823262 C29.1616668,19.5793802 29.4144289,19.4342732 29.6334935,19.2469019 C29.8525271,19.0596681 29.9705302,18.7973895 29.9873171,18.4603412 C30.0042276,18.1231897 30.0042276,17.8142144 29.9873171,17.5332778 C29.9705302,17.2523411 29.9199221,16.9714045 29.8357711,16.6905022 C29.7514656,16.4095656 29.6376979,16.1146783 29.4944682,15.8055656 C29.3512693,15.4965559 29.1701067,15.1454538 28.9510421,14.7521563 C28.7151906,14.3400975 28.5003614,13.9936686 28.3065545,13.7127319 C28.1128403,13.4318297 27.9232379,13.1930198 27.7378708,12.9964054 C27.5525037,12.7997566 27.3587895,12.6217659 27.1565119,12.4626051 C26.9543579,12.30341 26.7268535,12.1395074 26.4740914,11.9709317 C26.2045425,11.8024934 25.9391361,11.6197952 25.6779033,11.4231808 C25.4168251,11.226532 25.1344773,11.0953756 24.8312617,11.0298833 C24.5278916,10.964391 24.1992947,11.0065521 23.8454712,11.1563323 C23.4916476,11.3061124 23.0872159,11.6338833 22.6322998,12.1395074 L22.2026105,12.6452689 C22.0172434,12.8325028 21.8235602,13.010356 21.6212825,13.1789317 C21.4191285,13.3475074 21.2252907,13.4926145 21.0399236,13.614356 C20.8546802,13.7360975 20.6861,13.7970198 20.5343995,13.7970198 C20.3996405,13.7970198 20.1890157,13.8156779 19.9025871,13.8531315 C19.6161276,13.8905852 19.3254636,13.984288 19.0305642,14.1340682 C18.7357885,14.2839858 18.4830264,14.4945852 18.272278,14.7661412 C18.0616842,15.0378004 17.9732979,15.3983174 18.0069644,15.8476923 C18.0237513,16.3534538 18.1038215,16.6810873 18.2470513,16.8310049 C18.3902811,16.9808194 18.5756481,17.0651073 18.8031525,17.0837654 C19.0305642,17.1025609 19.3002059,17.121219 19.6118922,17.1400146 C19.9236094,17.1587757 20.2564107,17.2803798 20.6102343,17.5052047 C21.0315765,17.6175656 21.4275684,17.7299265 21.7981789,17.8422531 C22.1183359,17.9359559 22.4426974,18.0529899 22.7712942,18.193527 C23.0998911,18.3339265 23.3736445,18.4789993 23.5927091,18.6289512 C23.8454712,18.7973895 23.9466564,19.017507 23.8960792,19.289063 C23.8454712,19.5605847 23.7570848,19.8368138 23.630642,20.1177505 C23.5043228,20.3986528 23.3989949,20.6703462 23.3147203,20.9324873 C23.2304148,21.1946284 23.2810228,21.4006578 23.4663899,21.5505754 C23.719152,21.7564673 23.904519,21.8876238 24.0223984,21.9438386 C24.1403705,22 24.2668134,22.0140384 24.4015724,21.9859997 C24.5363623,21.9577892 24.7217294,21.9156625 24.9575809,21.8595508 C25.1935251,21.8033016 25.5558195,21.7752629 26.044433,21.7752629 C25.9096431,21.7752629 25.8844163,21.7190137 25.9685982,21.6066872 C26.0528729,21.4943263 26.1834274,21.3537892 26.3603547,21.1853509 C26.537251,21.0167752 26.7268535,20.843492 26.9291311,20.6656388 C27.1312851,20.4876481 27.2997417,20.3425754 27.4345316,20.2302145 Z" id="wangluo" fill="#FFFFFF"></path>
                </g>
            </g>
        </g>
    </g>
</svg>