<?xml version="1.0" encoding="UTF-8"?>
<svg width="50px" height="50px" viewBox="0 0 50 50" version="1.1" xmlns="http://www.w3.org/2000/svg" xmlns:xlink="http://www.w3.org/1999/xlink">
    <title>编组 10</title>
    <defs>
        <filter x="-16.3%" y="-16.2%" width="132.5%" height="132.5%" filterUnits="objectBoundingBox" id="filter-1">
            <feOffset dx="0" dy="0" in="SourceAlpha" result="shadowOffsetOuter1"></feOffset>
            <feGaussianBlur stdDeviation="1.5" in="shadowOffsetOuter1" result="shadowBlurOuter1"></feGaussianBlur>
            <feColorMatrix values="0 0 0 0 0.485543514   0 0 0 0 0.485543514   0 0 0 0 0.485543514  0 0 0 0.5 0" type="matrix" in="shadowBlurOuter1" result="shadowMatrixOuter1"></feColorMatrix>
            <feMerge>
                <feMergeNode in="shadowMatrixOuter1"></feMergeNode>
                <feMergeNode in="SourceGraphic"></feMergeNode>
            </feMerge>
        </filter>
        <polygon id="path-2" points="0 0 25 0 25 25 0 25"></polygon>
    </defs>
    <g id="页面-1" stroke="none" stroke-width="1" fill="none" fill-rule="evenodd">
        <g id="gongneng" transform="translate(-110.000000, -132.000000)">
            <g id="编组-10" filter="url(#filter-1)" transform="translate(115.000000, 137.000000)">
                <g id="huodongyouli备份-3">
                    <path d="M0,19.9999449 C0,27.1453768 3.81188596,33.7480158 10.0000827,37.3204837 C16.1880038,40.8931721 23.8119962,40.8931721 29.9999724,37.3204837 C36.1878936,33.7480158 40,27.1453768 40,19.9999449 C40,8.95437409 31.0457057,0 19.9998898,0 C8.95434941,0 0,8.95437409 0,19.9999449 Z" id="Fill-1" fill="#6BBAFF"></path>
                    <path d="M22.2999325,11.2700323 L17.3913043,11.3043478 L16.3911305,14.2650974 L8.68026742,16.5113279 L8,17.4924576 L12.5100708,22.508006 L6.95652174,26.9565217 L15.3347461,39.4053195 C16.9164266,39.8004998 18.5407843,40 20.1713715,40 C31.1230813,40 40,31.1355089 40,20.1991316 C40,19.6381197 39.9752461,19.0815823 39.9283066,18.5318113 L26.9565217,10.4347826 L22.2999325,11.2700323 Z" id="Fill-3" fill="#4E9CF9"></path>
                    <g id="xwtubiaoku-16" transform="translate(8.000000, 8.000000)">
                        <g id="编组">
                            <mask id="mask-3" fill="white">
                                <use xlink:href="#path-2"></use>
                            </mask>
                            <g id="Clip-2"></g>
                            <path d="M-0.00209280619,12.4999128 C-0.00209280619,19.4035723 5.59480342,25 12.4988664,25 C19.4031038,25 25,19.4035723 25,12.4999128 C25,5.59642774 19.4031038,0 12.4988664,0 C5.59480342,0 -0.00209280619,5.59642774 -0.00209280619,12.4999128 Z" id="Fill-1" fill="#FFFFFF" mask="url(#mask-3)"></path>
                        </g>
                        <path d="M18.806517,20.1923077 C18.4523943,20.1923077 18.0981175,20.0638642 17.8271457,19.8069408 L11.9695879,14.2530664 C11.7109732,14.0078595 11.566152,13.6749431 11.5631494,13.3274633 L11.5384615,5.16314635 C11.5353169,4.43599362 12.1544062,3.84615385 12.9211653,3.84615385 L12.924322,3.84615385 C13.6880784,3.84615385 14.3070137,4.43314663 14.3101704,5.15730635 L14.3316895,12.781387 L19.7857344,17.952705 C20.3278321,18.4666978 20.3278321,19.298934 19.7857344,19.8099338 C19.5147626,20.0638642 19.1606398,20.1923077 18.806517,20.1923077 Z" id="Fill-3" fill="#6BBAFF"></path>
                    </g>
                </g>
            </g>
        </g>
    </g>
</svg>