<?xml version="1.0" encoding="UTF-8"?>
<svg width="21px" height="20px" viewBox="0 0 21 20" version="1.1" xmlns="http://www.w3.org/2000/svg" xmlns:xlink="http://www.w3.org/1999/xlink">
    <title>马来</title>
    <defs>
        <polygon id="path-1" points="0 0 20 0 20 8.00059575 0 8.00059575"></polygon>
        <polygon id="path-3" points="0 0 17.9998999 0 17.9998999 20.0015199 0 20.0015199"></polygon>
    </defs>
    <g id="页面-1" stroke="none" stroke-width="1" fill="none" fill-rule="evenodd">
        <g id="画板备份-17" transform="translate(-373.000000, -1537.000000)">
            <g id="马来" transform="translate(373.454545, 1537.000000)">
                <g id="编组" transform="translate(0.000000, 4.000298)">
                    <mask id="mask-2" fill="white">
                        <use xlink:href="#path-1"></use>
                    </mask>
                    <g id="Clip-2"></g>
                    <path d="M17.9998999,0 L9.99932856,0 L9.99932856,2.00019777 L19.1624376,2.00019777 C18.8536012,1.29069669 18.4635331,0.619455306 17.9998999,0 Z" id="Fill-1" fill="#ED4C5C" mask="url(#mask-2)"></path>
                    <path d="M19.8000095,8.00059575 C19.9302927,7.34173321 19.997241,6.67200561 20,6.00049564 L-0.00146495283,6.00049564 C0.00129404167,6.67200561 0.0682423862,7.34173321 0.198525525,8.00059575 L19.8000095,8.00059575 Z" id="Fill-3" fill="#FAFAFA" mask="url(#mask-2)"></path>
                </g>
                <path d="M9.99932856,0 L9.99932856,2.00019777 L15.9997021,2.00019777 C14.268665,0.701858903 12.163186,0 9.99932856,0 Z" id="Fill-4" fill="#ED4C5C"></path>
                <path d="M9.99932856,4.00029787 L17.9998999,4.00029787 C17.4370162,3.23730161 16.7627961,2.56300823 15.9997021,2.00019777 L9.99932856,2.00019777 L9.99932856,4.00029787 Z M19.1624376,6.00049564 L9.99932856,6.00049564 L9.99932856,8.00059575 L19.8000095,8.00059575 C19.6595205,7.31304455 19.4457839,6.64246239 19.1624376,6.00049564 Z" id="Fill-5" fill="#FAFAFA"></path>
                <path d="M9.99932856,8.00059575 L9.99932856,10.0007935 L20,10.0007935 C19.997241,9.32916147 19.9302927,8.65943387 19.8000095,8.00059575 L9.99932856,8.00059575 Z M0.83612183,14.001067 L19.1624376,14.001067 C19.4457839,13.359027 19.6595205,12.6884448 19.8000095,12.0008936 L0.198525525,12.0008936 C0.339014502,12.6884448 0.55275112,13.359027 0.83612183,14.001067 Z" id="Fill-6" fill="#ED4C5C"></path>
                <path d="M1.99873282,16.0011671 L17.9998999,16.0011671 C18.4635331,15.3817118 18.8536012,14.7104704 19.1624376,14.001067 L0.83612183,14.001067 C1.14493389,14.7104704 1.53512408,15.3817118 1.99873282,16.0011671 Z" id="Fill-7" fill="#FAFAFA"></path>
                <g id="编组">
                    <mask id="mask-4" fill="white">
                        <use xlink:href="#path-3"></use>
                    </mask>
                    <g id="Clip-9"></g>
                    <path d="M1.99873282,16.0011671 C2.56840414,16.7583524 3.2417453,17.4315959 3.99883292,18.0013648 L15.9997021,18.0013648 C16.7597441,17.4349408 17.4334759,16.761209 17.9998999,16.0011671 L1.99873282,16.0011671 Z" id="Fill-8" fill="#ED4C5C" mask="url(#mask-4)"></path>
                    <path d="M3.99883292,18.0013648 C7.55468852,20.6682382 12.4438709,20.6682382 15.9997021,18.0013648 L3.99883292,18.0013648 Z" id="Fill-10" fill="#FAFAFA" mask="url(#mask-4)"></path>
                    <path d="M9.99932856,0 C4.47599248,0 -0.00146495283,4.47745743 -0.00146495283,10.0007935 L9.99932856,10.0007935 L9.99932856,0 Z" id="Fill-11" fill="#2A5F9E" mask="url(#mask-4)"></path>
                </g>
                <path d="M5.96145465,7.86306109 C4.92587949,7.86306109 4.08638827,7.02356987 4.08638827,5.98789705 C4.08638827,4.95232189 4.92587949,4.11283067 5.96145465,4.11283067 C6.33294227,4.10911945 6.69610408,4.22289746 6.99903191,4.43787929 C6.5722179,3.93400876 5.94665863,3.64177508 5.28637997,3.63777088 C3.99539028,3.63777088 2.94875473,4.68440643 2.94875473,5.97539612 C2.94875473,7.26648347 3.99539028,8.31311902 5.28637997,8.31311902 C5.94875473,8.30596517 6.57461066,8.00897039 6.99903191,7.5005341 C6.70069427,7.72887141 6.33711739,7.85590724 5.96145465,7.86306109 Z M7.99913079,5.60039261 L8.22412313,5.00039676 L8.1616429,5.65046958 L8.62420175,5.20038724 L8.29917755,5.75042819 L8.8991734,5.5504133 L8.3741343,5.91294029 L8.99922968,6.00049564 L8.3741343,6.08795333 L8.8991734,6.45045591 L8.29917755,6.25046543 L8.62420175,6.80048197 L8.1616429,6.35052171 L8.22412313,7.00049686 L7.99913079,6.40050101 L7.77413846,7.00049686 L7.83659428,6.35052171 L7.37403542,6.80048197 L7.69908404,6.25046543 L7.09906377,6.45045591 L7.62410287,6.08795333 L6.99903191,6.00049564 L7.62410287,5.91294029 L7.09906377,5.5504133 L7.69908404,5.75042819 L7.37403542,5.20038724 L7.83659428,5.65046958 L7.77413846,5.00039676 L7.99913079,5.60039261 Z" id="Fill-12" fill="#FFE62E"></path>
            </g>
        </g>
    </g>
</svg>