<?xml version="1.0" encoding="UTF-8"?>
<svg width="40px" height="40px" viewBox="0 0 40 40" version="1.1" xmlns="http://www.w3.org/2000/svg" xmlns:xlink="http://www.w3.org/1999/xlink">
    <title>编组 13备份 4</title>
    <defs>
        <polygon id="path-1" points="0 0 26 0 26 26 0 26"></polygon>
    </defs>
    <g id="页面-1" stroke="none" stroke-width="1" fill="none" fill-rule="evenodd">
        <g id="微商中心" transform="translate(-16.000000, -687.000000)">
            <g id="huodongyouli备份-2" transform="translate(16.000000, 687.000000)">
                <path d="M0,19.9999449 C0,27.1453768 3.81188596,33.7480158 10.0000827,37.3204837 C16.1880038,40.8931721 23.8119962,40.8931721 29.9999724,37.3204837 C36.1878936,33.7480158 40,27.1453768 40,19.9999449 C40,8.95437409 31.0457057,0 19.9998898,0 C8.95434941,0 0,8.95437409 0,19.9999449 Z" id="Fill-1" fill="#FF7B93" opacity="0.300288609"></path>
                <g id="touzizhongxin" transform="translate(7.000000, 7.000000)">
                    <mask id="mask-2" fill="white">
                        <use xlink:href="#path-1"></use>
                    </mask>
                    <g id="Clip-2"></g>
                    <path d="M6.76090739,24.4080059 C11.8759792,22.445816 14.768862,21.0790687 18.1099532,13.1187172 C19.1222146,13.8510472 20.1171469,14.2167678 21.0973209,14.2167678 L18.596057,5.54925482 L9.83406376,9.44500665 C10.6834125,9.83837138 12.0121048,10.4182305 13.8208072,11.1842983 C11.1393015,16.4363555 7.02782651,19.0554017 1.48638233,19.0415003 C0.507096999,17.1784926 -0.00309621709,15.1047108 0,13.0000793 C0,5.82052224 5.82053321,0 13.0000864,0 C20.1795127,0 26,5.82052224 26,13.0000793 C26,20.1795095 20.1795127,26 13.0000864,26 C10.7388276,26 8.61299604,25.4229021 6.76090739,24.4080059 Z" id="Fill-1" fill="#FF9CAE" mask="url(#mask-2)"></path>
                </g>
            </g>
        </g>
    </g>
</svg>