<?xml version="1.0" encoding="UTF-8"?>
<svg width="41px" height="35px" viewBox="0 0 41 35" version="1.1" xmlns="http://www.w3.org/2000/svg" xmlns:xlink="http://www.w3.org/1999/xlink">
    <title>编组 23</title>
    <defs>
        <filter x="-27.6%" y="-35.7%" width="155.2%" height="171.5%" filterUnits="objectBoundingBox" id="filter-1">
            <feOffset dx="0" dy="2" in="SourceAlpha" result="shadowOffsetOuter1"></feOffset>
            <feGaussianBlur stdDeviation="1" in="shadowOffsetOuter1" result="shadowBlurOuter1"></feGaussianBlur>
            <feColorMatrix values="0 0 0 0 0.130763508   0 0 0 0 0.141197352   0 0 0 0 0.165046139  0 0 0 1 0" type="matrix" in="shadowBlurOuter1" result="shadowMatrixOuter1"></feColorMatrix>
            <feMerge>
                <feMergeNode in="shadowMatrixOuter1"></feMergeNode>
                <feMergeNode in="SourceGraphic"></feMergeNode>
            </feMerge>
        </filter>
        <linearGradient x1="62.2100178%" y1="79.780355%" x2="31.9885889%" y2="28.3806471%" id="linearGradient-2">
            <stop stop-color="#CA962E" offset="0%"></stop>
            <stop stop-color="#FFD37D" offset="100%"></stop>
        </linearGradient>
    </defs>
    <g id="页面-1" stroke="none" stroke-width="1" fill="none" fill-rule="evenodd">
        <g id="gongneng备份-2" transform="translate(-24.000000, -277.000000)" fill-rule="nonzero">
            <g id="编组-23" filter="url(#filter-1)" transform="translate(30.000000, 283.000000)">
                <g id="面性办卡图标">
                    <path d="M25.960677,22.3809198 L3.03436485,22.3809198 C1.36348094,22.3809198 0,21.0174389 0,19.346555 L0,3.03436485 C0,1.36348094 1.36348094,0 3.03436485,0 L25.9656352,0 C27.6365191,0 29,1.36348094 29,3.03436485 L29,19.3415969 C28.9950419,21.0124808 27.631561,22.3809198 25.960677,22.3809198 Z" id="路径" fill="url(#linearGradient-2)"></path>
                    <path d="M21.6633474,14.4153545 L20.7801546,14.4153545 L20.7801546,13.3765847 C20.7801546,13.1504739 20.8245468,12.939672 20.9133483,12.7441789 C21.0021412,12.5486514 21.1247914,12.3767046 21.2813331,12.2283385 C21.4378835,12.0799293 21.6224669,11.9633294 21.8350834,11.8785389 C22.0476999,11.7937484 22.2801546,11.7513532 22.5325279,11.7513532 C22.7568185,11.7513532 22.9729467,11.7937484 23.1808867,11.8785389 C23.3888182,11.9633294 23.5734016,12.0799293 23.7346284,12.2283385 C23.8958209,12.3767046 24.0243295,12.5486514 24.1201543,12.7441789 C24.2159362,12.939672 24.2638486,13.1504739 24.2638486,13.3765847 L24.2638486,14.4153545 L23.4156865,14.4153545 L23.4156865,13.5744349 C23.4156865,13.2776596 23.3339168,13.048 23.1703775,12.8854993 C23.0068125,12.7229641 22.7848516,12.6417137 22.5044863,12.6417137 C22.2521198,12.6417137 22.0488733,12.7229641 21.8946698,12.8854993 C21.740432,13.048 21.6633474,13.2776596 21.6633474,13.5744349 L21.6633474,14.4153545 Z M24.7249433,14.8252008 C24.8506845,14.8252008 24.9589602,14.8700533 25.0497875,14.9597078 C25.1405892,15.0494044 25.1860029,15.1563221 25.1860029,15.2804863 L25.1860029,17.4190011 C25.1860029,17.5431737 25.1639021,17.6593047 25.1196494,17.7673688 C25.0753967,17.8754413 25.014848,17.9697403 24.9380204,18.0502152 C24.8611587,18.1306901 24.770357,18.1939439 24.6655556,18.2399091 C24.5607456,18.285908 24.4455042,18.3088948 24.319763,18.3088948 L20.7917964,18.3088948 C20.6660467,18.3088948 20.5519406,18.285908 20.4494697,18.2399091 C20.3470328,18.1939439 20.2597055,18.1329914 20.1875131,18.057102 C20.1153208,17.981238 20.059433,17.8926962 20.0198497,17.7915104 C19.9802664,17.6903583 19.9604619,17.5822521 19.9604619,17.4673096 L19.9604619,15.2804863 C19.9604619,15.1563221 20.0047146,15.0494044 20.0932115,14.9597078 C20.1816742,14.8700533 20.2888146,14.8252008 20.4145558,14.8252008 L24.7249433,14.8252008 Z" id="suoding" fill="#171E25"></path>
                    <circle id="椭圆形备份" fill="#171E25" cx="9.43032997" cy="15.86596" r="1.44776885"></circle>
                    <circle id="椭圆形备份-3" fill="#171E25" cx="3.63925457" cy="15.86596" r="1.44776885"></circle>
                    <circle id="椭圆形备份-2" fill="#171E25" cx="15.2214054" cy="15.86596" r="1.44776885"></circle>
                    <rect id="矩形" fill="#171E25" x="0" y="4.58625406" width="29" height="4.47717559"></rect>
                </g>
            </g>
        </g>
    </g>
</svg>