<?xml version="1.0" encoding="UTF-8"?>
<svg width="20px" height="20px" viewBox="0 0 20 20" version="1.1" xmlns="http://www.w3.org/2000/svg" xmlns:xlink="http://www.w3.org/1999/xlink">
    <title>俄</title>
    <g id="页面-1" stroke="none" stroke-width="1" fill="none" fill-rule="evenodd">
        <g id="画板备份-17" transform="translate(-488.000000, -1537.000000)">
            <g id="俄" transform="translate(488.000000, 1537.000000)">
                <path d="M10.0002939,0 C15.5226209,0 20,4.47661972 20,9.99973056 C20,15.5220576 15.5226209,19.9993386 10.0002939,19.9993386 C4.4771831,19.9993386 0,15.5220576 0,9.99973056 C0,4.47661972 4.4771831,0 10.0002939,0" id="Fill-1" fill="#F3F3F3"></path>
                <path d="M19.3781506,13.4777955 C19.7801102,12.3941702 20,11.2231231 20,9.99973056 C20,8.77621555 19.7800367,7.60507042 19.3781506,6.52154317 L0.622412737,6.52154317 C0.220453154,7.60507042 0,8.77621555 0,9.99973056 C0,11.2231231 0.220453154,12.3941702 0.622412737,13.4777955 L9.99960808,14.3471647 L19.3781506,13.4777955 Z" id="Fill-2" fill="#0A4FA2"></path>
                <path d="M10.0002939,19.9993386 C14.2992284,19.9993386 17.9651194,17.2860502 19.3781506,13.4777955 L0.622412737,13.4777955 C2.03478261,17.2860502 5.70001225,19.9993386 10.0002939,19.9993386" id="Fill-3" fill="#CB1428"></path>
            </g>
        </g>
    </g>
</svg>