<?xml version="1.0" encoding="UTF-8"?>
<svg width="34px" height="34px" viewBox="0 0 34 34" version="1.1" xmlns="http://www.w3.org/2000/svg" xmlns:xlink="http://www.w3.org/1999/xlink">
    <title>编组 7</title>
    <g id="页面-1" stroke="none" stroke-width="1" fill="none" fill-rule="evenodd">
        <g id="gongneng备份-2" transform="translate(-12.000000, -423.000000)">
            <g id="编组-7" transform="translate(12.000000, 423.000000)">
                <g id="编组-13备份-6" opacity="0.596987043" fill="#FF6E20">
                    <g id="huodongyouli备份-2" opacity="0.263593401">
                        <path d="M0,16.9999532 C0,23.0735703 3.24010307,28.6858134 8.50007027,31.7224112 C13.7598032,34.7591963 20.2401968,34.7591963 25.4999766,31.7224112 C30.7597095,28.6858134 34,23.0735703 34,16.9999532 C34,7.61121798 26.3888498,0 16.9999063,0 C7.611197,0 0,7.61121798 0,16.9999532 Z" id="Fill-1"></path>
                    </g>
                </g>
                <g id="分享" transform="translate(7.000000, 6.000000)" fill="#FF8543" fill-rule="nonzero">
                    <path d="M9.59940223,1.27681848 C8.0784218,3.14059548 6.80583005,5.28872377 5.84635443,7.52616757 C5.2530577,8.90964604 5.39737931,8.85724157 4.69932934,7.46669987 C4.04679444,6.16684073 3.50450201,4.80204559 3.1090471,3.38256751 C3.06193102,3.21305039 3.1090471,3.04330542 3.23667222,2.92209154 C4.81803443,1.42172828 6.86758414,0.406448299 9.14425169,0.117312224 C11.2914644,-0.155418961 10.660429,-0.0230406649 9.59940223,1.27681848 Z M6.87444571,10.4138827 L8.60927827,7.42044722 C8.64187505,7.362264 8.70387334,7.32657175 8.77075378,7.32746904 L12.2404189,7.32746904 C12.3088059,7.32746904 12.3675866,7.36120735 12.4018944,7.42044722 L14.136727,10.4138827 C14.1710348,10.4728947 14.1710348,10.5405648 14.136727,10.5995768 L12.4018944,13.5930123 C12.3692239,13.6511231 12.3072732,13.6867879 12.2404189,13.6859887 L8.77075378,13.6859887 C8.70388646,13.6868378 8.64191202,13.6511593 8.60927827,13.5930123 L6.87444571,10.5995768 C6.8401239,10.5424003 6.8401239,10.4710592 6.87444571,10.4138827 L6.87444571,10.4138827 Z M9.57630162,4.51313737 C10.4811134,3.17522802 11.5899425,1.70334545 12.8453803,0.519915395 C12.9628554,0.406100741 13.1326786,0.363981084 13.2900098,0.409638124 C15.863097,1.1170987 18.0411867,2.77490328 19.4189891,4.9795373 C19.9891852,5.89228677 19.9068465,5.73735177 18.9622375,5.56532834 C15.7928803,4.98865113 12.5933321,5.13538369 9.74029305,5.18824387 C8.90455433,5.20396522 9.15202812,5.14016844 9.57630162,4.51313737 L9.57630162,4.51313737 Z M16.3317419,12.9580067 C16.9863353,14.5002935 17.473049,16.1009088 17.8174996,17.7085874 C17.8539,17.8677821 17.8015706,18.0341792 17.680497,18.1442282 C15.9758554,19.7380081 13.7382987,20.772655 11.2624171,20.9528809 C9.9177789,21.0503988 10.0316809,21.0900439 10.9033285,20.0925359 C12.7191275,18.014584 14.1708061,15.7787352 15.0868252,13.2892941 C15.6110488,11.8638921 15.7489663,11.5854648 16.3317419,12.9580067 L16.3317419,12.9580067 Z M10.7862244,17.1733781 C9.95894057,18.3443762 9.0305486,19.4411409 8.01163588,20.4511649 C7.89257903,20.5720511 7.71586443,20.6168517 7.5532833,20.5673661 C5.23841969,19.8984114 3.25222511,18.4577437 1.89454993,16.5436128 C1.14732541,15.4900548 1.10272523,15.5538515 2.30715877,15.7238244 C4.93490978,16.0943013 7.75478462,16.0516942 10.0378563,15.908835 C11.8655487,15.7942287 11.9174679,15.5759526 10.7862244,17.1733781 L10.7862244,17.1733781 Z M5.3246467,14.1505505 C4.02689588,14.1006523 2.73371943,13.9566539 1.46158513,13.7030618 C0.249146452,13.4610897 0.309299504,13.3476226 0.109399219,12.1147501 C-0.21172207,10.1343161 0.208663196,8.18555272 0.919750157,6.31926943 C1.57960406,4.58787072 1.51396175,4.77128644 2.12418368,6.25638405 C3.06421821,8.54509308 4.3640275,10.6351208 5.63730538,12.7547684 C6.35868467,13.9559704 6.95266756,14.213208 5.3246467,14.1505505 Z M15.8733893,6.97911028 C17.3989441,7.12174163 18.9135204,7.4024474 20.3944751,7.79092414 C20.5630273,7.83277339 20.6931062,7.96633061 20.7300056,8.13542671 C21.2505698,10.3737819 21.0147606,12.7629708 20.0539127,14.8559605 C19.3727879,16.3399189 19.4420897,16.2934384 19.0036357,14.8621123 C18.2175289,12.294976 17.0499192,9.82695243 15.5422044,7.7266717 C14.9205466,6.86108627 14.6895405,6.86814947 15.8733893,6.97911028 Z" id="形状"></path>
                </g>
            </g>
        </g>
    </g>
</svg>