<?xml version="1.0" encoding="UTF-8"?>
<svg width="18px" height="23px" viewBox="0 0 18 23" version="1.1" xmlns="http://www.w3.org/2000/svg" xmlns:xlink="http://www.w3.org/1999/xlink">
    <title>suo</title>
    <g id="页面-1" stroke="none" stroke-width="1" fill="none" fill-rule="evenodd">
        <g id="修改安全密码" transform="translate(-35.000000, -186.000000)" fill="#828CA3">
            <path d="M50.8554379,194.873239 L37.1441652,194.873239 C35.9599264,194.873239 35,195.818608 35,196.985198 L35,205.94438 C35,207.110969 35.9599264,208.056338 37.1441652,208.056338 L50.8554379,208.056338 C52.039776,208.056338 53,207.110969 53,205.94438 L53,196.985198 C53,195.818608 52.0396768,194.873239 50.8554379,194.873239 Z M44.7603278,201.506001 L44.7603278,203.866037 C44.7603278,204.359738 44.3633908,204.760563 43.8730282,204.760563 C43.3830556,204.760563 42.9857611,204.359738 42.9857611,203.866037 L42.9857611,201.506001 C42.4560461,201.196546 42.0985915,200.619927 42.0985915,199.957935 C42.0985915,198.969878 42.8929529,198.169014 43.8730282,198.169014 C44.853136,198.169014 45.6478873,198.969878 45.6478873,199.957935 C45.6478873,200.619927 45.2906603,201.196546 44.7603278,201.506001 Z M43.8730902,186 C40.3729062,186 37.5352113,188.797389 37.5352113,192.472702 L37.5352113,195.283817 C37.5352113,194.925592 37.5352113,194.746479 37.5352113,194.746479 C37.5352113,194.746479 41.7605634,194.746479 50.2112676,194.746479 L50.2112676,192.472702 C50.2112676,188.797389 47.3735727,186 43.8730902,186 Z M39.5633803,194.555712 L39.5633803,191.822797 C39.5633803,189.30743 41.5497508,187.267606 44,187.267606 C46.4505417,187.267606 48.4366197,189.30743 48.4366197,191.822797 L48.4366197,194.619718 L39.5633803,194.555712 Z" id="suo"></path>
        </g>
    </g>
</svg>