<?xml version="1.0" encoding="UTF-8"?>
<svg width="50px" height="50px" viewBox="0 0 50 50" version="1.1" xmlns="http://www.w3.org/2000/svg" xmlns:xlink="http://www.w3.org/1999/xlink">
    <title>编组 13备份 5</title>
    <defs>
        <filter x="-16.3%" y="-16.3%" width="132.5%" height="132.5%" filterUnits="objectBoundingBox" id="filter-1">
            <feOffset dx="0" dy="0" in="SourceAlpha" result="shadowOffsetOuter1"></feOffset>
            <feGaussianBlur stdDeviation="1.5" in="shadowOffsetOuter1" result="shadowBlurOuter1"></feGaussianBlur>
            <feColorMatrix values="0 0 0 0 0.485543514   0 0 0 0 0.485543514   0 0 0 0 0.485543514  0 0 0 0.5 0" type="matrix" in="shadowBlurOuter1" result="shadowMatrixOuter1"></feColorMatrix>
            <feMerge>
                <feMergeNode in="shadowMatrixOuter1"></feMergeNode>
                <feMergeNode in="SourceGraphic"></feMergeNode>
            </feMerge>
        </filter>
        <linearGradient x1="62.2100178%" y1="100%" x2="31.9885889%" y2="13.7019894%" id="linearGradient-2">
            <stop stop-color="#CA962E" offset="0%"></stop>
            <stop stop-color="#FFD37D" offset="100%"></stop>
        </linearGradient>
    </defs>
    <g id="页面-1" stroke="none" stroke-width="1" fill="none" fill-rule="evenodd">
        <g id="gongneng" transform="translate(-22.000000, -132.000000)">
            <g id="编组-13备份-5" filter="url(#filter-1)" transform="translate(27.000000, 137.000000)">
                <g id="huodongyouli备份-2">
                    <path d="M0,19.9999449 C0,27.1453768 3.81188596,33.7480158 10.0000827,37.3204837 C16.1880038,40.8931721 23.8119962,40.8931721 29.9999724,37.3204837 C36.1878936,33.7480158 40,27.1453768 40,19.9999449 C40,8.95437409 31.0457057,0 19.9998898,0 C8.95434941,0 0,8.95437409 0,19.9999449 Z" id="Fill-1" fill="url(#linearGradient-2)" fill-rule="nonzero"></path>
                    <path d="M22.2999325,11.2700323 L16.498452,8.07825028 L16.3911305,14.2650974 L8.68026742,16.5113279 L8,17.4924576 L12.5100708,22.508006 L12.3529412,23.5294118 L15.3347461,39.4053195 C16.9164266,39.8004998 18.5407843,40 20.1713715,40 C31.1230813,40 40,31.1355089 40,20.1991316 C40,19.6381197 39.9752461,19.0815823 39.9283066,18.5318113 L25.4155344,8 L22.2999325,11.2700323 Z" id="Fill-3" fill="#E1B050"></path>
                    <path d="M26,9.11764706 L28.000057,9.11764706 C29.0608227,9.11764706 30.078317,9.53405902 30.8284238,10.2754804 C31.5784964,11.0167328 32,12.0221272 32,13.0705882 L32,14.0588235 L8,14.0588235 L8,13.0705882 C8,12.0221272 8.42136684,11.0167328 9.1715762,10.2754804 C9.92168301,9.53405902 10.9391773,9.11764706 11.999943,9.11764706 L14,9.11764706 L14,10.105781 C14,11.1974775 14.8954729,12.0823192 16.000057,12.0823192 C17.1046068,12.0823192 17.999943,11.1974775 17.999943,10.105781 L17.999943,9.11764706 L22.000057,9.11764706 L22.000057,10.105781 C22.000057,11.1974775 22.8953932,12.0823192 23.999943,12.0823192 C25.1045271,12.0823192 26,11.1974775 26,10.105781 L26,9.11764706 Z M8,16 L32,16 L32,27.0000706 C32,29.209197 30.2091567,31 28.000057,31 L11.999943,31 C9.79084327,31 8,29.209197 8,27.0000706 L8,16 Z M16.0294947,7 C16.5654904,7 17,7.45421923 17,8.01466687 L17,10.0439312 C17.0001326,10.4065922 16.8150754,10.7416122 16.5148303,10.9228907 C16.2144192,11.1041345 15.8444043,11.1041345 15.5440264,10.9228907 C15.2437481,10.7416122 15.0586909,10.4065922 15.0588235,10.0439312 L15.0588235,8.01466687 C15.0588235,7.74550634 15.1610728,7.4874091 15.3431442,7.29721759 C15.5250828,7.10688735 15.7719806,7 16.0294947,7 Z M23.9705882,7 C24.5066708,7 24.9411765,7.45421923 24.9411765,8.01466687 L24.9411765,10.0439312 C24.9413091,10.4065922 24.7562677,10.7416122 24.456015,10.9228907 C24.1556296,11.1041345 23.7856795,11.1041345 23.4852941,10.9228907 C23.1849419,10.7416122 23,10.4065922 23,10.0439312 L23,8.01466687 C23,7.45421923 23.4346383,7 23.9705882,7 Z M23.0980182,20.3560514 C23.4003538,20.1820204 23.5675909,19.8445316 23.5219839,19.500473 C23.476377,19.1564145 23.2267786,18.8734686 22.8894454,18.7832367 L19.8367747,17.9702935 C19.4991659,17.8807459 19.1405793,18.0018422 18.9277008,18.2771917 C18.7149601,18.5524043 18.689952,18.9280116 18.8641817,19.2287506 L19.549492,20.4080623 L15.0588235,22.9838651 L15.9234616,24.4705882 L23.099086,20.3560514 L23.0980182,20.3560514 Z M17.0784609,25.7616083 C16.7761256,25.9356399 16.6088542,26.2731297 16.6544956,26.6171894 C16.7001025,26.9612148 16.9497006,27.2441957 17.2870334,27.334428 L20.339701,28.1473394 C20.6773094,28.2369215 21.0358956,28.1157906 21.2487739,27.8404745 C21.4614799,27.565261 21.4865224,27.1897895 21.3121551,26.8889126 L20.6268455,25.7095973 L25.1176471,23.1337865 L24.2530099,21.6470588 L17.0773931,25.7616083 L17.0784609,25.7616083 Z" id="tab_jiaoyiri" fill="#FFFFFF"></path>
                </g>
            </g>
        </g>
    </g>
</svg>