<?xml version="1.0" encoding="UTF-8"?>
<svg width="21px" height="26px" viewBox="0 0 21 26" version="1.1" xmlns="http://www.w3.org/2000/svg" xmlns:xlink="http://www.w3.org/1999/xlink">
    <title>emiyanzhengma</title>
    <g id="页面-1" stroke="none" stroke-width="1" fill="none" fill-rule="evenodd">
        <g id="gongneng备份-7" transform="translate(-34.000000, -349.000000)" fill="#828CA3">
            <path d="M54.1825397,352.116144 C53.9514581,352.123928 53.72496,352.126699 53.5039683,352.126699 C47.6739264,352.126699 45.1053279,349.619916 45.0832103,349.596906 L44.5016304,349 L43.9177433,349.596906 C43.8938415,349.622718 41.3766765,352.126699 35.4977236,352.126699 C35.2759936,352.126699 35.0509413,352.123928 34.8175834,352.116144 L34,352.089989 L34,363.4564 C34,366.432682 35.0587548,370.774926 44.2141934,374.095632 L44.4999385,374.2 L44.7855605,374.095632 C53.9409991,370.774801 55,366.432682 55,363.4564 L55,352.089989 L54.1825397,352.116144 Z M43.5812399,366.64 L38.2,362.150335 L39.6287152,361.060821 L42.4901936,363.047441 C42.4901936,363.047441 46.4403962,359.198497 50.2558889,357.4 L50.8,357.978813 C50.8,357.978813 46.0323442,361.700284 43.5812399,366.64 Z" id="emiyanzhengma"></path>
        </g>
    </g>
</svg>