<?xml version="1.0" encoding="UTF-8"?>
<svg width="37px" height="31px" viewBox="0 0 37 31" version="1.1" xmlns="http://www.w3.org/2000/svg" xmlns:xlink="http://www.w3.org/1999/xlink">
    <title>编组 12</title>
    <defs>
        <filter x="-32.0%" y="-43.8%" width="164.0%" height="187.6%" filterUnits="objectBoundingBox" id="filter-1">
            <feOffset dx="0" dy="2" in="SourceAlpha" result="shadowOffsetOuter1"></feOffset>
            <feGaussianBlur stdDeviation="1" in="shadowOffsetOuter1" result="shadowBlurOuter1"></feGaussianBlur>
            <feColorMatrix values="0 0 0 0 0.130763508   0 0 0 0 0.141197352   0 0 0 0 0.165046139  0 0 0 1 0" type="matrix" in="shadowBlurOuter1" result="shadowMatrixOuter1"></feColorMatrix>
            <feMerge>
                <feMergeNode in="shadowMatrixOuter1"></feMergeNode>
                <feMergeNode in="SourceGraphic"></feMergeNode>
            </feMerge>
        </filter>
        <linearGradient x1="62.2100178%" y1="76.7011834%" x2="31.9885889%" y2="30.6160032%" id="linearGradient-2">
            <stop stop-color="#CA962E" offset="0%"></stop>
            <stop stop-color="#FFD37D" offset="100%"></stop>
        </linearGradient>
        <polygon id="path-3" points="0 0 5.15322503 0 5.15322503 9.72195703 0 9.72195703"></polygon>
    </defs>
    <g id="页面-1" stroke="none" stroke-width="1" fill="none" fill-rule="evenodd">
        <g id="画板备份-13" transform="translate(-217.000000, -268.000000)">
            <g id="编组-12" filter="url(#filter-1)" transform="translate(223.000000, 274.000000)">
                <path d="M25,15.8280063 C25,16.1678967 24.9404099,16.4852566 24.8210617,16.7803806 C24.7017136,17.0754718 24.5319508,17.3347696 24.3117734,17.5583723 C24.0914951,17.7820076 23.8344142,17.9563574 23.5407323,18.0814544 C23.2471848,18.2066823 22.9259093,18.2692308 22.5770739,18.2692308 L2.58808441,18.2692308 C2.23938336,18.2692308 1.90893239,18.2066823 1.59686596,18.0814544 C1.28490035,17.9563574 1.00960297,17.7820076 0.770940212,17.5583723 C0.53224384,17.3347696 0.344096516,17.0754718 0.206531851,16.7803806 C0.0687991374,16.4852566 0,16.1678967 0,15.8280063 L0,2.44125717 C0,1.7617384 0.243132858,1.18494976 0.729566623,0.710989503 C1.21600039,0.237061997 1.80796873,0 2.50550528,0 L22.4944947,0 C23.1920313,0 23.7839996,0.237061997 24.2704334,0.710989503 C24.7568671,1.18494976 25,1.7617384 25,2.44125717 L25,6.08983092 L18.7500336,6.08983092 C18.0524971,6.08983092 17.4605287,6.32227546 16.974095,6.78726279 C16.4876612,7.25228287 16.2445283,7.82458505 16.2445283,8.50423482 C16.2629129,8.96922215 16.3638765,9.38063393 16.5474193,9.73830642 C16.694193,10.0423706 16.9374603,10.3195815 17.2769859,10.5699064 C17.6166124,10.8202641 18.1076507,10.945492 18.7500336,10.945492 L25,10.945492 L25,15.8280063 Z M17.3076923,8.64325655 C17.3076923,8.37561435 17.4002909,8.15020158 17.5854359,7.96699243 C17.7706852,7.78388647 17.9986082,7.69230769 18.2692308,7.69230769 C18.5398534,7.69230769 18.7677763,7.78388647 18.9530257,7.96699243 C19.1381706,8.15020158 19.2307692,8.37561435 19.2307692,8.64325655 C19.2307692,8.91089875 19.1381706,9.13984569 18.9530257,9.33009738 C18.7677763,9.52024587 18.5398534,9.61538462 18.2692308,9.61538462 C17.9986082,9.61538462 17.7706852,9.52024587 17.5854359,9.33009738 C17.4002909,9.13984569 17.3076923,8.91089875 17.3076923,8.64325655 Z" id="licai" fill="url(#linearGradient-2)" fill-rule="nonzero"></path>
                <g id="michi" transform="translate(6.250000, 4.166667)">
                    <mask id="mask-4" fill="white">
                        <use xlink:href="#path-3"></use>
                    </mask>
                    <g id="Clip-2"></g>
                    <path d="M3.44131828,4.73282583 C3.69155929,4.82438465 3.92042668,4.94945769 4.12793233,5.10813987 C4.33542611,5.26682206 4.51543444,5.45145877 4.66804039,5.6619788 C4.82061075,5.87253443 4.93807662,6.10446367 5.02046177,6.35771906 C5.10288251,6.61101006 5.14405135,6.87493445 5.14405135,7.14959906 C5.14405135,7.5096632 5.07691612,7.84529186 4.9426694,8.1565444 C4.80841081,8.46783254 4.6237741,8.73939969 4.38883048,8.97132894 C4.15383938,9.20321071 3.8807413,9.38632837 3.56950063,9.52057509 C3.25824809,9.65483367 2.92563381,9.72195703 2.57169338,9.72195703 C2.21770548,9.72195703 1.88507933,9.65483367 1.57383866,9.52057509 C1.26258612,9.38632837 0.989499906,9.20321071 0.754508809,8.97132894 C0.519565184,8.73939969 0.334964077,8.46783254 0.200669888,8.1565444 C0.0664113012,7.84529186 -0.000712058269,7.5096632 -0.000712058269,7.14959906 C-0.000712058269,6.86885822 0.0420351731,6.60183637 0.127470298,6.34858098 C0.212905422,6.09527812 0.331902227,5.86339635 0.484472579,5.65284072 C0.637031063,5.44228508 0.818617789,5.25768398 1.02917342,5.09900179 C1.23969345,4.94031961 1.47009177,4.8151991 1.72033278,4.72368775 L1.72033278,0.878810448 C1.72033278,0.768987328 1.7401636,0.662178587 1.77980151,0.558431697 C1.81948689,0.45467294 1.87595311,0.361595057 1.94920017,0.279209915 C2.02239976,0.196836641 2.10936581,0.129713281 2.21005085,0.0778398364 C2.31078336,0.0259545239 2.41907556,0 2.53506985,0 C2.6510048,0 2.76393724,0.0259545239 2.87376036,0.0778398364 C2.98363096,0.129713281 3.08125414,0.196836641 3.16670114,0.279209915 C3.25213626,0.361595057 3.31925962,0.45467294 3.36811869,0.558431697 C3.41693028,0.662178587 3.44131828,0.768987328 3.44131828,0.878810448 L3.44131828,4.73282583 Z M2.59000514,8.03754759 C2.83407498,8.03754759 3.04161623,7.9521006 3.21249835,7.78123035 C3.3833686,7.6103601 3.46881559,7.3997926 3.46881559,7.14959906 C3.46881559,6.90548175 3.3833686,6.69798797 3.21249835,6.52705839 C3.04161623,6.35618814 2.83407498,6.27075301 2.59000514,6.27075301 C2.33976413,6.27075301 2.1292085,6.35618814 1.95832639,6.52705839 C1.78745614,6.69798797 1.70202101,6.90548175 1.70202101,7.14959906 C1.70202101,7.3997926 1.78745614,7.6103601 1.95832639,7.78123035 C2.1292085,7.9521006 2.33976413,8.03754759 2.59000514,8.03754759 Z M4.56730788,1.15342759 C4.95791932,1.15342759 5.15322503,1.33654524 5.15322503,1.70273307 L5.15322503,2.29772896 C5.15322503,2.51134644 5.09982066,2.65937149 4.99301192,2.74174476 C4.88620318,2.8241299 4.7687373,2.86533434 4.64055494,2.86533434 L4.00892366,2.86533434 L4.00892366,1.15342759 L4.56730788,1.15342759 Z" id="Fill-1" fill="#202738" mask="url(#mask-4)"></path>
                </g>
            </g>
        </g>
    </g>
</svg>