<?xml version="1.0" encoding="UTF-8"?>
<svg width="43px" height="35px" viewBox="0 0 43 35" version="1.1" xmlns="http://www.w3.org/2000/svg" xmlns:xlink="http://www.w3.org/1999/xlink">
    <title>编组 24</title>
    <defs>
        <filter x="-25.8%" y="-35.3%" width="151.6%" height="170.6%" filterUnits="objectBoundingBox" id="filter-1">
            <feOffset dx="0" dy="2" in="SourceAlpha" result="shadowOffsetOuter1"></feOffset>
            <feGaussianBlur stdDeviation="1" in="shadowOffsetOuter1" result="shadowBlurOuter1"></feGaussianBlur>
            <feColorMatrix values="0 0 0 0 0.130763508   0 0 0 0 0.141197352   0 0 0 0 0.165046139  0 0 0 1 0" type="matrix" in="shadowBlurOuter1" result="shadowMatrixOuter1"></feColorMatrix>
            <feMerge>
                <feMergeNode in="shadowMatrixOuter1"></feMergeNode>
                <feMergeNode in="SourceGraphic"></feMergeNode>
            </feMerge>
        </filter>
        <linearGradient x1="62.2100178%" y1="76.7011834%" x2="31.9885889%" y2="30.6160032%" id="linearGradient-2">
            <stop stop-color="#CA962E" offset="0%"></stop>
            <stop stop-color="#FFD37D" offset="100%"></stop>
        </linearGradient>
        <polygon id="path-3" points="0 0 6.38999904 0 6.38999904 12.0552267 0 12.0552267"></polygon>
    </defs>
    <g id="页面-1" stroke="none" stroke-width="1" fill="none" fill-rule="evenodd">
        <g id="gongneng备份-2" transform="translate(-117.000000, -277.000000)">
            <g id="编组-24" filter="url(#filter-1)" transform="translate(123.000000, 283.000000)">
                <g id="编组-12">
                    <path d="M31,19.6267279 C31,20.0481919 30.9261083,20.4417181 30.7781166,20.8076719 C30.6301248,21.1735851 30.4196189,21.4951144 30.146599,21.7723816 C29.873454,22.0496894 29.5546736,22.2658832 29.1905081,22.4210034 C28.8265092,22.576286 28.4281276,22.6538462 27.9955716,22.6538462 L3.20922466,22.6538462 C2.77683536,22.6538462 2.36707617,22.576286 1.98011379,22.4210034 C1.59327644,22.2658832 1.25190769,22.0496894 0.955965863,21.7723816 C0.659982362,21.4951144 0.42667968,21.1735851 0.256099496,20.8076719 C0.0853109304,20.4417181 0,20.0481919 0,19.6267279 L0,3.0271589 C0,2.18455561 0.301484744,1.4693377 0.904662612,0.881626984 C1.50784048,0.293956876 2.24188123,0 3.10682654,0 L27.8931735,0 C28.7581188,0 29.4921595,0.293956876 30.0953374,0.881626984 C30.6985153,1.4693377 31,2.18455561 31,3.0271589 L31,7.55139034 L23.2500417,7.55139034 C22.3850964,7.55139034 21.6510556,7.83962157 21.0478777,8.41620586 C20.4446999,8.99283076 20.1432151,9.70248546 20.1432151,10.5452512 C20.1660119,11.1218355 20.2912069,11.6319861 20.5187999,12.0755 C20.7007994,12.4525395 21.0024508,12.7962811 21.4234626,13.1066839 C21.8445993,13.4171274 22.4534868,13.5724101 23.2500417,13.5724101 L31,13.5724101 L31,19.6267279 Z M21.4615385,10.7176381 C21.4615385,10.3857618 21.5763607,10.10625 21.8059405,9.87907061 C22.0356497,9.65201922 22.3182741,9.53846154 22.6538462,9.53846154 C22.9894182,9.53846154 23.2720426,9.65201922 23.5017518,9.87907061 C23.7313316,10.10625 23.8461538,10.3857618 23.8461538,10.7176381 C23.8461538,11.0495145 23.7313316,11.3334087 23.5017518,11.5693207 C23.2720426,11.8051049 22.9894182,11.9230769 22.6538462,11.9230769 C22.3182741,11.9230769 22.0356497,11.8051049 21.8059405,11.5693207 C21.5763607,11.3334087 21.4615385,11.0495145 21.4615385,10.7176381 Z" id="licai" fill="url(#linearGradient-2)" fill-rule="nonzero"></path>
                    <g id="michi" transform="translate(7.750000, 5.166667)">
                        <mask id="mask-4" fill="white">
                            <use xlink:href="#path-3"></use>
                        </mask>
                        <g id="Clip-2"></g>
                        <path d="M4.26723466,5.86870403 C4.57753352,5.98223697 4.86132909,6.13732753 5.11863609,6.33409344 C5.37592837,6.53085935 5.5991387,6.75980887 5.78837009,7.02085371 C5.97755732,7.28194269 6.12321501,7.56953495 6.22537259,7.88357164 C6.32757431,8.19765247 6.37862367,8.52491872 6.37862367,8.86550284 C6.37862367,9.31198236 6.29537599,9.72816191 6.12891006,10.1141151 C5.96242941,10.5001123 5.73347989,10.8368556 5.44214979,11.1244479 C5.15076083,11.4119813 4.81211921,11.6390472 4.42618078,11.8055131 C4.04022764,11.9719938 3.62778592,12.0552267 3.18889979,12.0552267 C2.74995479,12.0552267 2.33749836,11.9719938 1.95155993,11.8055131 C1.56560679,11.6390472 1.22697988,11.4119813 0.935590924,11.1244479 C0.644260828,10.8368556 0.415355456,10.5001123 0.248830661,10.1141151 C0.0823500135,9.72816191 -0.000882952253,9.31198236 -0.000882952253,8.86550284 C-0.000882952253,8.5173842 0.0521236147,8.1862771 0.158063169,7.87224042 C0.264002724,7.55814487 0.411558761,7.27061147 0.600745997,7.00952249 C0.789918518,6.74843351 1.01508606,6.51952813 1.27617504,6.32276222 C1.53721987,6.12599631 1.82291379,5.97084689 2.13321264,5.85737281 L2.13321264,1.08972496 C2.13321264,0.953544286 2.15780286,0.821101448 2.20695387,0.692455305 C2.25616375,0.563794446 2.32618186,0.44837787 2.41700821,0.346220294 C2.50777571,0.244077435 2.61561361,0.160844469 2.74046306,0.0965213972 C2.86537137,0.0321836096 2.99965369,0 3.14348661,0 C3.28724596,0 3.42728218,0.0321836096 3.56346285,0.0965213972 C3.69970239,0.160844469 3.82075514,0.244077435 3.92670941,0.346220294 C4.03264896,0.44837787 4.11588193,0.563794446 4.17646717,0.692455305 C4.23699355,0.821101448 4.26723466,0.953544286 4.26723466,1.08972496 L4.26723466,5.86870403 Z M3.21160638,9.96655902 C3.51425298,9.96655902 3.77160413,9.86060475 3.98349796,9.64872564 C4.19537706,9.43684653 4.30133133,9.17574283 4.30133133,8.86550284 C4.30133133,8.56279738 4.19537706,8.30550509 3.98349796,8.0935524 C3.77160413,7.88167329 3.51425298,7.77573374 3.21160638,7.77573374 C2.90130753,7.77573374 2.64021854,7.88167329 2.42832472,8.0935524 C2.21644561,8.30550509 2.11050606,8.56279738 2.11050606,8.86550284 C2.11050606,9.17574283 2.21644561,9.43684653 2.42832472,9.64872564 C2.64021854,9.86060475 2.90130753,9.96655902 3.21160638,9.96655902 Z M5.66346178,1.43025021 C6.14781995,1.43025021 6.38999904,1.6573161 6.38999904,2.11138901 L6.38999904,2.84918391 C6.38999904,3.11406959 6.32377762,3.29762064 6.19133478,3.3997635 C6.05889194,3.50192108 5.91323425,3.55301458 5.75428813,3.55301458 L4.97106533,3.55301458 L4.97106533,1.43025021 L5.66346178,1.43025021 Z" id="Fill-1" fill="#171E25" fill-rule="nonzero" mask="url(#mask-4)"></path>
                    </g>
                </g>
            </g>
        </g>
    </g>
</svg>