<?xml version="1.0" encoding="UTF-8"?>
<svg width="40px" height="40px" viewBox="0 0 40 40" version="1.1" xmlns="http://www.w3.org/2000/svg" xmlns:xlink="http://www.w3.org/1999/xlink">
    <title>编组 13备份 2</title>
    <defs>
        <polygon id="path-1" points="0 0 27 0 27 20 0 20"></polygon>
    </defs>
    <g id="页面-1" stroke="none" stroke-width="1" fill="none" fill-rule="evenodd">
        <g id="微商中心" transform="translate(-16.000000, -545.000000)">
            <g id="huodongyouli备份-2" transform="translate(16.000000, 545.000000)">
                <path d="M0,19.9999449 C0,27.1453768 3.81188596,33.7480158 10.0000827,37.3204837 C16.1880038,40.8931721 23.8119962,40.8931721 29.9999724,37.3204837 C36.1878936,33.7480158 40,27.1453768 40,19.9999449 C40,8.95437409 31.0457057,0 19.9998898,0 C8.95434941,0 0,8.95437409 0,19.9999449 Z" id="Fill-1" fill="#6BBAFF" opacity="0.250738235"></path>
                <g id="jinbitixian" transform="translate(7.000000, 10.000000)">
                    <mask id="mask-2" fill="white">
                        <use xlink:href="#path-1"></use>
                    </mask>
                    <g id="Clip-2"></g>
                    <path d="M1.50446923,11.6267306 C1.09246602,11.6267306 0.738772278,11.4755256 0.443256808,11.1734088 C0.147708543,10.8711617 0,10.5156267 0,10.1067061 L0,8.08007188 C0,7.67111872 0.147708543,7.32004336 0.443256808,7.02668303 C0.738772278,6.73335525 1.09246602,6.58674019 1.50446923,6.58674019 L21.2238548,6.58674019 C20.9552312,6.65780162 20.6955607,6.7511613 20.4447119,6.86672157 C20.1940272,6.98218419 19.9701031,7.16441134 19.773071,7.41337049 C19.1999133,8.05334653 18.6268868,8.74228106 18.0537619,9.48007643 C17.4806042,10.2178393 16.93424,10.9333364 16.4148989,11.6267306 L1.50446923,11.6267306 Z M4.86260851,4.88002891 C4.45076928,4.88002891 4.09707554,4.72885654 3.80152727,4.42670712 C3.50597901,4.12446004 3.35813929,3.76892503 3.35813929,3.36000443 L3.35813929,1.49333168 C3.35813929,1.08437853 3.50597901,0.733303168 3.80152727,0.439975391 C4.09707554,0.146615061 4.45076928,0 4.86260851,0 L25.3074844,0 C25.7193236,0 26.0776415,0.146615061 26.3820116,0.439975391 C26.6865129,0.733303168 26.8387143,1.08437853 26.8387143,1.49333168 L26.8387143,3.36000443 C26.8387143,3.76892503 26.6865129,4.12446004 26.3820116,4.42670712 C26.0776415,4.72885654 25.7193236,4.88002891 25.3074844,4.88002891 L4.86260851,4.88002891 Z M18.4298874,16.5867402 L18.4298874,16.8001198 C18.4298874,16.9066631 18.4343475,17.0801012 18.4432021,17.3200434 C18.4521552,17.5599855 18.4566481,17.9111911 18.4566481,18.3734322 L1.50446923,18.3734322 C1.09246602,18.3734322 0.738772278,18.2266869 0.443256808,17.9333266 C0.147708543,17.6400965 0,17.2800042 0,16.8533752 L0,14.8533361 C0,14.4445132 0.147708543,14.0933076 0.443256808,13.8000775 C0.738772278,13.5067497 1.09246602,13.3600044 1.50446923,13.3600044 L15.0715841,13.3600044 C15.0179316,13.3956165 14.9686079,13.4444448 14.9238756,13.5067497 C14.8790449,13.5689244 14.8388382,13.6178829 14.8029605,13.6533648 C14.6238672,13.9023239 14.5163981,14.195554 14.4805204,14.5334132 C14.4447739,14.8711422 14.4805204,15.1956549 14.5879895,15.5066586 C14.6954914,15.8178249 14.8700918,16.0800328 15.1119547,16.2933799 C15.3536865,16.5067595 15.6536948,16.613433 16.0118815,16.613433 L17.274619,16.613433 L18.4298874,16.5867402 Z M26.4358281,13.6000768 L26.8387143,14.2667457 C26.9461835,14.4445132 27,14.5867011 27,14.6933747 C27,14.8000482 26.9327375,14.8756018 26.7984749,14.9201007 C26.6641139,14.9644693 26.4447812,14.986735 26.1402799,14.986735 L24.689496,14.986735 C24.2954317,14.986735 24.0000146,15.0845218 23.8029824,15.2800628 C23.605983,15.4756363 23.5074669,15.7333845 23.5074669,16.0534377 L23.5074669,18.6400672 C23.5074669,18.9423143 23.3730731,19.2444311 23.1044495,19.5467108 C22.8357932,19.8489578 22.513353,20 22.1372603,20 L21.089461,20 C20.8208374,20 20.5835986,19.8977861 20.3775806,19.6934235 C20.1715954,19.4889632 20.0685864,19.1290011 20.0685864,18.6133744 C20.0685864,18.382319 20.0730793,18.2355737 20.0820652,18.173399 C20.0910182,18.1112243 20.0955111,18.0311134 20.0955111,17.9333266 C20.0955111,17.83567 20.0999712,17.6711187 20.108957,17.4400958 C20.1179101,17.2089102 20.122403,16.8088763 20.122403,16.2401245 C20.122403,15.7955592 20.0461875,15.4756363 19.893986,15.2800628 C19.7418174,15.0845218 19.4686681,14.986735 19.0746365,14.986735 L17.6238526,14.986735 C17.2119806,14.986735 16.9521789,14.9022946 16.8447097,14.7334138 C16.737339,14.5644354 16.8269021,14.3022275 17.1134645,13.9466925 C17.3820881,13.5911901 17.6821293,13.1777773 18.0133913,12.706682 C18.3448172,12.2355542 18.685065,11.7467505 19.0342659,11.2400431 C19.3836307,10.7333357 19.7238785,10.2400724 20.0551405,9.76005781 C20.3865665,9.28004323 20.7045137,8.85331658 21.0088838,8.47997552 C21.1343246,8.33782011 21.295479,8.22668694 21.4924784,8.14670621 C21.6895106,8.06672548 21.8954958,8.02219408 22.1104668,8.01330733 C22.3253067,8.00451824 22.5223388,8.02665373 22.7014322,8.08007188 C22.8805255,8.13332726 23.0148865,8.22222729 23.1044495,8.34670686 C23.3193878,8.72004792 23.5656124,9.13329796 23.8432218,9.58674996 C24.1208312,10.0400717 24.4118866,10.4978206 24.7163879,10.9600292 C25.0208892,11.4222703 25.3209304,11.8800191 25.6163146,12.3333409 C25.9118629,12.7866627 26.1849794,13.2089297 26.4358281,13.6000768 Z" id="Fill-1" fill="#7EEFFF" mask="url(#mask-2)"></path>
                </g>
            </g>
        </g>
    </g>
</svg>