<?xml version="1.0" encoding="UTF-8"?>
<svg width="16px" height="14px" viewBox="0 0 16 14" version="1.1" xmlns="http://www.w3.org/2000/svg" xmlns:xlink="http://www.w3.org/1999/xlink">
    <title>xiangji1fill</title>
    <defs>
        <linearGradient x1="15.1902667%" y1="16.3432841%" x2="97.7338607%" y2="78.4351549%" id="linearGradient-1">
            <stop stop-color="#FFE691" offset="0%"></stop>
            <stop stop-color="#FFC24A" offset="100%"></stop>
        </linearGradient>
    </defs>
    <g id="页面-1" stroke="none" stroke-width="1" fill="none" fill-rule="evenodd">
        <g id="个人资料" transform="translate(-201.000000, -186.000000)" fill="url(#linearGradient-1)">
            <path d="M215.284516,187.680954 L208.998422,187.680954 C208.998422,186.754477 208.22847,186 207.282961,186 L206.140297,186 C205.194788,186 204.424813,186.754477 204.424813,187.680954 L202.715462,187.680954 C201.769952,187.680954 201,188.435409 201,189.361975 L201,198.319068 C201,199.245545 201.769952,200 202.715462,200 L215.284516,200 C216.230025,200 217,199.245545 217,198.319068 L217,189.361975 C216.996934,188.435409 216.226981,187.680954 215.284516,187.680954 Z M208.499954,197 C206.569175,197 205,195.430825 205,193.500046 C205,191.569175 206.569175,190 208.499954,190 C210.430825,190 212,191.569175 212,193.500046 C212,195.430825 210.430825,197 208.499954,197 Z M214.000013,192 C213.446082,192 213,191.550418 213,191.000065 C213,190.449687 213.449663,190 214.000013,190 C214.553918,190 215,190.449687 215,191.000065 C215,191.550418 214.553918,192 214.000013,192 Z" id="xiangji1fill"></path>
        </g>
    </g>
</svg>